<?xml version="1.0" encoding="UTF-8" standalone="no"?>
<!DOCTYPE svg PUBLIC "-//W3C//DTD SVG 1.1//EN"
 "http://www.w3.org/Graphics/SVG/1.1/DTD/svg11.dtd">
<!-- Generated by graphviz version 2.43.0 (0)
 -->
<!-- Title: TUIO::TuioDispatcher::lockObjectList Pages: 1 -->
<svg width="485pt" height="284pt"
 viewBox="0.00 0.00 485.00 284.00" xmlns="http://www.w3.org/2000/svg" xmlns:xlink="http://www.w3.org/1999/xlink">
<g id="graph0" class="graph" transform="scale(1 1) rotate(0) translate(4 280)">
<title>TUIO::TuioDispatcher::lockObjectList</title>
<polygon fill="white" stroke="transparent" points="-4,4 -4,-280 481,-280 481,4 -4,4"/>
<!-- Node1 -->
<g id="node1" class="node">
<title>Node1</title>
<g id="a_node1"><a xlink:title=" ">
<polygon fill="#bfbfbf" stroke="black" points="358,-122.5 358,-152.5 477,-152.5 477,-122.5 358,-122.5"/>
<text text-anchor="start" x="366" y="-140.5" font-family="Helvetica,sans-Serif" font-size="10.00">TUIO::TuioDispatcher</text>
<text text-anchor="middle" x="417.5" y="-129.5" font-family="Helvetica,sans-Serif" font-size="10.00">::lockObjectList</text>
</a>
</g>
</g>
<!-- Node2 -->
<g id="node2" class="node">
<title>Node2</title>
<g id="a_node2"><a xlink:href="../../d4/dc1/classTUIO_1_1TuioDispatcher.html#a8bf67e3709379b154fa8e79ec72701aa" target="_top" xlink:title=" ">
<polygon fill="white" stroke="black" points="191,-245.5 191,-275.5 310,-275.5 310,-245.5 191,-245.5"/>
<text text-anchor="start" x="199" y="-263.5" font-family="Helvetica,sans-Serif" font-size="10.00">TUIO::TuioDispatcher</text>
<text text-anchor="middle" x="250.5" y="-252.5" font-family="Helvetica,sans-Serif" font-size="10.00">::copyTuioObjects</text>
</a>
</g>
</g>
<!-- Node1&#45;&gt;Node2 -->
<g id="edge1" class="edge">
<title>Node1&#45;&gt;Node2</title>
<path fill="none" stroke="midnightblue" d="M399.47,-161.02C382.23,-183.31 353.64,-216.29 322,-236.5 316.66,-239.91 310.78,-242.89 304.77,-245.49"/>
<polygon fill="midnightblue" stroke="midnightblue" points="402.48,-162.85 405.72,-152.77 396.9,-158.63 402.48,-162.85"/>
</g>
<!-- Node4 -->
<g id="node4" class="node">
<title>Node4</title>
<g id="a_node4"><a xlink:href="../../da/d8f/classTUIO_1_1TuioClient.html#ad780ef7e0f97d020cb9a30c436080a09" target="_top" xlink:title=" ">
<polygon fill="white" stroke="black" points="179,-196.5 179,-226.5 322,-226.5 322,-196.5 179,-196.5"/>
<text text-anchor="start" x="187" y="-214.5" font-family="Helvetica,sans-Serif" font-size="10.00">TUIO::TuioClient::copyTuio</text>
<text text-anchor="middle" x="250.5" y="-203.5" font-family="Helvetica,sans-Serif" font-size="10.00">Objects</text>
</a>
</g>
</g>
<!-- Node1&#45;&gt;Node4 -->
<g id="edge3" class="edge">
<title>Node1&#45;&gt;Node4</title>
<path fill="none" stroke="midnightblue" d="M381.8,-157.56C364.21,-167.29 342.32,-178.73 322,-187.5 314.76,-190.62 306.97,-193.62 299.29,-196.38"/>
<polygon fill="midnightblue" stroke="midnightblue" points="383.55,-160.59 390.57,-152.65 380.14,-154.48 383.55,-160.59"/>
</g>
<!-- Node5 -->
<g id="node5" class="node">
<title>Node5</title>
<g id="a_node5"><a xlink:href="../../da/d8f/classTUIO_1_1TuioClient.html#abf76327645ac8c08ace6fc018df5838e" target="_top" xlink:title=" ">
<polygon fill="white" stroke="black" points="182.5,-147.5 182.5,-177.5 318.5,-177.5 318.5,-147.5 182.5,-147.5"/>
<text text-anchor="start" x="190.5" y="-165.5" font-family="Helvetica,sans-Serif" font-size="10.00">TUIO::TuioClient::getTuio</text>
<text text-anchor="middle" x="250.5" y="-154.5" font-family="Helvetica,sans-Serif" font-size="10.00">Object</text>
</a>
</g>
</g>
<!-- Node1&#45;&gt;Node5 -->
<g id="edge4" class="edge">
<title>Node1&#45;&gt;Node5</title>
<path fill="none" stroke="midnightblue" d="M347.91,-147.89C338.24,-149.36 328.31,-150.86 318.67,-152.32"/>
<polygon fill="midnightblue" stroke="midnightblue" points="348.5,-151.34 357.86,-146.38 347.45,-144.42 348.5,-151.34"/>
</g>
<!-- Node6 -->
<g id="node6" class="node">
<title>Node6</title>
<g id="a_node6"><a xlink:href="../../d4/dc1/classTUIO_1_1TuioDispatcher.html#a6744a23752deddf8910c68a55f94e040" target="_top" xlink:title=" ">
<polygon fill="white" stroke="black" points="191,-98.5 191,-128.5 310,-128.5 310,-98.5 191,-98.5"/>
<text text-anchor="start" x="199" y="-116.5" font-family="Helvetica,sans-Serif" font-size="10.00">TUIO::TuioDispatcher</text>
<text text-anchor="middle" x="250.5" y="-105.5" font-family="Helvetica,sans-Serif" font-size="10.00">::getTuioObject</text>
</a>
</g>
</g>
<!-- Node1&#45;&gt;Node6 -->
<g id="edge5" class="edge">
<title>Node1&#45;&gt;Node6</title>
<path fill="none" stroke="midnightblue" d="M347.93,-127.53C335.41,-125.7 322.44,-123.82 310.23,-122.04"/>
<polygon fill="midnightblue" stroke="midnightblue" points="347.46,-130.99 357.86,-128.97 348.47,-124.07 347.46,-130.99"/>
</g>
<!-- Node7 -->
<g id="node7" class="node">
<title>Node7</title>
<g id="a_node7"><a xlink:href="../../d4/dc1/classTUIO_1_1TuioDispatcher.html#ad12279b4d662eb77ea8107bc5a5cac42" target="_top" xlink:title=" ">
<polygon fill="white" stroke="black" points="191,-49.5 191,-79.5 310,-79.5 310,-49.5 191,-49.5"/>
<text text-anchor="start" x="199" y="-67.5" font-family="Helvetica,sans-Serif" font-size="10.00">TUIO::TuioDispatcher</text>
<text text-anchor="middle" x="250.5" y="-56.5" font-family="Helvetica,sans-Serif" font-size="10.00">::getTuioObjects</text>
</a>
</g>
</g>
<!-- Node1&#45;&gt;Node7 -->
<g id="edge6" class="edge">
<title>Node1&#45;&gt;Node7</title>
<path fill="none" stroke="midnightblue" d="M380.04,-117.59C362.71,-108.49 341.55,-97.89 322,-89.5 313.88,-86.02 305.11,-82.62 296.59,-79.51"/>
<polygon fill="midnightblue" stroke="midnightblue" points="378.77,-120.88 389.24,-122.47 382.05,-114.69 378.77,-120.88"/>
</g>
<!-- Node9 -->
<g id="node9" class="node">
<title>Node9</title>
<g id="a_node9"><a xlink:href="../../da/d8f/classTUIO_1_1TuioClient.html#add32552b6ca36fd595fab795075244be" target="_top" xlink:title=" ">
<polygon fill="white" stroke="black" points="182.5,-0.5 182.5,-30.5 318.5,-30.5 318.5,-0.5 182.5,-0.5"/>
<text text-anchor="start" x="190.5" y="-18.5" font-family="Helvetica,sans-Serif" font-size="10.00">TUIO::TuioClient::getTuio</text>
<text text-anchor="middle" x="250.5" y="-7.5" font-family="Helvetica,sans-Serif" font-size="10.00">Objects</text>
</a>
</g>
</g>
<!-- Node1&#45;&gt;Node9 -->
<g id="edge8" class="edge">
<title>Node1&#45;&gt;Node9</title>
<path fill="none" stroke="midnightblue" d="M399.03,-114.19C381.64,-92.44 353.11,-60.42 322,-40.5 316.09,-36.72 309.54,-33.42 302.88,-30.57"/>
<polygon fill="midnightblue" stroke="midnightblue" points="396.42,-116.54 405.34,-122.26 401.93,-112.23 396.42,-116.54"/>
</g>
<!-- Node3 -->
<g id="node3" class="node">
<title>Node3</title>
<g id="a_node3"><a xlink:href="../../da/d8f/classTUIO_1_1TuioClient.html#afd6a6c84cebfb1ac69f488c7ae7f6473" target="_top" xlink:title=" ">
<polygon fill="white" stroke="black" points="0,-245.5 0,-275.5 143,-275.5 143,-245.5 0,-245.5"/>
<text text-anchor="start" x="8" y="-263.5" font-family="Helvetica,sans-Serif" font-size="10.00">TUIO::TuioClient::copyTuio</text>
<text text-anchor="middle" x="71.5" y="-252.5" font-family="Helvetica,sans-Serif" font-size="10.00">Objects</text>
</a>
</g>
</g>
<!-- Node2&#45;&gt;Node3 -->
<g id="edge2" class="edge">
<title>Node2&#45;&gt;Node3</title>
<path fill="none" stroke="midnightblue" d="M180.43,-260.5C168.2,-260.5 155.44,-260.5 143.16,-260.5"/>
<polygon fill="midnightblue" stroke="midnightblue" points="180.56,-264 190.56,-260.5 180.56,-257 180.56,-264"/>
</g>
<!-- Node8 -->
<g id="node8" class="node">
<title>Node8</title>
<g id="a_node8"><a xlink:href="../../da/d8f/classTUIO_1_1TuioClient.html#ad9d968142e2e6d9639b685152ee2cf1b" target="_top" xlink:title=" ">
<polygon fill="white" stroke="black" points="3.5,-49.5 3.5,-79.5 139.5,-79.5 139.5,-49.5 3.5,-49.5"/>
<text text-anchor="start" x="11.5" y="-67.5" font-family="Helvetica,sans-Serif" font-size="10.00">TUIO::TuioClient::getTuio</text>
<text text-anchor="middle" x="71.5" y="-56.5" font-family="Helvetica,sans-Serif" font-size="10.00">Objects</text>
</a>
</g>
</g>
<!-- Node7&#45;&gt;Node8 -->
<g id="edge7" class="edge">
<title>Node7&#45;&gt;Node8</title>
<path fill="none" stroke="midnightblue" d="M180.47,-64.5C167.08,-64.5 153.07,-64.5 139.74,-64.5"/>
<polygon fill="midnightblue" stroke="midnightblue" points="180.56,-68 190.56,-64.5 180.56,-61 180.56,-68"/>
</g>
</g>
</svg>
