<?xml version="1.0" encoding="UTF-8" standalone="no"?>
<!DOCTYPE svg PUBLIC "-//W3C//DTD SVG 1.1//EN"
 "http://www.w3.org/Graphics/SVG/1.1/DTD/svg11.dtd">
<!-- Generated by graphviz version 2.43.0 (0)
 -->
<!-- Title: TUIO::TuioManager::updateExternalTuioObject Pages: 1 -->
<svg width="353pt" height="477pt"
 viewBox="0.00 0.00 353.00 477.00" xmlns="http://www.w3.org/2000/svg" xmlns:xlink="http://www.w3.org/1999/xlink">
<g id="graph0" class="graph" transform="scale(1 1) rotate(0) translate(4 473)">
<title>TUIO::TuioManager::updateExternalTuioObject</title>
<polygon fill="white" stroke="transparent" points="-4,4 -4,-473 349,-473 349,4 -4,4"/>
<!-- Node1 -->
<g id="node1" class="node">
<title>Node1</title>
<g id="a_node1"><a xlink:title=" ">
<polygon fill="#bfbfbf" stroke="black" points="0,-209 0,-239 142,-239 142,-209 0,-209"/>
<text text-anchor="start" x="8" y="-227" font-family="Helvetica,sans-Serif" font-size="10.00">TUIO::TuioManager::</text>
<text text-anchor="middle" x="71" y="-216" font-family="Helvetica,sans-Serif" font-size="10.00">updateExternalTuioObject</text>
</a>
</g>
</g>
<!-- Node2 -->
<g id="node2" class="node">
<title>Node2</title>
<g id="a_node2"><a xlink:href="../../d0/dd3/classTUIO_1_1TuioObject.html#ad1be94db9f777b98900503a10bdbe66c" target="_top" xlink:title=" ">
<polygon fill="white" stroke="black" points="188,-449.5 188,-468.5 335,-468.5 335,-449.5 188,-449.5"/>
<text text-anchor="middle" x="261.5" y="-456.5" font-family="Helvetica,sans-Serif" font-size="10.00">TUIO::TuioObject::getAngle</text>
</a>
</g>
</g>
<!-- Node1&#45;&gt;Node2 -->
<g id="edge1" class="edge">
<title>Node1&#45;&gt;Node2</title>
<path fill="none" stroke="midnightblue" d="M74.78,-239.09C82.89,-278.73 110.41,-386.4 178,-440 180.19,-441.74 182.51,-443.32 184.93,-444.77"/>
<polygon fill="midnightblue" stroke="midnightblue" points="183.57,-448 194.07,-449.41 186.74,-441.76 183.57,-448"/>
</g>
<!-- Node3 -->
<g id="node3" class="node">
<title>Node3</title>
<g id="a_node3"><a xlink:href="../../d8/de3/classTUIO_1_1TuioContainer.html#aca8c7670af13d100999eb4663ead8281" target="_top" xlink:title=" ">
<polygon fill="white" stroke="black" points="205,-400 205,-430 318,-430 318,-400 205,-400"/>
<text text-anchor="start" x="213" y="-418" font-family="Helvetica,sans-Serif" font-size="10.00">TUIO::TuioContainer</text>
<text text-anchor="middle" x="261.5" y="-407" font-family="Helvetica,sans-Serif" font-size="10.00">::getMotionAccel</text>
</a>
</g>
</g>
<!-- Node1&#45;&gt;Node3 -->
<g id="edge2" class="edge">
<title>Node1&#45;&gt;Node3</title>
<path fill="none" stroke="midnightblue" d="M77.3,-239.05C89.62,-271.81 123.36,-349.96 178,-391 183.17,-394.88 188.95,-398.13 194.98,-400.86"/>
<polygon fill="midnightblue" stroke="midnightblue" points="194.05,-404.26 204.63,-404.73 196.65,-397.76 194.05,-404.26"/>
</g>
<!-- Node4 -->
<g id="node4" class="node">
<title>Node4</title>
<g id="a_node4"><a xlink:href="../../d0/dd3/classTUIO_1_1TuioObject.html#a5daaf14f96beeacaa6d623df3c3574d9" target="_top" xlink:title=" ">
<polygon fill="white" stroke="black" points="181,-351 181,-381 342,-381 342,-351 181,-351"/>
<text text-anchor="start" x="189" y="-369" font-family="Helvetica,sans-Serif" font-size="10.00">TUIO::TuioObject::getRotation</text>
<text text-anchor="middle" x="261.5" y="-358" font-family="Helvetica,sans-Serif" font-size="10.00">Accel</text>
</a>
</g>
</g>
<!-- Node1&#45;&gt;Node4 -->
<g id="edge3" class="edge">
<title>Node1&#45;&gt;Node4</title>
<path fill="none" stroke="midnightblue" d="M81.45,-239.12C97.94,-264.27 134.4,-314.6 178,-342 180.63,-343.65 183.38,-345.2 186.21,-346.64"/>
<polygon fill="midnightblue" stroke="midnightblue" points="184.93,-349.9 195.48,-350.89 187.85,-343.54 184.93,-349.9"/>
</g>
<!-- Node5 -->
<g id="node5" class="node">
<title>Node5</title>
<g id="a_node5"><a xlink:href="../../d0/dd3/classTUIO_1_1TuioObject.html#a377e6d373c9d03dd2da50f5ac489e30f" target="_top" xlink:title=" ">
<polygon fill="white" stroke="black" points="181,-302 181,-332 342,-332 342,-302 181,-302"/>
<text text-anchor="start" x="189" y="-320" font-family="Helvetica,sans-Serif" font-size="10.00">TUIO::TuioObject::getRotation</text>
<text text-anchor="middle" x="261.5" y="-309" font-family="Helvetica,sans-Serif" font-size="10.00">Speed</text>
</a>
</g>
</g>
<!-- Node1&#45;&gt;Node5 -->
<g id="edge4" class="edge">
<title>Node1&#45;&gt;Node5</title>
<path fill="none" stroke="midnightblue" d="M91.3,-239.08C111.81,-254.48 145.67,-278.17 178,-293 182.27,-294.96 186.73,-296.8 191.28,-298.52"/>
<polygon fill="midnightblue" stroke="midnightblue" points="190.11,-301.81 200.7,-301.88 192.46,-295.22 190.11,-301.81"/>
</g>
<!-- Node6 -->
<g id="node6" class="node">
<title>Node6</title>
<g id="a_node6"><a xlink:href="../../d8/de3/classTUIO_1_1TuioContainer.html#a43a9b95e3108a178e16c8d86a9816f8a" target="_top" xlink:title=" ">
<polygon fill="white" stroke="black" points="205,-253 205,-283 318,-283 318,-253 205,-253"/>
<text text-anchor="start" x="213" y="-271" font-family="Helvetica,sans-Serif" font-size="10.00">TUIO::TuioContainer</text>
<text text-anchor="middle" x="261.5" y="-260" font-family="Helvetica,sans-Serif" font-size="10.00">::getSessionID</text>
</a>
</g>
</g>
<!-- Node1&#45;&gt;Node6 -->
<g id="edge5" class="edge">
<title>Node1&#45;&gt;Node6</title>
<path fill="none" stroke="midnightblue" d="M136.34,-239.02C155.33,-243.45 176.11,-248.3 195.16,-252.75"/>
<polygon fill="midnightblue" stroke="midnightblue" points="194.4,-256.17 204.94,-255.03 196,-249.35 194.4,-256.17"/>
</g>
<!-- Node7 -->
<g id="node7" class="node">
<title>Node7</title>
<g id="a_node7"><a xlink:href="../../d0/dd3/classTUIO_1_1TuioObject.html#a3e95c874a6dccb7fb85c786403931dee" target="_top" xlink:title=" ">
<polygon fill="white" stroke="black" points="178,-214.5 178,-233.5 345,-233.5 345,-214.5 178,-214.5"/>
<text text-anchor="middle" x="261.5" y="-221.5" font-family="Helvetica,sans-Serif" font-size="10.00">TUIO::TuioObject::getSymbolID</text>
</a>
</g>
</g>
<!-- Node1&#45;&gt;Node7 -->
<g id="edge6" class="edge">
<title>Node1&#45;&gt;Node7</title>
<path fill="none" stroke="midnightblue" d="M142.19,-224C150.54,-224 159.16,-224 167.77,-224"/>
<polygon fill="midnightblue" stroke="midnightblue" points="167.84,-227.5 177.84,-224 167.84,-220.5 167.84,-227.5"/>
</g>
<!-- Node8 -->
<g id="node8" class="node">
<title>Node8</title>
<g id="a_node8"><a xlink:href="../../d0/db6/classTUIO_1_1TuioPoint.html#a547710f33dd3786eaa8ca326b34911c0" target="_top" xlink:title=" ">
<polygon fill="white" stroke="black" points="202,-176.5 202,-195.5 321,-195.5 321,-176.5 202,-176.5"/>
<text text-anchor="middle" x="261.5" y="-183.5" font-family="Helvetica,sans-Serif" font-size="10.00">TUIO::TuioPoint::getX</text>
</a>
</g>
</g>
<!-- Node1&#45;&gt;Node8 -->
<g id="edge7" class="edge">
<title>Node1&#45;&gt;Node8</title>
<path fill="none" stroke="midnightblue" d="M142.19,-209.85C162.34,-205.79 184.05,-201.41 203.31,-197.53"/>
<polygon fill="midnightblue" stroke="midnightblue" points="204.03,-200.95 213.14,-195.55 202.64,-194.09 204.03,-200.95"/>
</g>
<!-- Node9 -->
<g id="node9" class="node">
<title>Node9</title>
<g id="a_node9"><a xlink:href="../../d8/de3/classTUIO_1_1TuioContainer.html#ad71a4dba72e5c46fa8b8f7fc0f961705" target="_top" xlink:title=" ">
<polygon fill="white" stroke="black" points="205,-127 205,-157 318,-157 318,-127 205,-127"/>
<text text-anchor="start" x="213" y="-145" font-family="Helvetica,sans-Serif" font-size="10.00">TUIO::TuioContainer</text>
<text text-anchor="middle" x="261.5" y="-134" font-family="Helvetica,sans-Serif" font-size="10.00">::getXSpeed</text>
</a>
</g>
</g>
<!-- Node1&#45;&gt;Node9 -->
<g id="edge8" class="edge">
<title>Node1&#45;&gt;Node9</title>
<path fill="none" stroke="midnightblue" d="M96.58,-208.96C117.64,-196.53 149.06,-179.03 178,-167 183.71,-164.63 189.73,-162.37 195.81,-160.25"/>
<polygon fill="midnightblue" stroke="midnightblue" points="197.01,-163.54 205.38,-157.03 194.78,-156.9 197.01,-163.54"/>
</g>
<!-- Node10 -->
<g id="node10" class="node">
<title>Node10</title>
<g id="a_node10"><a xlink:href="../../d0/db6/classTUIO_1_1TuioPoint.html#a2dbd53d10bbcddb6db271bdd30858733" target="_top" xlink:title=" ">
<polygon fill="white" stroke="black" points="202,-88.5 202,-107.5 321,-107.5 321,-88.5 202,-88.5"/>
<text text-anchor="middle" x="261.5" y="-95.5" font-family="Helvetica,sans-Serif" font-size="10.00">TUIO::TuioPoint::getY</text>
</a>
</g>
</g>
<!-- Node1&#45;&gt;Node10 -->
<g id="edge9" class="edge">
<title>Node1&#45;&gt;Node10</title>
<path fill="none" stroke="midnightblue" d="M82.81,-208.75C100.15,-185.46 136.47,-141.32 178,-118 182.82,-115.29 188,-112.95 193.32,-110.92"/>
<polygon fill="midnightblue" stroke="midnightblue" points="194.7,-114.15 203.03,-107.61 192.44,-107.53 194.7,-114.15"/>
</g>
<!-- Node11 -->
<g id="node11" class="node">
<title>Node11</title>
<g id="a_node11"><a xlink:href="../../d8/de3/classTUIO_1_1TuioContainer.html#af96183810e34c1ead6a6787fcf03c171" target="_top" xlink:title=" ">
<polygon fill="white" stroke="black" points="205,-39 205,-69 318,-69 318,-39 205,-39"/>
<text text-anchor="start" x="213" y="-57" font-family="Helvetica,sans-Serif" font-size="10.00">TUIO::TuioContainer</text>
<text text-anchor="middle" x="261.5" y="-46" font-family="Helvetica,sans-Serif" font-size="10.00">::getYSpeed</text>
</a>
</g>
</g>
<!-- Node1&#45;&gt;Node11 -->
<g id="edge10" class="edge">
<title>Node1&#45;&gt;Node11</title>
<path fill="none" stroke="midnightblue" d="M78.96,-208.76C93.23,-179.22 128.66,-114 178,-79 183.29,-75.25 189.15,-72.05 195.23,-69.33"/>
<polygon fill="midnightblue" stroke="midnightblue" points="196.97,-72.41 204.94,-65.43 194.35,-65.91 196.97,-72.41"/>
</g>
<!-- Node12 -->
<g id="node12" class="node">
<title>Node12</title>
<g id="a_node12"><a xlink:href="../../d0/dd3/classTUIO_1_1TuioObject.html#aaaa7ee8624ced61a296222eed8542bed" target="_top" xlink:title=" ">
<polygon fill="white" stroke="black" points="187.5,-0.5 187.5,-19.5 335.5,-19.5 335.5,-0.5 187.5,-0.5"/>
<text text-anchor="middle" x="261.5" y="-7.5" font-family="Helvetica,sans-Serif" font-size="10.00">TUIO::TuioObject::isMoving</text>
</a>
</g>
</g>
<!-- Node1&#45;&gt;Node12 -->
<g id="edge11" class="edge">
<title>Node1&#45;&gt;Node12</title>
<path fill="none" stroke="midnightblue" d="M75.73,-208.87C85.6,-172.08 116.03,-77.53 178,-30 180.98,-27.71 184.19,-25.68 187.55,-23.88"/>
<polygon fill="midnightblue" stroke="midnightblue" points="189.13,-27.01 196.73,-19.63 186.19,-20.65 189.13,-27.01"/>
</g>
</g>
</svg>
