<?xml version="1.0" encoding="UTF-8" standalone="no"?>
<!DOCTYPE svg PUBLIC "-//W3C//DTD SVG 1.1//EN"
 "http://www.w3.org/Graphics/SVG/1.1/DTD/svg11.dtd">
<!-- Generated by graphviz version 2.43.0 (0)
 -->
<!-- Title: TUIO::TuioManager::stopUntouchedMovingObjects Pages: 1 -->
<svg width="547pt" height="553pt"
 viewBox="0.00 0.00 547.00 553.00" xmlns="http://www.w3.org/2000/svg" xmlns:xlink="http://www.w3.org/1999/xlink">
<g id="graph0" class="graph" transform="scale(1 1) rotate(0) translate(4 549)">
<title>TUIO::TuioManager::stopUntouchedMovingObjects</title>
<polygon fill="white" stroke="transparent" points="-4,4 -4,-549 543,-549 543,4 -4,4"/>
<!-- Node1 -->
<g id="node1" class="node">
<title>Node1</title>
<g id="a_node1"><a xlink:title=" ">
<polygon fill="#bfbfbf" stroke="black" points="0,-247 0,-277 163,-277 163,-247 0,-247"/>
<text text-anchor="start" x="8" y="-265" font-family="Helvetica,sans-Serif" font-size="10.00">TUIO::TuioManager::</text>
<text text-anchor="middle" x="81.5" y="-254" font-family="Helvetica,sans-Serif" font-size="10.00">stopUntouchedMovingObjects</text>
</a>
</g>
</g>
<!-- Node2 -->
<g id="node2" class="node">
<title>Node2</title>
<g id="a_node2"><a xlink:href="../../d0/dd3/classTUIO_1_1TuioObject.html#ad1be94db9f777b98900503a10bdbe66c" target="_top" xlink:title=" ">
<polygon fill="white" stroke="black" points="209,-525.5 209,-544.5 356,-544.5 356,-525.5 209,-525.5"/>
<text text-anchor="middle" x="282.5" y="-532.5" font-family="Helvetica,sans-Serif" font-size="10.00">TUIO::TuioObject::getAngle</text>
</a>
</g>
</g>
<!-- Node1&#45;&gt;Node2 -->
<g id="edge1" class="edge">
<title>Node1&#45;&gt;Node2</title>
<path fill="none" stroke="midnightblue" d="M84.73,-277.11C92.09,-321.34 119.82,-451.5 199,-516 201.04,-517.67 203.21,-519.19 205.46,-520.59"/>
<polygon fill="midnightblue" stroke="midnightblue" points="204.08,-523.81 214.56,-525.36 207.33,-517.61 204.08,-523.81"/>
</g>
<!-- Node3 -->
<g id="node3" class="node">
<title>Node3</title>
<g id="a_node3"><a xlink:href="../../d8/de3/classTUIO_1_1TuioContainer.html#aca8c7670af13d100999eb4663ead8281" target="_top" xlink:title=" ">
<polygon fill="white" stroke="black" points="226,-476 226,-506 339,-506 339,-476 226,-476"/>
<text text-anchor="start" x="234" y="-494" font-family="Helvetica,sans-Serif" font-size="10.00">TUIO::TuioContainer</text>
<text text-anchor="middle" x="282.5" y="-483" font-family="Helvetica,sans-Serif" font-size="10.00">::getMotionAccel</text>
</a>
</g>
</g>
<!-- Node1&#45;&gt;Node3 -->
<g id="edge2" class="edge">
<title>Node1&#45;&gt;Node3</title>
<path fill="none" stroke="midnightblue" d="M86.77,-277.25C98.23,-315.31 133.31,-415.11 199,-467 204.27,-471.16 210.24,-474.6 216.49,-477.45"/>
<polygon fill="midnightblue" stroke="midnightblue" points="215.24,-480.71 225.82,-481.2 217.85,-474.22 215.24,-480.71"/>
</g>
<!-- Node4 -->
<g id="node4" class="node">
<title>Node4</title>
<g id="a_node4"><a xlink:href="../../d0/dd3/classTUIO_1_1TuioObject.html#a5daaf14f96beeacaa6d623df3c3574d9" target="_top" xlink:title=" ">
<polygon fill="white" stroke="black" points="202,-427 202,-457 363,-457 363,-427 202,-427"/>
<text text-anchor="start" x="210" y="-445" font-family="Helvetica,sans-Serif" font-size="10.00">TUIO::TuioObject::getRotation</text>
<text text-anchor="middle" x="282.5" y="-434" font-family="Helvetica,sans-Serif" font-size="10.00">Accel</text>
</a>
</g>
</g>
<!-- Node1&#45;&gt;Node4 -->
<g id="edge3" class="edge">
<title>Node1&#45;&gt;Node4</title>
<path fill="none" stroke="midnightblue" d="M89.73,-277.47C105.19,-308.86 144.55,-380.25 199,-418 201.15,-419.49 203.38,-420.88 205.69,-422.19"/>
<polygon fill="midnightblue" stroke="midnightblue" points="204.38,-425.45 214.89,-426.84 207.54,-419.2 204.38,-425.45"/>
</g>
<!-- Node5 -->
<g id="node5" class="node">
<title>Node5</title>
<g id="a_node5"><a xlink:href="../../d0/dd3/classTUIO_1_1TuioObject.html#a377e6d373c9d03dd2da50f5ac489e30f" target="_top" xlink:title=" ">
<polygon fill="white" stroke="black" points="202,-378 202,-408 363,-408 363,-378 202,-378"/>
<text text-anchor="start" x="210" y="-396" font-family="Helvetica,sans-Serif" font-size="10.00">TUIO::TuioObject::getRotation</text>
<text text-anchor="middle" x="282.5" y="-385" font-family="Helvetica,sans-Serif" font-size="10.00">Speed</text>
</a>
</g>
</g>
<!-- Node1&#45;&gt;Node5 -->
<g id="edge4" class="edge">
<title>Node1&#45;&gt;Node5</title>
<path fill="none" stroke="midnightblue" d="M94.84,-277.12C114.5,-300.26 155.21,-344.33 199,-369 202.08,-370.74 205.3,-372.36 208.61,-373.87"/>
<polygon fill="midnightblue" stroke="midnightblue" points="207.53,-377.21 218.1,-377.84 210.23,-370.75 207.53,-377.21"/>
</g>
<!-- Node6 -->
<g id="node6" class="node">
<title>Node6</title>
<g id="a_node6"><a xlink:href="../../d8/de3/classTUIO_1_1TuioContainer.html#a43a9b95e3108a178e16c8d86a9816f8a" target="_top" xlink:title=" ">
<polygon fill="white" stroke="black" points="226,-329 226,-359 339,-359 339,-329 226,-329"/>
<text text-anchor="start" x="234" y="-347" font-family="Helvetica,sans-Serif" font-size="10.00">TUIO::TuioContainer</text>
<text text-anchor="middle" x="282.5" y="-336" font-family="Helvetica,sans-Serif" font-size="10.00">::getSessionID</text>
</a>
</g>
</g>
<!-- Node1&#45;&gt;Node6 -->
<g id="edge5" class="edge">
<title>Node1&#45;&gt;Node6</title>
<path fill="none" stroke="midnightblue" d="M110.18,-277.11C133.43,-289.43 167.78,-306.72 199,-319 204.94,-321.34 211.19,-323.59 217.49,-325.72"/>
<polygon fill="midnightblue" stroke="midnightblue" points="216.78,-329.17 227.37,-328.96 218.96,-322.52 216.78,-329.17"/>
</g>
<!-- Node7 -->
<g id="node7" class="node">
<title>Node7</title>
<g id="a_node7"><a xlink:href="../../d0/dd3/classTUIO_1_1TuioObject.html#a3e95c874a6dccb7fb85c786403931dee" target="_top" xlink:title=" ">
<polygon fill="white" stroke="black" points="199,-290.5 199,-309.5 366,-309.5 366,-290.5 199,-290.5"/>
<text text-anchor="middle" x="282.5" y="-297.5" font-family="Helvetica,sans-Serif" font-size="10.00">TUIO::TuioObject::getSymbolID</text>
</a>
</g>
</g>
<!-- Node1&#45;&gt;Node7 -->
<g id="edge6" class="edge">
<title>Node1&#45;&gt;Node7</title>
<path fill="none" stroke="midnightblue" d="M161.15,-277.02C181.32,-280.87 202.68,-284.95 221.72,-288.59"/>
<polygon fill="midnightblue" stroke="midnightblue" points="221.27,-292.06 231.75,-290.5 222.58,-285.19 221.27,-292.06"/>
</g>
<!-- Node8 -->
<g id="node8" class="node">
<title>Node8</title>
<g id="a_node8"><a xlink:href="../../d0/db6/classTUIO_1_1TuioPoint.html#ac86687cf27772d0fd602c2044b6c8cdd" target="_top" xlink:title=" ">
<polygon fill="white" stroke="black" points="204,-252.5 204,-271.5 361,-271.5 361,-252.5 204,-252.5"/>
<text text-anchor="middle" x="282.5" y="-259.5" font-family="Helvetica,sans-Serif" font-size="10.00">TUIO::TuioPoint::getTuioTime</text>
</a>
</g>
</g>
<!-- Node1&#45;&gt;Node8 -->
<g id="edge7" class="edge">
<title>Node1&#45;&gt;Node8</title>
<path fill="none" stroke="midnightblue" d="M163.15,-262C173.25,-262 183.62,-262 193.83,-262"/>
<polygon fill="midnightblue" stroke="midnightblue" points="193.95,-265.5 203.95,-262 193.95,-258.5 193.95,-265.5"/>
</g>
<!-- Node9 -->
<g id="node9" class="node">
<title>Node9</title>
<g id="a_node9"><a xlink:href="../../d0/db6/classTUIO_1_1TuioPoint.html#a547710f33dd3786eaa8ca326b34911c0" target="_top" xlink:title=" ">
<polygon fill="white" stroke="black" points="223,-214.5 223,-233.5 342,-233.5 342,-214.5 223,-214.5"/>
<text text-anchor="middle" x="282.5" y="-221.5" font-family="Helvetica,sans-Serif" font-size="10.00">TUIO::TuioPoint::getX</text>
</a>
</g>
</g>
<!-- Node1&#45;&gt;Node9 -->
<g id="edge8" class="edge">
<title>Node1&#45;&gt;Node9</title>
<path fill="none" stroke="midnightblue" d="M161.15,-246.98C181.32,-243.13 202.68,-239.05 221.72,-235.41"/>
<polygon fill="midnightblue" stroke="midnightblue" points="222.58,-238.81 231.75,-233.5 221.27,-231.94 222.58,-238.81"/>
</g>
<!-- Node10 -->
<g id="node10" class="node">
<title>Node10</title>
<g id="a_node10"><a xlink:href="../../d8/de3/classTUIO_1_1TuioContainer.html#ad71a4dba72e5c46fa8b8f7fc0f961705" target="_top" xlink:title=" ">
<polygon fill="white" stroke="black" points="226,-165 226,-195 339,-195 339,-165 226,-165"/>
<text text-anchor="start" x="234" y="-183" font-family="Helvetica,sans-Serif" font-size="10.00">TUIO::TuioContainer</text>
<text text-anchor="middle" x="282.5" y="-172" font-family="Helvetica,sans-Serif" font-size="10.00">::getXSpeed</text>
</a>
</g>
</g>
<!-- Node1&#45;&gt;Node10 -->
<g id="edge9" class="edge">
<title>Node1&#45;&gt;Node10</title>
<path fill="none" stroke="midnightblue" d="M110.18,-246.89C133.43,-234.57 167.78,-217.28 199,-205 204.94,-202.66 211.19,-200.41 217.49,-198.28"/>
<polygon fill="midnightblue" stroke="midnightblue" points="218.96,-201.48 227.37,-195.04 216.78,-194.83 218.96,-201.48"/>
</g>
<!-- Node11 -->
<g id="node11" class="node">
<title>Node11</title>
<g id="a_node11"><a xlink:href="../../d0/db6/classTUIO_1_1TuioPoint.html#a2dbd53d10bbcddb6db271bdd30858733" target="_top" xlink:title=" ">
<polygon fill="white" stroke="black" points="223,-126.5 223,-145.5 342,-145.5 342,-126.5 223,-126.5"/>
<text text-anchor="middle" x="282.5" y="-133.5" font-family="Helvetica,sans-Serif" font-size="10.00">TUIO::TuioPoint::getY</text>
</a>
</g>
</g>
<!-- Node1&#45;&gt;Node11 -->
<g id="edge10" class="edge">
<title>Node1&#45;&gt;Node11</title>
<path fill="none" stroke="midnightblue" d="M94.73,-246.78C114.26,-223.55 154.8,-179.46 199,-156 204.25,-153.21 209.9,-150.8 215.69,-148.73"/>
<polygon fill="midnightblue" stroke="midnightblue" points="217.08,-151.96 225.51,-145.54 214.92,-145.3 217.08,-151.96"/>
</g>
<!-- Node12 -->
<g id="node12" class="node">
<title>Node12</title>
<g id="a_node12"><a xlink:href="../../d8/de3/classTUIO_1_1TuioContainer.html#af96183810e34c1ead6a6787fcf03c171" target="_top" xlink:title=" ">
<polygon fill="white" stroke="black" points="226,-77 226,-107 339,-107 339,-77 226,-77"/>
<text text-anchor="start" x="234" y="-95" font-family="Helvetica,sans-Serif" font-size="10.00">TUIO::TuioContainer</text>
<text text-anchor="middle" x="282.5" y="-84" font-family="Helvetica,sans-Serif" font-size="10.00">::getYSpeed</text>
</a>
</g>
</g>
<!-- Node1&#45;&gt;Node12 -->
<g id="edge11" class="edge">
<title>Node1&#45;&gt;Node12</title>
<path fill="none" stroke="midnightblue" d="M90.56,-246.78C106.95,-217.26 147.09,-152.07 199,-117 204.29,-113.43 210.11,-110.35 216.13,-107.7"/>
<polygon fill="midnightblue" stroke="midnightblue" points="217.72,-110.84 225.72,-103.89 215.13,-104.33 217.72,-110.84"/>
</g>
<!-- Node13 -->
<g id="node13" class="node">
<title>Node13</title>
<g id="a_node13"><a xlink:href="../../d0/dd3/classTUIO_1_1TuioObject.html#aaaa7ee8624ced61a296222eed8542bed" target="_top" xlink:title=" ">
<polygon fill="white" stroke="black" points="208.5,-38.5 208.5,-57.5 356.5,-57.5 356.5,-38.5 208.5,-38.5"/>
<text text-anchor="middle" x="282.5" y="-45.5" font-family="Helvetica,sans-Serif" font-size="10.00">TUIO::TuioObject::isMoving</text>
</a>
</g>
</g>
<!-- Node1&#45;&gt;Node13 -->
<g id="edge12" class="edge">
<title>Node1&#45;&gt;Node13</title>
<path fill="none" stroke="midnightblue" d="M87.06,-246.84C98.96,-210.01 134.58,-115.35 199,-68 202.25,-65.61 205.74,-63.51 209.39,-61.65"/>
<polygon fill="midnightblue" stroke="midnightblue" points="211.01,-64.77 218.75,-57.53 208.18,-58.36 211.01,-64.77"/>
</g>
<!-- Node14 -->
<g id="node14" class="node">
<title>Node14</title>
<g id="a_node14"><a xlink:href="../../d0/dd3/classTUIO_1_1TuioObject.html#ad5fbbdd8b2b19d48f9a3bb34c11349b6" target="_top" xlink:title=" ">
<polygon fill="white" stroke="black" points="220,-0.5 220,-19.5 345,-19.5 345,-0.5 220,-0.5"/>
<text text-anchor="middle" x="282.5" y="-7.5" font-family="Helvetica,sans-Serif" font-size="10.00">TUIO::TuioObject::stop</text>
</a>
</g>
</g>
<!-- Node1&#45;&gt;Node14 -->
<g id="edge13" class="edge">
<title>Node1&#45;&gt;Node14</title>
<path fill="none" stroke="midnightblue" d="M85.39,-246.93C94.22,-205.2 124.9,-87.32 199,-29 202.54,-26.21 206.41,-23.82 210.49,-21.77"/>
<polygon fill="midnightblue" stroke="midnightblue" points="211.89,-24.98 219.69,-17.81 209.12,-18.55 211.89,-24.98"/>
</g>
<!-- Node15 -->
<g id="node15" class="node">
<title>Node15</title>
<g id="a_node15"><a xlink:href="../../d0/dd3/classTUIO_1_1TuioObject.html#aed52146a83f9f27712ce704a42d5d78f" target="_top" xlink:title=" ">
<polygon fill="white" stroke="black" points="402,-0.5 402,-19.5 539,-19.5 539,-0.5 402,-0.5"/>
<text text-anchor="middle" x="470.5" y="-7.5" font-family="Helvetica,sans-Serif" font-size="10.00">TUIO::TuioObject::update</text>
</a>
</g>
</g>
<!-- Node14&#45;&gt;Node15 -->
<g id="edge14" class="edge">
<title>Node14&#45;&gt;Node15</title>
<path fill="none" stroke="midnightblue" d="M345.18,-10C360.1,-10 376.24,-10 391.79,-10"/>
<polygon fill="midnightblue" stroke="midnightblue" points="391.9,-13.5 401.9,-10 391.9,-6.5 391.9,-13.5"/>
</g>
</g>
</svg>
