<?xml version="1.0" encoding="UTF-8" standalone="no"?>
<!DOCTYPE svg PUBLIC "-//W3C//DTD SVG 1.1//EN"
 "http://www.w3.org/Graphics/SVG/1.1/DTD/svg11.dtd">
<!-- Generated by graphviz version 2.43.0 (0)
 -->
<!-- Title: TUIO::TuioManager::removeUntouchedStoppedObjects Pages: 1 -->
<svg width="587pt" height="132pt"
 viewBox="0.00 0.00 587.00 132.00" xmlns="http://www.w3.org/2000/svg" xmlns:xlink="http://www.w3.org/1999/xlink">
<g id="graph0" class="graph" transform="scale(1 1) rotate(0) translate(4 128)">
<title>TUIO::TuioManager::removeUntouchedStoppedObjects</title>
<polygon fill="white" stroke="transparent" points="-4,4 -4,-128 583,-128 583,4 -4,4"/>
<!-- Node1 -->
<g id="node1" class="node">
<title>Node1</title>
<g id="a_node1"><a xlink:title=" ">
<polygon fill="#bfbfbf" stroke="black" points="0,-61 0,-91 183,-91 183,-61 0,-61"/>
<text text-anchor="start" x="8" y="-79" font-family="Helvetica,sans-Serif" font-size="10.00">TUIO::TuioManager::</text>
<text text-anchor="middle" x="91.5" y="-68" font-family="Helvetica,sans-Serif" font-size="10.00">removeUntouchedStoppedObjects</text>
</a>
</g>
</g>
<!-- Node2 -->
<g id="node2" class="node">
<title>Node2</title>
<g id="a_node2"><a xlink:href="../../d0/db6/classTUIO_1_1TuioPoint.html#ac86687cf27772d0fd602c2044b6c8cdd" target="_top" xlink:title=" ">
<polygon fill="white" stroke="black" points="219,-104.5 219,-123.5 376,-123.5 376,-104.5 219,-104.5"/>
<text text-anchor="middle" x="297.5" y="-111.5" font-family="Helvetica,sans-Serif" font-size="10.00">TUIO::TuioPoint::getTuioTime</text>
</a>
</g>
</g>
<!-- Node1&#45;&gt;Node2 -->
<g id="edge1" class="edge">
<title>Node1&#45;&gt;Node2</title>
<path fill="none" stroke="midnightblue" d="M173.13,-91.02C193.9,-94.89 215.9,-98.99 235.49,-102.64"/>
<polygon fill="midnightblue" stroke="midnightblue" points="235.02,-106.11 245.5,-104.5 236.31,-99.23 235.02,-106.11"/>
</g>
<!-- Node3 -->
<g id="node3" class="node">
<title>Node3</title>
<g id="a_node3"><a xlink:href="../../d0/dd3/classTUIO_1_1TuioObject.html#aaaa7ee8624ced61a296222eed8542bed" target="_top" xlink:title=" ">
<polygon fill="white" stroke="black" points="223.5,-66.5 223.5,-85.5 371.5,-85.5 371.5,-66.5 223.5,-66.5"/>
<text text-anchor="middle" x="297.5" y="-73.5" font-family="Helvetica,sans-Serif" font-size="10.00">TUIO::TuioObject::isMoving</text>
</a>
</g>
</g>
<!-- Node1&#45;&gt;Node3 -->
<g id="edge2" class="edge">
<title>Node1&#45;&gt;Node3</title>
<path fill="none" stroke="midnightblue" d="M183.17,-76C193.12,-76 203.21,-76 213.07,-76"/>
<polygon fill="midnightblue" stroke="midnightblue" points="213.24,-79.5 223.24,-76 213.24,-72.5 213.24,-79.5"/>
</g>
<!-- Node4 -->
<g id="node4" class="node">
<title>Node4</title>
<g id="a_node4"><a xlink:href="../../d2/d82/classTUIO_1_1TuioManager.html#a88cfbca9c0782a152ea9339deceaf19d" target="_top" xlink:title=" ">
<polygon fill="white" stroke="black" points="240,-17 240,-47 355,-47 355,-17 240,-17"/>
<text text-anchor="start" x="248" y="-35" font-family="Helvetica,sans-Serif" font-size="10.00">TUIO::TuioManager::</text>
<text text-anchor="middle" x="297.5" y="-24" font-family="Helvetica,sans-Serif" font-size="10.00">removeTuioObject</text>
</a>
</g>
</g>
<!-- Node1&#45;&gt;Node4 -->
<g id="edge3" class="edge">
<title>Node1&#45;&gt;Node4</title>
<path fill="none" stroke="midnightblue" d="M162.13,-60.98C184.06,-56.25 208.2,-51.04 229.9,-46.36"/>
<polygon fill="midnightblue" stroke="midnightblue" points="230.65,-49.78 239.69,-44.25 229.18,-42.94 230.65,-49.78"/>
</g>
<!-- Node5 -->
<g id="node5" class="node">
<title>Node5</title>
<g id="a_node5"><a xlink:href="../../d8/de3/classTUIO_1_1TuioContainer.html#a43a9b95e3108a178e16c8d86a9816f8a" target="_top" xlink:title=" ">
<polygon fill="white" stroke="black" points="439,-39 439,-69 552,-69 552,-39 439,-39"/>
<text text-anchor="start" x="447" y="-57" font-family="Helvetica,sans-Serif" font-size="10.00">TUIO::TuioContainer</text>
<text text-anchor="middle" x="495.5" y="-46" font-family="Helvetica,sans-Serif" font-size="10.00">::getSessionID</text>
</a>
</g>
</g>
<!-- Node4&#45;&gt;Node5 -->
<g id="edge4" class="edge">
<title>Node4&#45;&gt;Node5</title>
<path fill="none" stroke="midnightblue" d="M355.19,-38.36C378.24,-40.95 405.02,-43.96 428.91,-46.64"/>
<polygon fill="midnightblue" stroke="midnightblue" points="428.62,-50.13 438.95,-47.76 429.4,-43.17 428.62,-50.13"/>
</g>
<!-- Node6 -->
<g id="node6" class="node">
<title>Node6</title>
<g id="a_node6"><a xlink:href="../../d0/dd3/classTUIO_1_1TuioObject.html#a3e95c874a6dccb7fb85c786403931dee" target="_top" xlink:title=" ">
<polygon fill="white" stroke="black" points="412,-0.5 412,-19.5 579,-19.5 579,-0.5 412,-0.5"/>
<text text-anchor="middle" x="495.5" y="-7.5" font-family="Helvetica,sans-Serif" font-size="10.00">TUIO::TuioObject::getSymbolID</text>
</a>
</g>
</g>
<!-- Node4&#45;&gt;Node6 -->
<g id="edge5" class="edge">
<title>Node4&#45;&gt;Node6</title>
<path fill="none" stroke="midnightblue" d="M355.19,-25.64C369.66,-24.01 385.6,-22.22 401.37,-20.45"/>
<polygon fill="midnightblue" stroke="midnightblue" points="402.14,-23.89 411.69,-19.3 401.36,-16.93 402.14,-23.89"/>
</g>
</g>
</svg>
