<?xml version="1.0" encoding="UTF-8" standalone="no"?>
<!DOCTYPE svg PUBLIC "-//W3C//DTD SVG 1.1//EN"
 "http://www.w3.org/Graphics/SVG/1.1/DTD/svg11.dtd">
<!-- Generated by graphviz version 2.43.0 (0)
 -->
<!-- Title: TUIO::TuioManager::updateTuioCursor Pages: 1 -->
<svg width="320pt" height="390pt"
 viewBox="0.00 0.00 320.00 390.00" xmlns="http://www.w3.org/2000/svg" xmlns:xlink="http://www.w3.org/1999/xlink">
<g id="graph0" class="graph" transform="scale(1 1) rotate(0) translate(4 386)">
<title>TUIO::TuioManager::updateTuioCursor</title>
<polygon fill="white" stroke="transparent" points="-4,4 -4,-386 316,-386 316,4 -4,4"/>
<!-- Node1 -->
<g id="node1" class="node">
<title>Node1</title>
<g id="a_node1"><a xlink:title=" ">
<polygon fill="#bfbfbf" stroke="black" points="0,-176 0,-206 115,-206 115,-176 0,-176"/>
<text text-anchor="start" x="8" y="-194" font-family="Helvetica,sans-Serif" font-size="10.00">TUIO::TuioManager::</text>
<text text-anchor="middle" x="57.5" y="-183" font-family="Helvetica,sans-Serif" font-size="10.00">updateTuioCursor</text>
</a>
</g>
</g>
<!-- Node2 -->
<g id="node2" class="node">
<title>Node2</title>
<g id="a_node2"><a xlink:href="../../d9/d95/classTUIO_1_1TuioCursor.html#a55c048bba2996a908b722f2fada39afb" target="_top" xlink:title=" ">
<polygon fill="white" stroke="black" points="151,-362.5 151,-381.5 312,-381.5 312,-362.5 151,-362.5"/>
<text text-anchor="middle" x="231.5" y="-369.5" font-family="Helvetica,sans-Serif" font-size="10.00">TUIO::TuioCursor::getCursorID</text>
</a>
</g>
</g>
<!-- Node1&#45;&gt;Node2 -->
<g id="edge1" class="edge">
<title>Node1&#45;&gt;Node2</title>
<path fill="none" stroke="midnightblue" d="M62.69,-206.26C72.42,-238.66 99.69,-314.54 151,-353 153.47,-354.86 156.1,-356.53 158.85,-358.05"/>
<polygon fill="midnightblue" stroke="midnightblue" points="157.38,-361.23 167.92,-362.36 160.39,-354.91 157.38,-361.23"/>
</g>
<!-- Node3 -->
<g id="node3" class="node">
<title>Node3</title>
<g id="a_node3"><a xlink:href="../../d8/de3/classTUIO_1_1TuioContainer.html#aca8c7670af13d100999eb4663ead8281" target="_top" xlink:title=" ">
<polygon fill="white" stroke="black" points="175,-313 175,-343 288,-343 288,-313 175,-313"/>
<text text-anchor="start" x="183" y="-331" font-family="Helvetica,sans-Serif" font-size="10.00">TUIO::TuioContainer</text>
<text text-anchor="middle" x="231.5" y="-320" font-family="Helvetica,sans-Serif" font-size="10.00">::getMotionAccel</text>
</a>
</g>
</g>
<!-- Node1&#45;&gt;Node3 -->
<g id="edge2" class="edge">
<title>Node1&#45;&gt;Node3</title>
<path fill="none" stroke="midnightblue" d="M66.9,-206.24C81.06,-230.53 112,-277.94 151,-304 155.5,-307 160.38,-309.64 165.44,-311.96"/>
<polygon fill="midnightblue" stroke="midnightblue" points="164.12,-315.2 174.7,-315.79 166.8,-308.73 164.12,-315.2"/>
</g>
<!-- Node4 -->
<g id="node4" class="node">
<title>Node4</title>
<g id="a_node4"><a xlink:href="../../d8/de3/classTUIO_1_1TuioContainer.html#a43a9b95e3108a178e16c8d86a9816f8a" target="_top" xlink:title=" ">
<polygon fill="white" stroke="black" points="175,-264 175,-294 288,-294 288,-264 175,-264"/>
<text text-anchor="start" x="183" y="-282" font-family="Helvetica,sans-Serif" font-size="10.00">TUIO::TuioContainer</text>
<text text-anchor="middle" x="231.5" y="-271" font-family="Helvetica,sans-Serif" font-size="10.00">::getSessionID</text>
</a>
</g>
</g>
<!-- Node1&#45;&gt;Node4 -->
<g id="edge3" class="edge">
<title>Node1&#45;&gt;Node4</title>
<path fill="none" stroke="midnightblue" d="M76.99,-206.01C94.98,-220.01 123.55,-240.7 151,-254 155.68,-256.27 160.62,-258.39 165.64,-260.37"/>
<polygon fill="midnightblue" stroke="midnightblue" points="164.78,-263.78 175.37,-263.99 167.21,-257.22 164.78,-263.78"/>
</g>
<!-- Node5 -->
<g id="node5" class="node">
<title>Node5</title>
<g id="a_node5"><a xlink:href="../../d0/db6/classTUIO_1_1TuioPoint.html#a547710f33dd3786eaa8ca326b34911c0" target="_top" xlink:title=" ">
<polygon fill="white" stroke="black" points="172,-225.5 172,-244.5 291,-244.5 291,-225.5 172,-225.5"/>
<text text-anchor="middle" x="231.5" y="-232.5" font-family="Helvetica,sans-Serif" font-size="10.00">TUIO::TuioPoint::getX</text>
</a>
</g>
</g>
<!-- Node1&#45;&gt;Node5 -->
<g id="edge4" class="edge">
<title>Node1&#45;&gt;Node5</title>
<path fill="none" stroke="midnightblue" d="M113.21,-206.07C125.62,-209.41 138.75,-212.88 151,-216 160.29,-218.36 170.21,-220.8 179.78,-223.11"/>
<polygon fill="midnightblue" stroke="midnightblue" points="179.05,-226.54 189.59,-225.47 180.68,-219.73 179.05,-226.54"/>
</g>
<!-- Node6 -->
<g id="node6" class="node">
<title>Node6</title>
<g id="a_node6"><a xlink:href="../../d8/de3/classTUIO_1_1TuioContainer.html#ad71a4dba72e5c46fa8b8f7fc0f961705" target="_top" xlink:title=" ">
<polygon fill="white" stroke="black" points="175,-176 175,-206 288,-206 288,-176 175,-176"/>
<text text-anchor="start" x="183" y="-194" font-family="Helvetica,sans-Serif" font-size="10.00">TUIO::TuioContainer</text>
<text text-anchor="middle" x="231.5" y="-183" font-family="Helvetica,sans-Serif" font-size="10.00">::getXSpeed</text>
</a>
</g>
</g>
<!-- Node1&#45;&gt;Node6 -->
<g id="edge5" class="edge">
<title>Node1&#45;&gt;Node6</title>
<path fill="none" stroke="midnightblue" d="M115.3,-191C131.18,-191 148.57,-191 164.91,-191"/>
<polygon fill="midnightblue" stroke="midnightblue" points="164.93,-194.5 174.93,-191 164.93,-187.5 164.93,-194.5"/>
</g>
<!-- Node7 -->
<g id="node7" class="node">
<title>Node7</title>
<g id="a_node7"><a xlink:href="../../d0/db6/classTUIO_1_1TuioPoint.html#a2dbd53d10bbcddb6db271bdd30858733" target="_top" xlink:title=" ">
<polygon fill="white" stroke="black" points="172,-137.5 172,-156.5 291,-156.5 291,-137.5 172,-137.5"/>
<text text-anchor="middle" x="231.5" y="-144.5" font-family="Helvetica,sans-Serif" font-size="10.00">TUIO::TuioPoint::getY</text>
</a>
</g>
</g>
<!-- Node1&#45;&gt;Node7 -->
<g id="edge6" class="edge">
<title>Node1&#45;&gt;Node7</title>
<path fill="none" stroke="midnightblue" d="M115.23,-176.21C127.05,-173.15 139.43,-169.96 151,-167 161.24,-164.38 172.23,-161.6 182.67,-158.97"/>
<polygon fill="midnightblue" stroke="midnightblue" points="183.63,-162.34 192.47,-156.51 181.92,-155.55 183.63,-162.34"/>
</g>
<!-- Node8 -->
<g id="node8" class="node">
<title>Node8</title>
<g id="a_node8"><a xlink:href="../../d8/de3/classTUIO_1_1TuioContainer.html#af96183810e34c1ead6a6787fcf03c171" target="_top" xlink:title=" ">
<polygon fill="white" stroke="black" points="175,-88 175,-118 288,-118 288,-88 175,-88"/>
<text text-anchor="start" x="183" y="-106" font-family="Helvetica,sans-Serif" font-size="10.00">TUIO::TuioContainer</text>
<text text-anchor="middle" x="231.5" y="-95" font-family="Helvetica,sans-Serif" font-size="10.00">::getYSpeed</text>
</a>
</g>
</g>
<!-- Node1&#45;&gt;Node8 -->
<g id="edge7" class="edge">
<title>Node1&#45;&gt;Node8</title>
<path fill="none" stroke="midnightblue" d="M76.99,-175.99C94.98,-161.99 123.55,-141.3 151,-128 155.68,-125.73 160.62,-123.61 165.64,-121.63"/>
<polygon fill="midnightblue" stroke="midnightblue" points="167.21,-124.78 175.37,-118.01 164.78,-118.22 167.21,-124.78"/>
</g>
<!-- Node9 -->
<g id="node9" class="node">
<title>Node9</title>
<g id="a_node9"><a xlink:href="../../d8/de3/classTUIO_1_1TuioContainer.html#a96bbcd7b0e99c5302db519c0b4750543" target="_top" xlink:title=" ">
<polygon fill="white" stroke="black" points="175,-39 175,-69 288,-69 288,-39 175,-39"/>
<text text-anchor="start" x="183" y="-57" font-family="Helvetica,sans-Serif" font-size="10.00">TUIO::TuioContainer</text>
<text text-anchor="middle" x="231.5" y="-46" font-family="Helvetica,sans-Serif" font-size="10.00">::isMoving</text>
</a>
</g>
</g>
<!-- Node1&#45;&gt;Node9 -->
<g id="edge8" class="edge">
<title>Node1&#45;&gt;Node9</title>
<path fill="none" stroke="midnightblue" d="M66.97,-175.95C81.23,-151.94 112.3,-105.06 151,-79 155.5,-75.97 160.39,-73.29 165.45,-70.93"/>
<polygon fill="midnightblue" stroke="midnightblue" points="166.88,-74.12 174.72,-67 164.14,-67.68 166.88,-74.12"/>
</g>
<!-- Node10 -->
<g id="node10" class="node">
<title>Node10</title>
<g id="a_node10"><a xlink:href="../../d9/d95/classTUIO_1_1TuioCursor.html#aed52146a83f9f27712ce704a42d5d78f" target="_top" xlink:title=" ">
<polygon fill="white" stroke="black" points="163,-0.5 163,-19.5 300,-19.5 300,-0.5 163,-0.5"/>
<text text-anchor="middle" x="231.5" y="-7.5" font-family="Helvetica,sans-Serif" font-size="10.00">TUIO::TuioCursor::update</text>
</a>
</g>
</g>
<!-- Node1&#45;&gt;Node10 -->
<g id="edge9" class="edge">
<title>Node1&#45;&gt;Node10</title>
<path fill="none" stroke="midnightblue" d="M62.76,-175.88C72.6,-143.77 100.11,-68.52 151,-30 154.17,-27.6 157.58,-25.49 161.16,-23.63"/>
<polygon fill="midnightblue" stroke="midnightblue" points="162.66,-26.8 170.34,-19.51 159.79,-20.42 162.66,-26.8"/>
</g>
</g>
</svg>
