<?xml version="1.0" encoding="UTF-8" standalone="no"?>
<!DOCTYPE svg PUBLIC "-//W3C//DTD SVG 1.1//EN"
 "http://www.w3.org/Graphics/SVG/1.1/DTD/svg11.dtd">
<!-- Generated by graphviz version 2.43.0 (0)
 -->
<!-- Title: TUIO::TuioManager::addExternalTuioObject Pages: 1 -->
<svg width="337pt" height="242pt"
 viewBox="0.00 0.00 337.00 241.50" xmlns="http://www.w3.org/2000/svg" xmlns:xlink="http://www.w3.org/1999/xlink">
<g id="graph0" class="graph" transform="scale(1 1) rotate(0) translate(4 237.5)">
<title>TUIO::TuioManager::addExternalTuioObject</title>
<polygon fill="white" stroke="transparent" points="-4,4 -4,-237.5 333,-237.5 333,4 -4,4"/>
<!-- Node1 -->
<g id="node1" class="node">
<title>Node1</title>
<g id="a_node1"><a xlink:title=" ">
<polygon fill="#bfbfbf" stroke="black" points="0,-101.5 0,-131.5 126,-131.5 126,-101.5 0,-101.5"/>
<text text-anchor="start" x="8" y="-119.5" font-family="Helvetica,sans-Serif" font-size="10.00">TUIO::TuioManager::</text>
<text text-anchor="middle" x="63" y="-108.5" font-family="Helvetica,sans-Serif" font-size="10.00">addExternalTuioObject</text>
</a>
</g>
</g>
<!-- Node2 -->
<g id="node2" class="node">
<title>Node2</title>
<g id="a_node2"><a xlink:href="../../d0/dd3/classTUIO_1_1TuioObject.html#ad1be94db9f777b98900503a10bdbe66c" target="_top" xlink:title=" ">
<polygon fill="white" stroke="black" points="172,-214 172,-233 319,-233 319,-214 172,-214"/>
<text text-anchor="middle" x="245.5" y="-221" font-family="Helvetica,sans-Serif" font-size="10.00">TUIO::TuioObject::getAngle</text>
</a>
</g>
</g>
<!-- Node1&#45;&gt;Node2 -->
<g id="edge1" class="edge">
<title>Node1&#45;&gt;Node2</title>
<path fill="none" stroke="midnightblue" d="M76.56,-131.82C93.73,-151.71 126.49,-186.06 162,-204.5 166.53,-206.85 171.35,-208.92 176.3,-210.73"/>
<polygon fill="midnightblue" stroke="midnightblue" points="175.33,-214.1 185.93,-213.91 177.53,-207.45 175.33,-214.1"/>
</g>
<!-- Node3 -->
<g id="node3" class="node">
<title>Node3</title>
<g id="a_node3"><a xlink:href="../../d8/de3/classTUIO_1_1TuioContainer.html#a43a9b95e3108a178e16c8d86a9816f8a" target="_top" xlink:title=" ">
<polygon fill="white" stroke="black" points="189,-164.5 189,-194.5 302,-194.5 302,-164.5 189,-164.5"/>
<text text-anchor="start" x="197" y="-182.5" font-family="Helvetica,sans-Serif" font-size="10.00">TUIO::TuioContainer</text>
<text text-anchor="middle" x="245.5" y="-171.5" font-family="Helvetica,sans-Serif" font-size="10.00">::getSessionID</text>
</a>
</g>
</g>
<!-- Node1&#45;&gt;Node3 -->
<g id="edge2" class="edge">
<title>Node1&#45;&gt;Node3</title>
<path fill="none" stroke="midnightblue" d="M100.98,-131.6C119.23,-138.86 141.64,-147.48 162,-154.5 168.81,-156.85 175.97,-159.2 183.12,-161.46"/>
<polygon fill="midnightblue" stroke="midnightblue" points="182.23,-164.85 192.82,-164.49 184.32,-158.17 182.23,-164.85"/>
</g>
<!-- Node4 -->
<g id="node4" class="node">
<title>Node4</title>
<g id="a_node4"><a xlink:href="../../d0/dd3/classTUIO_1_1TuioObject.html#a3e95c874a6dccb7fb85c786403931dee" target="_top" xlink:title=" ">
<polygon fill="white" stroke="black" points="162,-126 162,-145 329,-145 329,-126 162,-126"/>
<text text-anchor="middle" x="245.5" y="-133" font-family="Helvetica,sans-Serif" font-size="10.00">TUIO::TuioObject::getSymbolID</text>
</a>
</g>
</g>
<!-- Node1&#45;&gt;Node4 -->
<g id="edge3" class="edge">
<title>Node1&#45;&gt;Node4</title>
<path fill="none" stroke="midnightblue" d="M126.12,-123.04C134.4,-123.91 143.03,-124.82 151.7,-125.73"/>
<polygon fill="midnightblue" stroke="midnightblue" points="151.55,-129.24 161.87,-126.8 152.29,-122.27 151.55,-129.24"/>
</g>
<!-- Node5 -->
<g id="node5" class="node">
<title>Node5</title>
<g id="a_node5"><a xlink:href="../../d0/db6/classTUIO_1_1TuioPoint.html#a547710f33dd3786eaa8ca326b34911c0" target="_top" xlink:title=" ">
<polygon fill="white" stroke="black" points="186,-88 186,-107 305,-107 305,-88 186,-88"/>
<text text-anchor="middle" x="245.5" y="-95" font-family="Helvetica,sans-Serif" font-size="10.00">TUIO::TuioPoint::getX</text>
</a>
</g>
</g>
<!-- Node1&#45;&gt;Node5 -->
<g id="edge4" class="edge">
<title>Node1&#45;&gt;Node5</title>
<path fill="none" stroke="midnightblue" d="M126.12,-109.96C142.16,-108.27 159.53,-106.44 175.88,-104.72"/>
<polygon fill="midnightblue" stroke="midnightblue" points="176.34,-108.19 185.92,-103.67 175.6,-101.23 176.34,-108.19"/>
</g>
<!-- Node6 -->
<g id="node6" class="node">
<title>Node6</title>
<g id="a_node6"><a xlink:href="../../d0/db6/classTUIO_1_1TuioPoint.html#a2dbd53d10bbcddb6db271bdd30858733" target="_top" xlink:title=" ">
<polygon fill="white" stroke="black" points="186,-50 186,-69 305,-69 305,-50 186,-50"/>
<text text-anchor="middle" x="245.5" y="-57" font-family="Helvetica,sans-Serif" font-size="10.00">TUIO::TuioPoint::getY</text>
</a>
</g>
</g>
<!-- Node1&#45;&gt;Node6 -->
<g id="edge5" class="edge">
<title>Node1&#45;&gt;Node6</title>
<path fill="none" stroke="midnightblue" d="M99.41,-101.35C117.85,-93.83 140.89,-84.99 162,-78.5 170.18,-75.99 178.91,-73.63 187.51,-71.5"/>
<polygon fill="midnightblue" stroke="midnightblue" points="188.6,-74.84 197.51,-69.09 186.96,-68.03 188.6,-74.84"/>
</g>
<!-- Node7 -->
<g id="node7" class="node">
<title>Node7</title>
<g id="a_node7"><a xlink:href="../../d8/de3/classTUIO_1_1TuioContainer.html#a81900f11bc80ccb2b337676de91d9421" target="_top" xlink:title=" ">
<polygon fill="white" stroke="black" points="189,-0.5 189,-30.5 302,-30.5 302,-0.5 189,-0.5"/>
<text text-anchor="start" x="197" y="-18.5" font-family="Helvetica,sans-Serif" font-size="10.00">TUIO::TuioContainer</text>
<text text-anchor="middle" x="245.5" y="-7.5" font-family="Helvetica,sans-Serif" font-size="10.00">::setSessionID</text>
</a>
</g>
</g>
<!-- Node1&#45;&gt;Node7 -->
<g id="edge6" class="edge">
<title>Node1&#45;&gt;Node7</title>
<path fill="none" stroke="midnightblue" d="M79.72,-101.31C98.09,-84.32 130.06,-57.01 162,-40.5 167.5,-37.66 173.37,-35.08 179.35,-32.76"/>
<polygon fill="midnightblue" stroke="midnightblue" points="180.61,-36.03 188.81,-29.32 178.22,-29.45 180.61,-36.03"/>
</g>
</g>
</svg>
