<?xml version="1.0" encoding="UTF-8" standalone="no"?>
<!DOCTYPE svg PUBLIC "-//W3C//DTD SVG 1.1//EN"
 "http://www.w3.org/Graphics/SVG/1.1/DTD/svg11.dtd">
<!-- Generated by graphviz version 2.43.0 (0)
 -->
<!-- Title: TUIO::TuioManager::addExternalTuioBlob Pages: 1 -->
<svg width="302pt" height="394pt"
 viewBox="0.00 0.00 302.00 393.50" xmlns="http://www.w3.org/2000/svg" xmlns:xlink="http://www.w3.org/1999/xlink">
<g id="graph0" class="graph" transform="scale(1 1) rotate(0) translate(4 389.5)">
<title>TUIO::TuioManager::addExternalTuioBlob</title>
<polygon fill="white" stroke="transparent" points="-4,4 -4,-389.5 298,-389.5 298,4 -4,4"/>
<!-- Node1 -->
<g id="node1" class="node">
<title>Node1</title>
<g id="a_node1"><a xlink:title=" ">
<polygon fill="#bfbfbf" stroke="black" points="0,-180.5 0,-210.5 116,-210.5 116,-180.5 0,-180.5"/>
<text text-anchor="start" x="8" y="-198.5" font-family="Helvetica,sans-Serif" font-size="10.00">TUIO::TuioManager::</text>
<text text-anchor="middle" x="58" y="-187.5" font-family="Helvetica,sans-Serif" font-size="10.00">addExternalTuioBlob</text>
</a>
</g>
</g>
<!-- Node2 -->
<g id="node2" class="node">
<title>Node2</title>
<g id="a_node2"><a xlink:href="../../d1/dcf/classTUIO_1_1TuioBlob.html#a807abce60406535ca47b82cb2759df8b" target="_top" xlink:title=" ">
<polygon fill="white" stroke="black" points="154.5,-366 154.5,-385 291.5,-385 291.5,-366 154.5,-366"/>
<text text-anchor="middle" x="223" y="-373" font-family="Helvetica,sans-Serif" font-size="10.00">TUIO::TuioBlob::getAngle</text>
</a>
</g>
</g>
<!-- Node1&#45;&gt;Node2 -->
<g id="edge1" class="edge">
<title>Node1&#45;&gt;Node2</title>
<path fill="none" stroke="midnightblue" d="M63.36,-210.54C73.42,-242.52 101.35,-317.52 152,-356.5 154.47,-358.4 157.11,-360.11 159.87,-361.64"/>
<polygon fill="midnightblue" stroke="midnightblue" points="158.48,-364.86 169.02,-366 161.49,-358.54 158.48,-364.86"/>
</g>
<!-- Node3 -->
<g id="node3" class="node">
<title>Node3</title>
<g id="a_node3"><a xlink:href="../../d1/dcf/classTUIO_1_1TuioBlob.html#ab3665c8b01b0864b0863ee5ba639e36b" target="_top" xlink:title=" ">
<polygon fill="white" stroke="black" points="157,-328 157,-347 289,-347 289,-328 157,-328"/>
<text text-anchor="middle" x="223" y="-335" font-family="Helvetica,sans-Serif" font-size="10.00">TUIO::TuioBlob::getArea</text>
</a>
</g>
</g>
<!-- Node1&#45;&gt;Node3 -->
<g id="edge2" class="edge">
<title>Node1&#45;&gt;Node3</title>
<path fill="none" stroke="midnightblue" d="M66.16,-210.54C79.36,-236.63 110.08,-290.17 152,-318.5 155.05,-320.56 158.31,-322.4 161.7,-324.04"/>
<polygon fill="midnightblue" stroke="midnightblue" points="160.34,-327.26 170.92,-327.93 163.07,-320.81 160.34,-327.26"/>
</g>
<!-- Node4 -->
<g id="node4" class="node">
<title>Node4</title>
<g id="a_node4"><a xlink:href="../../d1/dcf/classTUIO_1_1TuioBlob.html#a75b865ab648794432ad62a6d862d4ad6" target="_top" xlink:title=" ">
<polygon fill="white" stroke="black" points="152,-290 152,-309 294,-309 294,-290 152,-290"/>
<text text-anchor="middle" x="223" y="-297" font-family="Helvetica,sans-Serif" font-size="10.00">TUIO::TuioBlob::getBlobID</text>
</a>
</g>
</g>
<!-- Node1&#45;&gt;Node4 -->
<g id="edge3" class="edge">
<title>Node1&#45;&gt;Node4</title>
<path fill="none" stroke="midnightblue" d="M71.53,-210.76C88.03,-229.86 118.84,-262.27 152,-280.5 156.02,-282.71 160.31,-284.68 164.72,-286.42"/>
<polygon fill="midnightblue" stroke="midnightblue" points="163.89,-289.84 174.48,-289.9 166.24,-283.25 163.89,-289.84"/>
</g>
<!-- Node5 -->
<g id="node5" class="node">
<title>Node5</title>
<g id="a_node5"><a xlink:href="../../d1/dcf/classTUIO_1_1TuioBlob.html#ada148b8140e9f251fc7fd70117be3e71" target="_top" xlink:title=" ">
<polygon fill="white" stroke="black" points="152,-252 152,-271 294,-271 294,-252 152,-252"/>
<text text-anchor="middle" x="223" y="-259" font-family="Helvetica,sans-Serif" font-size="10.00">TUIO::TuioBlob::getHeight</text>
</a>
</g>
</g>
<!-- Node1&#45;&gt;Node5 -->
<g id="edge4" class="edge">
<title>Node1&#45;&gt;Node5</title>
<path fill="none" stroke="midnightblue" d="M85.21,-210.55C103.49,-220.6 128.69,-233.55 152,-242.5 158.24,-244.9 164.9,-247.11 171.54,-249.13"/>
<polygon fill="midnightblue" stroke="midnightblue" points="170.62,-252.5 181.2,-251.92 172.57,-245.78 170.62,-252.5"/>
</g>
<!-- Node6 -->
<g id="node6" class="node">
<title>Node6</title>
<g id="a_node6"><a xlink:href="../../d8/de3/classTUIO_1_1TuioContainer.html#a43a9b95e3108a178e16c8d86a9816f8a" target="_top" xlink:title=" ">
<polygon fill="white" stroke="black" points="166.5,-202.5 166.5,-232.5 279.5,-232.5 279.5,-202.5 166.5,-202.5"/>
<text text-anchor="start" x="174.5" y="-220.5" font-family="Helvetica,sans-Serif" font-size="10.00">TUIO::TuioContainer</text>
<text text-anchor="middle" x="223" y="-209.5" font-family="Helvetica,sans-Serif" font-size="10.00">::getSessionID</text>
</a>
</g>
</g>
<!-- Node1&#45;&gt;Node6 -->
<g id="edge5" class="edge">
<title>Node1&#45;&gt;Node6</title>
<path fill="none" stroke="midnightblue" d="M116.01,-203.19C129.03,-204.95 142.97,-206.83 156.33,-208.64"/>
<polygon fill="midnightblue" stroke="midnightblue" points="156.02,-212.13 166.4,-210 156.95,-205.19 156.02,-212.13"/>
</g>
<!-- Node7 -->
<g id="node7" class="node">
<title>Node7</title>
<g id="a_node7"><a xlink:href="../../d1/dcf/classTUIO_1_1TuioBlob.html#a0e85862145fe92340f4552c91313d0fe" target="_top" xlink:title=" ">
<polygon fill="white" stroke="black" points="154,-164 154,-183 292,-183 292,-164 154,-164"/>
<text text-anchor="middle" x="223" y="-171" font-family="Helvetica,sans-Serif" font-size="10.00">TUIO::TuioBlob::getWidth</text>
</a>
</g>
</g>
<!-- Node1&#45;&gt;Node7 -->
<g id="edge6" class="edge">
<title>Node1&#45;&gt;Node7</title>
<path fill="none" stroke="midnightblue" d="M116.01,-187.81C124.98,-186.6 134.38,-185.33 143.73,-184.06"/>
<polygon fill="midnightblue" stroke="midnightblue" points="144.38,-187.51 153.82,-182.7 143.44,-180.57 144.38,-187.51"/>
</g>
<!-- Node8 -->
<g id="node8" class="node">
<title>Node8</title>
<g id="a_node8"><a xlink:href="../../d0/db6/classTUIO_1_1TuioPoint.html#a547710f33dd3786eaa8ca326b34911c0" target="_top" xlink:title=" ">
<polygon fill="white" stroke="black" points="163.5,-126 163.5,-145 282.5,-145 282.5,-126 163.5,-126"/>
<text text-anchor="middle" x="223" y="-133" font-family="Helvetica,sans-Serif" font-size="10.00">TUIO::TuioPoint::getX</text>
</a>
</g>
</g>
<!-- Node1&#45;&gt;Node8 -->
<g id="edge7" class="edge">
<title>Node1&#45;&gt;Node8</title>
<path fill="none" stroke="midnightblue" d="M89.95,-180.45C107.82,-172.12 130.87,-161.98 152,-154.5 158.77,-152.1 166.01,-149.83 173.16,-147.75"/>
<polygon fill="midnightblue" stroke="midnightblue" points="174.13,-151.11 182.8,-145.03 172.23,-144.37 174.13,-151.11"/>
</g>
<!-- Node9 -->
<g id="node9" class="node">
<title>Node9</title>
<g id="a_node9"><a xlink:href="../../d0/db6/classTUIO_1_1TuioPoint.html#a2dbd53d10bbcddb6db271bdd30858733" target="_top" xlink:title=" ">
<polygon fill="white" stroke="black" points="163.5,-88 163.5,-107 282.5,-107 282.5,-88 163.5,-88"/>
<text text-anchor="middle" x="223" y="-95" font-family="Helvetica,sans-Serif" font-size="10.00">TUIO::TuioPoint::getY</text>
</a>
</g>
</g>
<!-- Node1&#45;&gt;Node9 -->
<g id="edge8" class="edge">
<title>Node1&#45;&gt;Node9</title>
<path fill="none" stroke="midnightblue" d="M72.65,-180.42C89.58,-162.61 120.13,-133.28 152,-116.5 156.3,-114.24 160.89,-112.22 165.6,-110.44"/>
<polygon fill="midnightblue" stroke="midnightblue" points="167.03,-113.65 175.34,-107.08 164.75,-107.03 167.03,-113.65"/>
</g>
<!-- Node10 -->
<g id="node10" class="node">
<title>Node10</title>
<g id="a_node10"><a xlink:href="../../d1/dcf/classTUIO_1_1TuioBlob.html#a0a4e066fb9f830509b48ce15cf1a4737" target="_top" xlink:title=" ">
<polygon fill="white" stroke="black" points="152.5,-50 152.5,-69 293.5,-69 293.5,-50 152.5,-50"/>
<text text-anchor="middle" x="223" y="-57" font-family="Helvetica,sans-Serif" font-size="10.00">TUIO::TuioBlob::setBlobID</text>
</a>
</g>
</g>
<!-- Node1&#45;&gt;Node10 -->
<g id="edge9" class="edge">
<title>Node1&#45;&gt;Node10</title>
<path fill="none" stroke="midnightblue" d="M66.79,-180.4C80.53,-155.31 111.47,-105.18 152,-78.5 155.13,-76.44 158.48,-74.6 161.95,-72.96"/>
<polygon fill="midnightblue" stroke="midnightblue" points="163.46,-76.12 171.37,-69.07 160.79,-69.66 163.46,-76.12"/>
</g>
<!-- Node11 -->
<g id="node11" class="node">
<title>Node11</title>
<g id="a_node11"><a xlink:href="../../d8/de3/classTUIO_1_1TuioContainer.html#a81900f11bc80ccb2b337676de91d9421" target="_top" xlink:title=" ">
<polygon fill="white" stroke="black" points="166.5,-0.5 166.5,-30.5 279.5,-30.5 279.5,-0.5 166.5,-0.5"/>
<text text-anchor="start" x="174.5" y="-18.5" font-family="Helvetica,sans-Serif" font-size="10.00">TUIO::TuioContainer</text>
<text text-anchor="middle" x="223" y="-7.5" font-family="Helvetica,sans-Serif" font-size="10.00">::setSessionID</text>
</a>
</g>
</g>
<!-- Node1&#45;&gt;Node11 -->
<g id="edge10" class="edge">
<title>Node1&#45;&gt;Node11</title>
<path fill="none" stroke="midnightblue" d="M64.09,-180.37C75.19,-149.64 104.43,-79.5 152,-40.5 154.05,-38.82 156.23,-37.24 158.49,-35.77"/>
<polygon fill="midnightblue" stroke="midnightblue" points="160.63,-38.58 167.59,-30.59 157.17,-32.5 160.63,-38.58"/>
</g>
</g>
</svg>
