<?xml version="1.0" encoding="UTF-8" standalone="no"?>
<!DOCTYPE svg PUBLIC "-//W3C//DTD SVG 1.1//EN"
 "http://www.w3.org/Graphics/SVG/1.1/DTD/svg11.dtd">
<!-- Generated by graphviz version 2.43.0 (0)
 -->
<!-- Title: TUIO::TuioManager::stopUntouchedMovingBlobs Pages: 1 -->
<svg width="518pt" height="667pt"
 viewBox="0.00 0.00 518.00 667.00" xmlns="http://www.w3.org/2000/svg" xmlns:xlink="http://www.w3.org/1999/xlink">
<g id="graph0" class="graph" transform="scale(1 1) rotate(0) translate(4 663)">
<title>TUIO::TuioManager::stopUntouchedMovingBlobs</title>
<polygon fill="white" stroke="transparent" points="-4,4 -4,-663 514,-663 514,4 -4,4"/>
<!-- Node1 -->
<g id="node1" class="node">
<title>Node1</title>
<g id="a_node1"><a xlink:title=" ">
<polygon fill="#bfbfbf" stroke="black" points="0,-307 0,-337 153,-337 153,-307 0,-307"/>
<text text-anchor="start" x="8" y="-325" font-family="Helvetica,sans-Serif" font-size="10.00">TUIO::TuioManager::</text>
<text text-anchor="middle" x="76.5" y="-314" font-family="Helvetica,sans-Serif" font-size="10.00">stopUntouchedMovingBlobs</text>
</a>
</g>
</g>
<!-- Node2 -->
<g id="node2" class="node">
<title>Node2</title>
<g id="a_node2"><a xlink:href="../../d1/dcf/classTUIO_1_1TuioBlob.html#a807abce60406535ca47b82cb2759df8b" target="_top" xlink:title=" ">
<polygon fill="white" stroke="black" points="199,-639.5 199,-658.5 336,-658.5 336,-639.5 199,-639.5"/>
<text text-anchor="middle" x="267.5" y="-646.5" font-family="Helvetica,sans-Serif" font-size="10.00">TUIO::TuioBlob::getAngle</text>
</a>
</g>
</g>
<!-- Node1&#45;&gt;Node2 -->
<g id="edge1" class="edge">
<title>Node1&#45;&gt;Node2</title>
<path fill="none" stroke="midnightblue" d="M78.19,-337.23C81.3,-387.33 98.26,-548.48 189,-630 190.72,-631.54 192.54,-632.96 194.44,-634.27"/>
<polygon fill="midnightblue" stroke="midnightblue" points="192.85,-637.4 203.27,-639.34 196.34,-631.33 192.85,-637.4"/>
</g>
<!-- Node3 -->
<g id="node3" class="node">
<title>Node3</title>
<g id="a_node3"><a xlink:href="../../d1/dcf/classTUIO_1_1TuioBlob.html#ab3665c8b01b0864b0863ee5ba639e36b" target="_top" xlink:title=" ">
<polygon fill="white" stroke="black" points="201.5,-601.5 201.5,-620.5 333.5,-620.5 333.5,-601.5 201.5,-601.5"/>
<text text-anchor="middle" x="267.5" y="-608.5" font-family="Helvetica,sans-Serif" font-size="10.00">TUIO::TuioBlob::getArea</text>
</a>
</g>
</g>
<!-- Node1&#45;&gt;Node3 -->
<g id="edge2" class="edge">
<title>Node1&#45;&gt;Node3</title>
<path fill="none" stroke="midnightblue" d="M79.06,-337.3C84.61,-383.41 107.64,-522.1 189,-592 190.98,-593.7 193.08,-595.25 195.28,-596.67"/>
<polygon fill="midnightblue" stroke="midnightblue" points="193.75,-599.81 204.21,-601.49 197.08,-593.66 193.75,-599.81"/>
</g>
<!-- Node4 -->
<g id="node4" class="node">
<title>Node4</title>
<g id="a_node4"><a xlink:href="../../d1/dcf/classTUIO_1_1TuioBlob.html#a75b865ab648794432ad62a6d862d4ad6" target="_top" xlink:title=" ">
<polygon fill="white" stroke="black" points="196.5,-563.5 196.5,-582.5 338.5,-582.5 338.5,-563.5 196.5,-563.5"/>
<text text-anchor="middle" x="267.5" y="-570.5" font-family="Helvetica,sans-Serif" font-size="10.00">TUIO::TuioBlob::getBlobID</text>
</a>
</g>
</g>
<!-- Node1&#45;&gt;Node4 -->
<g id="edge3" class="edge">
<title>Node1&#45;&gt;Node4</title>
<path fill="none" stroke="midnightblue" d="M80.18,-337.23C88.32,-378.88 116.82,-495.44 189,-554 191.07,-555.68 193.27,-557.22 195.56,-558.62"/>
<polygon fill="midnightblue" stroke="midnightblue" points="194.33,-561.92 204.82,-563.39 197.54,-555.7 194.33,-561.92"/>
</g>
<!-- Node5 -->
<g id="node5" class="node">
<title>Node5</title>
<g id="a_node5"><a xlink:href="../../d1/dcf/classTUIO_1_1TuioBlob.html#ada148b8140e9f251fc7fd70117be3e71" target="_top" xlink:title=" ">
<polygon fill="white" stroke="black" points="196.5,-525.5 196.5,-544.5 338.5,-544.5 338.5,-525.5 196.5,-525.5"/>
<text text-anchor="middle" x="267.5" y="-532.5" font-family="Helvetica,sans-Serif" font-size="10.00">TUIO::TuioBlob::getHeight</text>
</a>
</g>
</g>
<!-- Node1&#45;&gt;Node5 -->
<g id="edge4" class="edge">
<title>Node1&#45;&gt;Node5</title>
<path fill="none" stroke="midnightblue" d="M81.67,-337.14C92.63,-373.92 125.82,-468.49 189,-516 191.47,-517.86 194.09,-519.53 196.83,-521.05"/>
<polygon fill="midnightblue" stroke="midnightblue" points="195.35,-524.22 205.89,-525.35 198.36,-517.9 195.35,-524.22"/>
</g>
<!-- Node6 -->
<g id="node6" class="node">
<title>Node6</title>
<g id="a_node6"><a xlink:href="../../d8/de3/classTUIO_1_1TuioContainer.html#aca8c7670af13d100999eb4663ead8281" target="_top" xlink:title=" ">
<polygon fill="white" stroke="black" points="211,-476 211,-506 324,-506 324,-476 211,-476"/>
<text text-anchor="start" x="219" y="-494" font-family="Helvetica,sans-Serif" font-size="10.00">TUIO::TuioContainer</text>
<text text-anchor="middle" x="267.5" y="-483" font-family="Helvetica,sans-Serif" font-size="10.00">::getMotionAccel</text>
</a>
</g>
</g>
<!-- Node1&#45;&gt;Node6 -->
<g id="edge5" class="edge">
<title>Node1&#45;&gt;Node6</title>
<path fill="none" stroke="midnightblue" d="M85.05,-337.2C100.47,-366.69 138.43,-431.82 189,-467 192.91,-469.72 197.15,-472.14 201.55,-474.3"/>
<polygon fill="midnightblue" stroke="midnightblue" points="200.2,-477.53 210.76,-478.35 203.02,-471.12 200.2,-477.53"/>
</g>
<!-- Node7 -->
<g id="node7" class="node">
<title>Node7</title>
<g id="a_node7"><a xlink:href="../../d1/dcf/classTUIO_1_1TuioBlob.html#aa52fee5957a0bded74e670ea00ceeceb" target="_top" xlink:title=" ">
<polygon fill="white" stroke="black" points="192,-427 192,-457 343,-457 343,-427 192,-427"/>
<text text-anchor="start" x="200" y="-445" font-family="Helvetica,sans-Serif" font-size="10.00">TUIO::TuioBlob::getRotation</text>
<text text-anchor="middle" x="267.5" y="-434" font-family="Helvetica,sans-Serif" font-size="10.00">Accel</text>
</a>
</g>
</g>
<!-- Node1&#45;&gt;Node7 -->
<g id="edge6" class="edge">
<title>Node1&#45;&gt;Node7</title>
<path fill="none" stroke="midnightblue" d="M91.17,-337.17C110.85,-358.17 149.22,-395.98 189,-418 192.21,-419.78 195.56,-421.44 199.01,-422.99"/>
<polygon fill="midnightblue" stroke="midnightblue" points="197.7,-426.24 208.28,-426.86 200.39,-419.78 197.7,-426.24"/>
</g>
<!-- Node8 -->
<g id="node8" class="node">
<title>Node8</title>
<g id="a_node8"><a xlink:href="../../d1/dcf/classTUIO_1_1TuioBlob.html#a71fb8b327590a287e08a76804e237d84" target="_top" xlink:title=" ">
<polygon fill="white" stroke="black" points="192,-378 192,-408 343,-408 343,-378 192,-378"/>
<text text-anchor="start" x="200" y="-396" font-family="Helvetica,sans-Serif" font-size="10.00">TUIO::TuioBlob::getRotation</text>
<text text-anchor="middle" x="267.5" y="-385" font-family="Helvetica,sans-Serif" font-size="10.00">Speed</text>
</a>
</g>
</g>
<!-- Node1&#45;&gt;Node8 -->
<g id="edge7" class="edge">
<title>Node1&#45;&gt;Node8</title>
<path fill="none" stroke="midnightblue" d="M110.82,-337.06C132.81,-346.75 162.36,-359.29 189,-369 194.43,-370.98 200.1,-372.94 205.81,-374.84"/>
<polygon fill="midnightblue" stroke="midnightblue" points="204.81,-378.19 215.4,-377.96 206.98,-371.54 204.81,-378.19"/>
</g>
<!-- Node9 -->
<g id="node9" class="node">
<title>Node9</title>
<g id="a_node9"><a xlink:href="../../d8/de3/classTUIO_1_1TuioContainer.html#a43a9b95e3108a178e16c8d86a9816f8a" target="_top" xlink:title=" ">
<polygon fill="white" stroke="black" points="211,-329 211,-359 324,-359 324,-329 211,-329"/>
<text text-anchor="start" x="219" y="-347" font-family="Helvetica,sans-Serif" font-size="10.00">TUIO::TuioContainer</text>
<text text-anchor="middle" x="267.5" y="-336" font-family="Helvetica,sans-Serif" font-size="10.00">::getSessionID</text>
</a>
</g>
</g>
<!-- Node1&#45;&gt;Node9 -->
<g id="edge8" class="edge">
<title>Node1&#45;&gt;Node9</title>
<path fill="none" stroke="midnightblue" d="M153.01,-330.79C168.87,-332.64 185.47,-334.57 200.93,-336.37"/>
<polygon fill="midnightblue" stroke="midnightblue" points="200.56,-339.85 210.9,-337.53 201.37,-332.9 200.56,-339.85"/>
</g>
<!-- Node10 -->
<g id="node10" class="node">
<title>Node10</title>
<g id="a_node10"><a xlink:href="../../d0/db6/classTUIO_1_1TuioPoint.html#ac86687cf27772d0fd602c2044b6c8cdd" target="_top" xlink:title=" ">
<polygon fill="white" stroke="black" points="189,-290.5 189,-309.5 346,-309.5 346,-290.5 189,-290.5"/>
<text text-anchor="middle" x="267.5" y="-297.5" font-family="Helvetica,sans-Serif" font-size="10.00">TUIO::TuioPoint::getTuioTime</text>
</a>
</g>
</g>
<!-- Node1&#45;&gt;Node10 -->
<g id="edge9" class="edge">
<title>Node1&#45;&gt;Node10</title>
<path fill="none" stroke="midnightblue" d="M153.01,-313.21C161.51,-312.22 170.22,-311.21 178.86,-310.2"/>
<polygon fill="midnightblue" stroke="midnightblue" points="179.42,-313.66 188.94,-309.03 178.61,-306.71 179.42,-313.66"/>
</g>
<!-- Node11 -->
<g id="node11" class="node">
<title>Node11</title>
<g id="a_node11"><a xlink:href="../../d1/dcf/classTUIO_1_1TuioBlob.html#a0e85862145fe92340f4552c91313d0fe" target="_top" xlink:title=" ">
<polygon fill="white" stroke="black" points="198.5,-252.5 198.5,-271.5 336.5,-271.5 336.5,-252.5 198.5,-252.5"/>
<text text-anchor="middle" x="267.5" y="-259.5" font-family="Helvetica,sans-Serif" font-size="10.00">TUIO::TuioBlob::getWidth</text>
</a>
</g>
</g>
<!-- Node1&#45;&gt;Node11 -->
<g id="edge10" class="edge">
<title>Node1&#45;&gt;Node11</title>
<path fill="none" stroke="midnightblue" d="M115.07,-306.99C136.53,-298.72 164.05,-288.62 189,-281 197.09,-278.53 205.74,-276.15 214.21,-273.97"/>
<polygon fill="midnightblue" stroke="midnightblue" points="215.19,-277.34 224.03,-271.5 213.48,-270.55 215.19,-277.34"/>
</g>
<!-- Node12 -->
<g id="node12" class="node">
<title>Node12</title>
<g id="a_node12"><a xlink:href="../../d0/db6/classTUIO_1_1TuioPoint.html#a547710f33dd3786eaa8ca326b34911c0" target="_top" xlink:title=" ">
<polygon fill="white" stroke="black" points="208,-214.5 208,-233.5 327,-233.5 327,-214.5 208,-214.5"/>
<text text-anchor="middle" x="267.5" y="-221.5" font-family="Helvetica,sans-Serif" font-size="10.00">TUIO::TuioPoint::getX</text>
</a>
</g>
</g>
<!-- Node1&#45;&gt;Node12 -->
<g id="edge11" class="edge">
<title>Node1&#45;&gt;Node12</title>
<path fill="none" stroke="midnightblue" d="M94.37,-306.92C115.18,-289.09 152.31,-259.75 189,-243 194.33,-240.57 200.01,-238.42 205.78,-236.53"/>
<polygon fill="midnightblue" stroke="midnightblue" points="206.98,-239.82 215.54,-233.59 204.96,-233.12 206.98,-239.82"/>
</g>
<!-- Node13 -->
<g id="node13" class="node">
<title>Node13</title>
<g id="a_node13"><a xlink:href="../../d8/de3/classTUIO_1_1TuioContainer.html#ad71a4dba72e5c46fa8b8f7fc0f961705" target="_top" xlink:title=" ">
<polygon fill="white" stroke="black" points="211,-165 211,-195 324,-195 324,-165 211,-165"/>
<text text-anchor="start" x="219" y="-183" font-family="Helvetica,sans-Serif" font-size="10.00">TUIO::TuioContainer</text>
<text text-anchor="middle" x="267.5" y="-172" font-family="Helvetica,sans-Serif" font-size="10.00">::getXSpeed</text>
</a>
</g>
</g>
<!-- Node1&#45;&gt;Node13 -->
<g id="edge12" class="edge">
<title>Node1&#45;&gt;Node13</title>
<path fill="none" stroke="midnightblue" d="M88.04,-306.77C105.97,-281.94 144.8,-232.76 189,-205 192.88,-202.57 197.01,-200.35 201.28,-198.33"/>
<polygon fill="midnightblue" stroke="midnightblue" points="202.99,-201.4 210.78,-194.22 200.21,-194.98 202.99,-201.4"/>
</g>
<!-- Node14 -->
<g id="node14" class="node">
<title>Node14</title>
<g id="a_node14"><a xlink:href="../../d0/db6/classTUIO_1_1TuioPoint.html#a2dbd53d10bbcddb6db271bdd30858733" target="_top" xlink:title=" ">
<polygon fill="white" stroke="black" points="208,-126.5 208,-145.5 327,-145.5 327,-126.5 208,-126.5"/>
<text text-anchor="middle" x="267.5" y="-133.5" font-family="Helvetica,sans-Serif" font-size="10.00">TUIO::TuioPoint::getY</text>
</a>
</g>
</g>
<!-- Node1&#45;&gt;Node14 -->
<g id="edge13" class="edge">
<title>Node1&#45;&gt;Node14</title>
<path fill="none" stroke="midnightblue" d="M83.23,-306.91C96.51,-274.08 132.61,-195.91 189,-156 192.45,-153.56 196.16,-151.42 200.04,-149.54"/>
<polygon fill="midnightblue" stroke="midnightblue" points="201.49,-152.73 209.33,-145.61 198.76,-146.28 201.49,-152.73"/>
</g>
<!-- Node15 -->
<g id="node15" class="node">
<title>Node15</title>
<g id="a_node15"><a xlink:href="../../d8/de3/classTUIO_1_1TuioContainer.html#af96183810e34c1ead6a6787fcf03c171" target="_top" xlink:title=" ">
<polygon fill="white" stroke="black" points="211,-77 211,-107 324,-107 324,-77 211,-77"/>
<text text-anchor="start" x="219" y="-95" font-family="Helvetica,sans-Serif" font-size="10.00">TUIO::TuioContainer</text>
<text text-anchor="middle" x="267.5" y="-84" font-family="Helvetica,sans-Serif" font-size="10.00">::getYSpeed</text>
</a>
</g>
</g>
<!-- Node1&#45;&gt;Node15 -->
<g id="edge14" class="edge">
<title>Node1&#45;&gt;Node15</title>
<path fill="none" stroke="midnightblue" d="M81.48,-306.87C92.19,-269.09 125.23,-169.89 189,-117 192.91,-113.76 197.25,-110.93 201.83,-108.47"/>
<polygon fill="midnightblue" stroke="midnightblue" points="203.33,-111.63 210.86,-104.17 200.32,-105.31 203.33,-111.63"/>
</g>
<!-- Node16 -->
<g id="node16" class="node">
<title>Node16</title>
<g id="a_node16"><a xlink:href="../../d1/dcf/classTUIO_1_1TuioBlob.html#a42bebf90d562cda2ad5db67a9acba3d5" target="_top" xlink:title=" ">
<polygon fill="white" stroke="black" points="198.5,-38.5 198.5,-57.5 336.5,-57.5 336.5,-38.5 198.5,-38.5"/>
<text text-anchor="middle" x="267.5" y="-45.5" font-family="Helvetica,sans-Serif" font-size="10.00">TUIO::TuioBlob::isMoving</text>
</a>
</g>
</g>
<!-- Node1&#45;&gt;Node16 -->
<g id="edge15" class="edge">
<title>Node1&#45;&gt;Node16</title>
<path fill="none" stroke="midnightblue" d="M79.54,-306.69C86.29,-262.47 111.97,-133.53 189,-68 191.54,-65.84 194.29,-63.91 197.17,-62.18"/>
<polygon fill="midnightblue" stroke="midnightblue" points="198.88,-65.24 206.21,-57.6 195.71,-59 198.88,-65.24"/>
</g>
<!-- Node17 -->
<g id="node17" class="node">
<title>Node17</title>
<g id="a_node17"><a xlink:href="../../d1/dcf/classTUIO_1_1TuioBlob.html#aa8eb64f5b7f543c578581b0ed5f26519" target="_top" xlink:title=" ">
<polygon fill="white" stroke="black" points="210,-0.5 210,-19.5 325,-19.5 325,-0.5 210,-0.5"/>
<text text-anchor="middle" x="267.5" y="-7.5" font-family="Helvetica,sans-Serif" font-size="10.00">TUIO::TuioBlob::stop</text>
</a>
</g>
</g>
<!-- Node1&#45;&gt;Node17 -->
<g id="edge16" class="edge">
<title>Node1&#45;&gt;Node17</title>
<path fill="none" stroke="midnightblue" d="M78.5,-306.82C82.54,-258.34 101.93,-105.95 189,-29 192.48,-25.92 196.38,-23.33 200.53,-21.14"/>
<polygon fill="midnightblue" stroke="midnightblue" points="202.21,-24.22 209.94,-16.97 199.38,-17.82 202.21,-24.22"/>
</g>
<!-- Node18 -->
<g id="node18" class="node">
<title>Node18</title>
<g id="a_node18"><a xlink:href="../../d1/dcf/classTUIO_1_1TuioBlob.html#aed52146a83f9f27712ce704a42d5d78f" target="_top" xlink:title=" ">
<polygon fill="white" stroke="black" points="382,-0.5 382,-19.5 510,-19.5 510,-0.5 382,-0.5"/>
<text text-anchor="middle" x="446" y="-7.5" font-family="Helvetica,sans-Serif" font-size="10.00">TUIO::TuioBlob::update</text>
</a>
</g>
</g>
<!-- Node17&#45;&gt;Node18 -->
<g id="edge17" class="edge">
<title>Node17&#45;&gt;Node18</title>
<path fill="none" stroke="midnightblue" d="M325.32,-10C340.11,-10 356.27,-10 371.78,-10"/>
<polygon fill="midnightblue" stroke="midnightblue" points="371.87,-13.5 381.87,-10 371.87,-6.5 371.87,-13.5"/>
</g>
</g>
</svg>
