<?xml version="1.0" encoding="UTF-8" standalone="no"?>
<!DOCTYPE svg PUBLIC "-//W3C//DTD SVG 1.1//EN"
 "http://www.w3.org/Graphics/SVG/1.1/DTD/svg11.dtd">
<!-- Generated by graphviz version 2.43.0 (0)
 -->
<!-- Title: TUIO::TuioManager::stopUntouchedMovingCursors Pages: 1 -->
<svg width="517pt" height="439pt"
 viewBox="0.00 0.00 517.00 438.50" xmlns="http://www.w3.org/2000/svg" xmlns:xlink="http://www.w3.org/1999/xlink">
<g id="graph0" class="graph" transform="scale(1 1) rotate(0) translate(4 434.5)">
<title>TUIO::TuioManager::stopUntouchedMovingCursors</title>
<polygon fill="white" stroke="transparent" points="-4,4 -4,-434.5 513,-434.5 513,4 -4,4"/>
<!-- Node1 -->
<g id="node1" class="node">
<title>Node1</title>
<g id="a_node1"><a xlink:title=" ">
<polygon fill="#bfbfbf" stroke="black" points="0,-208.5 0,-238.5 163,-238.5 163,-208.5 0,-208.5"/>
<text text-anchor="start" x="8" y="-226.5" font-family="Helvetica,sans-Serif" font-size="10.00">TUIO::TuioManager::</text>
<text text-anchor="middle" x="81.5" y="-215.5" font-family="Helvetica,sans-Serif" font-size="10.00">stopUntouchedMovingCursors</text>
</a>
</g>
</g>
<!-- Node2 -->
<g id="node2" class="node">
<title>Node2</title>
<g id="a_node2"><a xlink:href="../../d9/d95/classTUIO_1_1TuioCursor.html#a55c048bba2996a908b722f2fada39afb" target="_top" xlink:title=" ">
<polygon fill="white" stroke="black" points="199,-411 199,-430 360,-430 360,-411 199,-411"/>
<text text-anchor="middle" x="279.5" y="-418" font-family="Helvetica,sans-Serif" font-size="10.00">TUIO::TuioCursor::getCursorID</text>
</a>
</g>
</g>
<!-- Node1&#45;&gt;Node2 -->
<g id="edge1" class="edge">
<title>Node1&#45;&gt;Node2</title>
<path fill="none" stroke="midnightblue" d="M87.91,-238.7C101.09,-273.42 138.28,-358.79 199,-401.5 201.73,-403.42 204.62,-405.14 207.64,-406.7"/>
<polygon fill="midnightblue" stroke="midnightblue" points="206.41,-409.98 216.96,-410.86 209.26,-403.59 206.41,-409.98"/>
</g>
<!-- Node3 -->
<g id="node3" class="node">
<title>Node3</title>
<g id="a_node3"><a xlink:href="../../d8/de3/classTUIO_1_1TuioContainer.html#aca8c7670af13d100999eb4663ead8281" target="_top" xlink:title=" ">
<polygon fill="white" stroke="black" points="223,-361.5 223,-391.5 336,-391.5 336,-361.5 223,-361.5"/>
<text text-anchor="start" x="231" y="-379.5" font-family="Helvetica,sans-Serif" font-size="10.00">TUIO::TuioContainer</text>
<text text-anchor="middle" x="279.5" y="-368.5" font-family="Helvetica,sans-Serif" font-size="10.00">::getMotionAccel</text>
</a>
</g>
</g>
<!-- Node1&#45;&gt;Node3 -->
<g id="edge2" class="edge">
<title>Node1&#45;&gt;Node3</title>
<path fill="none" stroke="midnightblue" d="M92.08,-238.68C109.85,-265.62 150.57,-321.81 199,-352.5 203.57,-355.39 208.5,-357.95 213.6,-360.22"/>
<polygon fill="midnightblue" stroke="midnightblue" points="212.32,-363.48 222.9,-363.98 214.94,-356.99 212.32,-363.48"/>
</g>
<!-- Node4 -->
<g id="node4" class="node">
<title>Node4</title>
<g id="a_node4"><a xlink:href="../../d8/de3/classTUIO_1_1TuioContainer.html#a43a9b95e3108a178e16c8d86a9816f8a" target="_top" xlink:title=" ">
<polygon fill="white" stroke="black" points="223,-312.5 223,-342.5 336,-342.5 336,-312.5 223,-312.5"/>
<text text-anchor="start" x="231" y="-330.5" font-family="Helvetica,sans-Serif" font-size="10.00">TUIO::TuioContainer</text>
<text text-anchor="middle" x="279.5" y="-319.5" font-family="Helvetica,sans-Serif" font-size="10.00">::getSessionID</text>
</a>
</g>
</g>
<!-- Node1&#45;&gt;Node4 -->
<g id="edge3" class="edge">
<title>Node1&#45;&gt;Node4</title>
<path fill="none" stroke="midnightblue" d="M101.23,-238.75C123.42,-256.19 162.04,-284.63 199,-302.5 203.68,-304.76 208.62,-306.89 213.64,-308.86"/>
<polygon fill="midnightblue" stroke="midnightblue" points="212.78,-312.27 223.38,-312.47 215.22,-305.71 212.78,-312.27"/>
</g>
<!-- Node5 -->
<g id="node5" class="node">
<title>Node5</title>
<g id="a_node5"><a xlink:href="../../d0/db6/classTUIO_1_1TuioPoint.html#ac86687cf27772d0fd602c2044b6c8cdd" target="_top" xlink:title=" ">
<polygon fill="white" stroke="black" points="201,-274 201,-293 358,-293 358,-274 201,-274"/>
<text text-anchor="middle" x="279.5" y="-281" font-family="Helvetica,sans-Serif" font-size="10.00">TUIO::TuioPoint::getTuioTime</text>
</a>
</g>
</g>
<!-- Node1&#45;&gt;Node5 -->
<g id="edge4" class="edge">
<title>Node1&#45;&gt;Node5</title>
<path fill="none" stroke="midnightblue" d="M122.07,-238.57C144.46,-246.81 173.08,-256.87 199,-264.5 207.41,-266.98 216.38,-269.36 225.17,-271.56"/>
<polygon fill="midnightblue" stroke="midnightblue" points="224.42,-274.98 234.96,-273.96 226.08,-268.18 224.42,-274.98"/>
</g>
<!-- Node6 -->
<g id="node6" class="node">
<title>Node6</title>
<g id="a_node6"><a xlink:href="../../d0/db6/classTUIO_1_1TuioPoint.html#a547710f33dd3786eaa8ca326b34911c0" target="_top" xlink:title=" ">
<polygon fill="white" stroke="black" points="220,-236 220,-255 339,-255 339,-236 220,-236"/>
<text text-anchor="middle" x="279.5" y="-243" font-family="Helvetica,sans-Serif" font-size="10.00">TUIO::TuioPoint::getX</text>
</a>
</g>
</g>
<!-- Node1&#45;&gt;Node6 -->
<g id="edge5" class="edge">
<title>Node1&#45;&gt;Node6</title>
<path fill="none" stroke="midnightblue" d="M163.07,-232.54C178.51,-234.28 194.55,-236.08 209.58,-237.76"/>
<polygon fill="midnightblue" stroke="midnightblue" points="209.48,-241.28 219.81,-238.91 210.26,-234.32 209.48,-241.28"/>
</g>
<!-- Node7 -->
<g id="node7" class="node">
<title>Node7</title>
<g id="a_node7"><a xlink:href="../../d8/de3/classTUIO_1_1TuioContainer.html#ad71a4dba72e5c46fa8b8f7fc0f961705" target="_top" xlink:title=" ">
<polygon fill="white" stroke="black" points="223,-186.5 223,-216.5 336,-216.5 336,-186.5 223,-186.5"/>
<text text-anchor="start" x="231" y="-204.5" font-family="Helvetica,sans-Serif" font-size="10.00">TUIO::TuioContainer</text>
<text text-anchor="middle" x="279.5" y="-193.5" font-family="Helvetica,sans-Serif" font-size="10.00">::getXSpeed</text>
</a>
</g>
</g>
<!-- Node1&#45;&gt;Node7 -->
<g id="edge6" class="edge">
<title>Node1&#45;&gt;Node7</title>
<path fill="none" stroke="midnightblue" d="M163.07,-214.46C179.53,-212.61 196.66,-210.69 212.53,-208.9"/>
<polygon fill="midnightblue" stroke="midnightblue" points="213.22,-212.35 222.76,-207.76 212.44,-205.39 213.22,-212.35"/>
</g>
<!-- Node8 -->
<g id="node8" class="node">
<title>Node8</title>
<g id="a_node8"><a xlink:href="../../d0/db6/classTUIO_1_1TuioPoint.html#a2dbd53d10bbcddb6db271bdd30858733" target="_top" xlink:title=" ">
<polygon fill="white" stroke="black" points="220,-148 220,-167 339,-167 339,-148 220,-148"/>
<text text-anchor="middle" x="279.5" y="-155" font-family="Helvetica,sans-Serif" font-size="10.00">TUIO::TuioPoint::getY</text>
</a>
</g>
</g>
<!-- Node1&#45;&gt;Node8 -->
<g id="edge7" class="edge">
<title>Node1&#45;&gt;Node8</title>
<path fill="none" stroke="midnightblue" d="M117.25,-208.41C140.19,-198.79 171.05,-186.49 199,-177.5 207.76,-174.68 217.16,-172.01 226.32,-169.6"/>
<polygon fill="midnightblue" stroke="midnightblue" points="227.31,-172.96 236.13,-167.08 225.57,-166.18 227.31,-172.96"/>
</g>
<!-- Node9 -->
<g id="node9" class="node">
<title>Node9</title>
<g id="a_node9"><a xlink:href="../../d8/de3/classTUIO_1_1TuioContainer.html#af96183810e34c1ead6a6787fcf03c171" target="_top" xlink:title=" ">
<polygon fill="white" stroke="black" points="223,-98.5 223,-128.5 336,-128.5 336,-98.5 223,-98.5"/>
<text text-anchor="start" x="231" y="-116.5" font-family="Helvetica,sans-Serif" font-size="10.00">TUIO::TuioContainer</text>
<text text-anchor="middle" x="279.5" y="-105.5" font-family="Helvetica,sans-Serif" font-size="10.00">::getYSpeed</text>
</a>
</g>
</g>
<!-- Node1&#45;&gt;Node9 -->
<g id="edge8" class="edge">
<title>Node1&#45;&gt;Node9</title>
<path fill="none" stroke="midnightblue" d="M99.48,-208.32C121.18,-189.61 160.56,-157.91 199,-138.5 203.56,-136.2 208.38,-134.05 213.3,-132.07"/>
<polygon fill="midnightblue" stroke="midnightblue" points="214.73,-135.27 222.84,-128.44 212.25,-128.72 214.73,-135.27"/>
</g>
<!-- Node10 -->
<g id="node10" class="node">
<title>Node10</title>
<g id="a_node10"><a xlink:href="../../d8/de3/classTUIO_1_1TuioContainer.html#a96bbcd7b0e99c5302db519c0b4750543" target="_top" xlink:title=" ">
<polygon fill="white" stroke="black" points="223,-49.5 223,-79.5 336,-79.5 336,-49.5 223,-49.5"/>
<text text-anchor="start" x="231" y="-67.5" font-family="Helvetica,sans-Serif" font-size="10.00">TUIO::TuioContainer</text>
<text text-anchor="middle" x="279.5" y="-56.5" font-family="Helvetica,sans-Serif" font-size="10.00">::isMoving</text>
</a>
</g>
</g>
<!-- Node1&#45;&gt;Node10 -->
<g id="edge9" class="edge">
<title>Node1&#45;&gt;Node10</title>
<path fill="none" stroke="midnightblue" d="M91.69,-208.21C109.14,-180.48 149.75,-121.76 199,-89.5 203.54,-86.53 208.45,-83.89 213.54,-81.55"/>
<polygon fill="midnightblue" stroke="midnightblue" points="214.95,-84.75 222.82,-77.66 212.25,-78.3 214.95,-84.75"/>
</g>
<!-- Node11 -->
<g id="node11" class="node">
<title>Node11</title>
<g id="a_node11"><a xlink:href="../../d8/de3/classTUIO_1_1TuioContainer.html#af848b7d520cef0f905abfaae6f99811f" target="_top" xlink:title=" ">
<polygon fill="white" stroke="black" points="223,-0.5 223,-30.5 336,-30.5 336,-0.5 223,-0.5"/>
<text text-anchor="start" x="231" y="-18.5" font-family="Helvetica,sans-Serif" font-size="10.00">TUIO::TuioContainer</text>
<text text-anchor="middle" x="279.5" y="-7.5" font-family="Helvetica,sans-Serif" font-size="10.00">::stop</text>
</a>
</g>
</g>
<!-- Node1&#45;&gt;Node11 -->
<g id="edge10" class="edge">
<title>Node1&#45;&gt;Node11</title>
<path fill="none" stroke="midnightblue" d="M87.9,-208.43C101.18,-173.54 138.78,-86.69 199,-40.5 203.45,-37.09 208.37,-34.14 213.52,-31.58"/>
<polygon fill="midnightblue" stroke="midnightblue" points="215.26,-34.64 222.99,-27.41 212.43,-28.24 215.26,-34.64"/>
</g>
<!-- Node12 -->
<g id="node12" class="node">
<title>Node12</title>
<g id="a_node12"><a xlink:href="../../d8/de3/classTUIO_1_1TuioContainer.html#ae6ed82aba4186921dc911a382f7e5f33" target="_top" xlink:title=" ">
<polygon fill="white" stroke="black" points="396,-0.5 396,-30.5 509,-30.5 509,-0.5 396,-0.5"/>
<text text-anchor="start" x="404" y="-18.5" font-family="Helvetica,sans-Serif" font-size="10.00">TUIO::TuioContainer</text>
<text text-anchor="middle" x="452.5" y="-7.5" font-family="Helvetica,sans-Serif" font-size="10.00">::update</text>
</a>
</g>
</g>
<!-- Node11&#45;&gt;Node12 -->
<g id="edge11" class="edge">
<title>Node11&#45;&gt;Node12</title>
<path fill="none" stroke="midnightblue" d="M336.02,-15.5C351.93,-15.5 369.42,-15.5 385.88,-15.5"/>
<polygon fill="midnightblue" stroke="midnightblue" points="385.97,-19 395.97,-15.5 385.97,-12 385.97,-19"/>
</g>
</g>
</svg>
