<?xml version="1.0" encoding="UTF-8" standalone="no"?>
<!DOCTYPE svg PUBLIC "-//W3C//DTD SVG 1.1//EN"
 "http://www.w3.org/Graphics/SVG/1.1/DTD/svg11.dtd">
<!-- Generated by graphviz version 2.43.0 (0)
 -->
<!-- Title: TUIO::TuioManager::addTuioBlob Pages: 1 -->
<svg width="301pt" height="306pt"
 viewBox="0.00 0.00 301.00 306.00" xmlns="http://www.w3.org/2000/svg" xmlns:xlink="http://www.w3.org/1999/xlink">
<g id="graph0" class="graph" transform="scale(1 1) rotate(0) translate(4 302)">
<title>TUIO::TuioManager::addTuioBlob</title>
<polygon fill="white" stroke="transparent" points="-4,4 -4,-302 297,-302 297,4 -4,4"/>
<!-- Node1 -->
<g id="node1" class="node">
<title>Node1</title>
<g id="a_node1"><a xlink:title=" ">
<polygon fill="#bfbfbf" stroke="black" points="0,-137 0,-167 115,-167 115,-137 0,-137"/>
<text text-anchor="start" x="8" y="-155" font-family="Helvetica,sans-Serif" font-size="10.00">TUIO::TuioManager::</text>
<text text-anchor="middle" x="57.5" y="-144" font-family="Helvetica,sans-Serif" font-size="10.00">addTuioBlob</text>
</a>
</g>
</g>
<!-- Node2 -->
<g id="node2" class="node">
<title>Node2</title>
<g id="a_node2"><a xlink:href="../../d1/dcf/classTUIO_1_1TuioBlob.html#a807abce60406535ca47b82cb2759df8b" target="_top" xlink:title=" ">
<polygon fill="white" stroke="black" points="153.5,-278.5 153.5,-297.5 290.5,-297.5 290.5,-278.5 153.5,-278.5"/>
<text text-anchor="middle" x="222" y="-285.5" font-family="Helvetica,sans-Serif" font-size="10.00">TUIO::TuioBlob::getAngle</text>
</a>
</g>
</g>
<!-- Node1&#45;&gt;Node2 -->
<g id="edge1" class="edge">
<title>Node1&#45;&gt;Node2</title>
<path fill="none" stroke="midnightblue" d="M66.23,-167.1C79.86,-192.19 110.59,-242.33 151,-269 154.13,-271.06 157.47,-272.9 160.94,-274.55"/>
<polygon fill="midnightblue" stroke="midnightblue" points="159.78,-277.85 170.36,-278.44 162.46,-271.39 159.78,-277.85"/>
</g>
<!-- Node3 -->
<g id="node3" class="node">
<title>Node3</title>
<g id="a_node3"><a xlink:href="../../d1/dcf/classTUIO_1_1TuioBlob.html#ab3665c8b01b0864b0863ee5ba639e36b" target="_top" xlink:title=" ">
<polygon fill="white" stroke="black" points="156,-240.5 156,-259.5 288,-259.5 288,-240.5 156,-240.5"/>
<text text-anchor="middle" x="222" y="-247.5" font-family="Helvetica,sans-Serif" font-size="10.00">TUIO::TuioBlob::getArea</text>
</a>
</g>
</g>
<!-- Node1&#45;&gt;Node3 -->
<g id="edge2" class="edge">
<title>Node1&#45;&gt;Node3</title>
<path fill="none" stroke="midnightblue" d="M72.06,-167.08C88.88,-184.9 119.25,-214.23 151,-231 155.3,-233.27 159.89,-235.29 164.59,-237.08"/>
<polygon fill="midnightblue" stroke="midnightblue" points="163.74,-240.48 174.33,-240.44 166.02,-233.87 163.74,-240.48"/>
</g>
<!-- Node4 -->
<g id="node4" class="node">
<title>Node4</title>
<g id="a_node4"><a xlink:href="../../d1/dcf/classTUIO_1_1TuioBlob.html#a75b865ab648794432ad62a6d862d4ad6" target="_top" xlink:title=" ">
<polygon fill="white" stroke="black" points="151,-202.5 151,-221.5 293,-221.5 293,-202.5 151,-202.5"/>
<text text-anchor="middle" x="222" y="-209.5" font-family="Helvetica,sans-Serif" font-size="10.00">TUIO::TuioBlob::getBlobID</text>
</a>
</g>
</g>
<!-- Node1&#45;&gt;Node4 -->
<g id="edge3" class="edge">
<title>Node1&#45;&gt;Node4</title>
<path fill="none" stroke="midnightblue" d="M89.28,-167.05C107.05,-175.39 129.98,-185.54 151,-193 157.77,-195.4 165,-197.68 172.15,-199.77"/>
<polygon fill="midnightblue" stroke="midnightblue" points="171.22,-203.14 181.8,-202.49 173.12,-196.4 171.22,-203.14"/>
</g>
<!-- Node5 -->
<g id="node5" class="node">
<title>Node5</title>
<g id="a_node5"><a xlink:href="../../d1/dcf/classTUIO_1_1TuioBlob.html#ada148b8140e9f251fc7fd70117be3e71" target="_top" xlink:title=" ">
<polygon fill="white" stroke="black" points="151,-164.5 151,-183.5 293,-183.5 293,-164.5 151,-164.5"/>
<text text-anchor="middle" x="222" y="-171.5" font-family="Helvetica,sans-Serif" font-size="10.00">TUIO::TuioBlob::getHeight</text>
</a>
</g>
</g>
<!-- Node1&#45;&gt;Node5 -->
<g id="edge4" class="edge">
<title>Node1&#45;&gt;Node5</title>
<path fill="none" stroke="midnightblue" d="M115.33,-159.69C123.56,-160.81 132.15,-161.97 140.72,-163.13"/>
<polygon fill="midnightblue" stroke="midnightblue" points="140.38,-166.62 150.76,-164.49 141.32,-159.68 140.38,-166.62"/>
</g>
<!-- Node6 -->
<g id="node6" class="node">
<title>Node6</title>
<g id="a_node6"><a xlink:href="../../d8/de3/classTUIO_1_1TuioContainer.html#a43a9b95e3108a178e16c8d86a9816f8a" target="_top" xlink:title=" ">
<polygon fill="white" stroke="black" points="165.5,-115 165.5,-145 278.5,-145 278.5,-115 165.5,-115"/>
<text text-anchor="start" x="173.5" y="-133" font-family="Helvetica,sans-Serif" font-size="10.00">TUIO::TuioContainer</text>
<text text-anchor="middle" x="222" y="-122" font-family="Helvetica,sans-Serif" font-size="10.00">::getSessionID</text>
</a>
</g>
</g>
<!-- Node1&#45;&gt;Node6 -->
<g id="edge5" class="edge">
<title>Node1&#45;&gt;Node6</title>
<path fill="none" stroke="midnightblue" d="M115.33,-144.31C128.24,-142.56 142.06,-140.69 155.3,-138.89"/>
<polygon fill="midnightblue" stroke="midnightblue" points="155.85,-142.35 165.29,-137.54 154.91,-135.42 155.85,-142.35"/>
</g>
<!-- Node7 -->
<g id="node7" class="node">
<title>Node7</title>
<g id="a_node7"><a xlink:href="../../d1/dcf/classTUIO_1_1TuioBlob.html#a0e85862145fe92340f4552c91313d0fe" target="_top" xlink:title=" ">
<polygon fill="white" stroke="black" points="153,-76.5 153,-95.5 291,-95.5 291,-76.5 153,-76.5"/>
<text text-anchor="middle" x="222" y="-83.5" font-family="Helvetica,sans-Serif" font-size="10.00">TUIO::TuioBlob::getWidth</text>
</a>
</g>
</g>
<!-- Node1&#45;&gt;Node7 -->
<g id="edge6" class="edge">
<title>Node1&#45;&gt;Node7</title>
<path fill="none" stroke="midnightblue" d="M85.43,-136.97C103.57,-127.25 128.26,-114.82 151,-106 158.05,-103.27 165.62,-100.72 173.09,-98.42"/>
<polygon fill="midnightblue" stroke="midnightblue" points="174.2,-101.74 182.8,-95.55 172.22,-95.03 174.2,-101.74"/>
</g>
<!-- Node8 -->
<g id="node8" class="node">
<title>Node8</title>
<g id="a_node8"><a xlink:href="../../d0/db6/classTUIO_1_1TuioPoint.html#a547710f33dd3786eaa8ca326b34911c0" target="_top" xlink:title=" ">
<polygon fill="white" stroke="black" points="162.5,-38.5 162.5,-57.5 281.5,-57.5 281.5,-38.5 162.5,-38.5"/>
<text text-anchor="middle" x="222" y="-45.5" font-family="Helvetica,sans-Serif" font-size="10.00">TUIO::TuioPoint::getX</text>
</a>
</g>
</g>
<!-- Node1&#45;&gt;Node8 -->
<g id="edge7" class="edge">
<title>Node1&#45;&gt;Node8</title>
<path fill="none" stroke="midnightblue" d="M70.95,-136.74C87.33,-117.64 117.96,-85.22 151,-67 155.02,-64.78 159.31,-62.82 163.71,-61.07"/>
<polygon fill="midnightblue" stroke="midnightblue" points="165.23,-64.24 173.48,-57.58 162.88,-57.65 165.23,-64.24"/>
</g>
<!-- Node9 -->
<g id="node9" class="node">
<title>Node9</title>
<g id="a_node9"><a xlink:href="../../d0/db6/classTUIO_1_1TuioPoint.html#a2dbd53d10bbcddb6db271bdd30858733" target="_top" xlink:title=" ">
<polygon fill="white" stroke="black" points="162.5,-0.5 162.5,-19.5 281.5,-19.5 281.5,-0.5 162.5,-0.5"/>
<text text-anchor="middle" x="222" y="-7.5" font-family="Helvetica,sans-Serif" font-size="10.00">TUIO::TuioPoint::getY</text>
</a>
</g>
</g>
<!-- Node1&#45;&gt;Node9 -->
<g id="edge8" class="edge">
<title>Node1&#45;&gt;Node9</title>
<path fill="none" stroke="midnightblue" d="M65.6,-136.96C78.7,-110.87 109.19,-57.33 151,-29 153.96,-27 157.12,-25.2 160.4,-23.6"/>
<polygon fill="midnightblue" stroke="midnightblue" points="162.07,-26.69 169.91,-19.56 159.34,-20.25 162.07,-26.69"/>
</g>
</g>
</svg>
