<?xml version="1.0" encoding="UTF-8" standalone="no"?>
<!DOCTYPE svg PUBLIC "-//W3C//DTD SVG 1.1//EN"
 "http://www.w3.org/Graphics/SVG/1.1/DTD/svg11.dtd">
<!-- Generated by graphviz version 2.43.0 (0)
 -->
<!-- Title: TUIO::TuioManager::addExternalTuioCursor Pages: 1 -->
<svg width="331pt" height="204pt"
 viewBox="0.00 0.00 331.00 203.50" xmlns="http://www.w3.org/2000/svg" xmlns:xlink="http://www.w3.org/1999/xlink">
<g id="graph0" class="graph" transform="scale(1 1) rotate(0) translate(4 199.5)">
<title>TUIO::TuioManager::addExternalTuioCursor</title>
<polygon fill="white" stroke="transparent" points="-4,4 -4,-199.5 327,-199.5 327,4 -4,4"/>
<!-- Node1 -->
<g id="node1" class="node">
<title>Node1</title>
<g id="a_node1"><a xlink:title=" ">
<polygon fill="#bfbfbf" stroke="black" points="0,-82.5 0,-112.5 126,-112.5 126,-82.5 0,-82.5"/>
<text text-anchor="start" x="8" y="-100.5" font-family="Helvetica,sans-Serif" font-size="10.00">TUIO::TuioManager::</text>
<text text-anchor="middle" x="63" y="-89.5" font-family="Helvetica,sans-Serif" font-size="10.00">addExternalTuioCursor</text>
</a>
</g>
</g>
<!-- Node2 -->
<g id="node2" class="node">
<title>Node2</title>
<g id="a_node2"><a xlink:href="../../d9/d95/classTUIO_1_1TuioCursor.html#a55c048bba2996a908b722f2fada39afb" target="_top" xlink:title=" ">
<polygon fill="white" stroke="black" points="162,-176 162,-195 323,-195 323,-176 162,-176"/>
<text text-anchor="middle" x="242.5" y="-183" font-family="Helvetica,sans-Serif" font-size="10.00">TUIO::TuioCursor::getCursorID</text>
</a>
</g>
</g>
<!-- Node1&#45;&gt;Node2 -->
<g id="edge1" class="edge">
<title>Node1&#45;&gt;Node2</title>
<path fill="none" stroke="midnightblue" d="M81.16,-112.68C99.81,-128.39 131.09,-152.55 162,-166.5 167.39,-168.93 173.12,-171.07 178.95,-172.96"/>
<polygon fill="midnightblue" stroke="midnightblue" points="178.23,-176.39 188.81,-175.89 180.23,-169.68 178.23,-176.39"/>
</g>
<!-- Node3 -->
<g id="node3" class="node">
<title>Node3</title>
<g id="a_node3"><a xlink:href="../../d8/de3/classTUIO_1_1TuioContainer.html#a43a9b95e3108a178e16c8d86a9816f8a" target="_top" xlink:title=" ">
<polygon fill="white" stroke="black" points="186,-126.5 186,-156.5 299,-156.5 299,-126.5 186,-126.5"/>
<text text-anchor="start" x="194" y="-144.5" font-family="Helvetica,sans-Serif" font-size="10.00">TUIO::TuioContainer</text>
<text text-anchor="middle" x="242.5" y="-133.5" font-family="Helvetica,sans-Serif" font-size="10.00">::getSessionID</text>
</a>
</g>
</g>
<!-- Node1&#45;&gt;Node3 -->
<g id="edge2" class="edge">
<title>Node1&#45;&gt;Node3</title>
<path fill="none" stroke="midnightblue" d="M124.59,-112.52C141.21,-116.64 159.31,-121.12 176.18,-125.31"/>
<polygon fill="midnightblue" stroke="midnightblue" points="175.41,-128.72 185.96,-127.73 177.09,-121.93 175.41,-128.72"/>
</g>
<!-- Node4 -->
<g id="node4" class="node">
<title>Node4</title>
<g id="a_node4"><a xlink:href="../../d0/db6/classTUIO_1_1TuioPoint.html#a547710f33dd3786eaa8ca326b34911c0" target="_top" xlink:title=" ">
<polygon fill="white" stroke="black" points="183,-88 183,-107 302,-107 302,-88 183,-88"/>
<text text-anchor="middle" x="242.5" y="-95" font-family="Helvetica,sans-Serif" font-size="10.00">TUIO::TuioPoint::getX</text>
</a>
</g>
</g>
<!-- Node1&#45;&gt;Node4 -->
<g id="edge3" class="edge">
<title>Node1&#45;&gt;Node4</title>
<path fill="none" stroke="midnightblue" d="M126.08,-97.5C141.03,-97.5 157.09,-97.5 172.33,-97.5"/>
<polygon fill="midnightblue" stroke="midnightblue" points="172.73,-101 182.73,-97.5 172.73,-94 172.73,-101"/>
</g>
<!-- Node5 -->
<g id="node5" class="node">
<title>Node5</title>
<g id="a_node5"><a xlink:href="../../d0/db6/classTUIO_1_1TuioPoint.html#a2dbd53d10bbcddb6db271bdd30858733" target="_top" xlink:title=" ">
<polygon fill="white" stroke="black" points="183,-50 183,-69 302,-69 302,-50 183,-50"/>
<text text-anchor="middle" x="242.5" y="-57" font-family="Helvetica,sans-Serif" font-size="10.00">TUIO::TuioPoint::getY</text>
</a>
</g>
</g>
<!-- Node1&#45;&gt;Node5 -->
<g id="edge4" class="edge">
<title>Node1&#45;&gt;Node5</title>
<path fill="none" stroke="midnightblue" d="M126.08,-84.21C146,-79.94 167.9,-75.26 187.22,-71.12"/>
<polygon fill="midnightblue" stroke="midnightblue" points="188.01,-74.53 197.06,-69.01 186.55,-67.68 188.01,-74.53"/>
</g>
<!-- Node6 -->
<g id="node6" class="node">
<title>Node6</title>
<g id="a_node6"><a xlink:href="../../d8/de3/classTUIO_1_1TuioContainer.html#a81900f11bc80ccb2b337676de91d9421" target="_top" xlink:title=" ">
<polygon fill="white" stroke="black" points="186,-0.5 186,-30.5 299,-30.5 299,-0.5 186,-0.5"/>
<text text-anchor="start" x="194" y="-18.5" font-family="Helvetica,sans-Serif" font-size="10.00">TUIO::TuioContainer</text>
<text text-anchor="middle" x="242.5" y="-7.5" font-family="Helvetica,sans-Serif" font-size="10.00">::setSessionID</text>
</a>
</g>
</g>
<!-- Node1&#45;&gt;Node6 -->
<g id="edge5" class="edge">
<title>Node1&#45;&gt;Node6</title>
<path fill="none" stroke="midnightblue" d="M86.6,-82.41C105.99,-69.94 134.99,-52.42 162,-40.5 167.26,-38.18 172.8,-35.98 178.4,-33.91"/>
<polygon fill="midnightblue" stroke="midnightblue" points="179.6,-37.2 187.87,-30.57 177.27,-30.6 179.6,-37.2"/>
</g>
</g>
</svg>
