<?xml version="1.0" encoding="UTF-8" standalone="no"?>
<!DOCTYPE svg PUBLIC "-//W3C//DTD SVG 1.1//EN"
 "http://www.w3.org/Graphics/SVG/1.1/DTD/svg11.dtd">
<!-- Generated by graphviz version 2.43.0 (0)
 -->
<!-- Title: TUIO::TuioManager::addTuioObject Pages: 1 -->
<svg width="326pt" height="192pt"
 viewBox="0.00 0.00 326.00 192.00" xmlns="http://www.w3.org/2000/svg" xmlns:xlink="http://www.w3.org/1999/xlink">
<g id="graph0" class="graph" transform="scale(1 1) rotate(0) translate(4 188)">
<title>TUIO::TuioManager::addTuioObject</title>
<polygon fill="white" stroke="transparent" points="-4,4 -4,-188 322,-188 322,4 -4,4"/>
<!-- Node1 -->
<g id="node1" class="node">
<title>Node1</title>
<g id="a_node1"><a xlink:title=" ">
<polygon fill="#bfbfbf" stroke="black" points="0,-71 0,-101 115,-101 115,-71 0,-71"/>
<text text-anchor="start" x="8" y="-89" font-family="Helvetica,sans-Serif" font-size="10.00">TUIO::TuioManager::</text>
<text text-anchor="middle" x="57.5" y="-78" font-family="Helvetica,sans-Serif" font-size="10.00">addTuioObject</text>
</a>
</g>
</g>
<!-- Node2 -->
<g id="node2" class="node">
<title>Node2</title>
<g id="a_node2"><a xlink:href="../../d0/dd3/classTUIO_1_1TuioObject.html#ad1be94db9f777b98900503a10bdbe66c" target="_top" xlink:title=" ">
<polygon fill="white" stroke="black" points="161,-164.5 161,-183.5 308,-183.5 308,-164.5 161,-164.5"/>
<text text-anchor="middle" x="234.5" y="-171.5" font-family="Helvetica,sans-Serif" font-size="10.00">TUIO::TuioObject::getAngle</text>
</a>
</g>
</g>
<!-- Node1&#45;&gt;Node2 -->
<g id="edge1" class="edge">
<title>Node1&#45;&gt;Node2</title>
<path fill="none" stroke="midnightblue" d="M74.52,-101.27C91.97,-117.06 121.37,-141.28 151,-155 156.3,-157.45 161.94,-159.6 167.69,-161.48"/>
<polygon fill="midnightblue" stroke="midnightblue" points="166.84,-164.88 177.42,-164.4 168.85,-158.18 166.84,-164.88"/>
</g>
<!-- Node3 -->
<g id="node3" class="node">
<title>Node3</title>
<g id="a_node3"><a xlink:href="../../d8/de3/classTUIO_1_1TuioContainer.html#a43a9b95e3108a178e16c8d86a9816f8a" target="_top" xlink:title=" ">
<polygon fill="white" stroke="black" points="178,-115 178,-145 291,-145 291,-115 178,-115"/>
<text text-anchor="start" x="186" y="-133" font-family="Helvetica,sans-Serif" font-size="10.00">TUIO::TuioContainer</text>
<text text-anchor="middle" x="234.5" y="-122" font-family="Helvetica,sans-Serif" font-size="10.00">::getSessionID</text>
</a>
</g>
</g>
<!-- Node1&#45;&gt;Node3 -->
<g id="edge2" class="edge">
<title>Node1&#45;&gt;Node3</title>
<path fill="none" stroke="midnightblue" d="M115.32,-100.29C132.09,-104.5 150.58,-109.15 167.85,-113.49"/>
<polygon fill="midnightblue" stroke="midnightblue" points="167.31,-116.97 177.86,-116.01 169.02,-110.18 167.31,-116.97"/>
</g>
<!-- Node4 -->
<g id="node4" class="node">
<title>Node4</title>
<g id="a_node4"><a xlink:href="../../d0/dd3/classTUIO_1_1TuioObject.html#a3e95c874a6dccb7fb85c786403931dee" target="_top" xlink:title=" ">
<polygon fill="white" stroke="black" points="151,-76.5 151,-95.5 318,-95.5 318,-76.5 151,-76.5"/>
<text text-anchor="middle" x="234.5" y="-83.5" font-family="Helvetica,sans-Serif" font-size="10.00">TUIO::TuioObject::getSymbolID</text>
</a>
</g>
</g>
<!-- Node1&#45;&gt;Node4 -->
<g id="edge3" class="edge">
<title>Node1&#45;&gt;Node4</title>
<path fill="none" stroke="midnightblue" d="M115.32,-86C123.5,-86 132.08,-86 140.74,-86"/>
<polygon fill="midnightblue" stroke="midnightblue" points="140.91,-89.5 150.91,-86 140.91,-82.5 140.91,-89.5"/>
</g>
<!-- Node5 -->
<g id="node5" class="node">
<title>Node5</title>
<g id="a_node5"><a xlink:href="../../d0/db6/classTUIO_1_1TuioPoint.html#a547710f33dd3786eaa8ca326b34911c0" target="_top" xlink:title=" ">
<polygon fill="white" stroke="black" points="175,-38.5 175,-57.5 294,-57.5 294,-38.5 175,-38.5"/>
<text text-anchor="middle" x="234.5" y="-45.5" font-family="Helvetica,sans-Serif" font-size="10.00">TUIO::TuioPoint::getX</text>
</a>
</g>
</g>
<!-- Node1&#45;&gt;Node5 -->
<g id="edge4" class="edge">
<title>Node1&#45;&gt;Node5</title>
<path fill="none" stroke="midnightblue" d="M115.32,-73.66C136.07,-69.16 159.47,-64.08 179.93,-59.63"/>
<polygon fill="midnightblue" stroke="midnightblue" points="180.69,-63.05 189.72,-57.51 179.2,-56.21 180.69,-63.05"/>
</g>
<!-- Node6 -->
<g id="node6" class="node">
<title>Node6</title>
<g id="a_node6"><a xlink:href="../../d0/db6/classTUIO_1_1TuioPoint.html#a2dbd53d10bbcddb6db271bdd30858733" target="_top" xlink:title=" ">
<polygon fill="white" stroke="black" points="175,-0.5 175,-19.5 294,-19.5 294,-0.5 175,-0.5"/>
<text text-anchor="middle" x="234.5" y="-7.5" font-family="Helvetica,sans-Serif" font-size="10.00">TUIO::TuioPoint::getY</text>
</a>
</g>
</g>
<!-- Node1&#45;&gt;Node6 -->
<g id="edge5" class="edge">
<title>Node1&#45;&gt;Node6</title>
<path fill="none" stroke="midnightblue" d="M78.76,-70.81C96.84,-57.94 124.47,-39.88 151,-29 157.21,-26.45 163.84,-24.21 170.52,-22.24"/>
<polygon fill="midnightblue" stroke="midnightblue" points="171.61,-25.57 180.33,-19.55 169.76,-18.82 171.61,-25.57"/>
</g>
</g>
</svg>
