<?xml version="1.0" encoding="UTF-8" standalone="no"?>
<!DOCTYPE svg PUBLIC "-//W3C//DTD SVG 1.1//EN"
 "http://www.w3.org/Graphics/SVG/1.1/DTD/svg11.dtd">
<!-- Generated by graphviz version 2.43.0 (0)
 -->
<!-- Title: TUIO::TuioManager::updateExternalTuioBlob Pages: 1 -->
<!--zoomable 591 -->
<svg id="main" version="1.1" xmlns="http://www.w3.org/2000/svg" xmlns:xlink="http://www.w3.org/1999/xlink" xml:space="preserve" onload="init(evt)">
<style type="text/css"><![CDATA[
.edge:hover path { stroke: red; }
.edge:hover polygon { stroke: red; fill: red; }
]]></style>
<script type="text/javascript"><![CDATA[
var edges = document.getElementsByTagName('g');
if (edges && edges.length) {
  for (var i=0;i<edges.length;i++) {
    if (edges[i].id.substr(0,4)=='edge') {
      edges[i].setAttribute('class','edge');
    }
  }
}
]]></script>
        <defs>
                <circle id="rim" cx="0" cy="0" r="7"/>
                <circle id="rim2" cx="0" cy="0" r="3.5"/>
                <g id="zoomPlus">
                        <use xlink:href="#rim" fill="#404040">
                                <set attributeName="fill" to="#808080" begin="zoomplus.mouseover" end="zoomplus.mouseout"/>
                        </use>
                        <path d="M-4,0h8M0,-4v8" fill="none" stroke="white" stroke-width="1.5" pointer-events="none"/>
                </g>
                <g id="zoomMin">
                        <use xlink:href="#rim" fill="#404040">
                                <set attributeName="fill" to="#808080" begin="zoomminus.mouseover" end="zoomminus.mouseout"/>
                        </use>
                        <path d="M-4,0h8" fill="none" stroke="white" stroke-width="1.5" pointer-events="none"/>
                </g>
                <g id="dirArrow">
                        <path fill="none" stroke="white" stroke-width="1.5" d="M0,-3.0v7 M-2.5,-0.5L0,-3.0L2.5,-0.5"/>
                </g>
               <g id="resetDef">
                       <use xlink:href="#rim2" fill="#404040">
                               <set attributeName="fill" to="#808080" begin="reset.mouseover" end="reset.mouseout"/>
                       </use>
               </g>
        </defs>

<script type="text/javascript">
var viewWidth = 327;
var viewHeight = 591;
var sectionId = 'dynsection-58';
</script>
<script xlink:href="../../svgpan.js"/>
<svg id="graph" class="graph">
<g id="viewport">
<title>TUIO::TuioManager::updateExternalTuioBlob</title>
<polygon fill="white" stroke="transparent" points="-4,4 -4,-587 323,-587 323,4 -4,4"/>
<!-- Node1 -->
<g id="node1" class="node">
<title>Node1</title>
<g id="a_node1"><a xlink:title=" ">
<polygon fill="#bfbfbf" stroke="black" points="0,-277 0,-307 132,-307 132,-277 0,-277"/>
<text text-anchor="start" x="8" y="-295" font-family="Helvetica,sans-Serif" font-size="10.00">TUIO::TuioManager::</text>
<text text-anchor="middle" x="66" y="-284" font-family="Helvetica,sans-Serif" font-size="10.00">updateExternalTuioBlob</text>
</a>
</g>
</g>
<!-- Node2 -->
<g id="node2" class="node">
<title>Node2</title>
<g id="a_node2"><a xlink:href="../../d1/dcf/classTUIO_1_1TuioBlob.html#a807abce60406535ca47b82cb2759df8b" target="_top" xlink:title=" ">
<polygon fill="white" stroke="black" points="175,-563.5 175,-582.5 312,-582.5 312,-563.5 175,-563.5"/>
<text text-anchor="middle" x="243.5" y="-570.5" font-family="Helvetica,sans-Serif" font-size="10.00">TUIO::TuioBlob::getAngle</text>
</a>
</g>
</g>
<!-- Node1&#45;&gt;Node2 -->
<g id="edge1" class="edge">
<title>Node1&#45;&gt;Node2</title>
<path fill="none" stroke="midnightblue" d="M68.14,-307.11C72.35,-352 91.1,-485.69 168,-554 169.74,-555.55 171.6,-556.97 173.53,-558.29"/>
<polygon fill="midnightblue" stroke="midnightblue" points="172.08,-561.49 182.51,-563.34 175.52,-555.39 172.08,-561.49"/>
</g>
<!-- Node3 -->
<g id="node3" class="node">
<title>Node3</title>
<g id="a_node3"><a xlink:href="../../d1/dcf/classTUIO_1_1TuioBlob.html#ab3665c8b01b0864b0863ee5ba639e36b" target="_top" xlink:title=" ">
<polygon fill="white" stroke="black" points="177.5,-525.5 177.5,-544.5 309.5,-544.5 309.5,-525.5 177.5,-525.5"/>
<text text-anchor="middle" x="243.5" y="-532.5" font-family="Helvetica,sans-Serif" font-size="10.00">TUIO::TuioBlob::getArea</text>
</a>
</g>
</g>
<!-- Node1&#45;&gt;Node3 -->
<g id="edge2" class="edge">
<title>Node1&#45;&gt;Node3</title>
<path fill="none" stroke="midnightblue" d="M69.25,-307.24C76.08,-347.81 100.37,-459.22 168,-516 170.01,-517.69 172.16,-519.23 174.4,-520.64"/>
<polygon fill="midnightblue" stroke="midnightblue" points="172.99,-523.86 183.47,-525.43 176.26,-517.66 172.99,-523.86"/>
</g>
<!-- Node4 -->
<g id="node4" class="node">
<title>Node4</title>
<g id="a_node4"><a xlink:href="../../d1/dcf/classTUIO_1_1TuioBlob.html#a75b865ab648794432ad62a6d862d4ad6" target="_top" xlink:title=" ">
<polygon fill="white" stroke="black" points="172.5,-487.5 172.5,-506.5 314.5,-506.5 314.5,-487.5 172.5,-487.5"/>
<text text-anchor="middle" x="243.5" y="-494.5" font-family="Helvetica,sans-Serif" font-size="10.00">TUIO::TuioBlob::getBlobID</text>
</a>
</g>
</g>
<!-- Node1&#45;&gt;Node4 -->
<g id="edge3" class="edge">
<title>Node1&#45;&gt;Node4</title>
<path fill="none" stroke="midnightblue" d="M70.77,-307.25C80.41,-342.96 109.43,-432.4 168,-478 170.32,-479.81 172.79,-481.44 175.37,-482.92"/>
<polygon fill="midnightblue" stroke="midnightblue" points="173.99,-486.14 184.51,-487.39 177.06,-479.85 173.99,-486.14"/>
</g>
<!-- Node5 -->
<g id="node5" class="node">
<title>Node5</title>
<g id="a_node5"><a xlink:href="../../d1/dcf/classTUIO_1_1TuioBlob.html#ada148b8140e9f251fc7fd70117be3e71" target="_top" xlink:title=" ">
<polygon fill="white" stroke="black" points="172.5,-449.5 172.5,-468.5 314.5,-468.5 314.5,-449.5 172.5,-449.5"/>
<text text-anchor="middle" x="243.5" y="-456.5" font-family="Helvetica,sans-Serif" font-size="10.00">TUIO::TuioBlob::getHeight</text>
</a>
</g>
</g>
<!-- Node1&#45;&gt;Node5 -->
<g id="edge4" class="edge">
<title>Node1&#45;&gt;Node5</title>
<path fill="none" stroke="midnightblue" d="M73.01,-307.28C85.72,-337.55 118.31,-405.21 168,-440 170.88,-442.01 173.95,-443.81 177.14,-445.42"/>
<polygon fill="midnightblue" stroke="midnightblue" points="175.85,-448.68 186.42,-449.47 178.66,-442.26 175.85,-448.68"/>
</g>
<!-- Node6 -->
<g id="node6" class="node">
<title>Node6</title>
<g id="a_node6"><a xlink:href="../../d8/de3/classTUIO_1_1TuioContainer.html#aca8c7670af13d100999eb4663ead8281" target="_top" xlink:title=" ">
<polygon fill="white" stroke="black" points="187,-400 187,-430 300,-430 300,-400 187,-400"/>
<text text-anchor="start" x="195" y="-418" font-family="Helvetica,sans-Serif" font-size="10.00">TUIO::TuioContainer</text>
<text text-anchor="middle" x="243.5" y="-407" font-family="Helvetica,sans-Serif" font-size="10.00">::getMotionAccel</text>
</a>
</g>
</g>
<!-- Node1&#45;&gt;Node6 -->
<g id="edge5" class="edge">
<title>Node1&#45;&gt;Node6</title>
<path fill="none" stroke="midnightblue" d="M78.71,-307.31C95.99,-328.93 130.38,-368.27 168,-391 171,-392.81 174.15,-394.5 177.39,-396.08"/>
<polygon fill="midnightblue" stroke="midnightblue" points="176.15,-399.36 186.71,-400.21 178.99,-392.96 176.15,-399.36"/>
</g>
<!-- Node7 -->
<g id="node7" class="node">
<title>Node7</title>
<g id="a_node7"><a xlink:href="../../d1/dcf/classTUIO_1_1TuioBlob.html#aa52fee5957a0bded74e670ea00ceeceb" target="_top" xlink:title=" ">
<polygon fill="white" stroke="black" points="168,-351 168,-381 319,-381 319,-351 168,-351"/>
<text text-anchor="start" x="176" y="-369" font-family="Helvetica,sans-Serif" font-size="10.00">TUIO::TuioBlob::getRotation</text>
<text text-anchor="middle" x="243.5" y="-358" font-family="Helvetica,sans-Serif" font-size="10.00">Accel</text>
</a>
</g>
</g>
<!-- Node1&#45;&gt;Node7 -->
<g id="edge6" class="edge">
<title>Node1&#45;&gt;Node7</title>
<path fill="none" stroke="midnightblue" d="M94.79,-307.15C114.79,-317.71 142.62,-331.7 168,-342 172.68,-343.9 177.57,-345.75 182.52,-347.54"/>
<polygon fill="midnightblue" stroke="midnightblue" points="181.45,-350.87 192.04,-350.87 183.76,-344.26 181.45,-350.87"/>
</g>
<!-- Node8 -->
<g id="node8" class="node">
<title>Node8</title>
<g id="a_node8"><a xlink:href="../../d1/dcf/classTUIO_1_1TuioBlob.html#a71fb8b327590a287e08a76804e237d84" target="_top" xlink:title=" ">
<polygon fill="white" stroke="black" points="168,-302 168,-332 319,-332 319,-302 168,-302"/>
<text text-anchor="start" x="176" y="-320" font-family="Helvetica,sans-Serif" font-size="10.00">TUIO::TuioBlob::getRotation</text>
<text text-anchor="middle" x="243.5" y="-309" font-family="Helvetica,sans-Serif" font-size="10.00">Speed</text>
</a>
</g>
</g>
<!-- Node1&#45;&gt;Node8 -->
<g id="edge7" class="edge">
<title>Node1&#45;&gt;Node8</title>
<path fill="none" stroke="midnightblue" d="M132.35,-301.31C140.69,-302.5 149.31,-303.73 157.89,-304.95"/>
<polygon fill="midnightblue" stroke="midnightblue" points="157.54,-308.43 167.93,-306.38 158.53,-301.5 157.54,-308.43"/>
</g>
<!-- Node9 -->
<g id="node9" class="node">
<title>Node9</title>
<g id="a_node9"><a xlink:href="../../d8/de3/classTUIO_1_1TuioContainer.html#a43a9b95e3108a178e16c8d86a9816f8a" target="_top" xlink:title=" ">
<polygon fill="white" stroke="black" points="187,-253 187,-283 300,-283 300,-253 187,-253"/>
<text text-anchor="start" x="195" y="-271" font-family="Helvetica,sans-Serif" font-size="10.00">TUIO::TuioContainer</text>
<text text-anchor="middle" x="243.5" y="-260" font-family="Helvetica,sans-Serif" font-size="10.00">::getSessionID</text>
</a>
</g>
</g>
<!-- Node1&#45;&gt;Node9 -->
<g id="edge8" class="edge">
<title>Node1&#45;&gt;Node9</title>
<path fill="none" stroke="midnightblue" d="M132.35,-283.06C146.92,-281.07 162.37,-278.96 176.95,-276.96"/>
<polygon fill="midnightblue" stroke="midnightblue" points="177.45,-280.43 186.88,-275.61 176.5,-273.49 177.45,-280.43"/>
</g>
<!-- Node10 -->
<g id="node10" class="node">
<title>Node10</title>
<g id="a_node10"><a xlink:href="../../d1/dcf/classTUIO_1_1TuioBlob.html#a0e85862145fe92340f4552c91313d0fe" target="_top" xlink:title=" ">
<polygon fill="white" stroke="black" points="174.5,-214.5 174.5,-233.5 312.5,-233.5 312.5,-214.5 174.5,-214.5"/>
<text text-anchor="middle" x="243.5" y="-221.5" font-family="Helvetica,sans-Serif" font-size="10.00">TUIO::TuioBlob::getWidth</text>
</a>
</g>
</g>
<!-- Node1&#45;&gt;Node10 -->
<g id="edge9" class="edge">
<title>Node1&#45;&gt;Node10</title>
<path fill="none" stroke="midnightblue" d="M95.14,-276.93C115.08,-266.68 142.68,-253.33 168,-244 175.59,-241.2 183.75,-238.61 191.79,-236.28"/>
<polygon fill="midnightblue" stroke="midnightblue" points="192.79,-239.64 201.48,-233.58 190.91,-232.9 192.79,-239.64"/>
</g>
<!-- Node11 -->
<g id="node11" class="node">
<title>Node11</title>
<g id="a_node11"><a xlink:href="../../d0/db6/classTUIO_1_1TuioPoint.html#a547710f33dd3786eaa8ca326b34911c0" target="_top" xlink:title=" ">
<polygon fill="white" stroke="black" points="184,-176.5 184,-195.5 303,-195.5 303,-176.5 184,-176.5"/>
<text text-anchor="middle" x="243.5" y="-183.5" font-family="Helvetica,sans-Serif" font-size="10.00">TUIO::TuioPoint::getX</text>
</a>
</g>
</g>
<!-- Node1&#45;&gt;Node11 -->
<g id="edge10" class="edge">
<title>Node1&#45;&gt;Node11</title>
<path fill="none" stroke="midnightblue" d="M80.46,-276.67C98.46,-257.11 132.29,-223.61 168,-205 172.47,-202.67 177.25,-200.61 182.14,-198.8"/>
<polygon fill="midnightblue" stroke="midnightblue" points="183.27,-202.11 191.64,-195.61 181.04,-195.48 183.27,-202.11"/>
</g>
<!-- Node12 -->
<g id="node12" class="node">
<title>Node12</title>
<g id="a_node12"><a xlink:href="../../d8/de3/classTUIO_1_1TuioContainer.html#ad71a4dba72e5c46fa8b8f7fc0f961705" target="_top" xlink:title=" ">
<polygon fill="white" stroke="black" points="187,-127 187,-157 300,-157 300,-127 187,-127"/>
<text text-anchor="start" x="195" y="-145" font-family="Helvetica,sans-Serif" font-size="10.00">TUIO::TuioContainer</text>
<text text-anchor="middle" x="243.5" y="-134" font-family="Helvetica,sans-Serif" font-size="10.00">::getXSpeed</text>
</a>
</g>
</g>
<!-- Node1&#45;&gt;Node12 -->
<g id="edge11" class="edge">
<title>Node1&#45;&gt;Node12</title>
<path fill="none" stroke="midnightblue" d="M75.24,-276.98C90.29,-250.89 124.7,-197.1 168,-167 171.04,-164.89 174.26,-162.95 177.61,-161.16"/>
<polygon fill="midnightblue" stroke="midnightblue" points="179.2,-164.28 186.68,-156.78 176.16,-157.97 179.2,-164.28"/>
</g>
<!-- Node13 -->
<g id="node13" class="node">
<title>Node13</title>
<g id="a_node13"><a xlink:href="../../d0/db6/classTUIO_1_1TuioPoint.html#a2dbd53d10bbcddb6db271bdd30858733" target="_top" xlink:title=" ">
<polygon fill="white" stroke="black" points="184,-88.5 184,-107.5 303,-107.5 303,-88.5 184,-88.5"/>
<text text-anchor="middle" x="243.5" y="-95.5" font-family="Helvetica,sans-Serif" font-size="10.00">TUIO::TuioPoint::getY</text>
</a>
</g>
</g>
<!-- Node1&#45;&gt;Node13 -->
<g id="edge12" class="edge">
<title>Node1&#45;&gt;Node13</title>
<path fill="none" stroke="midnightblue" d="M71.42,-276.76C82.09,-242.78 112.54,-160.47 168,-118 170.99,-115.71 174.23,-113.68 177.62,-111.88"/>
<polygon fill="midnightblue" stroke="midnightblue" points="179.25,-114.98 186.89,-107.64 176.34,-108.62 179.25,-114.98"/>
</g>
<!-- Node14 -->
<g id="node14" class="node">
<title>Node14</title>
<g id="a_node14"><a xlink:href="../../d8/de3/classTUIO_1_1TuioContainer.html#af96183810e34c1ead6a6787fcf03c171" target="_top" xlink:title=" ">
<polygon fill="white" stroke="black" points="187,-39 187,-69 300,-69 300,-39 187,-39"/>
<text text-anchor="start" x="195" y="-57" font-family="Helvetica,sans-Serif" font-size="10.00">TUIO::TuioContainer</text>
<text text-anchor="middle" x="243.5" y="-46" font-family="Helvetica,sans-Serif" font-size="10.00">::getYSpeed</text>
</a>
</g>
</g>
<!-- Node1&#45;&gt;Node14 -->
<g id="edge13" class="edge">
<title>Node1&#45;&gt;Node14</title>
<path fill="none" stroke="midnightblue" d="M69.9,-276.92C78.1,-238.28 105.1,-134.83 168,-79 171.01,-76.33 174.32,-73.94 177.82,-71.8"/>
<polygon fill="midnightblue" stroke="midnightblue" points="179.66,-74.79 186.84,-67 176.37,-68.61 179.66,-74.79"/>
</g>
<!-- Node15 -->
<g id="node15" class="node">
<title>Node15</title>
<g id="a_node15"><a xlink:href="../../d1/dcf/classTUIO_1_1TuioBlob.html#a42bebf90d562cda2ad5db67a9acba3d5" target="_top" xlink:title=" ">
<polygon fill="white" stroke="black" points="174.5,-0.5 174.5,-19.5 312.5,-19.5 312.5,-0.5 174.5,-0.5"/>
<text text-anchor="middle" x="243.5" y="-7.5" font-family="Helvetica,sans-Serif" font-size="10.00">TUIO::TuioBlob::isMoving</text>
</a>
</g>
</g>
<!-- Node1&#45;&gt;Node15 -->
<g id="edge14" class="edge">
<title>Node1&#45;&gt;Node15</title>
<path fill="none" stroke="midnightblue" d="M68.18,-276.94C72.5,-232.17 91.53,-98.79 168,-30 170.31,-27.92 172.82,-26.05 175.47,-24.37"/>
<polygon fill="midnightblue" stroke="midnightblue" points="177.16,-27.44 184.34,-19.64 173.87,-21.26 177.16,-27.44"/>
</g>
</g>
</svg>
        <g id="navigator" transform="translate(0 0)" fill="#404254">
                <rect fill="#f2f5e9" fill-opacity="0.5" stroke="#606060" stroke-width=".5" x="0" y="0" width="60" height="60"/>
                <use id="zoomplus" xlink:href="#zoomPlus" x="17" y="9" onmousedown="handleZoom(evt,'in')"/>
                <use id="zoomminus" xlink:href="#zoomMin" x="42" y="9" onmousedown="handleZoom(evt,'out')"/>
                <use id="reset" xlink:href="#resetDef" x="30" y="36" onmousedown="handleReset()"/>
                <g id="arrowUp" xlink:href="#dirArrow" transform="translate(30 24)" onmousedown="handlePan(0,-1)">
                  <use xlink:href="#rim" fill="#404040">
                        <set attributeName="fill" to="#808080" begin="arrowUp.mouseover" end="arrowUp.mouseout"/>
                  </use>
                  <path fill="none" stroke="white" stroke-width="1.5" d="M0,-3.0v7 M-2.5,-0.5L0,-3.0L2.5,-0.5"/>
                </g>
                <g id="arrowRight" xlink:href="#dirArrow" transform="rotate(90) translate(36 -43)" onmousedown="handlePan(1,0)">
                  <use xlink:href="#rim" fill="#404040">
                        <set attributeName="fill" to="#808080" begin="arrowRight.mouseover" end="arrowRight.mouseout"/>
                  </use>
                  <path fill="none" stroke="white" stroke-width="1.5" d="M0,-3.0v7 M-2.5,-0.5L0,-3.0L2.5,-0.5"/>
                </g>
                <g id="arrowDown" xlink:href="#dirArrow" transform="rotate(180) translate(-30 -48)" onmousedown="handlePan(0,1)">
                  <use xlink:href="#rim" fill="#404040">
                        <set attributeName="fill" to="#808080" begin="arrowDown.mouseover" end="arrowDown.mouseout"/>
                  </use>
                  <path fill="none" stroke="white" stroke-width="1.5" d="M0,-3.0v7 M-2.5,-0.5L0,-3.0L2.5,-0.5"/>
                </g>
                <g id="arrowLeft" xlink:href="#dirArrow" transform="rotate(270) translate(-36 17)" onmousedown="handlePan(-1,0)">
                  <use xlink:href="#rim" fill="#404040">
                        <set attributeName="fill" to="#808080" begin="arrowLeft.mouseover" end="arrowLeft.mouseout"/>
                  </use>
                  <path fill="none" stroke="white" stroke-width="1.5" d="M0,-3.0v7 M-2.5,-0.5L0,-3.0L2.5,-0.5"/>
                </g>
        </g>
        <svg viewBox="0 0 15 15" width="100%" height="30px" preserveAspectRatio="xMaxYMin meet">
         <g id="arrow_out" transform="scale(0.3 0.3)">
          <a xlink:href="classTUIO_1_1TuioManager_a3563251a5257e75633d6d30b269f69f0_cgraph_org.svg" target="_base">
           <rect id="button" ry="5" rx="5" y="6" x="6" height="38" width="38"
                fill="#f2f5e9" fill-opacity="0.5" stroke="#606060" stroke-width="1.0"/>
           <path id="arrow"
             d="M 11.500037,31.436501 C 11.940474,20.09759 22.043105,11.32322 32.158766,21.979434 L 37.068811,17.246167 C 37.068811,17.246167 37.088388,32 37.088388,32 L 22.160133,31.978069 C 22.160133,31.978069 26.997745,27.140456 26.997745,27.140456 C 18.528582,18.264221 13.291696,25.230495 11.500037,31.436501 z"
             style="fill:#404040;"/>
          </a>
         </g>
        </svg>
</svg>
