<?xml version="1.0" encoding="UTF-8" standalone="no"?>
<!DOCTYPE svg PUBLIC "-//W3C//DTD SVG 1.1//EN"
 "http://www.w3.org/Graphics/SVG/1.1/DTD/svg11.dtd">
<!-- Generated by graphviz version 2.43.0 (0)
 -->
<!-- Title: TUIO::TuioManager::updateTuioBlob Pages: 1 -->
<svg width="465pt" height="673pt"
 viewBox="0.00 0.00 465.00 672.50" xmlns="http://www.w3.org/2000/svg" xmlns:xlink="http://www.w3.org/1999/xlink">
<g id="graph0" class="graph" transform="scale(1 1) rotate(0) translate(4 668.5)">
<title>TUIO::TuioManager::updateTuioBlob</title>
<polygon fill="white" stroke="transparent" points="-4,4 -4,-668.5 461,-668.5 461,4 -4,4"/>
<!-- Node1 -->
<g id="node1" class="node">
<title>Node1</title>
<g id="a_node1"><a xlink:title=" ">
<polygon fill="#bfbfbf" stroke="black" points="0,-312.5 0,-342.5 115,-342.5 115,-312.5 0,-312.5"/>
<text text-anchor="start" x="8" y="-330.5" font-family="Helvetica,sans-Serif" font-size="10.00">TUIO::TuioManager::</text>
<text text-anchor="middle" x="57.5" y="-319.5" font-family="Helvetica,sans-Serif" font-size="10.00">updateTuioBlob</text>
</a>
</g>
</g>
<!-- Node2 -->
<g id="node2" class="node">
<title>Node2</title>
<g id="a_node2"><a xlink:href="../../d1/dcf/classTUIO_1_1TuioBlob.html#a807abce60406535ca47b82cb2759df8b" target="_top" xlink:title=" ">
<polygon fill="white" stroke="black" points="161,-645 161,-664 298,-664 298,-645 161,-645"/>
<text text-anchor="middle" x="229.5" y="-652" font-family="Helvetica,sans-Serif" font-size="10.00">TUIO::TuioBlob::getAngle</text>
</a>
</g>
</g>
<!-- Node1&#45;&gt;Node2 -->
<g id="edge1" class="edge">
<title>Node1&#45;&gt;Node2</title>
<path fill="none" stroke="midnightblue" d="M58.16,-342.66C57.91,-392.52 64.17,-553.02 151,-635.5 152.51,-636.93 154.1,-638.26 155.77,-639.49"/>
<polygon fill="midnightblue" stroke="midnightblue" points="154.3,-642.7 164.67,-644.9 157.94,-636.71 154.3,-642.7"/>
</g>
<!-- Node3 -->
<g id="node3" class="node">
<title>Node3</title>
<g id="a_node3"><a xlink:href="../../d1/dcf/classTUIO_1_1TuioBlob.html#ab3665c8b01b0864b0863ee5ba639e36b" target="_top" xlink:title=" ">
<polygon fill="white" stroke="black" points="163.5,-607 163.5,-626 295.5,-626 295.5,-607 163.5,-607"/>
<text text-anchor="middle" x="229.5" y="-614" font-family="Helvetica,sans-Serif" font-size="10.00">TUIO::TuioBlob::getArea</text>
</a>
</g>
</g>
<!-- Node1&#45;&gt;Node3 -->
<g id="edge2" class="edge">
<title>Node1&#45;&gt;Node3</title>
<path fill="none" stroke="midnightblue" d="M58.9,-342.73C60.97,-388.63 73.65,-526.79 151,-597.5 152.7,-599.06 154.51,-600.49 156.41,-601.81"/>
<polygon fill="midnightblue" stroke="midnightblue" points="154.79,-604.92 165.2,-606.92 158.31,-598.87 154.79,-604.92"/>
</g>
<!-- Node4 -->
<g id="node4" class="node">
<title>Node4</title>
<g id="a_node4"><a xlink:href="../../d1/dcf/classTUIO_1_1TuioBlob.html#a75b865ab648794432ad62a6d862d4ad6" target="_top" xlink:title=" ">
<polygon fill="white" stroke="black" points="158.5,-569 158.5,-588 300.5,-588 300.5,-569 158.5,-569"/>
<text text-anchor="middle" x="229.5" y="-576" font-family="Helvetica,sans-Serif" font-size="10.00">TUIO::TuioBlob::getBlobID</text>
</a>
</g>
</g>
<!-- Node1&#45;&gt;Node4 -->
<g id="edge3" class="edge">
<title>Node1&#45;&gt;Node4</title>
<path fill="none" stroke="midnightblue" d="M59.86,-342.67C64.42,-384.15 82.95,-500.31 151,-559.5 152.78,-561.05 154.67,-562.48 156.65,-563.8"/>
<polygon fill="midnightblue" stroke="midnightblue" points="155.34,-567.07 165.78,-568.87 158.74,-560.95 155.34,-567.07"/>
</g>
<!-- Node5 -->
<g id="node5" class="node">
<title>Node5</title>
<g id="a_node5"><a xlink:href="../../d1/dcf/classTUIO_1_1TuioBlob.html#ada148b8140e9f251fc7fd70117be3e71" target="_top" xlink:title=" ">
<polygon fill="white" stroke="black" points="158.5,-531 158.5,-550 300.5,-550 300.5,-531 158.5,-531"/>
<text text-anchor="middle" x="229.5" y="-538" font-family="Helvetica,sans-Serif" font-size="10.00">TUIO::TuioBlob::getHeight</text>
</a>
</g>
</g>
<!-- Node1&#45;&gt;Node5 -->
<g id="edge4" class="edge">
<title>Node1&#45;&gt;Node5</title>
<path fill="none" stroke="midnightblue" d="M61.14,-342.58C68.39,-379.25 92.11,-473.57 151,-521.5 153.07,-523.18 155.26,-524.72 157.56,-526.13"/>
<polygon fill="midnightblue" stroke="midnightblue" points="156.32,-529.42 166.81,-530.91 159.53,-523.21 156.32,-529.42"/>
</g>
<!-- Node6 -->
<g id="node6" class="node">
<title>Node6</title>
<g id="a_node6"><a xlink:href="../../d8/de3/classTUIO_1_1TuioContainer.html#aca8c7670af13d100999eb4663ead8281" target="_top" xlink:title=" ">
<polygon fill="white" stroke="black" points="173,-481.5 173,-511.5 286,-511.5 286,-481.5 173,-481.5"/>
<text text-anchor="start" x="181" y="-499.5" font-family="Helvetica,sans-Serif" font-size="10.00">TUIO::TuioContainer</text>
<text text-anchor="middle" x="229.5" y="-488.5" font-family="Helvetica,sans-Serif" font-size="10.00">::getMotionAccel</text>
</a>
</g>
</g>
<!-- Node1&#45;&gt;Node6 -->
<g id="edge5" class="edge">
<title>Node1&#45;&gt;Node6</title>
<path fill="none" stroke="midnightblue" d="M64.04,-342.71C75.57,-372.21 104.94,-437.37 151,-472.5 154.86,-475.44 159.08,-478.03 163.5,-480.3"/>
<polygon fill="midnightblue" stroke="midnightblue" points="162.24,-483.57 172.79,-484.53 165.14,-477.2 162.24,-483.57"/>
</g>
<!-- Node7 -->
<g id="node7" class="node">
<title>Node7</title>
<g id="a_node7"><a xlink:href="../../d1/dcf/classTUIO_1_1TuioBlob.html#aa52fee5957a0bded74e670ea00ceeceb" target="_top" xlink:title=" ">
<polygon fill="white" stroke="black" points="154,-432.5 154,-462.5 305,-462.5 305,-432.5 154,-432.5"/>
<text text-anchor="start" x="162" y="-450.5" font-family="Helvetica,sans-Serif" font-size="10.00">TUIO::TuioBlob::getRotation</text>
<text text-anchor="middle" x="229.5" y="-439.5" font-family="Helvetica,sans-Serif" font-size="10.00">Accel</text>
</a>
</g>
</g>
<!-- Node1&#45;&gt;Node7 -->
<g id="edge6" class="edge">
<title>Node1&#45;&gt;Node7</title>
<path fill="none" stroke="midnightblue" d="M69.26,-342.79C84.91,-363.92 115.92,-401.89 151,-423.5 153.76,-425.2 156.65,-426.79 159.62,-428.27"/>
<polygon fill="midnightblue" stroke="midnightblue" points="158.19,-431.46 168.74,-432.41 161.08,-425.09 158.19,-431.46"/>
</g>
<!-- Node8 -->
<g id="node8" class="node">
<title>Node8</title>
<g id="a_node8"><a xlink:href="../../d1/dcf/classTUIO_1_1TuioBlob.html#a71fb8b327590a287e08a76804e237d84" target="_top" xlink:title=" ">
<polygon fill="white" stroke="black" points="154,-383.5 154,-413.5 305,-413.5 305,-383.5 154,-383.5"/>
<text text-anchor="start" x="162" y="-401.5" font-family="Helvetica,sans-Serif" font-size="10.00">TUIO::TuioBlob::getRotation</text>
<text text-anchor="middle" x="229.5" y="-390.5" font-family="Helvetica,sans-Serif" font-size="10.00">Speed</text>
</a>
</g>
</g>
<!-- Node1&#45;&gt;Node8 -->
<g id="edge7" class="edge">
<title>Node1&#45;&gt;Node8</title>
<path fill="none" stroke="midnightblue" d="M85.06,-342.51C103.25,-352.42 128.13,-365.23 151,-374.5 155.77,-376.44 160.76,-378.31 165.81,-380.09"/>
<polygon fill="midnightblue" stroke="midnightblue" points="164.95,-383.5 175.55,-383.42 167.22,-376.88 164.95,-383.5"/>
</g>
<!-- Node9 -->
<g id="node9" class="node">
<title>Node9</title>
<g id="a_node9"><a xlink:href="../../d8/de3/classTUIO_1_1TuioContainer.html#a43a9b95e3108a178e16c8d86a9816f8a" target="_top" xlink:title=" ">
<polygon fill="white" stroke="black" points="173,-334.5 173,-364.5 286,-364.5 286,-334.5 173,-334.5"/>
<text text-anchor="start" x="181" y="-352.5" font-family="Helvetica,sans-Serif" font-size="10.00">TUIO::TuioContainer</text>
<text text-anchor="middle" x="229.5" y="-341.5" font-family="Helvetica,sans-Serif" font-size="10.00">::getSessionID</text>
</a>
</g>
</g>
<!-- Node1&#45;&gt;Node9 -->
<g id="edge8" class="edge">
<title>Node1&#45;&gt;Node9</title>
<path fill="none" stroke="midnightblue" d="M115.11,-334.83C130.32,-336.79 146.9,-338.94 162.57,-340.97"/>
<polygon fill="midnightblue" stroke="midnightblue" points="162.35,-344.47 172.72,-342.28 163.25,-337.53 162.35,-344.47"/>
</g>
<!-- Node10 -->
<g id="node10" class="node">
<title>Node10</title>
<g id="a_node10"><a xlink:href="../../d0/db6/classTUIO_1_1TuioPoint.html#ac86687cf27772d0fd602c2044b6c8cdd" target="_top" xlink:title=" ">
<polygon fill="white" stroke="black" points="151,-296 151,-315 308,-315 308,-296 151,-296"/>
<text text-anchor="middle" x="229.5" y="-303" font-family="Helvetica,sans-Serif" font-size="10.00">TUIO::TuioPoint::getTuioTime</text>
</a>
</g>
</g>
<!-- Node1&#45;&gt;Node10 -->
<g id="edge9" class="edge">
<title>Node1&#45;&gt;Node10</title>
<path fill="none" stroke="midnightblue" d="M115.11,-320.17C124.67,-318.94 134.77,-317.63 144.85,-316.33"/>
<polygon fill="midnightblue" stroke="midnightblue" points="145.43,-319.78 154.9,-315.02 144.53,-312.84 145.43,-319.78"/>
</g>
<!-- Node11 -->
<g id="node11" class="node">
<title>Node11</title>
<g id="a_node11"><a xlink:href="../../d1/dcf/classTUIO_1_1TuioBlob.html#a0e85862145fe92340f4552c91313d0fe" target="_top" xlink:title=" ">
<polygon fill="white" stroke="black" points="160.5,-258 160.5,-277 298.5,-277 298.5,-258 160.5,-258"/>
<text text-anchor="middle" x="229.5" y="-265" font-family="Helvetica,sans-Serif" font-size="10.00">TUIO::TuioBlob::getWidth</text>
</a>
</g>
</g>
<!-- Node1&#45;&gt;Node11 -->
<g id="edge10" class="edge">
<title>Node1&#45;&gt;Node11</title>
<path fill="none" stroke="midnightblue" d="M88.79,-312.45C106.6,-304.01 129.72,-293.76 151,-286.5 158.37,-283.98 166.25,-281.66 174.05,-279.56"/>
<polygon fill="midnightblue" stroke="midnightblue" points="175.04,-282.91 183.85,-277.02 173.29,-276.14 175.04,-282.91"/>
</g>
<!-- Node12 -->
<g id="node12" class="node">
<title>Node12</title>
<g id="a_node12"><a xlink:href="../../d0/db6/classTUIO_1_1TuioPoint.html#a547710f33dd3786eaa8ca326b34911c0" target="_top" xlink:title=" ">
<polygon fill="white" stroke="black" points="170,-220 170,-239 289,-239 289,-220 170,-220"/>
<text text-anchor="middle" x="229.5" y="-227" font-family="Helvetica,sans-Serif" font-size="10.00">TUIO::TuioPoint::getX</text>
</a>
</g>
</g>
<!-- Node1&#45;&gt;Node12 -->
<g id="edge11" class="edge">
<title>Node1&#45;&gt;Node12</title>
<path fill="none" stroke="midnightblue" d="M71.99,-312.29C88.74,-294.34 119.05,-264.88 151,-248.5 155.58,-246.15 160.47,-244.08 165.47,-242.27"/>
<polygon fill="midnightblue" stroke="midnightblue" points="166.79,-245.52 175.19,-239.07 164.6,-238.87 166.79,-245.52"/>
</g>
<!-- Node13 -->
<g id="node13" class="node">
<title>Node13</title>
<g id="a_node13"><a xlink:href="../../d8/de3/classTUIO_1_1TuioContainer.html#ad71a4dba72e5c46fa8b8f7fc0f961705" target="_top" xlink:title=" ">
<polygon fill="white" stroke="black" points="173,-170.5 173,-200.5 286,-200.5 286,-170.5 173,-170.5"/>
<text text-anchor="start" x="181" y="-188.5" font-family="Helvetica,sans-Serif" font-size="10.00">TUIO::TuioContainer</text>
<text text-anchor="middle" x="229.5" y="-177.5" font-family="Helvetica,sans-Serif" font-size="10.00">::getXSpeed</text>
</a>
</g>
</g>
<!-- Node1&#45;&gt;Node13 -->
<g id="edge12" class="edge">
<title>Node1&#45;&gt;Node13</title>
<path fill="none" stroke="midnightblue" d="M66.59,-312.2C80.54,-287.29 111.44,-237.97 151,-210.5 154.93,-207.77 159.18,-205.33 163.58,-203.14"/>
<polygon fill="midnightblue" stroke="midnightblue" points="165.12,-206.29 172.81,-199 162.26,-199.9 165.12,-206.29"/>
</g>
<!-- Node14 -->
<g id="node14" class="node">
<title>Node14</title>
<g id="a_node14"><a xlink:href="../../d0/db6/classTUIO_1_1TuioPoint.html#a2dbd53d10bbcddb6db271bdd30858733" target="_top" xlink:title=" ">
<polygon fill="white" stroke="black" points="170,-132 170,-151 289,-151 289,-132 170,-132"/>
<text text-anchor="middle" x="229.5" y="-139" font-family="Helvetica,sans-Serif" font-size="10.00">TUIO::TuioPoint::getY</text>
</a>
</g>
</g>
<!-- Node1&#45;&gt;Node14 -->
<g id="edge13" class="edge">
<title>Node1&#45;&gt;Node14</title>
<path fill="none" stroke="midnightblue" d="M62.49,-312.44C71.96,-279.67 99.03,-201.62 151,-161.5 153.98,-159.2 157.2,-157.16 160.57,-155.36"/>
<polygon fill="midnightblue" stroke="midnightblue" points="162.18,-158.47 169.79,-151.1 159.25,-152.11 162.18,-158.47"/>
</g>
<!-- Node15 -->
<g id="node15" class="node">
<title>Node15</title>
<g id="a_node15"><a xlink:href="../../d8/de3/classTUIO_1_1TuioContainer.html#af96183810e34c1ead6a6787fcf03c171" target="_top" xlink:title=" ">
<polygon fill="white" stroke="black" points="173,-82.5 173,-112.5 286,-112.5 286,-82.5 173,-82.5"/>
<text text-anchor="start" x="181" y="-100.5" font-family="Helvetica,sans-Serif" font-size="10.00">TUIO::TuioContainer</text>
<text text-anchor="middle" x="229.5" y="-89.5" font-family="Helvetica,sans-Serif" font-size="10.00">::getYSpeed</text>
</a>
</g>
</g>
<!-- Node1&#45;&gt;Node15 -->
<g id="edge14" class="edge">
<title>Node1&#45;&gt;Node15</title>
<path fill="none" stroke="midnightblue" d="M61,-312.41C68.02,-274.73 91.47,-175.72 151,-122.5 154.85,-119.05 159.19,-116.08 163.79,-113.52"/>
<polygon fill="midnightblue" stroke="midnightblue" points="165.44,-116.61 172.9,-109.08 162.37,-110.32 165.44,-116.61"/>
</g>
<!-- Node16 -->
<g id="node16" class="node">
<title>Node16</title>
<g id="a_node16"><a xlink:href="../../d1/dcf/classTUIO_1_1TuioBlob.html#a42bebf90d562cda2ad5db67a9acba3d5" target="_top" xlink:title=" ">
<polygon fill="white" stroke="black" points="160.5,-44 160.5,-63 298.5,-63 298.5,-44 160.5,-44"/>
<text text-anchor="middle" x="229.5" y="-51" font-family="Helvetica,sans-Serif" font-size="10.00">TUIO::TuioBlob::isMoving</text>
</a>
</g>
</g>
<!-- Node1&#45;&gt;Node16 -->
<g id="edge15" class="edge">
<title>Node1&#45;&gt;Node16</title>
<path fill="none" stroke="midnightblue" d="M59.32,-312.26C62.53,-268.22 78.03,-139.74 151,-73.5 153.22,-71.49 155.61,-69.67 158.14,-68.03"/>
<polygon fill="midnightblue" stroke="midnightblue" points="160.05,-70.98 167.16,-63.12 156.71,-64.83 160.05,-70.98"/>
</g>
<!-- Node17 -->
<g id="node17" class="node">
<title>Node17</title>
<g id="a_node17"><a xlink:href="../../d1/dcf/classTUIO_1_1TuioBlob.html#ac8c056e14de08d08667186aa55c8eb8b" target="_top" xlink:title=" ">
<polygon fill="white" stroke="black" points="165.5,-6 165.5,-25 293.5,-25 293.5,-6 165.5,-6"/>
<text text-anchor="middle" x="229.5" y="-13" font-family="Helvetica,sans-Serif" font-size="10.00">TUIO::TuioBlob::update</text>
</a>
</g>
</g>
<!-- Node1&#45;&gt;Node17 -->
<g id="edge16" class="edge">
<title>Node1&#45;&gt;Node17</title>
<path fill="none" stroke="midnightblue" d="M58.43,-312.39C59.07,-264.14 67.88,-112.36 151,-34.5 152.73,-32.88 154.56,-31.4 156.5,-30.04"/>
<polygon fill="midnightblue" stroke="midnightblue" points="158.6,-32.86 165.48,-24.8 155.07,-26.81 158.6,-32.86"/>
</g>
<!-- Node18 -->
<g id="node18" class="node">
<title>Node18</title>
<g id="a_node18"><a xlink:href="../../d8/de3/classTUIO_1_1TuioContainer.html#ae6ed82aba4186921dc911a382f7e5f33" target="_top" xlink:title=" ">
<polygon fill="white" stroke="black" points="344,-0.5 344,-30.5 457,-30.5 457,-0.5 344,-0.5"/>
<text text-anchor="start" x="352" y="-18.5" font-family="Helvetica,sans-Serif" font-size="10.00">TUIO::TuioContainer</text>
<text text-anchor="middle" x="400.5" y="-7.5" font-family="Helvetica,sans-Serif" font-size="10.00">::update</text>
</a>
</g>
</g>
<!-- Node17&#45;&gt;Node18 -->
<g id="edge17" class="edge">
<title>Node17&#45;&gt;Node18</title>
<path fill="none" stroke="midnightblue" d="M293.91,-15.5C306.84,-15.5 320.48,-15.5 333.5,-15.5"/>
<polygon fill="midnightblue" stroke="midnightblue" points="333.79,-19 343.79,-15.5 333.79,-12 333.79,-19"/>
</g>
</g>
</svg>
