<?xml version="1.0" encoding="UTF-8" standalone="no"?>
<!DOCTYPE svg PUBLIC "-//W3C//DTD SVG 1.1//EN"
 "http://www.w3.org/Graphics/SVG/1.1/DTD/svg11.dtd">
<!-- Generated by graphviz version 2.43.0 (0)
 -->
<!-- Title: TUIO::OscReceiver Pages: 1 -->
<svg width="240pt" height="140pt"
 viewBox="0.00 0.00 240.00 140.00" xmlns="http://www.w3.org/2000/svg" xmlns:xlink="http://www.w3.org/1999/xlink">
<g id="graph0" class="graph" transform="scale(1 1) rotate(0) translate(4 136)">
<title>TUIO::OscReceiver</title>
<polygon fill="white" stroke="transparent" points="-4,4 -4,-136 236,-136 236,4 -4,4"/>
<!-- Node1 -->
<g id="node1" class="node">
<title>Node1</title>
<g id="a_node1"><a xlink:title=" ">
<polygon fill="#bfbfbf" stroke="black" points="61,-56.5 61,-75.5 168,-75.5 168,-56.5 61,-56.5"/>
<text text-anchor="middle" x="114.5" y="-63.5" font-family="Helvetica,sans-Serif" font-size="10.00">TUIO::OscReceiver</text>
</a>
</g>
</g>
<!-- Node3 -->
<g id="node3" class="node">
<title>Node3</title>
<g id="a_node3"><a xlink:href="../../d6/d07/classTUIO_1_1TcpReceiver.html" target="_top" xlink:title=" ">
<polygon fill="white" stroke="black" points="0,-0.5 0,-19.5 105,-19.5 105,-0.5 0,-0.5"/>
<text text-anchor="middle" x="52.5" y="-7.5" font-family="Helvetica,sans-Serif" font-size="10.00">TUIO::TcpReceiver</text>
</a>
</g>
</g>
<!-- Node1&#45;&gt;Node3 -->
<g id="edge2" class="edge">
<title>Node1&#45;&gt;Node3</title>
<path fill="none" stroke="midnightblue" d="M96.75,-49.54C85.69,-39.91 71.87,-27.87 62.64,-19.83"/>
<polygon fill="midnightblue" stroke="midnightblue" points="94.7,-52.4 104.54,-56.32 99.3,-47.12 94.7,-52.4"/>
</g>
<!-- Node4 -->
<g id="node4" class="node">
<title>Node4</title>
<g id="a_node4"><a xlink:href="../../d4/d2f/classTUIO_1_1UdpReceiver.html" target="_top" xlink:title=" ">
<polygon fill="white" stroke="black" points="123,-0.5 123,-19.5 232,-19.5 232,-0.5 123,-0.5"/>
<text text-anchor="middle" x="177.5" y="-7.5" font-family="Helvetica,sans-Serif" font-size="10.00">TUIO::UdpReceiver</text>
</a>
</g>
</g>
<!-- Node1&#45;&gt;Node4 -->
<g id="edge3" class="edge">
<title>Node1&#45;&gt;Node4</title>
<path fill="none" stroke="midnightblue" d="M132.54,-49.54C143.77,-39.91 157.82,-27.87 167.19,-19.83"/>
<polygon fill="midnightblue" stroke="midnightblue" points="129.94,-47.16 124.62,-56.32 134.49,-52.47 129.94,-47.16"/>
</g>
<!-- Node2 -->
<g id="node2" class="node">
<title>Node2</title>
<g id="a_node2"><a xlink:href="../../dc/d98/classPacketListener.html" target="_top" xlink:title=" ">
<polygon fill="white" stroke="black" points="71,-112.5 71,-131.5 158,-131.5 158,-112.5 71,-112.5"/>
<text text-anchor="middle" x="114.5" y="-119.5" font-family="Helvetica,sans-Serif" font-size="10.00">PacketListener</text>
</a>
</g>
</g>
<!-- Node2&#45;&gt;Node1 -->
<g id="edge1" class="edge">
<title>Node2&#45;&gt;Node1</title>
<path fill="none" stroke="midnightblue" d="M114.5,-101.8C114.5,-92.91 114.5,-82.78 114.5,-75.75"/>
<polygon fill="midnightblue" stroke="midnightblue" points="111,-102.08 114.5,-112.08 118,-102.08 111,-102.08"/>
</g>
</g>
</svg>
