<?xml version="1.0" encoding="UTF-8" standalone="no"?>
<!DOCTYPE svg PUBLIC "-//W3C//DTD SVG 1.1//EN"
 "http://www.w3.org/Graphics/SVG/1.1/DTD/svg11.dtd">
<!-- Generated by graphviz version 2.43.0 (0)
 -->
<!-- Title: TUIO::TuioClient::getTuioCursor Pages: 1 -->
<svg width="299pt" height="88pt"
 viewBox="0.00 0.00 299.00 88.00" xmlns="http://www.w3.org/2000/svg" xmlns:xlink="http://www.w3.org/1999/xlink">
<g id="graph0" class="graph" transform="scale(1 1) rotate(0) translate(4 84)">
<title>TUIO::TuioClient::getTuioCursor</title>
<polygon fill="white" stroke="transparent" points="-4,4 -4,-84 295,-84 295,4 -4,4"/>
<!-- Node1 -->
<g id="node1" class="node">
<title>Node1</title>
<g id="a_node1"><a xlink:title=" ">
<polygon fill="#bfbfbf" stroke="black" points="0,-24.5 0,-54.5 136,-54.5 136,-24.5 0,-24.5"/>
<text text-anchor="start" x="8" y="-42.5" font-family="Helvetica,sans-Serif" font-size="10.00">TUIO::TuioClient::getTuio</text>
<text text-anchor="middle" x="68" y="-31.5" font-family="Helvetica,sans-Serif" font-size="10.00">Cursor</text>
</a>
</g>
</g>
<!-- Node2 -->
<g id="node2" class="node">
<title>Node2</title>
<g id="a_node2"><a xlink:href="../../d4/dc1/classTUIO_1_1TuioDispatcher.html#af5d9daaf30c3d93d736aff59802f9f75" target="_top" xlink:title=" ">
<polygon fill="white" stroke="black" points="172,-49.5 172,-79.5 291,-79.5 291,-49.5 172,-49.5"/>
<text text-anchor="start" x="180" y="-67.5" font-family="Helvetica,sans-Serif" font-size="10.00">TUIO::TuioDispatcher</text>
<text text-anchor="middle" x="231.5" y="-56.5" font-family="Helvetica,sans-Serif" font-size="10.00">::lockCursorList</text>
</a>
</g>
</g>
<!-- Node1&#45;&gt;Node2 -->
<g id="edge1" class="edge">
<title>Node1&#45;&gt;Node2</title>
<path fill="none" stroke="midnightblue" d="M136.09,-49.89C144.62,-51.21 153.36,-52.56 161.92,-53.88"/>
<polygon fill="midnightblue" stroke="midnightblue" points="161.44,-57.35 171.86,-55.42 162.51,-50.43 161.44,-57.35"/>
</g>
<!-- Node3 -->
<g id="node3" class="node">
<title>Node3</title>
<g id="a_node3"><a xlink:href="../../d4/dc1/classTUIO_1_1TuioDispatcher.html#aa7cb3e920ff9b7d73f863631344a13a4" target="_top" xlink:title=" ">
<polygon fill="white" stroke="black" points="172,-0.5 172,-30.5 291,-30.5 291,-0.5 172,-0.5"/>
<text text-anchor="start" x="180" y="-18.5" font-family="Helvetica,sans-Serif" font-size="10.00">TUIO::TuioDispatcher</text>
<text text-anchor="middle" x="231.5" y="-7.5" font-family="Helvetica,sans-Serif" font-size="10.00">::unlockCursorList</text>
</a>
</g>
</g>
<!-- Node1&#45;&gt;Node3 -->
<g id="edge2" class="edge">
<title>Node1&#45;&gt;Node3</title>
<path fill="none" stroke="midnightblue" d="M136.09,-29.53C144.62,-28.26 153.36,-26.96 161.92,-25.69"/>
<polygon fill="midnightblue" stroke="midnightblue" points="162.48,-29.15 171.86,-24.21 161.45,-22.22 162.48,-29.15"/>
</g>
</g>
</svg>
