<?xml version="1.0" encoding="UTF-8" standalone="no"?>
<!DOCTYPE svg PUBLIC "-//W3C//DTD SVG 1.1//EN"
 "http://www.w3.org/Graphics/SVG/1.1/DTD/svg11.dtd">
<!-- Generated by graphviz version 2.43.0 (0)
 -->
<!-- Title: TUIO::TuioClient::connect Pages: 1 -->
<svg width="548pt" height="263pt"
 viewBox="0.00 0.00 548.00 263.00" xmlns="http://www.w3.org/2000/svg" xmlns:xlink="http://www.w3.org/1999/xlink">
<g id="graph0" class="graph" transform="scale(1 1) rotate(0) translate(4 259)">
<title>TUIO::TuioClient::connect</title>
<polygon fill="white" stroke="transparent" points="-4,4 -4,-259 544,-259 544,4 -4,4"/>
<!-- Node1 -->
<g id="node1" class="node">
<title>Node1</title>
<g id="a_node1"><a xlink:title=" ">
<polygon fill="#bfbfbf" stroke="black" points="0,-126 0,-145 139,-145 139,-126 0,-126"/>
<text text-anchor="middle" x="69.5" y="-133" font-family="Helvetica,sans-Serif" font-size="10.00">TUIO::TuioClient::connect</text>
</a>
</g>
</g>
<!-- Node2 -->
<g id="node2" class="node">
<title>Node2</title>
<g id="a_node2"><a xlink:href="../../d8/df1/classTUIO_1_1OscReceiver.html#a091a150432d72d343fd8623383bae100" target="_top" xlink:title=" ">
<polygon fill="white" stroke="black" points="193.5,-224.5 193.5,-254.5 306.5,-254.5 306.5,-224.5 193.5,-224.5"/>
<text text-anchor="start" x="201.5" y="-242.5" font-family="Helvetica,sans-Serif" font-size="10.00">TUIO::OscReceiver::</text>
<text text-anchor="middle" x="250" y="-231.5" font-family="Helvetica,sans-Serif" font-size="10.00">connect</text>
</a>
</g>
</g>
<!-- Node1&#45;&gt;Node2 -->
<g id="edge1" class="edge">
<title>Node1&#45;&gt;Node2</title>
<path fill="none" stroke="midnightblue" d="M80.7,-145.03C98.56,-161.27 137.2,-194.51 175,-214.5 179.02,-216.63 183.26,-218.62 187.58,-220.49"/>
<polygon fill="midnightblue" stroke="midnightblue" points="186.57,-223.86 197.15,-224.37 189.2,-217.37 186.57,-223.86"/>
</g>
<!-- Node3 -->
<g id="node3" class="node">
<title>Node3</title>
<g id="a_node3"><a xlink:href="../../d0/db2/classTUIO_1_1TuioTime.html#a852026c3214217bd4ac47daa2071f588" target="_top" xlink:title=" ">
<polygon fill="white" stroke="black" points="175,-186 175,-205 325,-205 325,-186 175,-186"/>
<text text-anchor="middle" x="250" y="-193" font-family="Helvetica,sans-Serif" font-size="10.00">TUIO::TuioTime::initSession</text>
</a>
</g>
</g>
<!-- Node1&#45;&gt;Node3 -->
<g id="edge2" class="edge">
<title>Node1&#45;&gt;Node3</title>
<path fill="none" stroke="midnightblue" d="M92.64,-145.1C113.59,-153.97 146.07,-167.15 175,-176.5 182.45,-178.91 190.41,-181.22 198.23,-183.34"/>
<polygon fill="midnightblue" stroke="midnightblue" points="197.47,-186.76 208.03,-185.93 199.26,-180 197.47,-186.76"/>
</g>
<!-- Node7 -->
<g id="node7" class="node">
<title>Node7</title>
<g id="a_node7"><a xlink:href="../../d0/db2/classTUIO_1_1TuioTime.html#a04bbc5d4cedabb8581461eaea04edde0" target="_top" xlink:title=" ">
<polygon fill="white" stroke="black" points="189,-148 189,-167 311,-167 311,-148 189,-148"/>
<text text-anchor="middle" x="250" y="-155" font-family="Helvetica,sans-Serif" font-size="10.00">TUIO::TuioTime::reset</text>
</a>
</g>
</g>
<!-- Node1&#45;&gt;Node7 -->
<g id="edge6" class="edge">
<title>Node1&#45;&gt;Node7</title>
<path fill="none" stroke="midnightblue" d="M139,-143.94C151.96,-145.54 165.53,-147.21 178.55,-148.82"/>
<polygon fill="midnightblue" stroke="midnightblue" points="178.49,-152.34 188.84,-150.09 179.34,-145.39 178.49,-152.34"/>
</g>
<!-- Node8 -->
<g id="node8" class="node">
<title>Node8</title>
<g id="a_node8"><a xlink:href="../../d4/dc1/classTUIO_1_1TuioDispatcher.html#aa76cf60fb98c40c7fcac410d7bdd2cb0" target="_top" xlink:title=" ">
<polygon fill="white" stroke="black" points="190.5,-98.5 190.5,-128.5 309.5,-128.5 309.5,-98.5 190.5,-98.5"/>
<text text-anchor="start" x="198.5" y="-116.5" font-family="Helvetica,sans-Serif" font-size="10.00">TUIO::TuioDispatcher</text>
<text text-anchor="middle" x="250" y="-105.5" font-family="Helvetica,sans-Serif" font-size="10.00">::unlockBlobList</text>
</a>
</g>
</g>
<!-- Node1&#45;&gt;Node8 -->
<g id="edge7" class="edge">
<title>Node1&#45;&gt;Node8</title>
<path fill="none" stroke="midnightblue" d="M139,-127.06C152.48,-125.4 166.62,-123.65 180.11,-121.99"/>
<polygon fill="midnightblue" stroke="midnightblue" points="180.78,-125.43 190.27,-120.74 179.92,-118.49 180.78,-125.43"/>
</g>
<!-- Node9 -->
<g id="node9" class="node">
<title>Node9</title>
<g id="a_node9"><a xlink:href="../../d4/dc1/classTUIO_1_1TuioDispatcher.html#aa7cb3e920ff9b7d73f863631344a13a4" target="_top" xlink:title=" ">
<polygon fill="white" stroke="black" points="190.5,-49.5 190.5,-79.5 309.5,-79.5 309.5,-49.5 190.5,-49.5"/>
<text text-anchor="start" x="198.5" y="-67.5" font-family="Helvetica,sans-Serif" font-size="10.00">TUIO::TuioDispatcher</text>
<text text-anchor="middle" x="250" y="-56.5" font-family="Helvetica,sans-Serif" font-size="10.00">::unlockCursorList</text>
</a>
</g>
</g>
<!-- Node1&#45;&gt;Node9 -->
<g id="edge8" class="edge">
<title>Node1&#45;&gt;Node9</title>
<path fill="none" stroke="midnightblue" d="M90.26,-125.83C111.07,-115.84 144.93,-100.1 175,-88.5 180.04,-86.56 185.31,-84.63 190.62,-82.77"/>
<polygon fill="midnightblue" stroke="midnightblue" points="191.85,-86.05 200.17,-79.5 189.58,-79.43 191.85,-86.05"/>
</g>
<!-- Node10 -->
<g id="node10" class="node">
<title>Node10</title>
<g id="a_node10"><a xlink:href="../../d4/dc1/classTUIO_1_1TuioDispatcher.html#a98e64be7d901e4f63de83139071c2936" target="_top" xlink:title=" ">
<polygon fill="white" stroke="black" points="190.5,-0.5 190.5,-30.5 309.5,-30.5 309.5,-0.5 190.5,-0.5"/>
<text text-anchor="start" x="198.5" y="-18.5" font-family="Helvetica,sans-Serif" font-size="10.00">TUIO::TuioDispatcher</text>
<text text-anchor="middle" x="250" y="-7.5" font-family="Helvetica,sans-Serif" font-size="10.00">::unlockObjectList</text>
</a>
</g>
</g>
<!-- Node1&#45;&gt;Node10 -->
<g id="edge9" class="edge">
<title>Node1&#45;&gt;Node10</title>
<path fill="none" stroke="midnightblue" d="M78.41,-125.87C94.6,-106.74 133.51,-63.72 175,-39.5 177.86,-37.83 180.85,-36.26 183.91,-34.79"/>
<polygon fill="midnightblue" stroke="midnightblue" points="185.56,-37.89 193.31,-30.66 182.74,-31.48 185.56,-37.89"/>
</g>
<!-- Node4 -->
<g id="node4" class="node">
<title>Node4</title>
<g id="a_node4"><a xlink:href="../../d0/db2/classTUIO_1_1TuioTime.html#ac22179f91fb2c6c733c4fe78bbb99275" target="_top" xlink:title=" ">
<polygon fill="white" stroke="black" points="361,-224 361,-243 540,-243 540,-224 361,-224"/>
<text text-anchor="middle" x="450.5" y="-231" font-family="Helvetica,sans-Serif" font-size="10.00">TUIO::TuioTime::getMicroseconds</text>
</a>
</g>
</g>
<!-- Node3&#45;&gt;Node4 -->
<g id="edge3" class="edge">
<title>Node3&#45;&gt;Node4</title>
<path fill="none" stroke="midnightblue" d="M300.83,-205.04C327.73,-210.19 361.14,-216.58 389.46,-222.01"/>
<polygon fill="midnightblue" stroke="midnightblue" points="389.17,-225.51 399.65,-223.96 390.48,-218.64 389.17,-225.51"/>
</g>
<!-- Node5 -->
<g id="node5" class="node">
<title>Node5</title>
<g id="a_node5"><a xlink:href="../../d0/db2/classTUIO_1_1TuioTime.html#a4ad63c2210c47841c1e89be2664f300f" target="_top" xlink:title=" ">
<polygon fill="white" stroke="black" points="374,-186 374,-205 527,-205 527,-186 374,-186"/>
<text text-anchor="middle" x="450.5" y="-193" font-family="Helvetica,sans-Serif" font-size="10.00">TUIO::TuioTime::getSeconds</text>
</a>
</g>
</g>
<!-- Node3&#45;&gt;Node5 -->
<g id="edge4" class="edge">
<title>Node3&#45;&gt;Node5</title>
<path fill="none" stroke="midnightblue" d="M325.2,-195.5C337.71,-195.5 350.79,-195.5 363.57,-195.5"/>
<polygon fill="midnightblue" stroke="midnightblue" points="363.74,-199 373.74,-195.5 363.74,-192 363.74,-199"/>
</g>
<!-- Node6 -->
<g id="node6" class="node">
<title>Node6</title>
<g id="a_node6"><a xlink:href="../../d0/db2/classTUIO_1_1TuioTime.html#a65efe154e6b7c888c8d25cc3d2bded3e" target="_top" xlink:title=" ">
<polygon fill="white" stroke="black" points="363.5,-148 363.5,-167 537.5,-167 537.5,-148 363.5,-148"/>
<text text-anchor="middle" x="450.5" y="-155" font-family="Helvetica,sans-Serif" font-size="10.00">TUIO::TuioTime::getSystemTime</text>
</a>
</g>
</g>
<!-- Node3&#45;&gt;Node6 -->
<g id="edge5" class="edge">
<title>Node3&#45;&gt;Node6</title>
<path fill="none" stroke="midnightblue" d="M300.83,-185.96C327.73,-180.81 361.14,-174.42 389.46,-168.99"/>
<polygon fill="midnightblue" stroke="midnightblue" points="390.48,-172.36 399.65,-167.04 389.17,-165.49 390.48,-172.36"/>
</g>
</g>
</svg>
