<?xml version="1.0" encoding="UTF-8" standalone="no"?>
<!DOCTYPE svg PUBLIC "-//W3C//DTD SVG 1.1//EN"
 "http://www.w3.org/Graphics/SVG/1.1/DTD/svg11.dtd">
<!-- Generated by graphviz version 2.43.0 (0)
 -->
<!-- Title: TUIO::OscSender Pages: 1 -->
<svg width="348pt" height="140pt"
 viewBox="0.00 0.00 347.50 140.00" xmlns="http://www.w3.org/2000/svg" xmlns:xlink="http://www.w3.org/1999/xlink">
<g id="graph0" class="graph" transform="scale(1 1) rotate(0) translate(4 136)">
<title>TUIO::OscSender</title>
<polygon fill="white" stroke="transparent" points="-4,4 -4,-136 343.5,-136 343.5,4 -4,4"/>
<!-- Node1 -->
<g id="node1" class="node">
<title>Node1</title>
<g id="a_node1"><a xlink:title=" ">
<polygon fill="#bfbfbf" stroke="black" points="124.5,-112.5 124.5,-131.5 222.5,-131.5 222.5,-112.5 124.5,-112.5"/>
<text text-anchor="middle" x="173.5" y="-119.5" font-family="Helvetica,sans-Serif" font-size="10.00">TUIO::OscSender</text>
</a>
</g>
</g>
<!-- Node2 -->
<g id="node2" class="node">
<title>Node2</title>
<g id="a_node2"><a xlink:href="../../d8/dd1/classTUIO_1_1FlashSender.html" target="_top" xlink:title=" ">
<polygon fill="white" stroke="black" points="0,-56.5 0,-75.5 107,-75.5 107,-56.5 0,-56.5"/>
<text text-anchor="middle" x="53.5" y="-63.5" font-family="Helvetica,sans-Serif" font-size="10.00">TUIO::FlashSender</text>
</a>
</g>
</g>
<!-- Node1&#45;&gt;Node2 -->
<g id="edge1" class="edge">
<title>Node1&#45;&gt;Node2</title>
<path fill="none" stroke="midnightblue" d="M145.13,-108.23C122.68,-98.13 91.96,-84.31 72.43,-75.52"/>
<polygon fill="midnightblue" stroke="midnightblue" points="143.93,-111.53 154.49,-112.44 146.8,-105.15 143.93,-111.53"/>
</g>
<!-- Node3 -->
<g id="node3" class="node">
<title>Node3</title>
<g id="a_node3"><a xlink:href="../../d8/d5d/classTUIO_1_1TcpSender.html" target="_top" xlink:title=" ">
<polygon fill="white" stroke="black" points="125.5,-56.5 125.5,-75.5 221.5,-75.5 221.5,-56.5 125.5,-56.5"/>
<text text-anchor="middle" x="173.5" y="-63.5" font-family="Helvetica,sans-Serif" font-size="10.00">TUIO::TcpSender</text>
</a>
</g>
</g>
<!-- Node1&#45;&gt;Node3 -->
<g id="edge2" class="edge">
<title>Node1&#45;&gt;Node3</title>
<path fill="none" stroke="midnightblue" d="M173.5,-101.8C173.5,-92.91 173.5,-82.78 173.5,-75.75"/>
<polygon fill="midnightblue" stroke="midnightblue" points="170,-102.08 173.5,-112.08 177,-102.08 170,-102.08"/>
</g>
<!-- Node5 -->
<g id="node5" class="node">
<title>Node5</title>
<g id="a_node5"><a xlink:href="../../d1/ded/classTUIO_1_1UdpSender.html" target="_top" xlink:title=" ">
<polygon fill="white" stroke="black" points="239.5,-56.5 239.5,-75.5 339.5,-75.5 339.5,-56.5 239.5,-56.5"/>
<text text-anchor="middle" x="289.5" y="-63.5" font-family="Helvetica,sans-Serif" font-size="10.00">TUIO::UdpSender</text>
</a>
</g>
</g>
<!-- Node1&#45;&gt;Node5 -->
<g id="edge4" class="edge">
<title>Node1&#45;&gt;Node5</title>
<path fill="none" stroke="midnightblue" d="M201.22,-108.1C222.89,-98.01 252.4,-84.27 271.21,-75.52"/>
<polygon fill="midnightblue" stroke="midnightblue" points="199.47,-105.05 191.88,-112.44 202.42,-111.4 199.47,-105.05"/>
</g>
<!-- Node4 -->
<g id="node4" class="node">
<title>Node4</title>
<g id="a_node4"><a xlink:href="../../da/d32/classTUIO_1_1WebSockSender.html" target="_top" xlink:title=" ">
<polygon fill="white" stroke="black" points="111,-0.5 111,-19.5 236,-19.5 236,-0.5 111,-0.5"/>
<text text-anchor="middle" x="173.5" y="-7.5" font-family="Helvetica,sans-Serif" font-size="10.00">TUIO::WebSockSender</text>
</a>
</g>
</g>
<!-- Node3&#45;&gt;Node4 -->
<g id="edge3" class="edge">
<title>Node3&#45;&gt;Node4</title>
<path fill="none" stroke="midnightblue" d="M173.5,-45.8C173.5,-36.91 173.5,-26.78 173.5,-19.75"/>
<polygon fill="midnightblue" stroke="midnightblue" points="170,-46.08 173.5,-56.08 177,-46.08 170,-46.08"/>
</g>
</g>
</svg>
