<?xml version="1.0" encoding="UTF-8" standalone="no"?>
<!DOCTYPE svg PUBLIC "-//W3C//DTD SVG 1.1//EN"
 "http://www.w3.org/Graphics/SVG/1.1/DTD/svg11.dtd">
<!-- Generated by graphviz version 2.43.0 (0)
 -->
<!-- Title: Graphical Class Hierarchy Pages: 1 -->
<svg width="469pt" height="116pt"
 viewBox="0.00 0.00 469.00 115.50" xmlns="http://www.w3.org/2000/svg" xmlns:xlink="http://www.w3.org/1999/xlink">
<g id="graph0" class="graph" transform="scale(1 1) rotate(0) translate(4 111.5)">
<title>Graphical Class Hierarchy</title>
<polygon fill="white" stroke="transparent" points="-4,4 -4,-111.5 465,-111.5 465,4 -4,4"/>
<!-- Node0 -->
<g id="node1" class="node">
<title>Node0</title>
<g id="a_node1"><a xlink:href="dc/d98/classPacketListener.html" target="_top" xlink:title=" ">
<polygon fill="white" stroke="black" points="0,-28 0,-47 87,-47 87,-28 0,-28"/>
<text text-anchor="middle" x="43.5" y="-35" font-family="Helvetica,sans-Serif" font-size="10.00">PacketListener</text>
</a>
</g>
</g>
<!-- Node1 -->
<g id="node2" class="node">
<title>Node1</title>
<g id="a_node2"><a xlink:href="d8/df1/classTUIO_1_1OscReceiver.html" target="_top" xlink:title=" ">
<polygon fill="white" stroke="black" points="133.5,-50 133.5,-69 240.5,-69 240.5,-50 133.5,-50"/>
<text text-anchor="middle" x="187" y="-57" font-family="Helvetica,sans-Serif" font-size="10.00">TUIO::OscReceiver</text>
</a>
</g>
</g>
<!-- Node0&#45;&gt;Node1 -->
<g id="edge1" class="edge">
<title>Node0&#45;&gt;Node1</title>
<path fill="none" stroke="midnightblue" d="M97.43,-45.73C109.16,-47.55 121.59,-49.49 133.31,-51.31"/>
<polygon fill="midnightblue" stroke="midnightblue" points="97.76,-42.24 87.34,-44.16 96.68,-49.16 97.76,-42.24"/>
</g>
<!-- Node4 -->
<g id="node5" class="node">
<title>Node4</title>
<g id="a_node5"><a xlink:href="d3/dd2/classosc_1_1OscPacketListener.html" target="_top" xlink:title=" ">
<polygon fill="white" stroke="black" points="123,-9 123,-28 251,-28 251,-9 123,-9"/>
<text text-anchor="middle" x="187" y="-16" font-family="Helvetica,sans-Serif" font-size="10.00">osc::OscPacketListener</text>
</a>
</g>
</g>
<!-- Node0&#45;&gt;Node4 -->
<g id="edge4" class="edge">
<title>Node0&#45;&gt;Node4</title>
<path fill="none" stroke="midnightblue" d="M97.32,-30.41C105.67,-29.29 114.39,-28.12 122.95,-26.97"/>
<polygon fill="midnightblue" stroke="midnightblue" points="96.78,-26.95 87.34,-31.75 97.72,-33.89 96.78,-26.95"/>
</g>
<!-- Node2 -->
<g id="node3" class="node">
<title>Node2</title>
<g id="a_node3"><a xlink:href="d6/d07/classTUIO_1_1TcpReceiver.html" target="_top" xlink:title=" ">
<polygon fill="white" stroke="black" points="321.5,-88 321.5,-107 426.5,-107 426.5,-88 321.5,-88"/>
<text text-anchor="middle" x="374" y="-95" font-family="Helvetica,sans-Serif" font-size="10.00">TUIO::TcpReceiver</text>
</a>
</g>
</g>
<!-- Node1&#45;&gt;Node2 -->
<g id="edge2" class="edge">
<title>Node1&#45;&gt;Node2</title>
<path fill="none" stroke="midnightblue" d="M244.52,-71.11C270.83,-76.51 301.74,-82.86 326.65,-87.98"/>
<polygon fill="midnightblue" stroke="midnightblue" points="245.18,-67.67 234.68,-69.09 243.77,-74.53 245.18,-67.67"/>
</g>
<!-- Node3 -->
<g id="node4" class="node">
<title>Node3</title>
<g id="a_node4"><a xlink:href="d4/d2f/classTUIO_1_1UdpReceiver.html" target="_top" xlink:title=" ">
<polygon fill="white" stroke="black" points="319.5,-50 319.5,-69 428.5,-69 428.5,-50 319.5,-50"/>
<text text-anchor="middle" x="374" y="-57" font-family="Helvetica,sans-Serif" font-size="10.00">TUIO::UdpReceiver</text>
</a>
</g>
</g>
<!-- Node1&#45;&gt;Node3 -->
<g id="edge3" class="edge">
<title>Node1&#45;&gt;Node3</title>
<path fill="none" stroke="midnightblue" d="M250.58,-59.5C272.92,-59.5 297.87,-59.5 319.39,-59.5"/>
<polygon fill="midnightblue" stroke="midnightblue" points="250.52,-56 240.52,-59.5 250.52,-63 250.52,-56"/>
</g>
<!-- Node5 -->
<g id="node6" class="node">
<title>Node5</title>
<g id="a_node6"><a xlink:href="d1/d7f/classosc_1_1MessageMappingOscPacketListener.html" target="_top" xlink:title=" ">
<polygon fill="white" stroke="black" points="287,-0.5 287,-30.5 461,-30.5 461,-0.5 287,-0.5"/>
<text text-anchor="start" x="295" y="-18.5" font-family="Helvetica,sans-Serif" font-size="10.00">osc::MessageMappingOscPacket</text>
<text text-anchor="middle" x="374" y="-7.5" font-family="Helvetica,sans-Serif" font-size="10.00">Listener&lt; T &gt;</text>
</a>
</g>
</g>
<!-- Node4&#45;&gt;Node5 -->
<g id="edge5" class="edge">
<title>Node4&#45;&gt;Node5</title>
<path fill="none" stroke="midnightblue" d="M261.28,-17.31C269.7,-17.18 278.34,-17.04 286.9,-16.9"/>
<polygon fill="midnightblue" stroke="midnightblue" points="261.09,-13.81 251.15,-17.48 261.2,-20.81 261.09,-13.81"/>
</g>
</g>
</svg>
