<?xml version="1.0" encoding="UTF-8" standalone="no"?>
<!DOCTYPE svg PUBLIC "-//W3C//DTD SVG 1.1//EN"
 "http://www.w3.org/Graphics/SVG/1.1/DTD/svg11.dtd">
<!-- Generated by graphviz version 2.43.0 (0)
 -->
<!-- Title: TUIO::TuioObject Pages: 1 -->
<svg width="249pt" height="230pt"
 viewBox="0.00 0.00 248.50 230.00" xmlns="http://www.w3.org/2000/svg" xmlns:xlink="http://www.w3.org/1999/xlink">
<g id="graph0" class="graph" transform="scale(1 1) rotate(0) translate(4 226)">
<title>TUIO::TuioObject</title>
<polygon fill="white" stroke="transparent" points="-4,4 -4,-226 244.5,-226 244.5,4 -4,4"/>
<!-- Node1 -->
<g id="node1" class="node">
<title>Node1</title>
<g id="a_node1"><a xlink:title=" ">
<polygon fill="#bfbfbf" stroke="black" points="106.5,-0.5 106.5,-19.5 204.5,-19.5 204.5,-0.5 106.5,-0.5"/>
<text text-anchor="middle" x="155.5" y="-7.5" font-family="Helvetica,sans-Serif" font-size="10.00">TUIO::TuioObject</text>
</a>
</g>
</g>
<!-- Node2 -->
<g id="node2" class="node">
<title>Node2</title>
<g id="a_node2"><a xlink:href="../../d8/de3/classTUIO_1_1TuioContainer.html" target="_top" xlink:title=" ">
<polygon fill="white" stroke="black" points="57,-57.5 57,-76.5 170,-76.5 170,-57.5 57,-57.5"/>
<text text-anchor="middle" x="113.5" y="-64.5" font-family="Helvetica,sans-Serif" font-size="10.00">TUIO::TuioContainer</text>
</a>
</g>
</g>
<!-- Node2&#45;&gt;Node1 -->
<g id="edge1" class="edge">
<title>Node2&#45;&gt;Node1</title>
<path fill="none" stroke="midnightblue" d="M126.3,-49.23C133.74,-39.49 142.81,-27.62 148.84,-19.71"/>
<polygon fill="midnightblue" stroke="midnightblue" points="123.35,-47.33 120.06,-57.41 128.91,-51.58 123.35,-47.33"/>
</g>
<!-- Node3 -->
<g id="node3" class="node">
<title>Node3</title>
<g id="a_node3"><a xlink:href="../../d0/db6/classTUIO_1_1TuioPoint.html" target="_top" xlink:title=" ">
<polygon fill="white" stroke="black" points="68,-124.5 68,-143.5 159,-143.5 159,-124.5 68,-124.5"/>
<text text-anchor="middle" x="113.5" y="-131.5" font-family="Helvetica,sans-Serif" font-size="10.00">TUIO::TuioPoint</text>
</a>
</g>
</g>
<!-- Node3&#45;&gt;Node2 -->
<g id="edge2" class="edge">
<title>Node3&#45;&gt;Node2</title>
<path fill="none" stroke="midnightblue" d="M113.5,-114.04C113.5,-101.67 113.5,-86.12 113.5,-76.63"/>
<polygon fill="midnightblue" stroke="midnightblue" points="110,-114.23 113.5,-124.23 117,-114.23 110,-114.23"/>
</g>
<!-- Node4 -->
<g id="node4" class="node">
<title>Node4</title>
<g id="a_node4"><a xlink:href="../../d0/db2/classTUIO_1_1TuioTime.html" target="_top" xlink:title=" ">
<polygon fill="white" stroke="black" points="0,-202.5 0,-221.5 91,-221.5 91,-202.5 0,-202.5"/>
<text text-anchor="middle" x="45.5" y="-209.5" font-family="Helvetica,sans-Serif" font-size="10.00">TUIO::TuioTime</text>
</a>
</g>
</g>
<!-- Node4&#45;&gt;Node3 -->
<g id="edge3" class="edge">
<title>Node4&#45;&gt;Node3</title>
<path fill="none" stroke="#9a32cd" stroke-dasharray="5,2" d="M41.23,-192.16C40.09,-182.36 40.53,-170.65 46.5,-162 52.41,-153.43 61.53,-147.58 71.16,-143.59"/>
<polygon fill="#9a32cd" stroke="#9a32cd" points="37.81,-192.91 42.98,-202.16 44.7,-191.7 37.81,-192.91"/>
<text text-anchor="middle" x="78" y="-176" font-family="Helvetica,sans-Serif" font-size="10.00"> currentTime</text>
<text text-anchor="middle" x="78" y="-165" font-family="Helvetica,sans-Serif" font-size="10.00">startTime</text>
</g>
<!-- Node5 -->
<g id="node5" class="node">
<title>Node5</title>
<g id="a_node5"><a xlink:href="../../d3/de2/classTUIO_1_1OneEuroFilter.html" target="_top" xlink:title=" ">
<polygon fill="white" stroke="black" points="125,-202.5 125,-221.5 238,-221.5 238,-202.5 125,-202.5"/>
<text text-anchor="middle" x="181.5" y="-209.5" font-family="Helvetica,sans-Serif" font-size="10.00">TUIO::OneEuroFilter</text>
</a>
</g>
</g>
<!-- Node5&#45;&gt;Node1 -->
<g id="edge5" class="edge">
<title>Node5&#45;&gt;Node1</title>
<path fill="none" stroke="#9a32cd" stroke-dasharray="5,2" d="M183.95,-192.41C187.19,-163.06 191.14,-104.45 178.5,-57 174.82,-43.2 166.76,-28.68 161.23,-19.73"/>
<polygon fill="#9a32cd" stroke="#9a32cd" points="180.46,-192.11 182.73,-202.46 187.41,-192.95 180.46,-192.11"/>
<text text-anchor="middle" x="213" y="-98" font-family="Helvetica,sans-Serif" font-size="10.00"> angleFilter</text>
</g>
<!-- Node5&#45;&gt;Node3 -->
<g id="edge4" class="edge">
<title>Node5&#45;&gt;Node3</title>
<path fill="none" stroke="#9a32cd" stroke-dasharray="5,2" d="M149.4,-197.55C143.2,-193.86 137.18,-189.35 132.5,-184 122.17,-172.19 117.14,-154.13 114.96,-143.55"/>
<polygon fill="#9a32cd" stroke="#9a32cd" points="148.01,-200.78 158.48,-202.4 151.3,-194.6 148.01,-200.78"/>
<text text-anchor="middle" x="158.5" y="-176" font-family="Helvetica,sans-Serif" font-size="10.00"> xposFilter</text>
<text text-anchor="middle" x="158.5" y="-165" font-family="Helvetica,sans-Serif" font-size="10.00">yposFilter</text>
</g>
</g>
</svg>
