<?xml version="1.0" encoding="UTF-8" standalone="no"?>
<!DOCTYPE svg PUBLIC "-//W3C//DTD SVG 1.1//EN"
 "http://www.w3.org/Graphics/SVG/1.1/DTD/svg11.dtd">
<!-- Generated by graphviz version 2.43.0 (0)
 -->
<!-- Title: TUIO::TuioClient::getTuioCursors Pages: 1 -->
<svg width="454pt" height="88pt"
 viewBox="0.00 0.00 454.00 88.00" xmlns="http://www.w3.org/2000/svg" xmlns:xlink="http://www.w3.org/1999/xlink">
<g id="graph0" class="graph" transform="scale(1 1) rotate(0) translate(4 84)">
<title>TUIO::TuioClient::getTuioCursors</title>
<polygon fill="white" stroke="transparent" points="-4,4 -4,-84 450,-84 450,4 -4,4"/>
<!-- Node1 -->
<g id="node1" class="node">
<title>Node1</title>
<g id="a_node1"><a xlink:title=" ">
<polygon fill="#bfbfbf" stroke="black" points="0,-24.5 0,-54.5 136,-54.5 136,-24.5 0,-24.5"/>
<text text-anchor="start" x="8" y="-42.5" font-family="Helvetica,sans-Serif" font-size="10.00">TUIO::TuioClient::getTuio</text>
<text text-anchor="middle" x="68" y="-31.5" font-family="Helvetica,sans-Serif" font-size="10.00">Cursors</text>
</a>
</g>
</g>
<!-- Node2 -->
<g id="node2" class="node">
<title>Node2</title>
<g id="a_node2"><a xlink:href="../../d4/dc1/classTUIO_1_1TuioDispatcher.html#a4da9e794895083b5e2ac4fa091dc5543" target="_top" xlink:title=" ">
<polygon fill="white" stroke="black" points="172,-24.5 172,-54.5 291,-54.5 291,-24.5 172,-24.5"/>
<text text-anchor="start" x="180" y="-42.5" font-family="Helvetica,sans-Serif" font-size="10.00">TUIO::TuioDispatcher</text>
<text text-anchor="middle" x="231.5" y="-31.5" font-family="Helvetica,sans-Serif" font-size="10.00">::getTuioCursors</text>
</a>
</g>
</g>
<!-- Node1&#45;&gt;Node2 -->
<g id="edge1" class="edge">
<title>Node1&#45;&gt;Node2</title>
<path fill="none" stroke="midnightblue" d="M136.09,-39.5C144.53,-39.5 153.17,-39.5 161.64,-39.5"/>
<polygon fill="midnightblue" stroke="midnightblue" points="161.86,-43 171.86,-39.5 161.86,-36 161.86,-43"/>
</g>
<!-- Node3 -->
<g id="node3" class="node">
<title>Node3</title>
<g id="a_node3"><a xlink:href="../../d4/dc1/classTUIO_1_1TuioDispatcher.html#af5d9daaf30c3d93d736aff59802f9f75" target="_top" xlink:title=" ">
<polygon fill="white" stroke="black" points="327,-49.5 327,-79.5 446,-79.5 446,-49.5 327,-49.5"/>
<text text-anchor="start" x="335" y="-67.5" font-family="Helvetica,sans-Serif" font-size="10.00">TUIO::TuioDispatcher</text>
<text text-anchor="middle" x="386.5" y="-56.5" font-family="Helvetica,sans-Serif" font-size="10.00">::lockCursorList</text>
</a>
</g>
</g>
<!-- Node2&#45;&gt;Node3 -->
<g id="edge2" class="edge">
<title>Node2&#45;&gt;Node3</title>
<path fill="none" stroke="midnightblue" d="M291.22,-49.09C299.64,-50.47 308.36,-51.9 316.95,-53.3"/>
<polygon fill="midnightblue" stroke="midnightblue" points="316.51,-56.77 326.94,-54.93 317.64,-49.86 316.51,-56.77"/>
</g>
<!-- Node4 -->
<g id="node4" class="node">
<title>Node4</title>
<g id="a_node4"><a xlink:href="../../d4/dc1/classTUIO_1_1TuioDispatcher.html#aa7cb3e920ff9b7d73f863631344a13a4" target="_top" xlink:title=" ">
<polygon fill="white" stroke="black" points="327,-0.5 327,-30.5 446,-30.5 446,-0.5 327,-0.5"/>
<text text-anchor="start" x="335" y="-18.5" font-family="Helvetica,sans-Serif" font-size="10.00">TUIO::TuioDispatcher</text>
<text text-anchor="middle" x="386.5" y="-7.5" font-family="Helvetica,sans-Serif" font-size="10.00">::unlockCursorList</text>
</a>
</g>
</g>
<!-- Node2&#45;&gt;Node4 -->
<g id="edge3" class="edge">
<title>Node2&#45;&gt;Node4</title>
<path fill="none" stroke="midnightblue" d="M291.22,-30.29C299.64,-28.97 308.36,-27.6 316.95,-26.25"/>
<polygon fill="midnightblue" stroke="midnightblue" points="317.6,-29.69 326.94,-24.69 316.52,-22.78 317.6,-29.69"/>
</g>
</g>
</svg>
