<?xml version="1.0" encoding="UTF-8" standalone="no"?>
<!DOCTYPE svg PUBLIC "-//W3C//DTD SVG 1.1//EN"
 "http://www.w3.org/Graphics/SVG/1.1/DTD/svg11.dtd">
<!-- Generated by graphviz version 2.43.0 (0)
 -->
<!-- Title: TUIO::TuioClient::copyTuioCursors Pages: 1 -->
<svg width="306pt" height="137pt"
 viewBox="0.00 0.00 306.00 137.00" xmlns="http://www.w3.org/2000/svg" xmlns:xlink="http://www.w3.org/1999/xlink">
<g id="graph0" class="graph" transform="scale(1 1) rotate(0) translate(4 133)">
<title>TUIO::TuioClient::copyTuioCursors</title>
<polygon fill="white" stroke="transparent" points="-4,4 -4,-133 302,-133 302,4 -4,4"/>
<!-- Node1 -->
<g id="node1" class="node">
<title>Node1</title>
<g id="a_node1"><a xlink:title=" ">
<polygon fill="#bfbfbf" stroke="black" points="0,-49.5 0,-79.5 143,-79.5 143,-49.5 0,-49.5"/>
<text text-anchor="start" x="8" y="-67.5" font-family="Helvetica,sans-Serif" font-size="10.00">TUIO::TuioClient::copyTuio</text>
<text text-anchor="middle" x="71.5" y="-56.5" font-family="Helvetica,sans-Serif" font-size="10.00">Cursors</text>
</a>
</g>
</g>
<!-- Node2 -->
<g id="node2" class="node">
<title>Node2</title>
<g id="a_node2"><a xlink:href="../../d8/de3/classTUIO_1_1TuioContainer.html#a667ab7e367870bd5feabe91289309fbe" target="_top" xlink:title=" ">
<polygon fill="white" stroke="black" points="182,-98.5 182,-128.5 295,-128.5 295,-98.5 182,-98.5"/>
<text text-anchor="start" x="190" y="-116.5" font-family="Helvetica,sans-Serif" font-size="10.00">TUIO::TuioContainer</text>
<text text-anchor="middle" x="238.5" y="-105.5" font-family="Helvetica,sans-Serif" font-size="10.00">::getTuioSourceID</text>
</a>
</g>
</g>
<!-- Node1&#45;&gt;Node2 -->
<g id="edge1" class="edge">
<title>Node1&#45;&gt;Node2</title>
<path fill="none" stroke="midnightblue" d="M123.35,-79.6C140.37,-84.66 159.5,-90.34 177.17,-95.58"/>
<polygon fill="midnightblue" stroke="midnightblue" points="176.23,-98.96 186.82,-98.45 178.23,-92.25 176.23,-98.96"/>
</g>
<!-- Node3 -->
<g id="node3" class="node">
<title>Node3</title>
<g id="a_node3"><a xlink:href="../../d4/dc1/classTUIO_1_1TuioDispatcher.html#af5d9daaf30c3d93d736aff59802f9f75" target="_top" xlink:title=" ">
<polygon fill="white" stroke="black" points="179,-49.5 179,-79.5 298,-79.5 298,-49.5 179,-49.5"/>
<text text-anchor="start" x="187" y="-67.5" font-family="Helvetica,sans-Serif" font-size="10.00">TUIO::TuioDispatcher</text>
<text text-anchor="middle" x="238.5" y="-56.5" font-family="Helvetica,sans-Serif" font-size="10.00">::lockCursorList</text>
</a>
</g>
</g>
<!-- Node1&#45;&gt;Node3 -->
<g id="edge2" class="edge">
<title>Node1&#45;&gt;Node3</title>
<path fill="none" stroke="midnightblue" d="M143.43,-64.5C151.82,-64.5 160.36,-64.5 168.71,-64.5"/>
<polygon fill="midnightblue" stroke="midnightblue" points="168.78,-68 178.78,-64.5 168.78,-61 168.78,-68"/>
</g>
<!-- Node4 -->
<g id="node4" class="node">
<title>Node4</title>
<g id="a_node4"><a xlink:href="../../d4/dc1/classTUIO_1_1TuioDispatcher.html#aa7cb3e920ff9b7d73f863631344a13a4" target="_top" xlink:title=" ">
<polygon fill="white" stroke="black" points="179,-0.5 179,-30.5 298,-30.5 298,-0.5 179,-0.5"/>
<text text-anchor="start" x="187" y="-18.5" font-family="Helvetica,sans-Serif" font-size="10.00">TUIO::TuioDispatcher</text>
<text text-anchor="middle" x="238.5" y="-7.5" font-family="Helvetica,sans-Serif" font-size="10.00">::unlockCursorList</text>
</a>
</g>
</g>
<!-- Node1&#45;&gt;Node4 -->
<g id="edge3" class="edge">
<title>Node1&#45;&gt;Node4</title>
<path fill="none" stroke="midnightblue" d="M123.35,-49.4C140.37,-44.34 159.5,-38.66 177.17,-33.42"/>
<polygon fill="midnightblue" stroke="midnightblue" points="178.23,-36.75 186.82,-30.55 176.23,-30.04 178.23,-36.75"/>
</g>
</g>
</svg>
