<?xml version="1.0" encoding="UTF-8" standalone="no"?>
<!DOCTYPE svg PUBLIC "-//W3C//DTD SVG 1.1//EN"
 "http://www.w3.org/Graphics/SVG/1.1/DTD/svg11.dtd">
<!-- Generated by graphviz version 2.43.0 (0)
 -->
<!-- Title: TUIO::TuioPoint Pages: 1 -->
<svg width="328pt" height="140pt"
 viewBox="0.00 0.00 328.00 140.00" xmlns="http://www.w3.org/2000/svg" xmlns:xlink="http://www.w3.org/1999/xlink">
<g id="graph0" class="graph" transform="scale(1 1) rotate(0) translate(4 136)">
<title>TUIO::TuioPoint</title>
<polygon fill="white" stroke="transparent" points="-4,4 -4,-136 324,-136 324,4 -4,4"/>
<!-- Node1 -->
<g id="node1" class="node">
<title>Node1</title>
<g id="a_node1"><a xlink:title=" ">
<polygon fill="#bfbfbf" stroke="black" points="109.5,-112.5 109.5,-131.5 200.5,-131.5 200.5,-112.5 109.5,-112.5"/>
<text text-anchor="middle" x="155" y="-119.5" font-family="Helvetica,sans-Serif" font-size="10.00">TUIO::TuioPoint</text>
</a>
</g>
</g>
<!-- Node2 -->
<g id="node2" class="node">
<title>Node2</title>
<g id="a_node2"><a xlink:href="../../d8/de3/classTUIO_1_1TuioContainer.html" target="_top" xlink:title=" ">
<polygon fill="white" stroke="black" points="98.5,-56.5 98.5,-75.5 211.5,-75.5 211.5,-56.5 98.5,-56.5"/>
<text text-anchor="middle" x="155" y="-63.5" font-family="Helvetica,sans-Serif" font-size="10.00">TUIO::TuioContainer</text>
</a>
</g>
</g>
<!-- Node1&#45;&gt;Node2 -->
<g id="edge1" class="edge">
<title>Node1&#45;&gt;Node2</title>
<path fill="none" stroke="midnightblue" d="M155,-101.8C155,-92.91 155,-82.78 155,-75.75"/>
<polygon fill="midnightblue" stroke="midnightblue" points="151.5,-102.08 155,-112.08 158.5,-102.08 151.5,-102.08"/>
</g>
<!-- Node3 -->
<g id="node3" class="node">
<title>Node3</title>
<g id="a_node3"><a xlink:href="../../d1/dcf/classTUIO_1_1TuioBlob.html" target="_top" xlink:title=" ">
<polygon fill="white" stroke="black" points="0,-0.5 0,-19.5 88,-19.5 88,-0.5 0,-0.5"/>
<text text-anchor="middle" x="44" y="-7.5" font-family="Helvetica,sans-Serif" font-size="10.00">TUIO::TuioBlob</text>
</a>
</g>
</g>
<!-- Node2&#45;&gt;Node3 -->
<g id="edge2" class="edge">
<title>Node2&#45;&gt;Node3</title>
<path fill="none" stroke="midnightblue" d="M127.99,-51.86C107.41,-41.85 79.66,-28.35 61.79,-19.65"/>
<polygon fill="midnightblue" stroke="midnightblue" points="126.64,-55.1 137.17,-56.32 129.7,-48.8 126.64,-55.1"/>
</g>
<!-- Node4 -->
<g id="node4" class="node">
<title>Node4</title>
<g id="a_node4"><a xlink:href="../../d9/d95/classTUIO_1_1TuioCursor.html" target="_top" xlink:title=" ">
<polygon fill="white" stroke="black" points="106,-0.5 106,-19.5 204,-19.5 204,-0.5 106,-0.5"/>
<text text-anchor="middle" x="155" y="-7.5" font-family="Helvetica,sans-Serif" font-size="10.00">TUIO::TuioCursor</text>
</a>
</g>
</g>
<!-- Node2&#45;&gt;Node4 -->
<g id="edge3" class="edge">
<title>Node2&#45;&gt;Node4</title>
<path fill="none" stroke="midnightblue" d="M155,-45.8C155,-36.91 155,-26.78 155,-19.75"/>
<polygon fill="midnightblue" stroke="midnightblue" points="151.5,-46.08 155,-56.08 158.5,-46.08 151.5,-46.08"/>
</g>
<!-- Node5 -->
<g id="node5" class="node">
<title>Node5</title>
<g id="a_node5"><a xlink:href="../../d0/dd3/classTUIO_1_1TuioObject.html" target="_top" xlink:title=" ">
<polygon fill="white" stroke="black" points="222,-0.5 222,-19.5 320,-19.5 320,-0.5 222,-0.5"/>
<text text-anchor="middle" x="271" y="-7.5" font-family="Helvetica,sans-Serif" font-size="10.00">TUIO::TuioObject</text>
</a>
</g>
</g>
<!-- Node2&#45;&gt;Node5 -->
<g id="edge4" class="edge">
<title>Node2&#45;&gt;Node5</title>
<path fill="none" stroke="midnightblue" d="M182.72,-52.1C204.39,-42.01 233.9,-28.27 252.71,-19.52"/>
<polygon fill="midnightblue" stroke="midnightblue" points="180.97,-49.05 173.38,-56.44 183.92,-55.4 180.97,-49.05"/>
</g>
</g>
</svg>
