<?xml version="1.0" encoding="UTF-8" standalone="no"?>
<!DOCTYPE svg PUBLIC "-//W3C//DTD SVG 1.1//EN"
 "http://www.w3.org/Graphics/SVG/1.1/DTD/svg11.dtd">
<!-- Generated by graphviz version 2.43.0 (0)
 -->
<!-- Title: TUIO::TuioContainer::getSessionID Pages: 1 -->
<svg width="662pt" height="1036pt"
 viewBox="0.00 0.00 662.00 1036.00" xmlns="http://www.w3.org/2000/svg" xmlns:xlink="http://www.w3.org/1999/xlink">
<g id="graph0" class="graph" transform="scale(1 1) rotate(0) translate(4 1032)">
<title>TUIO::TuioContainer::getSessionID</title>
<polygon fill="white" stroke="transparent" points="-4,4 -4,-1032 658,-1032 658,4 -4,4"/>
<!-- Node1 -->
<g id="node1" class="node">
<title>Node1</title>
<g id="a_node1"><a xlink:title=" ">
<polygon fill="#bfbfbf" stroke="black" points="541,-482.5 541,-512.5 654,-512.5 654,-482.5 541,-482.5"/>
<text text-anchor="start" x="549" y="-500.5" font-family="Helvetica,sans-Serif" font-size="10.00">TUIO::TuioContainer</text>
<text text-anchor="middle" x="597.5" y="-489.5" font-family="Helvetica,sans-Serif" font-size="10.00">::getSessionID</text>
</a>
</g>
</g>
<!-- Node2 -->
<g id="node2" class="node">
<title>Node2</title>
<g id="a_node2"><a xlink:href="../../d2/d82/classTUIO_1_1TuioManager.html#aa3bf208467095db93ab6f7d0f66eba06" target="_top" xlink:title=" ">
<polygon fill="white" stroke="black" points="374,-997.5 374,-1027.5 490,-1027.5 490,-997.5 374,-997.5"/>
<text text-anchor="start" x="382" y="-1015.5" font-family="Helvetica,sans-Serif" font-size="10.00">TUIO::TuioManager::</text>
<text text-anchor="middle" x="432" y="-1004.5" font-family="Helvetica,sans-Serif" font-size="10.00">addExternalTuioBlob</text>
</a>
</g>
</g>
<!-- Node1&#45;&gt;Node2 -->
<g id="edge1" class="edge">
<title>Node1&#45;&gt;Node2</title>
<path fill="none" stroke="midnightblue" d="M595.11,-522.74C589.66,-612.89 566.92,-917.42 505,-988.5 500.85,-993.27 495.72,-997.09 490.13,-1000.16"/>
<polygon fill="midnightblue" stroke="midnightblue" points="598.61,-522.8 595.7,-512.61 591.63,-522.39 598.61,-522.8"/>
</g>
<!-- Node3 -->
<g id="node3" class="node">
<title>Node3</title>
<g id="a_node3"><a xlink:href="../../d2/d82/classTUIO_1_1TuioManager.html#a47b243461b2c22cce0a064d8a1f8ce31" target="_top" xlink:title=" ">
<polygon fill="white" stroke="black" points="369,-948.5 369,-978.5 495,-978.5 495,-948.5 369,-948.5"/>
<text text-anchor="start" x="377" y="-966.5" font-family="Helvetica,sans-Serif" font-size="10.00">TUIO::TuioManager::</text>
<text text-anchor="middle" x="432" y="-955.5" font-family="Helvetica,sans-Serif" font-size="10.00">addExternalTuioCursor</text>
</a>
</g>
</g>
<!-- Node1&#45;&gt;Node3 -->
<g id="edge2" class="edge">
<title>Node1&#45;&gt;Node3</title>
<path fill="none" stroke="midnightblue" d="M594.52,-522.95C587.48,-607.39 560.98,-876.51 505,-939.5 501.94,-942.95 498.36,-945.9 494.48,-948.43"/>
<polygon fill="midnightblue" stroke="midnightblue" points="598.02,-523.19 595.34,-512.94 591.04,-522.63 598.02,-523.19"/>
</g>
<!-- Node4 -->
<g id="node4" class="node">
<title>Node4</title>
<g id="a_node4"><a xlink:href="../../d2/d82/classTUIO_1_1TuioManager.html#ab8bede39e174712efd1ef97a16a39d98" target="_top" xlink:title=" ">
<polygon fill="white" stroke="black" points="369,-899.5 369,-929.5 495,-929.5 495,-899.5 369,-899.5"/>
<text text-anchor="start" x="377" y="-917.5" font-family="Helvetica,sans-Serif" font-size="10.00">TUIO::TuioManager::</text>
<text text-anchor="middle" x="432" y="-906.5" font-family="Helvetica,sans-Serif" font-size="10.00">addExternalTuioObject</text>
</a>
</g>
</g>
<!-- Node1&#45;&gt;Node4 -->
<g id="edge3" class="edge">
<title>Node1&#45;&gt;Node4</title>
<path fill="none" stroke="midnightblue" d="M593.82,-522.87C585.1,-600.91 555.14,-835.47 505,-890.5 501.89,-893.91 498.29,-896.83 494.39,-899.34"/>
<polygon fill="midnightblue" stroke="midnightblue" points="597.34,-522.85 594.95,-512.53 590.38,-522.09 597.34,-522.85"/>
</g>
<!-- Node5 -->
<g id="node5" class="node">
<title>Node5</title>
<g id="a_node5"><a xlink:href="../../d2/d82/classTUIO_1_1TuioManager.html#a7925107580bde23e4293e27795633c8e" target="_top" xlink:title=" ">
<polygon fill="white" stroke="black" points="374.5,-850.5 374.5,-880.5 489.5,-880.5 489.5,-850.5 374.5,-850.5"/>
<text text-anchor="start" x="382.5" y="-868.5" font-family="Helvetica,sans-Serif" font-size="10.00">TUIO::TuioManager::</text>
<text text-anchor="middle" x="432" y="-857.5" font-family="Helvetica,sans-Serif" font-size="10.00">addTuioBlob</text>
</a>
</g>
</g>
<!-- Node1&#45;&gt;Node5 -->
<g id="edge4" class="edge">
<title>Node1&#45;&gt;Node5</title>
<path fill="none" stroke="midnightblue" d="M597.39,-522.73C598.2,-585.36 591.45,-749.54 505,-841.5 500.67,-846.11 495.43,-849.83 489.78,-852.84"/>
<polygon fill="midnightblue" stroke="midnightblue" points="600.89,-522.5 597.18,-512.58 593.89,-522.65 600.89,-522.5"/>
</g>
<!-- Node6 -->
<g id="node6" class="node">
<title>Node6</title>
<g id="a_node6"><a xlink:href="../../d2/d82/classTUIO_1_1TuioManager.html#a93fbf41bbfe76b9378335deb55cabc20" target="_top" xlink:title=" ">
<polygon fill="white" stroke="black" points="374.5,-801.5 374.5,-831.5 489.5,-831.5 489.5,-801.5 374.5,-801.5"/>
<text text-anchor="start" x="382.5" y="-819.5" font-family="Helvetica,sans-Serif" font-size="10.00">TUIO::TuioManager::</text>
<text text-anchor="middle" x="432" y="-808.5" font-family="Helvetica,sans-Serif" font-size="10.00">addTuioCursor</text>
</a>
</g>
</g>
<!-- Node1&#45;&gt;Node6 -->
<g id="edge5" class="edge">
<title>Node1&#45;&gt;Node6</title>
<path fill="none" stroke="midnightblue" d="M596.04,-522.94C593.63,-579.35 579.92,-715.99 505,-792.5 500.58,-797.02 495.28,-800.69 489.59,-803.66"/>
<polygon fill="midnightblue" stroke="midnightblue" points="599.54,-522.88 596.39,-512.77 592.55,-522.64 599.54,-522.88"/>
</g>
<!-- Node7 -->
<g id="node7" class="node">
<title>Node7</title>
<g id="a_node7"><a xlink:href="../../d2/d82/classTUIO_1_1TuioManager.html#aaa9fd4f7f197442e711ab75da9854eac" target="_top" xlink:title=" ">
<polygon fill="white" stroke="black" points="374.5,-752.5 374.5,-782.5 489.5,-782.5 489.5,-752.5 374.5,-752.5"/>
<text text-anchor="start" x="382.5" y="-770.5" font-family="Helvetica,sans-Serif" font-size="10.00">TUIO::TuioManager::</text>
<text text-anchor="middle" x="432" y="-759.5" font-family="Helvetica,sans-Serif" font-size="10.00">addTuioObject</text>
</a>
</g>
</g>
<!-- Node1&#45;&gt;Node7 -->
<g id="edge6" class="edge">
<title>Node1&#45;&gt;Node7</title>
<path fill="none" stroke="midnightblue" d="M594.21,-522.76C588.4,-572.13 568.67,-681.98 505,-743.5 500.55,-747.8 495.3,-751.34 489.71,-754.23"/>
<polygon fill="midnightblue" stroke="midnightblue" points="597.71,-522.96 595.31,-512.64 590.75,-522.21 597.71,-522.96"/>
</g>
<!-- Node8 -->
<g id="node8" class="node">
<title>Node8</title>
<g id="a_node8"><a xlink:href="../../d2/d82/classTUIO_1_1TuioManager.html#ac8928525e25d127c13b34118f40c2c61" target="_top" xlink:title=" ">
<polygon fill="white" stroke="black" points="364,-703.5 364,-733.5 500,-733.5 500,-703.5 364,-703.5"/>
<text text-anchor="start" x="372" y="-721.5" font-family="Helvetica,sans-Serif" font-size="10.00">TUIO::TuioManager::</text>
<text text-anchor="middle" x="432" y="-710.5" font-family="Helvetica,sans-Serif" font-size="10.00">removeExternalTuioBlob</text>
</a>
</g>
</g>
<!-- Node1&#45;&gt;Node8 -->
<g id="edge7" class="edge">
<title>Node1&#45;&gt;Node8</title>
<path fill="none" stroke="midnightblue" d="M591.64,-522.35C582.23,-563.88 557.66,-647.48 505,-694.5 501.17,-697.92 496.83,-700.86 492.23,-703.38"/>
<polygon fill="midnightblue" stroke="midnightblue" points="595.07,-523.02 593.76,-512.51 588.23,-521.55 595.07,-523.02"/>
</g>
<!-- Node9 -->
<g id="node9" class="node">
<title>Node9</title>
<g id="a_node9"><a xlink:href="../../d2/d82/classTUIO_1_1TuioManager.html#af5e2ce8f5102ddab431eae5eb60e7be3" target="_top" xlink:title=" ">
<polygon fill="white" stroke="black" points="359,-654.5 359,-684.5 505,-684.5 505,-654.5 359,-654.5"/>
<text text-anchor="start" x="367" y="-672.5" font-family="Helvetica,sans-Serif" font-size="10.00">TUIO::TuioManager::</text>
<text text-anchor="middle" x="432" y="-661.5" font-family="Helvetica,sans-Serif" font-size="10.00">removeExternalTuioCursor</text>
</a>
</g>
</g>
<!-- Node1&#45;&gt;Node9 -->
<g id="edge8" class="edge">
<title>Node1&#45;&gt;Node9</title>
<path fill="none" stroke="midnightblue" d="M587.45,-522.27C574.25,-555.05 546.65,-612.54 505,-645.5 500.66,-648.93 495.81,-651.89 490.72,-654.42"/>
<polygon fill="midnightblue" stroke="midnightblue" points="590.72,-523.53 591.09,-512.94 584.19,-520.99 590.72,-523.53"/>
</g>
<!-- Node10 -->
<g id="node10" class="node">
<title>Node10</title>
<g id="a_node10"><a xlink:href="../../d2/d82/classTUIO_1_1TuioManager.html#a63983ba2eec017ec8a7378bae60db5a8" target="_top" xlink:title=" ">
<polygon fill="white" stroke="black" points="359,-605.5 359,-635.5 505,-635.5 505,-605.5 359,-605.5"/>
<text text-anchor="start" x="367" y="-623.5" font-family="Helvetica,sans-Serif" font-size="10.00">TUIO::TuioManager::</text>
<text text-anchor="middle" x="432" y="-612.5" font-family="Helvetica,sans-Serif" font-size="10.00">removeExternalTuioObject</text>
</a>
</g>
</g>
<!-- Node1&#45;&gt;Node10 -->
<g id="edge9" class="edge">
<title>Node1&#45;&gt;Node10</title>
<path fill="none" stroke="midnightblue" d="M580.21,-521.09C563.65,-543.42 536.07,-576.44 505,-596.5 499.8,-599.86 494.08,-602.79 488.21,-605.35"/>
<polygon fill="midnightblue" stroke="midnightblue" points="583.17,-522.97 586.2,-512.81 577.5,-518.86 583.17,-522.97"/>
</g>
<!-- Node11 -->
<g id="node11" class="node">
<title>Node11</title>
<g id="a_node11"><a xlink:href="../../d2/d82/classTUIO_1_1TuioManager.html#aeb065e0e33c386af05bcb7c670e4c352" target="_top" xlink:title=" ">
<polygon fill="white" stroke="black" points="374.5,-556.5 374.5,-586.5 489.5,-586.5 489.5,-556.5 374.5,-556.5"/>
<text text-anchor="start" x="382.5" y="-574.5" font-family="Helvetica,sans-Serif" font-size="10.00">TUIO::TuioManager::</text>
<text text-anchor="middle" x="432" y="-563.5" font-family="Helvetica,sans-Serif" font-size="10.00">removeTuioBlob</text>
</a>
</g>
</g>
<!-- Node1&#45;&gt;Node11 -->
<g id="edge10" class="edge">
<title>Node1&#45;&gt;Node11</title>
<path fill="none" stroke="midnightblue" d="M562.89,-517.75C545.9,-527.49 524.74,-538.9 505,-547.5 497.75,-550.66 489.95,-553.65 482.24,-556.39"/>
<polygon fill="midnightblue" stroke="midnightblue" points="564.97,-520.58 571.86,-512.53 561.46,-514.53 564.97,-520.58"/>
</g>
<!-- Node14 -->
<g id="node14" class="node">
<title>Node14</title>
<g id="a_node14"><a xlink:href="../../d2/d82/classTUIO_1_1TuioManager.html#ab4ade3e971fea21179af6358e751aefe" target="_top" xlink:title=" ">
<polygon fill="white" stroke="black" points="374.5,-507.5 374.5,-537.5 489.5,-537.5 489.5,-507.5 374.5,-507.5"/>
<text text-anchor="start" x="382.5" y="-525.5" font-family="Helvetica,sans-Serif" font-size="10.00">TUIO::TuioManager::</text>
<text text-anchor="middle" x="432" y="-514.5" font-family="Helvetica,sans-Serif" font-size="10.00">removeTuioCursor</text>
</a>
</g>
</g>
<!-- Node1&#45;&gt;Node14 -->
<g id="edge13" class="edge">
<title>Node1&#45;&gt;Node14</title>
<path fill="none" stroke="midnightblue" d="M530.49,-507.59C516.96,-509.66 502.83,-511.82 489.67,-513.83"/>
<polygon fill="midnightblue" stroke="midnightblue" points="531.33,-511.01 540.69,-506.03 530.28,-504.09 531.33,-511.01"/>
</g>
<!-- Node16 -->
<g id="node16" class="node">
<title>Node16</title>
<g id="a_node16"><a xlink:href="../../d2/d82/classTUIO_1_1TuioManager.html#a88cfbca9c0782a152ea9339deceaf19d" target="_top" xlink:title=" ">
<polygon fill="white" stroke="black" points="374.5,-458.5 374.5,-488.5 489.5,-488.5 489.5,-458.5 374.5,-458.5"/>
<text text-anchor="start" x="382.5" y="-476.5" font-family="Helvetica,sans-Serif" font-size="10.00">TUIO::TuioManager::</text>
<text text-anchor="middle" x="432" y="-465.5" font-family="Helvetica,sans-Serif" font-size="10.00">removeTuioObject</text>
</a>
</g>
</g>
<!-- Node1&#45;&gt;Node16 -->
<g id="edge16" class="edge">
<title>Node1&#45;&gt;Node16</title>
<path fill="none" stroke="midnightblue" d="M530.49,-487.81C516.96,-485.82 502.83,-483.75 489.67,-481.82"/>
<polygon fill="midnightblue" stroke="midnightblue" points="530.29,-491.32 540.69,-489.31 531.3,-484.39 530.29,-491.32"/>
</g>
<!-- Node18 -->
<g id="node18" class="node">
<title>Node18</title>
<g id="a_node18"><a xlink:href="../../d2/d82/classTUIO_1_1TuioManager.html#a8e3905a2a7fb550ba795676be3e0b49b" target="_top" xlink:title=" ">
<polygon fill="white" stroke="black" points="155,-412.5 155,-442.5 308,-442.5 308,-412.5 155,-412.5"/>
<text text-anchor="start" x="163" y="-430.5" font-family="Helvetica,sans-Serif" font-size="10.00">TUIO::TuioManager::</text>
<text text-anchor="middle" x="231.5" y="-419.5" font-family="Helvetica,sans-Serif" font-size="10.00">stopUntouchedMovingBlobs</text>
</a>
</g>
</g>
<!-- Node1&#45;&gt;Node18 -->
<g id="edge19" class="edge">
<title>Node1&#45;&gt;Node18</title>
<path fill="none" stroke="midnightblue" d="M564.96,-476.9C547.91,-466.84 526.08,-455.6 505,-449.5 440.38,-430.79 363.77,-426.05 308.27,-425.55"/>
<polygon fill="midnightblue" stroke="midnightblue" points="563.54,-480.13 573.9,-482.33 567.17,-474.15 563.54,-480.13"/>
</g>
<!-- Node19 -->
<g id="node19" class="node">
<title>Node19</title>
<g id="a_node19"><a xlink:href="../../d2/d82/classTUIO_1_1TuioManager.html#adfc49bad8bab2420269d7d3e3b9002a1" target="_top" xlink:title=" ">
<polygon fill="white" stroke="black" points="150,-363.5 150,-393.5 313,-393.5 313,-363.5 150,-363.5"/>
<text text-anchor="start" x="158" y="-381.5" font-family="Helvetica,sans-Serif" font-size="10.00">TUIO::TuioManager::</text>
<text text-anchor="middle" x="231.5" y="-370.5" font-family="Helvetica,sans-Serif" font-size="10.00">stopUntouchedMovingCursors</text>
</a>
</g>
</g>
<!-- Node1&#45;&gt;Node19 -->
<g id="edge21" class="edge">
<title>Node1&#45;&gt;Node19</title>
<path fill="none" stroke="midnightblue" d="M575.3,-474.91C558.04,-457.97 532.15,-435.69 505,-423.5 444.19,-396.21 369.08,-385.29 313.13,-381.01"/>
<polygon fill="midnightblue" stroke="midnightblue" points="573.07,-477.63 582.6,-482.26 578.04,-472.7 573.07,-477.63"/>
</g>
<!-- Node20 -->
<g id="node20" class="node">
<title>Node20</title>
<g id="a_node20"><a xlink:href="../../d2/d82/classTUIO_1_1TuioManager.html#abd2007ba7fce0494c2abfca7f737808f" target="_top" xlink:title=" ">
<polygon fill="white" stroke="black" points="150,-314.5 150,-344.5 313,-344.5 313,-314.5 150,-314.5"/>
<text text-anchor="start" x="158" y="-332.5" font-family="Helvetica,sans-Serif" font-size="10.00">TUIO::TuioManager::</text>
<text text-anchor="middle" x="231.5" y="-321.5" font-family="Helvetica,sans-Serif" font-size="10.00">stopUntouchedMovingObjects</text>
</a>
</g>
</g>
<!-- Node1&#45;&gt;Node20 -->
<g id="edge23" class="edge">
<title>Node1&#45;&gt;Node20</title>
<path fill="none" stroke="midnightblue" d="M584.17,-473.03C569.24,-446.09 541.51,-403.67 505,-381.5 447.06,-346.31 370.46,-334.1 313.23,-330.23"/>
<polygon fill="midnightblue" stroke="midnightblue" points="581.27,-475.03 589.08,-482.19 587.44,-471.72 581.27,-475.03"/>
</g>
<!-- Node21 -->
<g id="node21" class="node">
<title>Node21</title>
<g id="a_node21"><a xlink:href="../../d8/de3/classTUIO_1_1TuioContainer.html#a7c142b0bd219660f05657848c27402a8" target="_top" xlink:title=" ">
<polygon fill="white" stroke="black" points="375.5,-294.5 375.5,-324.5 488.5,-324.5 488.5,-294.5 375.5,-294.5"/>
<text text-anchor="start" x="383.5" y="-312.5" font-family="Helvetica,sans-Serif" font-size="10.00">TUIO::TuioContainer</text>
<text text-anchor="middle" x="432" y="-301.5" font-family="Helvetica,sans-Serif" font-size="10.00">::TuioContainer</text>
</a>
</g>
</g>
<!-- Node1&#45;&gt;Node21 -->
<g id="edge25" class="edge">
<title>Node1&#45;&gt;Node21</title>
<path fill="none" stroke="midnightblue" d="M587.92,-472.58C574.96,-438.31 547.32,-376.64 505,-339.5 498.18,-333.52 490,-328.61 481.64,-324.62"/>
<polygon fill="midnightblue" stroke="midnightblue" points="584.75,-474.1 591.47,-482.28 591.32,-471.69 584.75,-474.1"/>
</g>
<!-- Node22 -->
<g id="node22" class="node">
<title>Node22</title>
<g id="a_node22"><a xlink:href="../../d2/d82/classTUIO_1_1TuioManager.html#a3563251a5257e75633d6d30b269f69f0" target="_top" xlink:title=" ">
<polygon fill="white" stroke="black" points="366,-245.5 366,-275.5 498,-275.5 498,-245.5 366,-245.5"/>
<text text-anchor="start" x="374" y="-263.5" font-family="Helvetica,sans-Serif" font-size="10.00">TUIO::TuioManager::</text>
<text text-anchor="middle" x="432" y="-252.5" font-family="Helvetica,sans-Serif" font-size="10.00">updateExternalTuioBlob</text>
</a>
</g>
</g>
<!-- Node1&#45;&gt;Node22 -->
<g id="edge26" class="edge">
<title>Node1&#45;&gt;Node22</title>
<path fill="none" stroke="midnightblue" d="M592.6,-472.54C584.39,-428.37 561.25,-336.21 505,-284.5 501.22,-281.02 496.92,-278.05 492.34,-275.5"/>
<polygon fill="midnightblue" stroke="midnightblue" points="589.16,-473.19 594.33,-482.44 596.05,-471.98 589.16,-473.19"/>
</g>
<!-- Node23 -->
<g id="node23" class="node">
<title>Node23</title>
<g id="a_node23"><a xlink:href="../../d2/d82/classTUIO_1_1TuioManager.html#a90a7c5cf07d57c95cd12a0c5ea1d7564" target="_top" xlink:title=" ">
<polygon fill="white" stroke="black" points="361,-196.5 361,-226.5 503,-226.5 503,-196.5 361,-196.5"/>
<text text-anchor="start" x="369" y="-214.5" font-family="Helvetica,sans-Serif" font-size="10.00">TUIO::TuioManager::</text>
<text text-anchor="middle" x="432" y="-203.5" font-family="Helvetica,sans-Serif" font-size="10.00">updateExternalTuioCursor</text>
</a>
</g>
</g>
<!-- Node1&#45;&gt;Node23 -->
<g id="edge27" class="edge">
<title>Node1&#45;&gt;Node23</title>
<path fill="none" stroke="midnightblue" d="M594.87,-472.08C590.18,-420.29 572.29,-301.83 505,-235.5 501.53,-232.08 497.56,-229.14 493.3,-226.63"/>
<polygon fill="midnightblue" stroke="midnightblue" points="591.4,-472.68 595.7,-482.36 598.38,-472.11 591.4,-472.68"/>
</g>
<!-- Node24 -->
<g id="node24" class="node">
<title>Node24</title>
<g id="a_node24"><a xlink:href="../../d2/d82/classTUIO_1_1TuioManager.html#a378d02744ada2cde0d0887612d5cb7c1" target="_top" xlink:title=" ">
<polygon fill="white" stroke="black" points="361,-147.5 361,-177.5 503,-177.5 503,-147.5 361,-147.5"/>
<text text-anchor="start" x="369" y="-165.5" font-family="Helvetica,sans-Serif" font-size="10.00">TUIO::TuioManager::</text>
<text text-anchor="middle" x="432" y="-154.5" font-family="Helvetica,sans-Serif" font-size="10.00">updateExternalTuioObject</text>
</a>
</g>
</g>
<!-- Node1&#45;&gt;Node24 -->
<g id="edge28" class="edge">
<title>Node1&#45;&gt;Node24</title>
<path fill="none" stroke="midnightblue" d="M596.53,-472.32C595.22,-413.94 583.76,-268.11 505,-186.5 501.71,-183.09 497.91,-180.16 493.83,-177.65"/>
<polygon fill="midnightblue" stroke="midnightblue" points="593.03,-472.53 596.67,-482.48 600.03,-472.43 593.03,-472.53"/>
</g>
<!-- Node25 -->
<g id="node25" class="node">
<title>Node25</title>
<g id="a_node25"><a xlink:href="../../d2/d82/classTUIO_1_1TuioManager.html#aa532b9759c1a39b18e59740b7b268bab" target="_top" xlink:title=" ">
<polygon fill="white" stroke="black" points="374.5,-98.5 374.5,-128.5 489.5,-128.5 489.5,-98.5 374.5,-98.5"/>
<text text-anchor="start" x="382.5" y="-116.5" font-family="Helvetica,sans-Serif" font-size="10.00">TUIO::TuioManager::</text>
<text text-anchor="middle" x="432" y="-105.5" font-family="Helvetica,sans-Serif" font-size="10.00">updateTuioBlob</text>
</a>
</g>
</g>
<!-- Node1&#45;&gt;Node25 -->
<g id="edge29" class="edge">
<title>Node1&#45;&gt;Node25</title>
<path fill="none" stroke="midnightblue" d="M593.26,-472.33C583.35,-398.94 551.25,-187.25 505,-137.5 500.69,-132.87 495.47,-129.13 489.83,-126.11"/>
<polygon fill="midnightblue" stroke="midnightblue" points="589.83,-473.05 594.61,-482.5 596.77,-472.12 589.83,-473.05"/>
</g>
<!-- Node26 -->
<g id="node26" class="node">
<title>Node26</title>
<g id="a_node26"><a xlink:href="../../d2/d82/classTUIO_1_1TuioManager.html#a3bfeef585a46f4cad7203c106ddf1959" target="_top" xlink:title=" ">
<polygon fill="white" stroke="black" points="374.5,-49.5 374.5,-79.5 489.5,-79.5 489.5,-49.5 374.5,-49.5"/>
<text text-anchor="start" x="382.5" y="-67.5" font-family="Helvetica,sans-Serif" font-size="10.00">TUIO::TuioManager::</text>
<text text-anchor="middle" x="432" y="-56.5" font-family="Helvetica,sans-Serif" font-size="10.00">updateTuioCursor</text>
</a>
</g>
</g>
<!-- Node1&#45;&gt;Node26 -->
<g id="edge30" class="edge">
<title>Node1&#45;&gt;Node26</title>
<path fill="none" stroke="midnightblue" d="M594.07,-472.15C585.92,-392.02 557.05,-146.13 505,-88.5 500.67,-83.71 495.36,-79.87 489.61,-76.8"/>
<polygon fill="midnightblue" stroke="midnightblue" points="590.61,-472.71 595.09,-482.32 597.58,-472.02 590.61,-472.71"/>
</g>
<!-- Node27 -->
<g id="node27" class="node">
<title>Node27</title>
<g id="a_node27"><a xlink:href="../../d2/d82/classTUIO_1_1TuioManager.html#ab1108e679103f0ba3c6b8fc80246b6c7" target="_top" xlink:title=" ">
<polygon fill="white" stroke="black" points="374.5,-0.5 374.5,-30.5 489.5,-30.5 489.5,-0.5 374.5,-0.5"/>
<text text-anchor="start" x="382.5" y="-18.5" font-family="Helvetica,sans-Serif" font-size="10.00">TUIO::TuioManager::</text>
<text text-anchor="middle" x="432" y="-7.5" font-family="Helvetica,sans-Serif" font-size="10.00">updateTuioObject</text>
</a>
</g>
</g>
<!-- Node1&#45;&gt;Node27 -->
<g id="edge31" class="edge">
<title>Node1&#45;&gt;Node27</title>
<path fill="none" stroke="midnightblue" d="M594.74,-472.3C588.26,-386.15 562.96,-105.17 505,-39.5 500.73,-34.66 495.45,-30.79 489.72,-27.7"/>
<polygon fill="midnightblue" stroke="midnightblue" points="591.27,-472.75 595.49,-482.46 598.25,-472.24 591.27,-472.75"/>
</g>
<!-- Node12 -->
<g id="node12" class="node">
<title>Node12</title>
<g id="a_node12"><a xlink:href="../../d2/d82/classTUIO_1_1TuioManager.html#a0063262b037e56b554a31f90a81d53bb" target="_top" xlink:title=" ">
<polygon fill="white" stroke="black" points="145,-559.5 145,-589.5 318,-589.5 318,-559.5 145,-559.5"/>
<text text-anchor="start" x="153" y="-577.5" font-family="Helvetica,sans-Serif" font-size="10.00">TUIO::TuioManager::</text>
<text text-anchor="middle" x="231.5" y="-566.5" font-family="Helvetica,sans-Serif" font-size="10.00">removeUntouchedStoppedBlobs</text>
</a>
</g>
</g>
<!-- Node11&#45;&gt;Node12 -->
<g id="edge11" class="edge">
<title>Node11&#45;&gt;Node12</title>
<path fill="none" stroke="midnightblue" d="M364.31,-572.51C349.48,-572.73 333.56,-572.97 318.09,-573.21"/>
<polygon fill="midnightblue" stroke="midnightblue" points="364.44,-576.01 374.38,-572.36 364.33,-569.01 364.44,-576.01"/>
</g>
<!-- Node13 -->
<g id="node13" class="node">
<title>Node13</title>
<g id="a_node13"><a xlink:href="../../d8/dc8/classTUIO_1_1TuioServer.html#ab3b84d7f13f0cecc4709ae7ff0e89118" target="_top" xlink:title=" ">
<polygon fill="white" stroke="black" points="0,-436.5 0,-466.5 104,-466.5 104,-436.5 0,-436.5"/>
<text text-anchor="start" x="8" y="-454.5" font-family="Helvetica,sans-Serif" font-size="10.00">TUIO::TuioServer::</text>
<text text-anchor="middle" x="52" y="-443.5" font-family="Helvetica,sans-Serif" font-size="10.00">~TuioServer</text>
</a>
</g>
</g>
<!-- Node12&#45;&gt;Node13 -->
<g id="edge12" class="edge">
<title>Node12&#45;&gt;Node13</title>
<path fill="none" stroke="midnightblue" d="M148.62,-555.28C145.65,-553.8 142.76,-552.21 140,-550.5 104.99,-528.81 76.2,-488.68 62.19,-466.76"/>
<polygon fill="midnightblue" stroke="midnightblue" points="147.19,-558.48 157.74,-559.39 150.06,-552.09 147.19,-558.48"/>
</g>
<!-- Node15 -->
<g id="node15" class="node">
<title>Node15</title>
<g id="a_node15"><a xlink:href="../../d2/d82/classTUIO_1_1TuioManager.html#a1c1f7f27b1a91abfeef75b0a3e80907f" target="_top" xlink:title=" ">
<polygon fill="white" stroke="black" points="140,-510.5 140,-540.5 323,-540.5 323,-510.5 140,-510.5"/>
<text text-anchor="start" x="148" y="-528.5" font-family="Helvetica,sans-Serif" font-size="10.00">TUIO::TuioManager::</text>
<text text-anchor="middle" x="231.5" y="-517.5" font-family="Helvetica,sans-Serif" font-size="10.00">removeUntouchedStoppedCursors</text>
</a>
</g>
</g>
<!-- Node14&#45;&gt;Node15 -->
<g id="edge14" class="edge">
<title>Node14&#45;&gt;Node15</title>
<path fill="none" stroke="midnightblue" d="M364.08,-523.51C350.99,-523.71 337.05,-523.92 323.33,-524.13"/>
<polygon fill="midnightblue" stroke="midnightblue" points="364.44,-527.01 374.38,-523.36 364.33,-520.01 364.44,-527.01"/>
</g>
<!-- Node15&#45;&gt;Node13 -->
<g id="edge15" class="edge">
<title>Node15&#45;&gt;Node13</title>
<path fill="none" stroke="midnightblue" d="M155.78,-507.36C150.38,-505.54 145.07,-503.59 140,-501.5 116.96,-492.02 92.52,-477.53 75.42,-466.58"/>
<polygon fill="midnightblue" stroke="midnightblue" points="154.95,-510.77 165.54,-510.49 157.09,-504.11 154.95,-510.77"/>
</g>
<!-- Node17 -->
<g id="node17" class="node">
<title>Node17</title>
<g id="a_node17"><a xlink:href="../../d2/d82/classTUIO_1_1TuioManager.html#aaa73f7d5e6ab45270a1d901e92a198b2" target="_top" xlink:title=" ">
<polygon fill="white" stroke="black" points="140,-461.5 140,-491.5 323,-491.5 323,-461.5 140,-461.5"/>
<text text-anchor="start" x="148" y="-479.5" font-family="Helvetica,sans-Serif" font-size="10.00">TUIO::TuioManager::</text>
<text text-anchor="middle" x="231.5" y="-468.5" font-family="Helvetica,sans-Serif" font-size="10.00">removeUntouchedStoppedObjects</text>
</a>
</g>
</g>
<!-- Node16&#45;&gt;Node17 -->
<g id="edge17" class="edge">
<title>Node16&#45;&gt;Node17</title>
<path fill="none" stroke="midnightblue" d="M364.08,-474.51C350.99,-474.71 337.05,-474.92 323.33,-475.13"/>
<polygon fill="midnightblue" stroke="midnightblue" points="364.44,-478.01 374.38,-474.36 364.33,-471.01 364.44,-478.01"/>
</g>
<!-- Node17&#45;&gt;Node13 -->
<g id="edge18" class="edge">
<title>Node17&#45;&gt;Node13</title>
<path fill="none" stroke="midnightblue" d="M129.86,-462.33C120.99,-461.08 112.28,-459.85 104.09,-458.7"/>
<polygon fill="midnightblue" stroke="midnightblue" points="129.54,-465.81 139.93,-463.74 130.52,-458.88 129.54,-465.81"/>
</g>
<!-- Node18&#45;&gt;Node13 -->
<g id="edge20" class="edge">
<title>Node18&#45;&gt;Node13</title>
<path fill="none" stroke="midnightblue" d="M144.85,-439.08C130.9,-440.97 116.84,-442.87 104.07,-444.59"/>
<polygon fill="midnightblue" stroke="midnightblue" points="145.53,-442.52 154.97,-437.71 144.59,-435.58 145.53,-442.52"/>
</g>
<!-- Node19&#45;&gt;Node13 -->
<g id="edge22" class="edge">
<title>Node19&#45;&gt;Node13</title>
<path fill="none" stroke="midnightblue" d="M158.53,-396.71C152.2,-398.81 145.94,-401.08 140,-403.5 117.63,-412.61 93.71,-426.11 76.62,-436.48"/>
<polygon fill="midnightblue" stroke="midnightblue" points="160.04,-399.9 168.51,-393.54 157.92,-393.23 160.04,-399.9"/>
</g>
<!-- Node20&#45;&gt;Node13 -->
<g id="edge24" class="edge">
<title>Node20&#45;&gt;Node13</title>
<path fill="none" stroke="midnightblue" d="M148.63,-348.74C145.66,-350.21 142.77,-351.8 140,-353.5 105.13,-374.98 76.28,-414.7 62.23,-436.39"/>
<polygon fill="midnightblue" stroke="midnightblue" points="150.07,-351.93 157.76,-344.64 147.21,-345.54 150.07,-351.93"/>
</g>
</g>
</svg>
