<?xml version="1.0" encoding="UTF-8" standalone="no"?>
<!DOCTYPE svg PUBLIC "-//W3C//DTD SVG 1.1//EN"
 "http://www.w3.org/Graphics/SVG/1.1/DTD/svg11.dtd">
<!-- Generated by graphviz version 2.43.0 (0)
 -->
<!-- Title: TUIO::TuioContainer::getTuioSourceID Pages: 1 -->
<svg width="300pt" height="284pt"
 viewBox="0.00 0.00 300.00 284.00" xmlns="http://www.w3.org/2000/svg" xmlns:xlink="http://www.w3.org/1999/xlink">
<g id="graph0" class="graph" transform="scale(1 1) rotate(0) translate(4 280)">
<title>TUIO::TuioContainer::getTuioSourceID</title>
<polygon fill="white" stroke="transparent" points="-4,4 -4,-280 296,-280 296,4 -4,4"/>
<!-- Node1 -->
<g id="node1" class="node">
<title>Node1</title>
<g id="a_node1"><a xlink:title=" ">
<polygon fill="#bfbfbf" stroke="black" points="179,-122.5 179,-152.5 292,-152.5 292,-122.5 179,-122.5"/>
<text text-anchor="start" x="187" y="-140.5" font-family="Helvetica,sans-Serif" font-size="10.00">TUIO::TuioContainer</text>
<text text-anchor="middle" x="235.5" y="-129.5" font-family="Helvetica,sans-Serif" font-size="10.00">::getTuioSourceID</text>
</a>
</g>
</g>
<!-- Node2 -->
<g id="node2" class="node">
<title>Node2</title>
<g id="a_node2"><a xlink:href="../../da/d8f/classTUIO_1_1TuioClient.html#a8b7c667d80d8dac1500c3c10037fdbb9" target="_top" xlink:title=" ">
<polygon fill="white" stroke="black" points="0,-245.5 0,-275.5 143,-275.5 143,-245.5 0,-245.5"/>
<text text-anchor="start" x="8" y="-263.5" font-family="Helvetica,sans-Serif" font-size="10.00">TUIO::TuioClient::copyTuio</text>
<text text-anchor="middle" x="71.5" y="-252.5" font-family="Helvetica,sans-Serif" font-size="10.00">Blobs</text>
</a>
</g>
</g>
<!-- Node1&#45;&gt;Node2 -->
<g id="edge1" class="edge">
<title>Node1&#45;&gt;Node2</title>
<path fill="none" stroke="midnightblue" d="M218.18,-161.05C201.6,-183.35 174.01,-216.34 143,-236.5 137.8,-239.88 132.07,-242.84 126.19,-245.41"/>
<polygon fill="midnightblue" stroke="midnightblue" points="221.13,-162.93 224.18,-152.78 215.47,-158.82 221.13,-162.93"/>
</g>
<!-- Node3 -->
<g id="node3" class="node">
<title>Node3</title>
<g id="a_node3"><a xlink:href="../../da/d8f/classTUIO_1_1TuioClient.html#a7113e143218cfda9c5c1c20400d003b3" target="_top" xlink:title=" ">
<polygon fill="white" stroke="black" points="0,-196.5 0,-226.5 143,-226.5 143,-196.5 0,-196.5"/>
<text text-anchor="start" x="8" y="-214.5" font-family="Helvetica,sans-Serif" font-size="10.00">TUIO::TuioClient::copyTuio</text>
<text text-anchor="middle" x="71.5" y="-203.5" font-family="Helvetica,sans-Serif" font-size="10.00">Cursors</text>
</a>
</g>
</g>
<!-- Node1&#45;&gt;Node3 -->
<g id="edge2" class="edge">
<title>Node1&#45;&gt;Node3</title>
<path fill="none" stroke="midnightblue" d="M200.5,-157.9C183.57,-167.59 162.58,-178.9 143,-187.5 135.78,-190.67 128,-193.7 120.33,-196.46"/>
<polygon fill="midnightblue" stroke="midnightblue" points="202.56,-160.75 209.46,-152.71 199.05,-154.7 202.56,-160.75"/>
</g>
<!-- Node4 -->
<g id="node4" class="node">
<title>Node4</title>
<g id="a_node4"><a xlink:href="../../da/d8f/classTUIO_1_1TuioClient.html#ad780ef7e0f97d020cb9a30c436080a09" target="_top" xlink:title=" ">
<polygon fill="white" stroke="black" points="0,-147.5 0,-177.5 143,-177.5 143,-147.5 0,-147.5"/>
<text text-anchor="start" x="8" y="-165.5" font-family="Helvetica,sans-Serif" font-size="10.00">TUIO::TuioClient::copyTuio</text>
<text text-anchor="middle" x="71.5" y="-154.5" font-family="Helvetica,sans-Serif" font-size="10.00">Objects</text>
</a>
</g>
</g>
<!-- Node1&#45;&gt;Node4 -->
<g id="edge3" class="edge">
<title>Node1&#45;&gt;Node4</title>
<path fill="none" stroke="midnightblue" d="M168.67,-147.66C160.29,-148.95 151.68,-150.28 143.23,-151.58"/>
<polygon fill="midnightblue" stroke="midnightblue" points="169.4,-151.09 178.75,-146.1 168.33,-144.17 169.4,-151.09"/>
</g>
<!-- Node5 -->
<g id="node5" class="node">
<title>Node5</title>
<g id="a_node5"><a xlink:href="../../da/d8f/classTUIO_1_1TuioClient.html#a80eb74489644d710f9f926a8b77d7a51" target="_top" xlink:title=" ">
<polygon fill="white" stroke="black" points="3.5,-98.5 3.5,-128.5 139.5,-128.5 139.5,-98.5 3.5,-98.5"/>
<text text-anchor="start" x="11.5" y="-116.5" font-family="Helvetica,sans-Serif" font-size="10.00">TUIO::TuioClient::getTuio</text>
<text text-anchor="middle" x="71.5" y="-105.5" font-family="Helvetica,sans-Serif" font-size="10.00">Blobs</text>
</a>
</g>
</g>
<!-- Node1&#45;&gt;Node5 -->
<g id="edge4" class="edge">
<title>Node1&#45;&gt;Node5</title>
<path fill="none" stroke="midnightblue" d="M168.82,-127.77C159.17,-126.34 149.22,-124.87 139.54,-123.43"/>
<polygon fill="midnightblue" stroke="midnightblue" points="168.34,-131.24 178.75,-129.24 169.37,-124.31 168.34,-131.24"/>
</g>
<!-- Node6 -->
<g id="node6" class="node">
<title>Node6</title>
<g id="a_node6"><a xlink:href="../../da/d8f/classTUIO_1_1TuioClient.html#acdba56819d0fc0bf92ca02611bbd5aad" target="_top" xlink:title=" ">
<polygon fill="white" stroke="black" points="3.5,-49.5 3.5,-79.5 139.5,-79.5 139.5,-49.5 3.5,-49.5"/>
<text text-anchor="start" x="11.5" y="-67.5" font-family="Helvetica,sans-Serif" font-size="10.00">TUIO::TuioClient::getTuio</text>
<text text-anchor="middle" x="71.5" y="-56.5" font-family="Helvetica,sans-Serif" font-size="10.00">Cursors</text>
</a>
</g>
</g>
<!-- Node1&#45;&gt;Node6 -->
<g id="edge5" class="edge">
<title>Node1&#45;&gt;Node6</title>
<path fill="none" stroke="midnightblue" d="M199.27,-117.51C182.5,-108.39 162,-97.8 143,-89.5 135.03,-86.02 126.4,-82.64 118,-79.56"/>
<polygon fill="midnightblue" stroke="midnightblue" points="197.72,-120.66 208.17,-122.41 201.09,-114.52 197.72,-120.66"/>
</g>
<!-- Node7 -->
<g id="node7" class="node">
<title>Node7</title>
<g id="a_node7"><a xlink:href="../../da/d8f/classTUIO_1_1TuioClient.html#add32552b6ca36fd595fab795075244be" target="_top" xlink:title=" ">
<polygon fill="white" stroke="black" points="3.5,-0.5 3.5,-30.5 139.5,-30.5 139.5,-0.5 3.5,-0.5"/>
<text text-anchor="start" x="11.5" y="-18.5" font-family="Helvetica,sans-Serif" font-size="10.00">TUIO::TuioClient::getTuio</text>
<text text-anchor="middle" x="71.5" y="-7.5" font-family="Helvetica,sans-Serif" font-size="10.00">Objects</text>
</a>
</g>
</g>
<!-- Node1&#45;&gt;Node7 -->
<g id="edge6" class="edge">
<title>Node1&#45;&gt;Node7</title>
<path fill="none" stroke="midnightblue" d="M217.74,-114.16C201.01,-92.39 173.48,-60.37 143,-40.5 137.23,-36.74 130.83,-33.47 124.31,-30.64"/>
<polygon fill="midnightblue" stroke="midnightblue" points="215,-116.35 223.81,-122.24 220.6,-112.14 215,-116.35"/>
</g>
</g>
</svg>
