<?xml version="1.0" encoding="UTF-8" standalone="no"?>
<!DOCTYPE svg PUBLIC "-//W3C//DTD SVG 1.1//EN"
 "http://www.w3.org/Graphics/SVG/1.1/DTD/svg11.dtd">
<!-- Generated by graphviz version 2.43.0 (0)
 -->
<!-- Title: TUIO::TuioContainer::remove Pages: 1 -->
<!--zoomable 88 -->
<svg id="main" version="1.1" xmlns="http://www.w3.org/2000/svg" xmlns:xlink="http://www.w3.org/1999/xlink" xml:space="preserve" onload="init(evt)">
<style type="text/css"><![CDATA[
.edge:hover path { stroke: red; }
.edge:hover polygon { stroke: red; fill: red; }
]]></style>
<script type="text/javascript"><![CDATA[
var edges = document.getElementsByTagName('g');
if (edges && edges.length) {
  for (var i=0;i<edges.length;i++) {
    if (edges[i].id.substr(0,4)=='edge') {
      edges[i].setAttribute('class','edge');
    }
  }
}
]]></script>
        <defs>
                <circle id="rim" cx="0" cy="0" r="7"/>
                <circle id="rim2" cx="0" cy="0" r="3.5"/>
                <g id="zoomPlus">
                        <use xlink:href="#rim" fill="#404040">
                                <set attributeName="fill" to="#808080" begin="zoomplus.mouseover" end="zoomplus.mouseout"/>
                        </use>
                        <path d="M-4,0h8M0,-4v8" fill="none" stroke="white" stroke-width="1.5" pointer-events="none"/>
                </g>
                <g id="zoomMin">
                        <use xlink:href="#rim" fill="#404040">
                                <set attributeName="fill" to="#808080" begin="zoomminus.mouseover" end="zoomminus.mouseout"/>
                        </use>
                        <path d="M-4,0h8" fill="none" stroke="white" stroke-width="1.5" pointer-events="none"/>
                </g>
                <g id="dirArrow">
                        <path fill="none" stroke="white" stroke-width="1.5" d="M0,-3.0v7 M-2.5,-0.5L0,-3.0L2.5,-0.5"/>
                </g>
               <g id="resetDef">
                       <use xlink:href="#rim2" fill="#404040">
                               <set attributeName="fill" to="#808080" begin="reset.mouseover" end="reset.mouseout"/>
                       </use>
               </g>
        </defs>

<script type="text/javascript">
var viewWidth = 631;
var viewHeight = 88;
var sectionId = 'dynsection-27';
</script>
<script xlink:href="../../svgpan.js"/>
<svg id="graph" class="graph">
<g id="viewport">
<title>TUIO::TuioContainer::remove</title>
<polygon fill="white" stroke="transparent" points="-4,4 -4,-84 627,-84 627,4 -4,4"/>
<!-- Node1 -->
<g id="node1" class="node">
<title>Node1</title>
<g id="a_node1"><a xlink:title=" ">
<polygon fill="#bfbfbf" stroke="black" points="510,-24.5 510,-54.5 623,-54.5 623,-24.5 510,-24.5"/>
<text text-anchor="start" x="518" y="-42.5" font-family="Helvetica,sans-Serif" font-size="10.00">TUIO::TuioContainer</text>
<text text-anchor="middle" x="566.5" y="-31.5" font-family="Helvetica,sans-Serif" font-size="10.00">::remove</text>
</a>
</g>
</g>
<!-- Node2 -->
<g id="node2" class="node">
<title>Node2</title>
<g id="a_node2"><a xlink:href="../../d2/d82/classTUIO_1_1TuioManager.html#aeb065e0e33c386af05bcb7c670e4c352" target="_top" xlink:title=" ">
<polygon fill="white" stroke="black" points="359,-49.5 359,-79.5 474,-79.5 474,-49.5 359,-49.5"/>
<text text-anchor="start" x="367" y="-67.5" font-family="Helvetica,sans-Serif" font-size="10.00">TUIO::TuioManager::</text>
<text text-anchor="middle" x="416.5" y="-56.5" font-family="Helvetica,sans-Serif" font-size="10.00">removeTuioBlob</text>
</a>
</g>
</g>
<!-- Node1&#45;&gt;Node2 -->
<g id="edge1" class="edge">
<title>Node1&#45;&gt;Node2</title>
<path fill="none" stroke="midnightblue" d="M500.02,-50.56C491.45,-52.01 482.73,-53.48 474.33,-54.9"/>
<polygon fill="midnightblue" stroke="midnightblue" points="500.69,-54 509.97,-48.88 499.53,-47.09 500.69,-54"/>
</g>
<!-- Node5 -->
<g id="node5" class="node">
<title>Node5</title>
<g id="a_node5"><a xlink:href="../../d2/d82/classTUIO_1_1TuioManager.html#ab4ade3e971fea21179af6358e751aefe" target="_top" xlink:title=" ">
<polygon fill="white" stroke="black" points="359,-0.5 359,-30.5 474,-30.5 474,-0.5 359,-0.5"/>
<text text-anchor="start" x="367" y="-18.5" font-family="Helvetica,sans-Serif" font-size="10.00">TUIO::TuioManager::</text>
<text text-anchor="middle" x="416.5" y="-7.5" font-family="Helvetica,sans-Serif" font-size="10.00">removeTuioCursor</text>
</a>
</g>
</g>
<!-- Node1&#45;&gt;Node5 -->
<g id="edge4" class="edge">
<title>Node1&#45;&gt;Node5</title>
<path fill="none" stroke="midnightblue" d="M500.02,-28.88C491.45,-27.49 482.73,-26.08 474.33,-24.72"/>
<polygon fill="midnightblue" stroke="midnightblue" points="499.54,-32.35 509.97,-30.5 500.66,-25.44 499.54,-32.35"/>
</g>
<!-- Node3 -->
<g id="node3" class="node">
<title>Node3</title>
<g id="a_node3"><a xlink:href="../../d2/d82/classTUIO_1_1TuioManager.html#a0063262b037e56b554a31f90a81d53bb" target="_top" xlink:title=" ">
<polygon fill="white" stroke="black" points="145,-49.5 145,-79.5 318,-79.5 318,-49.5 145,-49.5"/>
<text text-anchor="start" x="153" y="-67.5" font-family="Helvetica,sans-Serif" font-size="10.00">TUIO::TuioManager::</text>
<text text-anchor="middle" x="231.5" y="-56.5" font-family="Helvetica,sans-Serif" font-size="10.00">removeUntouchedStoppedBlobs</text>
</a>
</g>
</g>
<!-- Node2&#45;&gt;Node3 -->
<g id="edge2" class="edge">
<title>Node2&#45;&gt;Node3</title>
<path fill="none" stroke="midnightblue" d="M348.51,-64.5C338.67,-64.5 328.41,-64.5 318.25,-64.5"/>
<polygon fill="midnightblue" stroke="midnightblue" points="348.6,-68 358.6,-64.5 348.6,-61 348.6,-68"/>
</g>
<!-- Node4 -->
<g id="node4" class="node">
<title>Node4</title>
<g id="a_node4"><a xlink:href="../../d8/dc8/classTUIO_1_1TuioServer.html#ab3b84d7f13f0cecc4709ae7ff0e89118" target="_top" xlink:title=" ">
<polygon fill="white" stroke="black" points="0,-24.5 0,-54.5 104,-54.5 104,-24.5 0,-24.5"/>
<text text-anchor="start" x="8" y="-42.5" font-family="Helvetica,sans-Serif" font-size="10.00">TUIO::TuioServer::</text>
<text text-anchor="middle" x="52" y="-31.5" font-family="Helvetica,sans-Serif" font-size="10.00">~TuioServer</text>
</a>
</g>
</g>
<!-- Node3&#45;&gt;Node4 -->
<g id="edge3" class="edge">
<title>Node3&#45;&gt;Node4</title>
<path fill="none" stroke="midnightblue" d="M134.82,-51.02C124.36,-49.55 114.04,-48.1 104.42,-46.74"/>
<polygon fill="midnightblue" stroke="midnightblue" points="134.48,-54.51 144.87,-52.44 135.46,-47.58 134.48,-54.51"/>
</g>
<!-- Node6 -->
<g id="node6" class="node">
<title>Node6</title>
<g id="a_node6"><a xlink:href="../../d2/d82/classTUIO_1_1TuioManager.html#a1c1f7f27b1a91abfeef75b0a3e80907f" target="_top" xlink:title=" ">
<polygon fill="white" stroke="black" points="140,-0.5 140,-30.5 323,-30.5 323,-0.5 140,-0.5"/>
<text text-anchor="start" x="148" y="-18.5" font-family="Helvetica,sans-Serif" font-size="10.00">TUIO::TuioManager::</text>
<text text-anchor="middle" x="231.5" y="-7.5" font-family="Helvetica,sans-Serif" font-size="10.00">removeUntouchedStoppedCursors</text>
</a>
</g>
</g>
<!-- Node5&#45;&gt;Node6 -->
<g id="edge5" class="edge">
<title>Node5&#45;&gt;Node6</title>
<path fill="none" stroke="midnightblue" d="M348.41,-15.5C340.23,-15.5 331.76,-15.5 323.31,-15.5"/>
<polygon fill="midnightblue" stroke="midnightblue" points="348.6,-19 358.6,-15.5 348.6,-12 348.6,-19"/>
</g>
<!-- Node6&#45;&gt;Node4 -->
<g id="edge6" class="edge">
<title>Node6&#45;&gt;Node4</title>
<path fill="none" stroke="midnightblue" d="M129.86,-29.11C120.99,-30.31 112.28,-31.48 104.09,-32.59"/>
<polygon fill="midnightblue" stroke="midnightblue" points="130.49,-32.55 139.93,-27.75 129.55,-25.62 130.49,-32.55"/>
</g>
</g>
</svg>
        <g id="navigator" transform="translate(0 0)" fill="#404254">
                <rect fill="#f2f5e9" fill-opacity="0.5" stroke="#606060" stroke-width=".5" x="0" y="0" width="60" height="60"/>
                <use id="zoomplus" xlink:href="#zoomPlus" x="17" y="9" onmousedown="handleZoom(evt,'in')"/>
                <use id="zoomminus" xlink:href="#zoomMin" x="42" y="9" onmousedown="handleZoom(evt,'out')"/>
                <use id="reset" xlink:href="#resetDef" x="30" y="36" onmousedown="handleReset()"/>
                <g id="arrowUp" xlink:href="#dirArrow" transform="translate(30 24)" onmousedown="handlePan(0,-1)">
                  <use xlink:href="#rim" fill="#404040">
                        <set attributeName="fill" to="#808080" begin="arrowUp.mouseover" end="arrowUp.mouseout"/>
                  </use>
                  <path fill="none" stroke="white" stroke-width="1.5" d="M0,-3.0v7 M-2.5,-0.5L0,-3.0L2.5,-0.5"/>
                </g>
                <g id="arrowRight" xlink:href="#dirArrow" transform="rotate(90) translate(36 -43)" onmousedown="handlePan(1,0)">
                  <use xlink:href="#rim" fill="#404040">
                        <set attributeName="fill" to="#808080" begin="arrowRight.mouseover" end="arrowRight.mouseout"/>
                  </use>
                  <path fill="none" stroke="white" stroke-width="1.5" d="M0,-3.0v7 M-2.5,-0.5L0,-3.0L2.5,-0.5"/>
                </g>
                <g id="arrowDown" xlink:href="#dirArrow" transform="rotate(180) translate(-30 -48)" onmousedown="handlePan(0,1)">
                  <use xlink:href="#rim" fill="#404040">
                        <set attributeName="fill" to="#808080" begin="arrowDown.mouseover" end="arrowDown.mouseout"/>
                  </use>
                  <path fill="none" stroke="white" stroke-width="1.5" d="M0,-3.0v7 M-2.5,-0.5L0,-3.0L2.5,-0.5"/>
                </g>
                <g id="arrowLeft" xlink:href="#dirArrow" transform="rotate(270) translate(-36 17)" onmousedown="handlePan(-1,0)">
                  <use xlink:href="#rim" fill="#404040">
                        <set attributeName="fill" to="#808080" begin="arrowLeft.mouseover" end="arrowLeft.mouseout"/>
                  </use>
                  <path fill="none" stroke="white" stroke-width="1.5" d="M0,-3.0v7 M-2.5,-0.5L0,-3.0L2.5,-0.5"/>
                </g>
        </g>
        <svg viewBox="0 0 15 15" width="100%" height="30px" preserveAspectRatio="xMaxYMin meet">
         <g id="arrow_out" transform="scale(0.3 0.3)">
          <a xlink:href="classTUIO_1_1TuioContainer_a0c2a9708956006f8af5e6f2096526e61_icgraph_org.svg" target="_base">
           <rect id="button" ry="5" rx="5" y="6" x="6" height="38" width="38"
                fill="#f2f5e9" fill-opacity="0.5" stroke="#606060" stroke-width="1.0"/>
           <path id="arrow"
             d="M 11.500037,31.436501 C 11.940474,20.09759 22.043105,11.32322 32.158766,21.979434 L 37.068811,17.246167 C 37.068811,17.246167 37.088388,32 37.088388,32 L 22.160133,31.978069 C 22.160133,31.978069 26.997745,27.140456 26.997745,27.140456 C 18.528582,18.264221 13.291696,25.230495 11.500037,31.436501 z"
             style="fill:#404040;"/>
          </a>
         </g>
        </svg>
</svg>
