<?xml version="1.0" encoding="UTF-8" standalone="no"?>
<!DOCTYPE svg PUBLIC "-//W3C//DTD SVG 1.1//EN"
 "http://www.w3.org/Graphics/SVG/1.1/DTD/svg11.dtd">
<!-- Generated by graphviz version 2.43.0 (0)
 -->
<!-- Title: TUIO::TuioContainer::update Pages: 1 -->
<svg width="469pt" height="176pt"
 viewBox="0.00 0.00 469.00 176.38" xmlns="http://www.w3.org/2000/svg" xmlns:xlink="http://www.w3.org/1999/xlink">
<g id="graph0" class="graph" transform="scale(1 1) rotate(0) translate(4 172.38)">
<title>TUIO::TuioContainer::update</title>
<polygon fill="white" stroke="transparent" points="-4,4 -4,-172.38 465,-172.38 465,4 -4,4"/>
<!-- Node1 -->
<g id="node1" class="node">
<title>Node1</title>
<g id="a_node1"><a xlink:title=" ">
<polygon fill="#bfbfbf" stroke="black" points="0,-55.88 0,-85.88 113,-85.88 113,-55.88 0,-55.88"/>
<text text-anchor="start" x="8" y="-73.88" font-family="Helvetica,sans-Serif" font-size="10.00">TUIO::TuioContainer</text>
<text text-anchor="middle" x="56.5" y="-62.88" font-family="Helvetica,sans-Serif" font-size="10.00">::update</text>
</a>
</g>
</g>
<!-- Node2 -->
<g id="node2" class="node">
<title>Node2</title>
<g id="a_node2"><a xlink:href="../../d0/db2/classTUIO_1_1TuioTime.html#ac403aea1a8928e714f9f6388f488fa33" target="_top" xlink:title=" ">
<polygon fill="white" stroke="black" points="159.5,-137.88 159.5,-167.88 295.5,-167.88 295.5,-137.88 159.5,-137.88"/>
<text text-anchor="start" x="167.5" y="-155.88" font-family="Helvetica,sans-Serif" font-size="10.00">TUIO::TuioTime::getTotal</text>
<text text-anchor="middle" x="227.5" y="-144.88" font-family="Helvetica,sans-Serif" font-size="10.00">Milliseconds</text>
</a>
</g>
</g>
<!-- Node1&#45;&gt;Node2 -->
<g id="edge1" class="edge">
<title>Node1&#45;&gt;Node2</title>
<path fill="none" stroke="midnightblue" d="M78.47,-86.02C96.5,-98.52 123.54,-116.06 149,-127.88 153.89,-130.15 159.04,-132.3 164.27,-134.31"/>
<polygon fill="midnightblue" stroke="midnightblue" points="163.13,-137.62 173.72,-137.78 165.54,-131.05 163.13,-137.62"/>
</g>
<!-- Node3 -->
<g id="node3" class="node">
<title>Node3</title>
<g id="a_node3"><a xlink:href="../../d0/db6/classTUIO_1_1TuioPoint.html#ac86687cf27772d0fd602c2044b6c8cdd" target="_top" xlink:title=" ">
<polygon fill="white" stroke="black" points="149,-99.38 149,-118.38 306,-118.38 306,-99.38 149,-99.38"/>
<text text-anchor="middle" x="227.5" y="-106.38" font-family="Helvetica,sans-Serif" font-size="10.00">TUIO::TuioPoint::getTuioTime</text>
</a>
</g>
</g>
<!-- Node1&#45;&gt;Node3 -->
<g id="edge2" class="edge">
<title>Node1&#45;&gt;Node3</title>
<path fill="none" stroke="midnightblue" d="M113.31,-83.43C132.95,-87.84 154.95,-92.79 174.29,-97.14"/>
<polygon fill="midnightblue" stroke="midnightblue" points="173.62,-100.57 184.14,-99.35 175.15,-93.74 173.62,-100.57"/>
</g>
<!-- Node4 -->
<g id="node4" class="node">
<title>Node4</title>
<g id="a_node4"><a xlink:href="../../d0/db6/classTUIO_1_1TuioPoint.html#a547710f33dd3786eaa8ca326b34911c0" target="_top" xlink:title=" ">
<polygon fill="white" stroke="black" points="342,-51.38 342,-70.38 461,-70.38 461,-51.38 342,-51.38"/>
<text text-anchor="middle" x="401.5" y="-58.38" font-family="Helvetica,sans-Serif" font-size="10.00">TUIO::TuioPoint::getX</text>
</a>
</g>
</g>
<!-- Node1&#45;&gt;Node4 -->
<g id="edge3" class="edge">
<title>Node1&#45;&gt;Node4</title>
<path fill="none" stroke="midnightblue" d="M113.37,-69.25C173.02,-67.51 267.58,-64.75 331.75,-62.88"/>
<polygon fill="midnightblue" stroke="midnightblue" points="331.88,-66.38 341.78,-62.59 331.68,-59.38 331.88,-66.38"/>
</g>
<!-- Node5 -->
<g id="node5" class="node">
<title>Node5</title>
<g id="a_node5"><a xlink:href="../../d0/db6/classTUIO_1_1TuioPoint.html#a2dbd53d10bbcddb6db271bdd30858733" target="_top" xlink:title=" ">
<polygon fill="white" stroke="black" points="342,-4.38 342,-23.38 461,-23.38 461,-4.38 342,-4.38"/>
<text text-anchor="middle" x="401.5" y="-11.38" font-family="Helvetica,sans-Serif" font-size="10.00">TUIO::TuioPoint::getY</text>
</a>
</g>
</g>
<!-- Node1&#45;&gt;Node5 -->
<g id="edge4" class="edge">
<title>Node1&#45;&gt;Node5</title>
<path fill="none" stroke="midnightblue" d="M74.96,-55.79C92.38,-41.82 120.57,-22.01 149,-13.88 209.02,3.29 280.44,1.28 331.81,-3.84"/>
<polygon fill="midnightblue" stroke="midnightblue" points="331.49,-7.33 341.81,-4.9 332.23,-0.36 331.49,-7.33"/>
</g>
<!-- Node6 -->
<g id="node6" class="node">
<title>Node6</title>
<g id="a_node6"><a xlink:href="../../d0/db6/classTUIO_1_1TuioPoint.html#ae6ed82aba4186921dc911a382f7e5f33" target="_top" xlink:title=" ">
<polygon fill="white" stroke="black" points="162,-23.38 162,-42.38 293,-42.38 293,-23.38 162,-23.38"/>
<text text-anchor="middle" x="227.5" y="-30.38" font-family="Helvetica,sans-Serif" font-size="10.00">TUIO::TuioPoint::update</text>
</a>
</g>
</g>
<!-- Node1&#45;&gt;Node6 -->
<g id="edge5" class="edge">
<title>Node1&#45;&gt;Node6</title>
<path fill="none" stroke="midnightblue" d="M113.31,-58.33C132.95,-53.91 154.95,-48.97 174.29,-44.62"/>
<polygon fill="midnightblue" stroke="midnightblue" points="175.15,-48.01 184.14,-42.4 173.62,-41.18 175.15,-48.01"/>
</g>
<!-- Node6&#45;&gt;Node4 -->
<g id="edge6" class="edge">
<title>Node6&#45;&gt;Node4</title>
<path fill="none" stroke="midnightblue" d="M287.21,-42.44C301.6,-44.78 317.13,-47.31 331.94,-49.72"/>
<polygon fill="midnightblue" stroke="midnightblue" points="331.62,-53.21 342.05,-51.36 332.75,-46.3 331.62,-53.21"/>
</g>
<!-- Node6&#45;&gt;Node5 -->
<g id="edge7" class="edge">
<title>Node6&#45;&gt;Node5</title>
<path fill="none" stroke="midnightblue" d="M293.04,-25.75C305.67,-24.35 318.97,-22.88 331.74,-21.47"/>
<polygon fill="midnightblue" stroke="midnightblue" points="332.29,-24.93 341.84,-20.36 331.52,-17.98 332.29,-24.93"/>
</g>
</g>
</svg>
