<?xml version="1.0" encoding="UTF-8" standalone="no"?>
<!DOCTYPE svg PUBLIC "-//W3C//DTD SVG 1.1//EN"
 "http://www.w3.org/Graphics/SVG/1.1/DTD/svg11.dtd">
<!-- Generated by graphviz version 2.43.0 (0)
 -->
<!-- Title: TUIO::TuioContainer::update Pages: 1 -->
<svg width="633pt" height="137pt"
 viewBox="0.00 0.00 633.00 137.00" xmlns="http://www.w3.org/2000/svg" xmlns:xlink="http://www.w3.org/1999/xlink">
<g id="graph0" class="graph" transform="scale(1 1) rotate(0) translate(4 133)">
<title>TUIO::TuioContainer::update</title>
<polygon fill="white" stroke="transparent" points="-4,4 -4,-133 629,-133 629,4 -4,4"/>
<!-- Node1 -->
<g id="node1" class="node">
<title>Node1</title>
<g id="a_node1"><a xlink:title=" ">
<polygon fill="#bfbfbf" stroke="black" points="512,-49.5 512,-79.5 625,-79.5 625,-49.5 512,-49.5"/>
<text text-anchor="start" x="520" y="-67.5" font-family="Helvetica,sans-Serif" font-size="10.00">TUIO::TuioContainer</text>
<text text-anchor="middle" x="568.5" y="-56.5" font-family="Helvetica,sans-Serif" font-size="10.00">::update</text>
</a>
</g>
</g>
<!-- Node2 -->
<g id="node2" class="node">
<title>Node2</title>
<g id="a_node2"><a xlink:href="../../d8/de3/classTUIO_1_1TuioContainer.html#af848b7d520cef0f905abfaae6f99811f" target="_top" xlink:title=" ">
<polygon fill="white" stroke="black" points="351,-95.5 351,-125.5 464,-125.5 464,-95.5 351,-95.5"/>
<text text-anchor="start" x="359" y="-113.5" font-family="Helvetica,sans-Serif" font-size="10.00">TUIO::TuioContainer</text>
<text text-anchor="middle" x="407.5" y="-102.5" font-family="Helvetica,sans-Serif" font-size="10.00">::stop</text>
</a>
</g>
</g>
<!-- Node1&#45;&gt;Node2 -->
<g id="edge1" class="edge">
<title>Node1&#45;&gt;Node2</title>
<path fill="none" stroke="midnightblue" d="M505.74,-82.37C490.76,-86.7 474.89,-91.29 460.41,-95.48"/>
<polygon fill="midnightblue" stroke="midnightblue" points="506.8,-85.7 515.44,-79.56 504.86,-78.98 506.8,-85.7"/>
</g>
<!-- Node5 -->
<g id="node5" class="node">
<title>Node5</title>
<g id="a_node5"><a xlink:href="../../d1/dcf/classTUIO_1_1TuioBlob.html#ac8c056e14de08d08667186aa55c8eb8b" target="_top" xlink:title=" ">
<polygon fill="white" stroke="black" points="343.5,-55 343.5,-74 471.5,-74 471.5,-55 343.5,-55"/>
<text text-anchor="middle" x="407.5" y="-62" font-family="Helvetica,sans-Serif" font-size="10.00">TUIO::TuioBlob::update</text>
</a>
</g>
</g>
<!-- Node1&#45;&gt;Node5 -->
<g id="edge4" class="edge">
<title>Node1&#45;&gt;Node5</title>
<path fill="none" stroke="midnightblue" d="M501.69,-64.5C491.77,-64.5 481.56,-64.5 471.69,-64.5"/>
<polygon fill="midnightblue" stroke="midnightblue" points="501.89,-68 511.89,-64.5 501.89,-61 501.89,-68"/>
</g>
<!-- Node7 -->
<g id="node7" class="node">
<title>Node7</title>
<g id="a_node7"><a xlink:href="../../d0/dd3/classTUIO_1_1TuioObject.html#ac6bee6c3fd22362393c6a7a11c98379f" target="_top" xlink:title=" ">
<polygon fill="white" stroke="black" points="339,-12 339,-31 476,-31 476,-12 339,-12"/>
<text text-anchor="middle" x="407.5" y="-19" font-family="Helvetica,sans-Serif" font-size="10.00">TUIO::TuioObject::update</text>
</a>
</g>
</g>
<!-- Node1&#45;&gt;Node7 -->
<g id="edge6" class="edge">
<title>Node1&#45;&gt;Node7</title>
<path fill="none" stroke="midnightblue" d="M502.22,-46.85C482.29,-41.45 461.11,-35.73 443.95,-31.09"/>
<polygon fill="midnightblue" stroke="midnightblue" points="501.32,-50.23 511.89,-49.46 503.15,-43.47 501.32,-50.23"/>
</g>
<!-- Node3 -->
<g id="node3" class="node">
<title>Node3</title>
<g id="a_node3"><a xlink:href="../../d2/d82/classTUIO_1_1TuioManager.html#adfc49bad8bab2420269d7d3e3b9002a1" target="_top" xlink:title=" ">
<polygon fill="white" stroke="black" points="140,-98.5 140,-128.5 303,-128.5 303,-98.5 140,-98.5"/>
<text text-anchor="start" x="148" y="-116.5" font-family="Helvetica,sans-Serif" font-size="10.00">TUIO::TuioManager::</text>
<text text-anchor="middle" x="221.5" y="-105.5" font-family="Helvetica,sans-Serif" font-size="10.00">stopUntouchedMovingCursors</text>
</a>
</g>
</g>
<!-- Node2&#45;&gt;Node3 -->
<g id="edge2" class="edge">
<title>Node2&#45;&gt;Node3</title>
<path fill="none" stroke="midnightblue" d="M340.74,-111.57C328.55,-111.77 315.7,-111.98 303.13,-112.19"/>
<polygon fill="midnightblue" stroke="midnightblue" points="340.85,-115.07 350.79,-111.41 340.74,-108.07 340.85,-115.07"/>
</g>
<!-- Node4 -->
<g id="node4" class="node">
<title>Node4</title>
<g id="a_node4"><a xlink:href="../../d8/dc8/classTUIO_1_1TuioServer.html#ab3b84d7f13f0cecc4709ae7ff0e89118" target="_top" xlink:title=" ">
<polygon fill="white" stroke="black" points="0,-98.5 0,-128.5 104,-128.5 104,-98.5 0,-98.5"/>
<text text-anchor="start" x="8" y="-116.5" font-family="Helvetica,sans-Serif" font-size="10.00">TUIO::TuioServer::</text>
<text text-anchor="middle" x="52" y="-105.5" font-family="Helvetica,sans-Serif" font-size="10.00">~TuioServer</text>
</a>
</g>
</g>
<!-- Node3&#45;&gt;Node4 -->
<g id="edge3" class="edge">
<title>Node3&#45;&gt;Node4</title>
<path fill="none" stroke="midnightblue" d="M129.53,-113.5C120.9,-113.5 112.37,-113.5 104.31,-113.5"/>
<polygon fill="midnightblue" stroke="midnightblue" points="129.69,-117 139.69,-113.5 129.69,-110 129.69,-117"/>
</g>
<!-- Node6 -->
<g id="node6" class="node">
<title>Node6</title>
<g id="a_node6"><a xlink:href="../../d2/d82/classTUIO_1_1TuioManager.html#aa532b9759c1a39b18e59740b7b268bab" target="_top" xlink:title=" ">
<polygon fill="white" stroke="black" points="164,-49.5 164,-79.5 279,-79.5 279,-49.5 164,-49.5"/>
<text text-anchor="start" x="172" y="-67.5" font-family="Helvetica,sans-Serif" font-size="10.00">TUIO::TuioManager::</text>
<text text-anchor="middle" x="221.5" y="-56.5" font-family="Helvetica,sans-Serif" font-size="10.00">updateTuioBlob</text>
</a>
</g>
</g>
<!-- Node5&#45;&gt;Node6 -->
<g id="edge5" class="edge">
<title>Node5&#45;&gt;Node6</title>
<path fill="none" stroke="midnightblue" d="M333.24,-64.5C315.19,-64.5 296.13,-64.5 279.01,-64.5"/>
<polygon fill="midnightblue" stroke="midnightblue" points="333.44,-68 343.44,-64.5 333.44,-61 333.44,-68"/>
</g>
<!-- Node8 -->
<g id="node8" class="node">
<title>Node8</title>
<g id="a_node8"><a xlink:href="../../d2/d82/classTUIO_1_1TuioManager.html#ab1108e679103f0ba3c6b8fc80246b6c7" target="_top" xlink:title=" ">
<polygon fill="white" stroke="black" points="164,-0.5 164,-30.5 279,-30.5 279,-0.5 164,-0.5"/>
<text text-anchor="start" x="172" y="-18.5" font-family="Helvetica,sans-Serif" font-size="10.00">TUIO::TuioManager::</text>
<text text-anchor="middle" x="221.5" y="-7.5" font-family="Helvetica,sans-Serif" font-size="10.00">updateTuioObject</text>
</a>
</g>
</g>
<!-- Node7&#45;&gt;Node8 -->
<g id="edge7" class="edge">
<title>Node7&#45;&gt;Node8</title>
<path fill="none" stroke="midnightblue" d="M328.56,-18.96C312,-18.42 294.81,-17.86 279.22,-17.35"/>
<polygon fill="midnightblue" stroke="midnightblue" points="328.66,-22.46 338.77,-19.29 328.89,-15.47 328.66,-22.46"/>
</g>
</g>
</svg>
