<?xml version="1.0" encoding="UTF-8" standalone="no"?>
<!DOCTYPE svg PUBLIC "-//W3C//DTD SVG 1.1//EN"
 "http://www.w3.org/Graphics/SVG/1.1/DTD/svg11.dtd">
<!-- Generated by graphviz version 2.43.0 (0)
 -->
<!-- Title: TUIO::TuioBlob Pages: 1 -->
<svg width="252pt" height="252pt"
 viewBox="0.00 0.00 251.50 252.00" xmlns="http://www.w3.org/2000/svg" xmlns:xlink="http://www.w3.org/1999/xlink">
<g id="graph0" class="graph" transform="scale(1 1) rotate(0) translate(4 248)">
<title>TUIO::TuioBlob</title>
<polygon fill="white" stroke="transparent" points="-4,4 -4,-248 247.5,-248 247.5,4 -4,4"/>
<!-- Node1 -->
<g id="node1" class="node">
<title>Node1</title>
<g id="a_node1"><a xlink:title=" ">
<polygon fill="#bfbfbf" stroke="black" points="111.5,-0.5 111.5,-19.5 199.5,-19.5 199.5,-0.5 111.5,-0.5"/>
<text text-anchor="middle" x="155.5" y="-7.5" font-family="Helvetica,sans-Serif" font-size="10.00">TUIO::TuioBlob</text>
</a>
</g>
</g>
<!-- Node2 -->
<g id="node2" class="node">
<title>Node2</title>
<g id="a_node2"><a xlink:href="../../d8/de3/classTUIO_1_1TuioContainer.html" target="_top" xlink:title=" ">
<polygon fill="white" stroke="black" points="57,-57.5 57,-76.5 170,-76.5 170,-57.5 57,-57.5"/>
<text text-anchor="middle" x="113.5" y="-64.5" font-family="Helvetica,sans-Serif" font-size="10.00">TUIO::TuioContainer</text>
</a>
</g>
</g>
<!-- Node2&#45;&gt;Node1 -->
<g id="edge1" class="edge">
<title>Node2&#45;&gt;Node1</title>
<path fill="none" stroke="midnightblue" d="M126.3,-49.23C133.74,-39.49 142.81,-27.62 148.84,-19.71"/>
<polygon fill="midnightblue" stroke="midnightblue" points="123.35,-47.33 120.06,-57.41 128.91,-51.58 123.35,-47.33"/>
</g>
<!-- Node3 -->
<g id="node3" class="node">
<title>Node3</title>
<g id="a_node3"><a xlink:href="../../d0/db6/classTUIO_1_1TuioPoint.html" target="_top" xlink:title=" ">
<polygon fill="white" stroke="black" points="68,-146.5 68,-165.5 159,-165.5 159,-146.5 68,-146.5"/>
<text text-anchor="middle" x="113.5" y="-153.5" font-family="Helvetica,sans-Serif" font-size="10.00">TUIO::TuioPoint</text>
</a>
</g>
</g>
<!-- Node3&#45;&gt;Node2 -->
<g id="edge2" class="edge">
<title>Node3&#45;&gt;Node2</title>
<path fill="none" stroke="midnightblue" d="M113.5,-136.19C113.5,-117.74 113.5,-90.41 113.5,-76.62"/>
<polygon fill="midnightblue" stroke="midnightblue" points="110,-136.34 113.5,-146.34 117,-136.34 110,-136.34"/>
</g>
<!-- Node4 -->
<g id="node4" class="node">
<title>Node4</title>
<g id="a_node4"><a xlink:href="../../d0/db2/classTUIO_1_1TuioTime.html" target="_top" xlink:title=" ">
<polygon fill="white" stroke="black" points="0,-224.5 0,-243.5 91,-243.5 91,-224.5 0,-224.5"/>
<text text-anchor="middle" x="45.5" y="-231.5" font-family="Helvetica,sans-Serif" font-size="10.00">TUIO::TuioTime</text>
</a>
</g>
</g>
<!-- Node4&#45;&gt;Node3 -->
<g id="edge3" class="edge">
<title>Node4&#45;&gt;Node3</title>
<path fill="none" stroke="#9a32cd" stroke-dasharray="5,2" d="M41.23,-214.16C40.09,-204.36 40.53,-192.65 46.5,-184 52.41,-175.43 61.53,-169.58 71.16,-165.59"/>
<polygon fill="#9a32cd" stroke="#9a32cd" points="37.81,-214.91 42.98,-224.16 44.7,-213.7 37.81,-214.91"/>
<text text-anchor="middle" x="78" y="-198" font-family="Helvetica,sans-Serif" font-size="10.00"> currentTime</text>
<text text-anchor="middle" x="78" y="-187" font-family="Helvetica,sans-Serif" font-size="10.00">startTime</text>
</g>
<!-- Node5 -->
<g id="node5" class="node">
<title>Node5</title>
<g id="a_node5"><a xlink:href="../../d3/de2/classTUIO_1_1OneEuroFilter.html" target="_top" xlink:title=" ">
<polygon fill="white" stroke="black" points="125,-224.5 125,-243.5 238,-243.5 238,-224.5 125,-224.5"/>
<text text-anchor="middle" x="181.5" y="-231.5" font-family="Helvetica,sans-Serif" font-size="10.00">TUIO::OneEuroFilter</text>
</a>
</g>
</g>
<!-- Node5&#45;&gt;Node1 -->
<g id="edge5" class="edge">
<title>Node5&#45;&gt;Node1</title>
<path fill="none" stroke="#9a32cd" stroke-dasharray="5,2" d="M184.05,-214.07C187.83,-181.39 193.01,-112.57 178.5,-57 174.89,-43.18 166.81,-28.66 161.25,-19.72"/>
<polygon fill="#9a32cd" stroke="#9a32cd" points="180.53,-214.02 182.76,-224.38 187.48,-214.89 180.53,-214.02"/>
<text text-anchor="middle" x="215.5" y="-120" font-family="Helvetica,sans-Serif" font-size="10.00"> angleFilter</text>
<text text-anchor="middle" x="215.5" y="-109" font-family="Helvetica,sans-Serif" font-size="10.00">heightFilter</text>
<text text-anchor="middle" x="215.5" y="-98" font-family="Helvetica,sans-Serif" font-size="10.00">widthFilter</text>
</g>
<!-- Node5&#45;&gt;Node3 -->
<g id="edge4" class="edge">
<title>Node5&#45;&gt;Node3</title>
<path fill="none" stroke="#9a32cd" stroke-dasharray="5,2" d="M149.4,-219.55C143.2,-215.86 137.18,-211.35 132.5,-206 122.17,-194.19 117.14,-176.13 114.96,-165.55"/>
<polygon fill="#9a32cd" stroke="#9a32cd" points="148.01,-222.78 158.48,-224.4 151.3,-216.6 148.01,-222.78"/>
<text text-anchor="middle" x="158.5" y="-198" font-family="Helvetica,sans-Serif" font-size="10.00"> xposFilter</text>
<text text-anchor="middle" x="158.5" y="-187" font-family="Helvetica,sans-Serif" font-size="10.00">yposFilter</text>
</g>
</g>
</svg>
