<?xml version="1.0" encoding="UTF-8" standalone="no"?>
<!DOCTYPE svg PUBLIC "-//W3C//DTD SVG 1.1//EN"
 "http://www.w3.org/Graphics/SVG/1.1/DTD/svg11.dtd">
<!-- Generated by graphviz version 2.43.0 (0)
 -->
<!-- Title: TUIO::TuioObject::getAngle Pages: 1 -->
<svg width="494pt" height="312pt"
 viewBox="0.00 0.00 494.00 312.00" xmlns="http://www.w3.org/2000/svg" xmlns:xlink="http://www.w3.org/1999/xlink">
<g id="graph0" class="graph" transform="scale(1 1) rotate(0) translate(4 308)">
<title>TUIO::TuioObject::getAngle</title>
<polygon fill="white" stroke="transparent" points="-4,4 -4,-308 490,-308 490,4 -4,4"/>
<!-- Node1 -->
<g id="node1" class="node">
<title>Node1</title>
<g id="a_node1"><a xlink:title=" ">
<polygon fill="#bfbfbf" stroke="black" points="339,-137 339,-156 486,-156 486,-137 339,-137"/>
<text text-anchor="middle" x="412.5" y="-144" font-family="Helvetica,sans-Serif" font-size="10.00">TUIO::TuioObject::getAngle</text>
</a>
</g>
</g>
<!-- Node2 -->
<g id="node2" class="node">
<title>Node2</title>
<g id="a_node2"><a xlink:href="../../d2/d82/classTUIO_1_1TuioManager.html#ab8bede39e174712efd1ef97a16a39d98" target="_top" xlink:title=" ">
<polygon fill="white" stroke="black" points="158.5,-273.5 158.5,-303.5 284.5,-303.5 284.5,-273.5 158.5,-273.5"/>
<text text-anchor="start" x="166.5" y="-291.5" font-family="Helvetica,sans-Serif" font-size="10.00">TUIO::TuioManager::</text>
<text text-anchor="middle" x="221.5" y="-280.5" font-family="Helvetica,sans-Serif" font-size="10.00">addExternalTuioObject</text>
</a>
</g>
</g>
<!-- Node1&#45;&gt;Node2 -->
<g id="edge1" class="edge">
<title>Node1&#45;&gt;Node2</title>
<path fill="none" stroke="midnightblue" d="M399.69,-164.55C381.83,-190.45 345.46,-237.97 303,-264.5 297.31,-268.06 291.07,-271.11 284.65,-273.72"/>
<polygon fill="midnightblue" stroke="midnightblue" points="402.73,-166.31 405.42,-156.06 396.92,-162.39 402.73,-166.31"/>
</g>
<!-- Node3 -->
<g id="node3" class="node">
<title>Node3</title>
<g id="a_node3"><a xlink:href="../../d2/d82/classTUIO_1_1TuioManager.html#aaa9fd4f7f197442e711ab75da9854eac" target="_top" xlink:title=" ">
<polygon fill="white" stroke="black" points="164,-224.5 164,-254.5 279,-254.5 279,-224.5 164,-224.5"/>
<text text-anchor="start" x="172" y="-242.5" font-family="Helvetica,sans-Serif" font-size="10.00">TUIO::TuioManager::</text>
<text text-anchor="middle" x="221.5" y="-231.5" font-family="Helvetica,sans-Serif" font-size="10.00">addTuioObject</text>
</a>
</g>
</g>
<!-- Node1&#45;&gt;Node3 -->
<g id="edge2" class="edge">
<title>Node1&#45;&gt;Node3</title>
<path fill="none" stroke="midnightblue" d="M390.58,-162.29C369.43,-177.64 335.34,-200.74 303,-215.5 295.44,-218.95 287.25,-222.05 279.1,-224.8"/>
<polygon fill="midnightblue" stroke="midnightblue" points="392.83,-164.98 398.81,-156.24 388.68,-159.35 392.83,-164.98"/>
</g>
<!-- Node4 -->
<g id="node4" class="node">
<title>Node4</title>
<g id="a_node4"><a xlink:href="../../d2/d82/classTUIO_1_1TuioManager.html#abd2007ba7fce0494c2abfca7f737808f" target="_top" xlink:title=" ">
<polygon fill="white" stroke="black" points="140,-175.5 140,-205.5 303,-205.5 303,-175.5 140,-175.5"/>
<text text-anchor="start" x="148" y="-193.5" font-family="Helvetica,sans-Serif" font-size="10.00">TUIO::TuioManager::</text>
<text text-anchor="middle" x="221.5" y="-182.5" font-family="Helvetica,sans-Serif" font-size="10.00">stopUntouchedMovingObjects</text>
</a>
</g>
</g>
<!-- Node1&#45;&gt;Node4 -->
<g id="edge3" class="edge">
<title>Node1&#45;&gt;Node4</title>
<path fill="none" stroke="midnightblue" d="M360.45,-158.38C337.91,-163.63 311.14,-169.86 287.21,-175.43"/>
<polygon fill="midnightblue" stroke="midnightblue" points="361.54,-161.72 370.49,-156.05 359.96,-154.91 361.54,-161.72"/>
</g>
<!-- Node6 -->
<g id="node6" class="node">
<title>Node6</title>
<g id="a_node6"><a xlink:href="../../d0/dd3/classTUIO_1_1TuioObject.html#acbe697c914b68a82802a2239b7125e9c" target="_top" xlink:title=" ">
<polygon fill="white" stroke="black" points="144,-137 144,-156 299,-156 299,-137 144,-137"/>
<text text-anchor="middle" x="221.5" y="-144" font-family="Helvetica,sans-Serif" font-size="10.00">TUIO::TuioObject::TuioObject</text>
</a>
</g>
</g>
<!-- Node1&#45;&gt;Node6 -->
<g id="edge5" class="edge">
<title>Node1&#45;&gt;Node6</title>
<path fill="none" stroke="midnightblue" d="M328.8,-146.5C318.97,-146.5 308.97,-146.5 299.23,-146.5"/>
<polygon fill="midnightblue" stroke="midnightblue" points="328.97,-150 338.97,-146.5 328.97,-143 328.97,-150"/>
</g>
<!-- Node7 -->
<g id="node7" class="node">
<title>Node7</title>
<g id="a_node7"><a xlink:href="../../d0/dd3/classTUIO_1_1TuioObject.html#adcddf5a07dfe0ac103a1cc2214f3990d" target="_top" xlink:title=" ">
<polygon fill="white" stroke="black" points="153,-99 153,-118 290,-118 290,-99 153,-99"/>
<text text-anchor="middle" x="221.5" y="-106" font-family="Helvetica,sans-Serif" font-size="10.00">TUIO::TuioObject::update</text>
</a>
</g>
</g>
<!-- Node1&#45;&gt;Node7 -->
<g id="edge6" class="edge">
<title>Node1&#45;&gt;Node7</title>
<path fill="none" stroke="midnightblue" d="M353.76,-134.89C326.88,-129.49 295.3,-123.14 269.85,-118.02"/>
<polygon fill="midnightblue" stroke="midnightblue" points="353.31,-138.37 363.81,-136.91 354.69,-131.51 353.31,-138.37"/>
</g>
<!-- Node8 -->
<g id="node8" class="node">
<title>Node8</title>
<g id="a_node8"><a xlink:href="../../d2/d82/classTUIO_1_1TuioManager.html#a378d02744ada2cde0d0887612d5cb7c1" target="_top" xlink:title=" ">
<polygon fill="white" stroke="black" points="150.5,-49.5 150.5,-79.5 292.5,-79.5 292.5,-49.5 150.5,-49.5"/>
<text text-anchor="start" x="158.5" y="-67.5" font-family="Helvetica,sans-Serif" font-size="10.00">TUIO::TuioManager::</text>
<text text-anchor="middle" x="221.5" y="-56.5" font-family="Helvetica,sans-Serif" font-size="10.00">updateExternalTuioObject</text>
</a>
</g>
</g>
<!-- Node1&#45;&gt;Node8 -->
<g id="edge7" class="edge">
<title>Node1&#45;&gt;Node8</title>
<path fill="none" stroke="midnightblue" d="M386.57,-131.73C364.97,-119.34 332.63,-101.76 303,-89.5 294.35,-85.92 284.99,-82.56 275.82,-79.55"/>
<polygon fill="midnightblue" stroke="midnightblue" points="385,-134.86 395.41,-136.85 388.51,-128.81 385,-134.86"/>
</g>
<!-- Node9 -->
<g id="node9" class="node">
<title>Node9</title>
<g id="a_node9"><a xlink:href="../../d2/d82/classTUIO_1_1TuioManager.html#ab1108e679103f0ba3c6b8fc80246b6c7" target="_top" xlink:title=" ">
<polygon fill="white" stroke="black" points="164,-0.5 164,-30.5 279,-30.5 279,-0.5 164,-0.5"/>
<text text-anchor="start" x="172" y="-18.5" font-family="Helvetica,sans-Serif" font-size="10.00">TUIO::TuioManager::</text>
<text text-anchor="middle" x="221.5" y="-7.5" font-family="Helvetica,sans-Serif" font-size="10.00">updateTuioObject</text>
</a>
</g>
</g>
<!-- Node1&#45;&gt;Node9 -->
<g id="edge8" class="edge">
<title>Node1&#45;&gt;Node9</title>
<path fill="none" stroke="midnightblue" d="M397.86,-128.69C378.99,-105.23 342.72,-64.17 303,-40.5 295.71,-36.15 287.59,-32.5 279.39,-29.43"/>
<polygon fill="midnightblue" stroke="midnightblue" points="395.27,-131.07 404.21,-136.75 400.77,-126.73 395.27,-131.07"/>
</g>
<!-- Node5 -->
<g id="node5" class="node">
<title>Node5</title>
<g id="a_node5"><a xlink:href="../../d8/dc8/classTUIO_1_1TuioServer.html#ab3b84d7f13f0cecc4709ae7ff0e89118" target="_top" xlink:title=" ">
<polygon fill="white" stroke="black" points="0,-175.5 0,-205.5 104,-205.5 104,-175.5 0,-175.5"/>
<text text-anchor="start" x="8" y="-193.5" font-family="Helvetica,sans-Serif" font-size="10.00">TUIO::TuioServer::</text>
<text text-anchor="middle" x="52" y="-182.5" font-family="Helvetica,sans-Serif" font-size="10.00">~TuioServer</text>
</a>
</g>
</g>
<!-- Node4&#45;&gt;Node5 -->
<g id="edge4" class="edge">
<title>Node4&#45;&gt;Node5</title>
<path fill="none" stroke="midnightblue" d="M129.53,-190.5C120.9,-190.5 112.37,-190.5 104.31,-190.5"/>
<polygon fill="midnightblue" stroke="midnightblue" points="129.69,-194 139.69,-190.5 129.69,-187 129.69,-194"/>
</g>
</g>
</svg>
