<?xml version="1.0" encoding="UTF-8" standalone="no"?>
<!DOCTYPE svg PUBLIC "-//W3C//DTD SVG 1.1//EN"
 "http://www.w3.org/Graphics/SVG/1.1/DTD/svg11.dtd">
<!-- Generated by graphviz version 2.43.0 (0)
 -->
<!-- Title: PacketListener Pages: 1 -->
<svg width="433pt" height="151pt"
 viewBox="0.00 0.00 432.50 151.00" xmlns="http://www.w3.org/2000/svg" xmlns:xlink="http://www.w3.org/1999/xlink">
<g id="graph0" class="graph" transform="scale(1 1) rotate(0) translate(4 147)">
<title>PacketListener</title>
<polygon fill="white" stroke="transparent" points="-4,4 -4,-147 428.5,-147 428.5,4 -4,4"/>
<!-- Node1 -->
<g id="node1" class="node">
<title>Node1</title>
<g id="a_node1"><a xlink:title=" ">
<polygon fill="#bfbfbf" stroke="black" points="202,-123.5 202,-142.5 289,-142.5 289,-123.5 202,-123.5"/>
<text text-anchor="middle" x="245.5" y="-130.5" font-family="Helvetica,sans-Serif" font-size="10.00">PacketListener</text>
</a>
</g>
</g>
<!-- Node2 -->
<g id="node2" class="node">
<title>Node2</title>
<g id="a_node2"><a xlink:href="../../d8/df1/classTUIO_1_1OscReceiver.html" target="_top" xlink:title=" ">
<polygon fill="white" stroke="black" points="124,-67.5 124,-86.5 231,-86.5 231,-67.5 124,-67.5"/>
<text text-anchor="middle" x="177.5" y="-74.5" font-family="Helvetica,sans-Serif" font-size="10.00">TUIO::OscReceiver</text>
</a>
</g>
</g>
<!-- Node1&#45;&gt;Node2 -->
<g id="edge1" class="edge">
<title>Node1&#45;&gt;Node2</title>
<path fill="none" stroke="midnightblue" d="M226.74,-117.1C214.5,-107.38 198.94,-95.03 188.62,-86.83"/>
<polygon fill="midnightblue" stroke="midnightblue" points="224.57,-119.85 234.57,-123.32 228.92,-114.36 224.57,-119.85"/>
</g>
<!-- Node5 -->
<g id="node5" class="node">
<title>Node5</title>
<g id="a_node5"><a xlink:href="../../d3/dd2/classosc_1_1OscPacketListener.html" target="_top" xlink:title=" ">
<polygon fill="white" stroke="black" points="261.5,-67.5 261.5,-86.5 389.5,-86.5 389.5,-67.5 261.5,-67.5"/>
<text text-anchor="middle" x="325.5" y="-74.5" font-family="Helvetica,sans-Serif" font-size="10.00">osc::OscPacketListener</text>
</a>
</g>
</g>
<!-- Node1&#45;&gt;Node5 -->
<g id="edge4" class="edge">
<title>Node1&#45;&gt;Node5</title>
<path fill="none" stroke="midnightblue" d="M266.8,-117.62C281.42,-107.76 300.33,-94.99 312.68,-86.65"/>
<polygon fill="midnightblue" stroke="midnightblue" points="264.68,-114.83 258.35,-123.32 268.6,-120.63 264.68,-114.83"/>
</g>
<!-- Node3 -->
<g id="node3" class="node">
<title>Node3</title>
<g id="a_node3"><a xlink:href="../../d6/d07/classTUIO_1_1TcpReceiver.html" target="_top" xlink:title=" ">
<polygon fill="white" stroke="black" points="0,-6 0,-25 105,-25 105,-6 0,-6"/>
<text text-anchor="middle" x="52.5" y="-13" font-family="Helvetica,sans-Serif" font-size="10.00">TUIO::TcpReceiver</text>
</a>
</g>
</g>
<!-- Node2&#45;&gt;Node3 -->
<g id="edge2" class="edge">
<title>Node2&#45;&gt;Node3</title>
<path fill="none" stroke="midnightblue" d="M150.56,-63.17C126.3,-51.63 91.34,-34.99 70.38,-25.01"/>
<polygon fill="midnightblue" stroke="midnightblue" points="149.06,-66.34 159.59,-67.48 152.07,-60.02 149.06,-66.34"/>
</g>
<!-- Node4 -->
<g id="node4" class="node">
<title>Node4</title>
<g id="a_node4"><a xlink:href="../../d4/d2f/classTUIO_1_1UdpReceiver.html" target="_top" xlink:title=" ">
<polygon fill="white" stroke="black" points="123,-6 123,-25 232,-25 232,-6 123,-6"/>
<text text-anchor="middle" x="177.5" y="-13" font-family="Helvetica,sans-Serif" font-size="10.00">TUIO::UdpReceiver</text>
</a>
</g>
</g>
<!-- Node2&#45;&gt;Node4 -->
<g id="edge3" class="edge">
<title>Node2&#45;&gt;Node4</title>
<path fill="none" stroke="midnightblue" d="M177.5,-57.32C177.5,-46.5 177.5,-33.4 177.5,-25.01"/>
<polygon fill="midnightblue" stroke="midnightblue" points="174,-57.48 177.5,-67.48 181,-57.48 174,-57.48"/>
</g>
<!-- Node6 -->
<g id="node6" class="node">
<title>Node6</title>
<g id="a_node6"><a xlink:href="../../d1/d7f/classosc_1_1MessageMappingOscPacketListener.html" target="_top" xlink:title=" ">
<polygon fill="white" stroke="black" points="250.5,-0.5 250.5,-30.5 424.5,-30.5 424.5,-0.5 250.5,-0.5"/>
<text text-anchor="start" x="258.5" y="-18.5" font-family="Helvetica,sans-Serif" font-size="10.00">osc::MessageMappingOscPacket</text>
<text text-anchor="middle" x="337.5" y="-7.5" font-family="Helvetica,sans-Serif" font-size="10.00">Listener&lt; T &gt;</text>
</a>
</g>
</g>
<!-- Node5&#45;&gt;Node6 -->
<g id="edge5" class="edge">
<title>Node5&#45;&gt;Node6</title>
<path fill="none" stroke="midnightblue" d="M329.23,-57.53C330.98,-48.81 333.05,-38.59 334.67,-30.52"/>
<polygon fill="midnightblue" stroke="midnightblue" points="325.77,-56.98 327.22,-67.48 332.63,-58.36 325.77,-56.98"/>
</g>
</g>
</svg>
