<?xml version="1.0" encoding="UTF-8" standalone="no"?>
<!DOCTYPE svg PUBLIC "-//W3C//DTD SVG 1.1//EN"
 "http://www.w3.org/Graphics/SVG/1.1/DTD/svg11.dtd">
<!-- Generated by graphviz version 2.43.0 (0)
 -->
<!-- Title: TUIO::TuioTime::getTotalMilliseconds Pages: 1 -->
<svg width="317pt" height="154pt"
 viewBox="0.00 0.00 317.00 153.50" xmlns="http://www.w3.org/2000/svg" xmlns:xlink="http://www.w3.org/1999/xlink">
<g id="graph0" class="graph" transform="scale(1 1) rotate(0) translate(4 149.5)">
<title>TUIO::TuioTime::getTotalMilliseconds</title>
<polygon fill="white" stroke="transparent" points="-4,4 -4,-149.5 313,-149.5 313,4 -4,4"/>
<!-- Node1 -->
<g id="node1" class="node">
<title>Node1</title>
<g id="a_node1"><a xlink:title=" ">
<polygon fill="#bfbfbf" stroke="black" points="173,-52 173,-82 309,-82 309,-52 173,-52"/>
<text text-anchor="start" x="181" y="-70" font-family="Helvetica,sans-Serif" font-size="10.00">TUIO::TuioTime::getTotal</text>
<text text-anchor="middle" x="241" y="-59" font-family="Helvetica,sans-Serif" font-size="10.00">Milliseconds</text>
</a>
</g>
</g>
<!-- Node2 -->
<g id="node2" class="node">
<title>Node2</title>
<g id="a_node2"><a xlink:href="../../d8/de3/classTUIO_1_1TuioContainer.html#aed52146a83f9f27712ce704a42d5d78f" target="_top" xlink:title=" ">
<polygon fill="white" stroke="black" points="12,-115 12,-145 125,-145 125,-115 12,-115"/>
<text text-anchor="start" x="20" y="-133" font-family="Helvetica,sans-Serif" font-size="10.00">TUIO::TuioContainer</text>
<text text-anchor="middle" x="68.5" y="-122" font-family="Helvetica,sans-Serif" font-size="10.00">::update</text>
</a>
</g>
</g>
<!-- Node1&#45;&gt;Node2 -->
<g id="edge1" class="edge">
<title>Node1&#45;&gt;Node2</title>
<path fill="none" stroke="midnightblue" d="M189.73,-85.57C164.42,-94.93 134.14,-106.11 110.3,-114.92"/>
<polygon fill="midnightblue" stroke="midnightblue" points="190.99,-88.84 199.16,-82.09 188.57,-82.27 190.99,-88.84"/>
</g>
<!-- Node3 -->
<g id="node3" class="node">
<title>Node3</title>
<g id="a_node3"><a xlink:href="../../d0/db6/classTUIO_1_1TuioPoint.html#a8554c0172fcbbe3c43bc3a31141c2c4f" target="_top" xlink:title=" ">
<polygon fill="white" stroke="black" points="3,-76.5 3,-95.5 134,-95.5 134,-76.5 3,-76.5"/>
<text text-anchor="middle" x="68.5" y="-83.5" font-family="Helvetica,sans-Serif" font-size="10.00">TUIO::TuioPoint::update</text>
</a>
</g>
</g>
<!-- Node1&#45;&gt;Node3 -->
<g id="edge2" class="edge">
<title>Node1&#45;&gt;Node3</title>
<path fill="none" stroke="midnightblue" d="M162.43,-75.64C152.98,-76.7 143.41,-77.76 134.17,-78.79"/>
<polygon fill="midnightblue" stroke="midnightblue" points="163.06,-79.1 172.61,-74.51 162.29,-72.14 163.06,-79.1"/>
</g>
<!-- Node4 -->
<g id="node4" class="node">
<title>Node4</title>
<g id="a_node4"><a xlink:href="../../d0/dd3/classTUIO_1_1TuioObject.html#aff07c3707e176fc3a17595eb60f5fe5e" target="_top" xlink:title=" ">
<polygon fill="white" stroke="black" points="0,-38.5 0,-57.5 137,-57.5 137,-38.5 0,-38.5"/>
<text text-anchor="middle" x="68.5" y="-45.5" font-family="Helvetica,sans-Serif" font-size="10.00">TUIO::TuioObject::update</text>
</a>
</g>
</g>
<!-- Node1&#45;&gt;Node4 -->
<g id="edge3" class="edge">
<title>Node1&#45;&gt;Node4</title>
<path fill="none" stroke="midnightblue" d="M162.43,-58.36C154.02,-57.42 145.51,-56.47 137.23,-55.55"/>
<polygon fill="midnightblue" stroke="midnightblue" points="162.29,-61.86 172.61,-59.49 163.06,-54.9 162.29,-61.86"/>
</g>
<!-- Node5 -->
<g id="node5" class="node">
<title>Node5</title>
<g id="a_node5"><a xlink:href="../../d1/dcf/classTUIO_1_1TuioBlob.html#ab0b6b490ec665887424666f576118b3e" target="_top" xlink:title=" ">
<polygon fill="white" stroke="black" points="4.5,-0.5 4.5,-19.5 132.5,-19.5 132.5,-0.5 4.5,-0.5"/>
<text text-anchor="middle" x="68.5" y="-7.5" font-family="Helvetica,sans-Serif" font-size="10.00">TUIO::TuioBlob::update</text>
</a>
</g>
</g>
<!-- Node1&#45;&gt;Node5 -->
<g id="edge4" class="edge">
<title>Node1&#45;&gt;Node5</title>
<path fill="none" stroke="midnightblue" d="M191.36,-48.16C174.28,-41.78 154.88,-34.81 137,-29 126.81,-25.69 115.65,-22.41 105.39,-19.53"/>
<polygon fill="midnightblue" stroke="midnightblue" points="190.53,-51.59 201.13,-51.83 193,-45.03 190.53,-51.59"/>
</g>
</g>
</svg>
