<?xml version="1.0" encoding="UTF-8" standalone="no"?>
<!DOCTYPE svg PUBLIC "-//W3C//DTD SVG 1.1//EN"
 "http://www.w3.org/Graphics/SVG/1.1/DTD/svg11.dtd">
<!-- Generated by graphviz version 2.43.0 (0)
 -->
<!-- Title: TUIO::TuioTime::initSession Pages: 1 -->
<svg width="373pt" height="104pt"
 viewBox="0.00 0.00 373.00 104.00" xmlns="http://www.w3.org/2000/svg" xmlns:xlink="http://www.w3.org/1999/xlink">
<g id="graph0" class="graph" transform="scale(1 1) rotate(0) translate(4 100)">
<title>TUIO::TuioTime::initSession</title>
<polygon fill="white" stroke="transparent" points="-4,4 -4,-100 369,-100 369,4 -4,4"/>
<!-- Node1 -->
<g id="node1" class="node">
<title>Node1</title>
<g id="a_node1"><a xlink:title=" ">
<polygon fill="#bfbfbf" stroke="black" points="0,-38.5 0,-57.5 150,-57.5 150,-38.5 0,-38.5"/>
<text text-anchor="middle" x="75" y="-45.5" font-family="Helvetica,sans-Serif" font-size="10.00">TUIO::TuioTime::initSession</text>
</a>
</g>
</g>
<!-- Node2 -->
<g id="node2" class="node">
<title>Node2</title>
<g id="a_node2"><a xlink:href="../../d0/db2/classTUIO_1_1TuioTime.html#ac22179f91fb2c6c733c4fe78bbb99275" target="_top" xlink:title=" ">
<polygon fill="white" stroke="black" points="186,-76.5 186,-95.5 365,-95.5 365,-76.5 186,-76.5"/>
<text text-anchor="middle" x="275.5" y="-83.5" font-family="Helvetica,sans-Serif" font-size="10.00">TUIO::TuioTime::getMicroseconds</text>
</a>
</g>
</g>
<!-- Node1&#45;&gt;Node2 -->
<g id="edge1" class="edge">
<title>Node1&#45;&gt;Node2</title>
<path fill="none" stroke="midnightblue" d="M125.83,-57.54C152.73,-62.69 186.14,-69.08 214.46,-74.51"/>
<polygon fill="midnightblue" stroke="midnightblue" points="214.17,-78.01 224.65,-76.46 215.48,-71.14 214.17,-78.01"/>
</g>
<!-- Node3 -->
<g id="node3" class="node">
<title>Node3</title>
<g id="a_node3"><a xlink:href="../../d0/db2/classTUIO_1_1TuioTime.html#a4ad63c2210c47841c1e89be2664f300f" target="_top" xlink:title=" ">
<polygon fill="white" stroke="black" points="199,-38.5 199,-57.5 352,-57.5 352,-38.5 199,-38.5"/>
<text text-anchor="middle" x="275.5" y="-45.5" font-family="Helvetica,sans-Serif" font-size="10.00">TUIO::TuioTime::getSeconds</text>
</a>
</g>
</g>
<!-- Node1&#45;&gt;Node3 -->
<g id="edge2" class="edge">
<title>Node1&#45;&gt;Node3</title>
<path fill="none" stroke="midnightblue" d="M150.2,-48C162.71,-48 175.79,-48 188.57,-48"/>
<polygon fill="midnightblue" stroke="midnightblue" points="188.74,-51.5 198.74,-48 188.74,-44.5 188.74,-51.5"/>
</g>
<!-- Node4 -->
<g id="node4" class="node">
<title>Node4</title>
<g id="a_node4"><a xlink:href="../../d0/db2/classTUIO_1_1TuioTime.html#a65efe154e6b7c888c8d25cc3d2bded3e" target="_top" xlink:title=" ">
<polygon fill="white" stroke="black" points="188.5,-0.5 188.5,-19.5 362.5,-19.5 362.5,-0.5 188.5,-0.5"/>
<text text-anchor="middle" x="275.5" y="-7.5" font-family="Helvetica,sans-Serif" font-size="10.00">TUIO::TuioTime::getSystemTime</text>
</a>
</g>
</g>
<!-- Node1&#45;&gt;Node4 -->
<g id="edge3" class="edge">
<title>Node1&#45;&gt;Node4</title>
<path fill="none" stroke="midnightblue" d="M125.83,-38.46C152.73,-33.31 186.14,-26.92 214.46,-21.49"/>
<polygon fill="midnightblue" stroke="midnightblue" points="215.48,-24.86 224.65,-19.54 214.17,-17.99 215.48,-24.86"/>
</g>
</g>
</svg>
