<?xml version="1.0" encoding="UTF-8" standalone="no"?>
<!DOCTYPE svg PUBLIC "-//W3C//DTD SVG 1.1//EN"
 "http://www.w3.org/Graphics/SVG/1.1/DTD/svg11.dtd">
<!-- Generated by graphviz version 2.43.0 (0)
 -->
<!-- Title: TUIO::TuioTime::getMicroseconds Pages: 1 -->
<!--zoomable 218 -->
<svg id="main" version="1.1" xmlns="http://www.w3.org/2000/svg" xmlns:xlink="http://www.w3.org/1999/xlink" xml:space="preserve" onload="init(evt)">
<style type="text/css"><![CDATA[
.edge:hover path { stroke: red; }
.edge:hover polygon { stroke: red; fill: red; }
]]></style>
<script type="text/javascript"><![CDATA[
var edges = document.getElementsByTagName('g');
if (edges && edges.length) {
  for (var i=0;i<edges.length;i++) {
    if (edges[i].id.substr(0,4)=='edge') {
      edges[i].setAttribute('class','edge');
    }
  }
}
]]></script>
        <defs>
                <circle id="rim" cx="0" cy="0" r="7"/>
                <circle id="rim2" cx="0" cy="0" r="3.5"/>
                <g id="zoomPlus">
                        <use xlink:href="#rim" fill="#404040">
                                <set attributeName="fill" to="#808080" begin="zoomplus.mouseover" end="zoomplus.mouseout"/>
                        </use>
                        <path d="M-4,0h8M0,-4v8" fill="none" stroke="white" stroke-width="1.5" pointer-events="none"/>
                </g>
                <g id="zoomMin">
                        <use xlink:href="#rim" fill="#404040">
                                <set attributeName="fill" to="#808080" begin="zoomminus.mouseover" end="zoomminus.mouseout"/>
                        </use>
                        <path d="M-4,0h8" fill="none" stroke="white" stroke-width="1.5" pointer-events="none"/>
                </g>
                <g id="dirArrow">
                        <path fill="none" stroke="white" stroke-width="1.5" d="M0,-3.0v7 M-2.5,-0.5L0,-3.0L2.5,-0.5"/>
                </g>
               <g id="resetDef">
                       <use xlink:href="#rim2" fill="#404040">
                               <set attributeName="fill" to="#808080" begin="reset.mouseover" end="reset.mouseout"/>
                       </use>
               </g>
        </defs>

<script type="text/javascript">
var viewWidth = 553;
var viewHeight = 218;
var sectionId = 'dynsection-1';
</script>
<script xlink:href="../../svgpan.js"/>
<svg id="graph" class="graph">
<g id="viewport">
<title>TUIO::TuioTime::getMicroseconds</title>
<polygon fill="white" stroke="transparent" points="-4,4 -4,-214 549,-214 549,4 -4,4"/>
<!-- Node1 -->
<g id="node1" class="node">
<title>Node1</title>
<g id="a_node1"><a xlink:title=" ">
<polygon fill="#bfbfbf" stroke="black" points="366,-95.5 366,-114.5 545,-114.5 545,-95.5 366,-95.5"/>
<text text-anchor="middle" x="455.5" y="-102.5" font-family="Helvetica,sans-Serif" font-size="10.00">TUIO::TuioTime::getMicroseconds</text>
</a>
</g>
</g>
<!-- Node2 -->
<g id="node2" class="node">
<title>Node2</title>
<g id="a_node2"><a xlink:href="../../d0/db2/classTUIO_1_1TuioTime.html#a852026c3214217bd4ac47daa2071f588" target="_top" xlink:title=" ">
<polygon fill="white" stroke="black" points="177.5,-190.5 177.5,-209.5 327.5,-209.5 327.5,-190.5 177.5,-190.5"/>
<text text-anchor="middle" x="252.5" y="-197.5" font-family="Helvetica,sans-Serif" font-size="10.00">TUIO::TuioTime::initSession</text>
</a>
</g>
</g>
<!-- Node1&#45;&gt;Node2 -->
<g id="edge1" class="edge">
<title>Node1&#45;&gt;Node2</title>
<path fill="none" stroke="midnightblue" d="M433.46,-120.62C409.53,-137.71 368.75,-164.81 330,-181 321.03,-184.75 311.16,-187.88 301.57,-190.44"/>
<polygon fill="midnightblue" stroke="midnightblue" points="435.72,-123.31 441.76,-114.61 431.61,-117.64 435.72,-123.31"/>
</g>
<!-- Node4 -->
<g id="node4" class="node">
<title>Node4</title>
<g id="a_node4"><a xlink:href="../../d0/db2/classTUIO_1_1TuioTime.html#a0a3a35dd9f44212a40f14e65aa52daf6" target="_top" xlink:title=" ">
<polygon fill="white" stroke="black" points="177.5,-152.5 177.5,-171.5 327.5,-171.5 327.5,-152.5 177.5,-152.5"/>
<text text-anchor="middle" x="252.5" y="-159.5" font-family="Helvetica,sans-Serif" font-size="10.00">TUIO::TuioTime::operator!=</text>
</a>
</g>
</g>
<!-- Node1&#45;&gt;Node4 -->
<g id="edge3" class="edge">
<title>Node1&#45;&gt;Node4</title>
<path fill="none" stroke="midnightblue" d="M415.31,-117.54C390.87,-125.22 358.72,-135.06 330,-143 318.26,-146.25 305.44,-149.53 293.7,-152.44"/>
<polygon fill="midnightblue" stroke="midnightblue" points="416.46,-120.85 424.95,-114.5 414.36,-114.17 416.46,-120.85"/>
</g>
<!-- Node5 -->
<g id="node5" class="node">
<title>Node5</title>
<g id="a_node5"><a xlink:href="../../d0/db2/classTUIO_1_1TuioTime.html#ad0903c456360dd0a8599096f710e5e9d" target="_top" xlink:title=" ">
<polygon fill="white" stroke="black" points="179.5,-114.5 179.5,-133.5 325.5,-133.5 325.5,-114.5 179.5,-114.5"/>
<text text-anchor="middle" x="252.5" y="-121.5" font-family="Helvetica,sans-Serif" font-size="10.00">TUIO::TuioTime::operator+</text>
</a>
</g>
</g>
<!-- Node1&#45;&gt;Node5 -->
<g id="edge4" class="edge">
<title>Node1&#45;&gt;Node5</title>
<path fill="none" stroke="midnightblue" d="M355.7,-114.34C345.62,-115.29 335.52,-116.25 325.8,-117.17"/>
<polygon fill="midnightblue" stroke="midnightblue" points="356.13,-117.81 365.75,-113.39 355.47,-110.85 356.13,-117.81"/>
</g>
<!-- Node6 -->
<g id="node6" class="node">
<title>Node6</title>
<g id="a_node6"><a xlink:href="../../d0/db2/classTUIO_1_1TuioTime.html#a62cd56009e28df8d506c7247020d131c" target="_top" xlink:title=" ">
<polygon fill="white" stroke="black" points="181.5,-76.5 181.5,-95.5 323.5,-95.5 323.5,-76.5 181.5,-76.5"/>
<text text-anchor="middle" x="252.5" y="-83.5" font-family="Helvetica,sans-Serif" font-size="10.00">TUIO::TuioTime::operator&#45;</text>
</a>
</g>
</g>
<!-- Node1&#45;&gt;Node6 -->
<g id="edge5" class="edge">
<title>Node1&#45;&gt;Node6</title>
<path fill="none" stroke="midnightblue" d="M355.48,-95.64C344.73,-94.62 333.97,-93.61 323.67,-92.63"/>
<polygon fill="midnightblue" stroke="midnightblue" points="355.47,-99.15 365.75,-96.61 356.13,-92.19 355.47,-99.15"/>
</g>
<!-- Node7 -->
<g id="node7" class="node">
<title>Node7</title>
<g id="a_node7"><a xlink:href="../../d0/db2/classTUIO_1_1TuioTime.html#a9b321a0500ced851be17194731e12491" target="_top" xlink:title=" ">
<polygon fill="white" stroke="black" points="179.5,-38.5 179.5,-57.5 325.5,-57.5 325.5,-38.5 179.5,-38.5"/>
<text text-anchor="middle" x="252.5" y="-45.5" font-family="Helvetica,sans-Serif" font-size="10.00">TUIO::TuioTime::operator=</text>
</a>
</g>
</g>
<!-- Node1&#45;&gt;Node7 -->
<g id="edge6" class="edge">
<title>Node1&#45;&gt;Node7</title>
<path fill="none" stroke="midnightblue" d="M415.31,-92.46C390.87,-84.78 358.72,-74.94 330,-67 318.26,-63.75 305.44,-60.47 293.7,-57.56"/>
<polygon fill="midnightblue" stroke="midnightblue" points="414.36,-95.83 424.95,-95.5 416.46,-89.15 414.36,-95.83"/>
</g>
<!-- Node8 -->
<g id="node8" class="node">
<title>Node8</title>
<g id="a_node8"><a xlink:href="../../d0/db2/classTUIO_1_1TuioTime.html#a82fb879903d0226c672f8e54bf89ec6f" target="_top" xlink:title=" ">
<polygon fill="white" stroke="black" points="175,-0.5 175,-19.5 330,-19.5 330,-0.5 175,-0.5"/>
<text text-anchor="middle" x="252.5" y="-7.5" font-family="Helvetica,sans-Serif" font-size="10.00">TUIO::TuioTime::operator==</text>
</a>
</g>
</g>
<!-- Node1&#45;&gt;Node8 -->
<g id="edge7" class="edge">
<title>Node1&#45;&gt;Node8</title>
<path fill="none" stroke="midnightblue" d="M433.46,-89.38C409.53,-72.29 368.75,-45.19 330,-29 321.03,-25.25 311.16,-22.12 301.57,-19.56"/>
<polygon fill="midnightblue" stroke="midnightblue" points="431.61,-92.36 441.76,-95.39 435.72,-86.69 431.61,-92.36"/>
</g>
<!-- Node3 -->
<g id="node3" class="node">
<title>Node3</title>
<g id="a_node3"><a xlink:href="../../da/d8f/classTUIO_1_1TuioClient.html#a31a6f750e753d955ff298555ecf1270d" target="_top" xlink:title=" ">
<polygon fill="white" stroke="black" points="0,-190.5 0,-209.5 139,-209.5 139,-190.5 0,-190.5"/>
<text text-anchor="middle" x="69.5" y="-197.5" font-family="Helvetica,sans-Serif" font-size="10.00">TUIO::TuioClient::connect</text>
</a>
</g>
</g>
<!-- Node2&#45;&gt;Node3 -->
<g id="edge2" class="edge">
<title>Node2&#45;&gt;Node3</title>
<path fill="none" stroke="midnightblue" d="M167.25,-200C157.88,-200 148.43,-200 139.28,-200"/>
<polygon fill="midnightblue" stroke="midnightblue" points="167.36,-203.5 177.36,-200 167.36,-196.5 167.36,-203.5"/>
</g>
</g>
</svg>
        <g id="navigator" transform="translate(0 0)" fill="#404254">
                <rect fill="#f2f5e9" fill-opacity="0.5" stroke="#606060" stroke-width=".5" x="0" y="0" width="60" height="60"/>
                <use id="zoomplus" xlink:href="#zoomPlus" x="17" y="9" onmousedown="handleZoom(evt,'in')"/>
                <use id="zoomminus" xlink:href="#zoomMin" x="42" y="9" onmousedown="handleZoom(evt,'out')"/>
                <use id="reset" xlink:href="#resetDef" x="30" y="36" onmousedown="handleReset()"/>
                <g id="arrowUp" xlink:href="#dirArrow" transform="translate(30 24)" onmousedown="handlePan(0,-1)">
                  <use xlink:href="#rim" fill="#404040">
                        <set attributeName="fill" to="#808080" begin="arrowUp.mouseover" end="arrowUp.mouseout"/>
                  </use>
                  <path fill="none" stroke="white" stroke-width="1.5" d="M0,-3.0v7 M-2.5,-0.5L0,-3.0L2.5,-0.5"/>
                </g>
                <g id="arrowRight" xlink:href="#dirArrow" transform="rotate(90) translate(36 -43)" onmousedown="handlePan(1,0)">
                  <use xlink:href="#rim" fill="#404040">
                        <set attributeName="fill" to="#808080" begin="arrowRight.mouseover" end="arrowRight.mouseout"/>
                  </use>
                  <path fill="none" stroke="white" stroke-width="1.5" d="M0,-3.0v7 M-2.5,-0.5L0,-3.0L2.5,-0.5"/>
                </g>
                <g id="arrowDown" xlink:href="#dirArrow" transform="rotate(180) translate(-30 -48)" onmousedown="handlePan(0,1)">
                  <use xlink:href="#rim" fill="#404040">
                        <set attributeName="fill" to="#808080" begin="arrowDown.mouseover" end="arrowDown.mouseout"/>
                  </use>
                  <path fill="none" stroke="white" stroke-width="1.5" d="M0,-3.0v7 M-2.5,-0.5L0,-3.0L2.5,-0.5"/>
                </g>
                <g id="arrowLeft" xlink:href="#dirArrow" transform="rotate(270) translate(-36 17)" onmousedown="handlePan(-1,0)">
                  <use xlink:href="#rim" fill="#404040">
                        <set attributeName="fill" to="#808080" begin="arrowLeft.mouseover" end="arrowLeft.mouseout"/>
                  </use>
                  <path fill="none" stroke="white" stroke-width="1.5" d="M0,-3.0v7 M-2.5,-0.5L0,-3.0L2.5,-0.5"/>
                </g>
        </g>
        <svg viewBox="0 0 15 15" width="100%" height="30px" preserveAspectRatio="xMaxYMin meet">
         <g id="arrow_out" transform="scale(0.3 0.3)">
          <a xlink:href="classTUIO_1_1TuioTime_ac22179f91fb2c6c733c4fe78bbb99275_icgraph_org.svg" target="_base">
           <rect id="button" ry="5" rx="5" y="6" x="6" height="38" width="38"
                fill="#f2f5e9" fill-opacity="0.5" stroke="#606060" stroke-width="1.0"/>
           <path id="arrow"
             d="M 11.500037,31.436501 C 11.940474,20.09759 22.043105,11.32322 32.158766,21.979434 L 37.068811,17.246167 C 37.068811,17.246167 37.088388,32 37.088388,32 L 22.160133,31.978069 C 22.160133,31.978069 26.997745,27.140456 26.997745,27.140456 C 18.528582,18.264221 13.291696,25.230495 11.500037,31.436501 z"
             style="fill:#404040;"/>
          </a>
         </g>
        </svg>
</svg>
