<?xml version="1.0" encoding="UTF-8" standalone="no"?>
<!DOCTYPE svg PUBLIC "-//W3C//DTD SVG 1.1//EN"
 "http://www.w3.org/Graphics/SVG/1.1/DTD/svg11.dtd">
<!-- Generated by graphviz version 2.43.0 (0)
 -->
<!-- Title: TUIO::TuioTime::operator!= Pages: 1 -->
<svg width="373pt" height="66pt"
 viewBox="0.00 0.00 373.00 66.00" xmlns="http://www.w3.org/2000/svg" xmlns:xlink="http://www.w3.org/1999/xlink">
<g id="graph0" class="graph" transform="scale(1 1) rotate(0) translate(4 62)">
<title>TUIO::TuioTime::operator!=</title>
<polygon fill="white" stroke="transparent" points="-4,4 -4,-62 369,-62 369,4 -4,4"/>
<!-- Node1 -->
<g id="node1" class="node">
<title>Node1</title>
<g id="a_node1"><a xlink:title=" ">
<polygon fill="#bfbfbf" stroke="black" points="0,-19.5 0,-38.5 150,-38.5 150,-19.5 0,-19.5"/>
<text text-anchor="middle" x="75" y="-26.5" font-family="Helvetica,sans-Serif" font-size="10.00">TUIO::TuioTime::operator!=</text>
</a>
</g>
</g>
<!-- Node2 -->
<g id="node2" class="node">
<title>Node2</title>
<g id="a_node2"><a xlink:href="../../d0/db2/classTUIO_1_1TuioTime.html#ac22179f91fb2c6c733c4fe78bbb99275" target="_top" xlink:title=" ">
<polygon fill="white" stroke="black" points="186,-38.5 186,-57.5 365,-57.5 365,-38.5 186,-38.5"/>
<text text-anchor="middle" x="275.5" y="-45.5" font-family="Helvetica,sans-Serif" font-size="10.00">TUIO::TuioTime::getMicroseconds</text>
</a>
</g>
</g>
<!-- Node1&#45;&gt;Node2 -->
<g id="edge1" class="edge">
<title>Node1&#45;&gt;Node2</title>
<path fill="none" stroke="midnightblue" d="M150.2,-36.1C158.59,-36.9 167.23,-37.73 175.87,-38.56"/>
<polygon fill="midnightblue" stroke="midnightblue" points="175.71,-42.06 185.99,-39.53 176.37,-35.09 175.71,-42.06"/>
</g>
<!-- Node3 -->
<g id="node3" class="node">
<title>Node3</title>
<g id="a_node3"><a xlink:href="../../d0/db2/classTUIO_1_1TuioTime.html#a4ad63c2210c47841c1e89be2664f300f" target="_top" xlink:title=" ">
<polygon fill="white" stroke="black" points="199,-0.5 199,-19.5 352,-19.5 352,-0.5 199,-0.5"/>
<text text-anchor="middle" x="275.5" y="-7.5" font-family="Helvetica,sans-Serif" font-size="10.00">TUIO::TuioTime::getSeconds</text>
</a>
</g>
</g>
<!-- Node1&#45;&gt;Node3 -->
<g id="edge2" class="edge">
<title>Node1&#45;&gt;Node3</title>
<path fill="none" stroke="midnightblue" d="M150.2,-21.9C162.71,-20.7 175.79,-19.45 188.57,-18.23"/>
<polygon fill="midnightblue" stroke="midnightblue" points="189.12,-21.69 198.74,-17.25 188.45,-14.72 189.12,-21.69"/>
</g>
</g>
</svg>
