<?xml version="1.0" encoding="UTF-8" standalone="no"?>
<!DOCTYPE svg PUBLIC "-//W3C//DTD SVG 1.1//EN"
 "http://www.w3.org/Graphics/SVG/1.1/DTD/svg11.dtd">
<!-- Generated by graphviz version 2.43.0 (0)
 -->
<!-- Title: TUIO::TuioDispatcher::unlockBlobList Pages: 1 -->
<svg width="500pt" height="313pt"
 viewBox="0.00 0.00 500.00 312.50" xmlns="http://www.w3.org/2000/svg" xmlns:xlink="http://www.w3.org/1999/xlink">
<g id="graph0" class="graph" transform="scale(1 1) rotate(0) translate(4 308.5)">
<title>TUIO::TuioDispatcher::unlockBlobList</title>
<polygon fill="white" stroke="transparent" points="-4,4 -4,-308.5 496,-308.5 496,4 -4,4"/>
<!-- Node1 -->
<g id="node1" class="node">
<title>Node1</title>
<g id="a_node1"><a xlink:title=" ">
<polygon fill="#bfbfbf" stroke="black" points="373,-142.5 373,-172.5 492,-172.5 492,-142.5 373,-142.5"/>
<text text-anchor="start" x="381" y="-160.5" font-family="Helvetica,sans-Serif" font-size="10.00">TUIO::TuioDispatcher</text>
<text text-anchor="middle" x="432.5" y="-149.5" font-family="Helvetica,sans-Serif" font-size="10.00">::unlockBlobList</text>
</a>
</g>
</g>
<!-- Node2 -->
<g id="node2" class="node">
<title>Node2</title>
<g id="a_node2"><a xlink:href="../../da/d8f/classTUIO_1_1TuioClient.html#a31a6f750e753d955ff298555ecf1270d" target="_top" xlink:title=" ">
<polygon fill="white" stroke="black" points="188.5,-285 188.5,-304 327.5,-304 327.5,-285 188.5,-285"/>
<text text-anchor="middle" x="258" y="-292" font-family="Helvetica,sans-Serif" font-size="10.00">TUIO::TuioClient::connect</text>
</a>
</g>
</g>
<!-- Node1&#45;&gt;Node2 -->
<g id="edge1" class="edge">
<title>Node1&#45;&gt;Node2</title>
<path fill="none" stroke="midnightblue" d="M418.66,-181.7C403.01,-208.77 374.03,-251.91 337,-275.5 330.89,-279.39 324.04,-282.49 317.01,-284.95"/>
<polygon fill="midnightblue" stroke="midnightblue" points="421.78,-183.28 423.63,-172.85 415.68,-179.85 421.78,-183.28"/>
</g>
<!-- Node3 -->
<g id="node3" class="node">
<title>Node3</title>
<g id="a_node3"><a xlink:href="../../d4/dc1/classTUIO_1_1TuioDispatcher.html#afbd82612e781916aa025555ca71fc459" target="_top" xlink:title=" ">
<polygon fill="white" stroke="black" points="198.5,-235.5 198.5,-265.5 317.5,-265.5 317.5,-235.5 198.5,-235.5"/>
<text text-anchor="start" x="206.5" y="-253.5" font-family="Helvetica,sans-Serif" font-size="10.00">TUIO::TuioDispatcher</text>
<text text-anchor="middle" x="258" y="-242.5" font-family="Helvetica,sans-Serif" font-size="10.00">::copyTuioBlobs</text>
</a>
</g>
</g>
<!-- Node1&#45;&gt;Node3 -->
<g id="edge2" class="edge">
<title>Node1&#45;&gt;Node3</title>
<path fill="none" stroke="midnightblue" d="M406.73,-179.16C388.48,-194.18 362.51,-213.71 337,-226.5 330.41,-229.8 323.28,-232.75 316.11,-235.36"/>
<polygon fill="midnightblue" stroke="midnightblue" points="409.12,-181.72 414.53,-172.61 404.62,-176.35 409.12,-181.72"/>
</g>
<!-- Node5 -->
<g id="node5" class="node">
<title>Node5</title>
<g id="a_node5"><a xlink:href="../../da/d8f/classTUIO_1_1TuioClient.html#a8b7c667d80d8dac1500c3c10037fdbb9" target="_top" xlink:title=" ">
<polygon fill="white" stroke="black" points="186.5,-186.5 186.5,-216.5 329.5,-216.5 329.5,-186.5 186.5,-186.5"/>
<text text-anchor="start" x="194.5" y="-204.5" font-family="Helvetica,sans-Serif" font-size="10.00">TUIO::TuioClient::copyTuio</text>
<text text-anchor="middle" x="258" y="-193.5" font-family="Helvetica,sans-Serif" font-size="10.00">Blobs</text>
</a>
</g>
</g>
<!-- Node1&#45;&gt;Node5 -->
<g id="edge4" class="edge">
<title>Node1&#45;&gt;Node5</title>
<path fill="none" stroke="midnightblue" d="M362.52,-175.09C347.75,-178.86 332.26,-182.81 317.91,-186.47"/>
<polygon fill="midnightblue" stroke="midnightblue" points="363.79,-178.38 372.62,-172.52 362.06,-171.6 363.79,-178.38"/>
</g>
<!-- Node6 -->
<g id="node6" class="node">
<title>Node6</title>
<g id="a_node6"><a xlink:href="../../da/d8f/classTUIO_1_1TuioClient.html#a7d9e62d3000adafcd87d925b43aa6b8d" target="_top" xlink:title=" ">
<polygon fill="white" stroke="black" points="179,-148 179,-167 337,-167 337,-148 179,-148"/>
<text text-anchor="middle" x="258" y="-155" font-family="Helvetica,sans-Serif" font-size="10.00">TUIO::TuioClient::getTuioBlob</text>
</a>
</g>
</g>
<!-- Node1&#45;&gt;Node6 -->
<g id="edge5" class="edge">
<title>Node1&#45;&gt;Node6</title>
<path fill="none" stroke="midnightblue" d="M362.56,-157.5C354.2,-157.5 345.62,-157.5 337.14,-157.5"/>
<polygon fill="midnightblue" stroke="midnightblue" points="362.62,-161 372.62,-157.5 362.62,-154 362.62,-161"/>
</g>
<!-- Node7 -->
<g id="node7" class="node">
<title>Node7</title>
<g id="a_node7"><a xlink:href="../../d4/dc1/classTUIO_1_1TuioDispatcher.html#abb98c6cdf849a800c7d636fd925e1692" target="_top" xlink:title=" ">
<polygon fill="white" stroke="black" points="198.5,-98.5 198.5,-128.5 317.5,-128.5 317.5,-98.5 198.5,-98.5"/>
<text text-anchor="start" x="206.5" y="-116.5" font-family="Helvetica,sans-Serif" font-size="10.00">TUIO::TuioDispatcher</text>
<text text-anchor="middle" x="258" y="-105.5" font-family="Helvetica,sans-Serif" font-size="10.00">::getTuioBlob</text>
</a>
</g>
</g>
<!-- Node1&#45;&gt;Node7 -->
<g id="edge6" class="edge">
<title>Node1&#45;&gt;Node7</title>
<path fill="none" stroke="midnightblue" d="M362.89,-140C347.91,-136.18 332.17,-132.16 317.62,-128.45"/>
<polygon fill="midnightblue" stroke="midnightblue" points="362.06,-143.4 372.62,-142.48 363.79,-136.62 362.06,-143.4"/>
</g>
<!-- Node8 -->
<g id="node8" class="node">
<title>Node8</title>
<g id="a_node8"><a xlink:href="../../d4/dc1/classTUIO_1_1TuioDispatcher.html#a5ddcebe50d6a8c361e54287c23b3be36" target="_top" xlink:title=" ">
<polygon fill="white" stroke="black" points="198.5,-49.5 198.5,-79.5 317.5,-79.5 317.5,-49.5 198.5,-49.5"/>
<text text-anchor="start" x="206.5" y="-67.5" font-family="Helvetica,sans-Serif" font-size="10.00">TUIO::TuioDispatcher</text>
<text text-anchor="middle" x="258" y="-56.5" font-family="Helvetica,sans-Serif" font-size="10.00">::getTuioBlobs</text>
</a>
</g>
</g>
<!-- Node1&#45;&gt;Node8 -->
<g id="edge7" class="edge">
<title>Node1&#45;&gt;Node8</title>
<path fill="none" stroke="midnightblue" d="M406.73,-135.84C388.48,-120.82 362.51,-101.29 337,-88.5 330.41,-85.2 323.28,-82.25 316.11,-79.64"/>
<polygon fill="midnightblue" stroke="midnightblue" points="404.62,-138.65 414.53,-142.39 409.12,-133.28 404.62,-138.65"/>
</g>
<!-- Node10 -->
<g id="node10" class="node">
<title>Node10</title>
<g id="a_node10"><a xlink:href="../../da/d8f/classTUIO_1_1TuioClient.html#a80eb74489644d710f9f926a8b77d7a51" target="_top" xlink:title=" ">
<polygon fill="white" stroke="black" points="190,-0.5 190,-30.5 326,-30.5 326,-0.5 190,-0.5"/>
<text text-anchor="start" x="198" y="-18.5" font-family="Helvetica,sans-Serif" font-size="10.00">TUIO::TuioClient::getTuio</text>
<text text-anchor="middle" x="258" y="-7.5" font-family="Helvetica,sans-Serif" font-size="10.00">Blobs</text>
</a>
</g>
</g>
<!-- Node1&#45;&gt;Node10 -->
<g id="edge9" class="edge">
<title>Node1&#45;&gt;Node10</title>
<path fill="none" stroke="midnightblue" d="M418.4,-133.7C402.52,-106.99 373.31,-64.18 337,-39.5 331.96,-36.08 326.42,-33.12 320.67,-30.58"/>
<polygon fill="midnightblue" stroke="midnightblue" points="415.41,-135.52 423.45,-142.42 421.47,-132.01 415.41,-135.52"/>
</g>
<!-- Node4 -->
<g id="node4" class="node">
<title>Node4</title>
<g id="a_node4"><a xlink:href="../../da/d8f/classTUIO_1_1TuioClient.html#a997133d1a00f6e13cf35a718b1d6f164" target="_top" xlink:title=" ">
<polygon fill="white" stroke="black" points="0,-235.5 0,-265.5 143,-265.5 143,-235.5 0,-235.5"/>
<text text-anchor="start" x="8" y="-253.5" font-family="Helvetica,sans-Serif" font-size="10.00">TUIO::TuioClient::copyTuio</text>
<text text-anchor="middle" x="71.5" y="-242.5" font-family="Helvetica,sans-Serif" font-size="10.00">Blobs</text>
</a>
</g>
</g>
<!-- Node3&#45;&gt;Node4 -->
<g id="edge3" class="edge">
<title>Node3&#45;&gt;Node4</title>
<path fill="none" stroke="midnightblue" d="M188.34,-250.5C173.62,-250.5 158.05,-250.5 143.26,-250.5"/>
<polygon fill="midnightblue" stroke="midnightblue" points="188.37,-254 198.37,-250.5 188.37,-247 188.37,-254"/>
</g>
<!-- Node9 -->
<g id="node9" class="node">
<title>Node9</title>
<g id="a_node9"><a xlink:href="../../da/d8f/classTUIO_1_1TuioClient.html#a9513b90e68c984a7f949534da40d69ff" target="_top" xlink:title=" ">
<polygon fill="white" stroke="black" points="3.5,-49.5 3.5,-79.5 139.5,-79.5 139.5,-49.5 3.5,-49.5"/>
<text text-anchor="start" x="11.5" y="-67.5" font-family="Helvetica,sans-Serif" font-size="10.00">TUIO::TuioClient::getTuio</text>
<text text-anchor="middle" x="71.5" y="-56.5" font-family="Helvetica,sans-Serif" font-size="10.00">Blobs</text>
</a>
</g>
</g>
<!-- Node8&#45;&gt;Node9 -->
<g id="edge8" class="edge">
<title>Node8&#45;&gt;Node9</title>
<path fill="none" stroke="midnightblue" d="M188.12,-64.5C172.27,-64.5 155.43,-64.5 139.66,-64.5"/>
<polygon fill="midnightblue" stroke="midnightblue" points="188.37,-68 198.37,-64.5 188.37,-61 188.37,-68"/>
</g>
</g>
</svg>
