<?xml version="1.0" encoding="UTF-8" standalone="no"?>
<!DOCTYPE svg PUBLIC "-//W3C//DTD SVG 1.1//EN"
 "http://www.w3.org/Graphics/SVG/1.1/DTD/svg11.dtd">
<!-- Generated by graphviz version 2.43.0 (0)
 -->
<!-- Title: TUIO::TuioDispatcher::lockBlobList Pages: 1 -->
<svg width="500pt" height="274pt"
 viewBox="0.00 0.00 500.00 274.00" xmlns="http://www.w3.org/2000/svg" xmlns:xlink="http://www.w3.org/1999/xlink">
<g id="graph0" class="graph" transform="scale(1 1) rotate(0) translate(4 270)">
<title>TUIO::TuioDispatcher::lockBlobList</title>
<polygon fill="white" stroke="transparent" points="-4,4 -4,-270 496,-270 496,4 -4,4"/>
<!-- Node1 -->
<g id="node1" class="node">
<title>Node1</title>
<g id="a_node1"><a xlink:title=" ">
<polygon fill="#bfbfbf" stroke="black" points="373,-120.5 373,-150.5 492,-150.5 492,-120.5 373,-120.5"/>
<text text-anchor="start" x="381" y="-138.5" font-family="Helvetica,sans-Serif" font-size="10.00">TUIO::TuioDispatcher</text>
<text text-anchor="middle" x="432.5" y="-127.5" font-family="Helvetica,sans-Serif" font-size="10.00">::lockBlobList</text>
</a>
</g>
</g>
<!-- Node2 -->
<g id="node2" class="node">
<title>Node2</title>
<g id="a_node2"><a xlink:href="../../d4/dc1/classTUIO_1_1TuioDispatcher.html#afbd82612e781916aa025555ca71fc459" target="_top" xlink:title=" ">
<polygon fill="white" stroke="black" points="198.5,-235.5 198.5,-265.5 317.5,-265.5 317.5,-235.5 198.5,-235.5"/>
<text text-anchor="start" x="206.5" y="-253.5" font-family="Helvetica,sans-Serif" font-size="10.00">TUIO::TuioDispatcher</text>
<text text-anchor="middle" x="258" y="-242.5" font-family="Helvetica,sans-Serif" font-size="10.00">::copyTuioBlobs</text>
</a>
</g>
</g>
<!-- Node1&#45;&gt;Node2 -->
<g id="edge1" class="edge">
<title>Node1&#45;&gt;Node2</title>
<path fill="none" stroke="midnightblue" d="M413.07,-158.57C395.53,-179.12 367.35,-208.61 337,-226.5 331.02,-230.02 324.47,-233.08 317.79,-235.71"/>
<polygon fill="midnightblue" stroke="midnightblue" points="415.97,-160.56 419.7,-150.64 410.6,-156.07 415.97,-160.56"/>
</g>
<!-- Node4 -->
<g id="node4" class="node">
<title>Node4</title>
<g id="a_node4"><a xlink:href="../../da/d8f/classTUIO_1_1TuioClient.html#a8b7c667d80d8dac1500c3c10037fdbb9" target="_top" xlink:title=" ">
<polygon fill="white" stroke="black" points="186.5,-186.5 186.5,-216.5 329.5,-216.5 329.5,-186.5 186.5,-186.5"/>
<text text-anchor="start" x="194.5" y="-204.5" font-family="Helvetica,sans-Serif" font-size="10.00">TUIO::TuioClient::copyTuio</text>
<text text-anchor="middle" x="258" y="-193.5" font-family="Helvetica,sans-Serif" font-size="10.00">Blobs</text>
</a>
</g>
</g>
<!-- Node1&#45;&gt;Node4 -->
<g id="edge3" class="edge">
<title>Node1&#45;&gt;Node4</title>
<path fill="none" stroke="midnightblue" d="M389.76,-154.67C373.45,-161.88 354.49,-169.92 337,-176.5 327.82,-179.95 317.92,-183.36 308.35,-186.5"/>
<polygon fill="midnightblue" stroke="midnightblue" points="391.32,-157.81 399.03,-150.54 388.47,-151.41 391.32,-157.81"/>
</g>
<!-- Node5 -->
<g id="node5" class="node">
<title>Node5</title>
<g id="a_node5"><a xlink:href="../../da/d8f/classTUIO_1_1TuioClient.html#a7d9e62d3000adafcd87d925b43aa6b8d" target="_top" xlink:title=" ">
<polygon fill="white" stroke="black" points="179,-148 179,-167 337,-167 337,-148 179,-148"/>
<text text-anchor="middle" x="258" y="-155" font-family="Helvetica,sans-Serif" font-size="10.00">TUIO::TuioClient::getTuioBlob</text>
</a>
</g>
</g>
<!-- Node1&#45;&gt;Node5 -->
<g id="edge4" class="edge">
<title>Node1&#45;&gt;Node5</title>
<path fill="none" stroke="midnightblue" d="M362.5,-144.3C353.06,-145.5 343.33,-146.75 333.78,-147.96"/>
<polygon fill="midnightblue" stroke="midnightblue" points="363.14,-147.75 372.62,-143.01 362.26,-140.8 363.14,-147.75"/>
</g>
<!-- Node6 -->
<g id="node6" class="node">
<title>Node6</title>
<g id="a_node6"><a xlink:href="../../d4/dc1/classTUIO_1_1TuioDispatcher.html#abb98c6cdf849a800c7d636fd925e1692" target="_top" xlink:title=" ">
<polygon fill="white" stroke="black" points="198.5,-98.5 198.5,-128.5 317.5,-128.5 317.5,-98.5 198.5,-98.5"/>
<text text-anchor="start" x="206.5" y="-116.5" font-family="Helvetica,sans-Serif" font-size="10.00">TUIO::TuioDispatcher</text>
<text text-anchor="middle" x="258" y="-105.5" font-family="Helvetica,sans-Serif" font-size="10.00">::getTuioBlob</text>
</a>
</g>
</g>
<!-- Node1&#45;&gt;Node6 -->
<g id="edge5" class="edge">
<title>Node1&#45;&gt;Node6</title>
<path fill="none" stroke="midnightblue" d="M362.47,-126.7C347.61,-124.8 332.04,-122.81 317.62,-120.98"/>
<polygon fill="midnightblue" stroke="midnightblue" points="362.26,-130.2 372.62,-127.99 363.14,-123.25 362.26,-130.2"/>
</g>
<!-- Node7 -->
<g id="node7" class="node">
<title>Node7</title>
<g id="a_node7"><a xlink:href="../../d4/dc1/classTUIO_1_1TuioDispatcher.html#a5ddcebe50d6a8c361e54287c23b3be36" target="_top" xlink:title=" ">
<polygon fill="white" stroke="black" points="198.5,-49.5 198.5,-79.5 317.5,-79.5 317.5,-49.5 198.5,-49.5"/>
<text text-anchor="start" x="206.5" y="-67.5" font-family="Helvetica,sans-Serif" font-size="10.00">TUIO::TuioDispatcher</text>
<text text-anchor="middle" x="258" y="-56.5" font-family="Helvetica,sans-Serif" font-size="10.00">::getTuioBlobs</text>
</a>
</g>
</g>
<!-- Node1&#45;&gt;Node7 -->
<g id="edge6" class="edge">
<title>Node1&#45;&gt;Node7</title>
<path fill="none" stroke="midnightblue" d="M394.77,-115.49C377.53,-106.55 356.53,-96.3 337,-88.5 329.11,-85.35 320.63,-82.35 312.27,-79.62"/>
<polygon fill="midnightblue" stroke="midnightblue" points="393.45,-118.74 403.93,-120.29 396.7,-112.55 393.45,-118.74"/>
</g>
<!-- Node9 -->
<g id="node9" class="node">
<title>Node9</title>
<g id="a_node9"><a xlink:href="../../da/d8f/classTUIO_1_1TuioClient.html#a80eb74489644d710f9f926a8b77d7a51" target="_top" xlink:title=" ">
<polygon fill="white" stroke="black" points="190,-0.5 190,-30.5 326,-30.5 326,-0.5 190,-0.5"/>
<text text-anchor="start" x="198" y="-18.5" font-family="Helvetica,sans-Serif" font-size="10.00">TUIO::TuioClient::getTuio</text>
<text text-anchor="middle" x="258" y="-7.5" font-family="Helvetica,sans-Serif" font-size="10.00">Blobs</text>
</a>
</g>
</g>
<!-- Node1&#45;&gt;Node9 -->
<g id="edge8" class="edge">
<title>Node1&#45;&gt;Node9</title>
<path fill="none" stroke="midnightblue" d="M414.16,-112.14C396.87,-90.41 368.41,-58.58 337,-39.5 331.43,-36.12 325.34,-33.17 319.11,-30.62"/>
<polygon fill="midnightblue" stroke="midnightblue" points="411.53,-114.47 420.44,-120.21 417.06,-110.17 411.53,-114.47"/>
</g>
<!-- Node3 -->
<g id="node3" class="node">
<title>Node3</title>
<g id="a_node3"><a xlink:href="../../da/d8f/classTUIO_1_1TuioClient.html#a997133d1a00f6e13cf35a718b1d6f164" target="_top" xlink:title=" ">
<polygon fill="white" stroke="black" points="0,-235.5 0,-265.5 143,-265.5 143,-235.5 0,-235.5"/>
<text text-anchor="start" x="8" y="-253.5" font-family="Helvetica,sans-Serif" font-size="10.00">TUIO::TuioClient::copyTuio</text>
<text text-anchor="middle" x="71.5" y="-242.5" font-family="Helvetica,sans-Serif" font-size="10.00">Blobs</text>
</a>
</g>
</g>
<!-- Node2&#45;&gt;Node3 -->
<g id="edge2" class="edge">
<title>Node2&#45;&gt;Node3</title>
<path fill="none" stroke="midnightblue" d="M188.34,-250.5C173.62,-250.5 158.05,-250.5 143.26,-250.5"/>
<polygon fill="midnightblue" stroke="midnightblue" points="188.37,-254 198.37,-250.5 188.37,-247 188.37,-254"/>
</g>
<!-- Node8 -->
<g id="node8" class="node">
<title>Node8</title>
<g id="a_node8"><a xlink:href="../../da/d8f/classTUIO_1_1TuioClient.html#a9513b90e68c984a7f949534da40d69ff" target="_top" xlink:title=" ">
<polygon fill="white" stroke="black" points="3.5,-49.5 3.5,-79.5 139.5,-79.5 139.5,-49.5 3.5,-49.5"/>
<text text-anchor="start" x="11.5" y="-67.5" font-family="Helvetica,sans-Serif" font-size="10.00">TUIO::TuioClient::getTuio</text>
<text text-anchor="middle" x="71.5" y="-56.5" font-family="Helvetica,sans-Serif" font-size="10.00">Blobs</text>
</a>
</g>
</g>
<!-- Node7&#45;&gt;Node8 -->
<g id="edge7" class="edge">
<title>Node7&#45;&gt;Node8</title>
<path fill="none" stroke="midnightblue" d="M188.12,-64.5C172.27,-64.5 155.43,-64.5 139.66,-64.5"/>
<polygon fill="midnightblue" stroke="midnightblue" points="188.37,-68 198.37,-64.5 188.37,-61 188.37,-68"/>
</g>
</g>
</svg>
