<?xml version="1.0" encoding="UTF-8" standalone="no"?>
<!DOCTYPE svg PUBLIC "-//W3C//DTD SVG 1.1//EN"
 "http://www.w3.org/Graphics/SVG/1.1/DTD/svg11.dtd">
<!-- Generated by graphviz version 2.43.0 (0)
 -->
<!-- Title: TUIO::TuioDispatcher::unlockObjectList Pages: 1 -->
<svg width="485pt" height="323pt"
 viewBox="0.00 0.00 485.00 322.50" xmlns="http://www.w3.org/2000/svg" xmlns:xlink="http://www.w3.org/1999/xlink">
<g id="graph0" class="graph" transform="scale(1 1) rotate(0) translate(4 318.5)">
<title>TUIO::TuioDispatcher::unlockObjectList</title>
<polygon fill="white" stroke="transparent" points="-4,4 -4,-318.5 481,-318.5 481,4 -4,4"/>
<!-- Node1 -->
<g id="node1" class="node">
<title>Node1</title>
<g id="a_node1"><a xlink:title=" ">
<polygon fill="#bfbfbf" stroke="black" points="358,-147.5 358,-177.5 477,-177.5 477,-147.5 358,-147.5"/>
<text text-anchor="start" x="366" y="-165.5" font-family="Helvetica,sans-Serif" font-size="10.00">TUIO::TuioDispatcher</text>
<text text-anchor="middle" x="417.5" y="-154.5" font-family="Helvetica,sans-Serif" font-size="10.00">::unlockObjectList</text>
</a>
</g>
</g>
<!-- Node2 -->
<g id="node2" class="node">
<title>Node2</title>
<g id="a_node2"><a xlink:href="../../da/d8f/classTUIO_1_1TuioClient.html#a31a6f750e753d955ff298555ecf1270d" target="_top" xlink:title=" ">
<polygon fill="white" stroke="black" points="181,-295 181,-314 320,-314 320,-295 181,-295"/>
<text text-anchor="middle" x="250.5" y="-302" font-family="Helvetica,sans-Serif" font-size="10.00">TUIO::TuioClient::connect</text>
</a>
</g>
</g>
<!-- Node1&#45;&gt;Node2 -->
<g id="edge1" class="edge">
<title>Node1&#45;&gt;Node2</title>
<path fill="none" stroke="midnightblue" d="M404.3,-186.66C388.92,-214.66 359.84,-260.19 322,-285.5 316.2,-289.38 309.65,-292.46 302.92,-294.92"/>
<polygon fill="midnightblue" stroke="midnightblue" points="407.54,-188.02 409.16,-177.55 401.37,-184.73 407.54,-188.02"/>
</g>
<!-- Node3 -->
<g id="node3" class="node">
<title>Node3</title>
<g id="a_node3"><a xlink:href="../../d4/dc1/classTUIO_1_1TuioDispatcher.html#a8bf67e3709379b154fa8e79ec72701aa" target="_top" xlink:title=" ">
<polygon fill="white" stroke="black" points="191,-245.5 191,-275.5 310,-275.5 310,-245.5 191,-245.5"/>
<text text-anchor="start" x="199" y="-263.5" font-family="Helvetica,sans-Serif" font-size="10.00">TUIO::TuioDispatcher</text>
<text text-anchor="middle" x="250.5" y="-252.5" font-family="Helvetica,sans-Serif" font-size="10.00">::copyTuioObjects</text>
</a>
</g>
</g>
<!-- Node1&#45;&gt;Node3 -->
<g id="edge2" class="edge">
<title>Node1&#45;&gt;Node3</title>
<path fill="none" stroke="midnightblue" d="M392.87,-184.7C374.65,-200.86 348.22,-222.3 322,-236.5 315.86,-239.82 309.17,-242.81 302.44,-245.46"/>
<polygon fill="midnightblue" stroke="midnightblue" points="395.55,-187 400.63,-177.7 390.86,-181.8 395.55,-187"/>
</g>
<!-- Node5 -->
<g id="node5" class="node">
<title>Node5</title>
<g id="a_node5"><a xlink:href="../../da/d8f/classTUIO_1_1TuioClient.html#ad780ef7e0f97d020cb9a30c436080a09" target="_top" xlink:title=" ">
<polygon fill="white" stroke="black" points="179,-196.5 179,-226.5 322,-226.5 322,-196.5 179,-196.5"/>
<text text-anchor="start" x="187" y="-214.5" font-family="Helvetica,sans-Serif" font-size="10.00">TUIO::TuioClient::copyTuio</text>
<text text-anchor="middle" x="250.5" y="-203.5" font-family="Helvetica,sans-Serif" font-size="10.00">Objects</text>
</a>
</g>
</g>
<!-- Node1&#45;&gt;Node5 -->
<g id="edge4" class="edge">
<title>Node1&#45;&gt;Node5</title>
<path fill="none" stroke="midnightblue" d="M356,-180.47C338.32,-185.72 319.19,-191.4 302.18,-196.45"/>
<polygon fill="midnightblue" stroke="midnightblue" points="357.06,-183.8 365.65,-177.6 355.07,-177.09 357.06,-183.8"/>
</g>
<!-- Node6 -->
<g id="node6" class="node">
<title>Node6</title>
<g id="a_node6"><a xlink:href="../../da/d8f/classTUIO_1_1TuioClient.html#abf76327645ac8c08ace6fc018df5838e" target="_top" xlink:title=" ">
<polygon fill="white" stroke="black" points="182.5,-147.5 182.5,-177.5 318.5,-177.5 318.5,-147.5 182.5,-147.5"/>
<text text-anchor="start" x="190.5" y="-165.5" font-family="Helvetica,sans-Serif" font-size="10.00">TUIO::TuioClient::getTuio</text>
<text text-anchor="middle" x="250.5" y="-154.5" font-family="Helvetica,sans-Serif" font-size="10.00">Object</text>
</a>
</g>
</g>
<!-- Node1&#45;&gt;Node6 -->
<g id="edge5" class="edge">
<title>Node1&#45;&gt;Node6</title>
<path fill="none" stroke="midnightblue" d="M347.6,-162.5C338.03,-162.5 328.21,-162.5 318.67,-162.5"/>
<polygon fill="midnightblue" stroke="midnightblue" points="347.86,-166 357.86,-162.5 347.86,-159 347.86,-166"/>
</g>
<!-- Node7 -->
<g id="node7" class="node">
<title>Node7</title>
<g id="a_node7"><a xlink:href="../../d4/dc1/classTUIO_1_1TuioDispatcher.html#a6744a23752deddf8910c68a55f94e040" target="_top" xlink:title=" ">
<polygon fill="white" stroke="black" points="191,-98.5 191,-128.5 310,-128.5 310,-98.5 191,-98.5"/>
<text text-anchor="start" x="199" y="-116.5" font-family="Helvetica,sans-Serif" font-size="10.00">TUIO::TuioDispatcher</text>
<text text-anchor="middle" x="250.5" y="-105.5" font-family="Helvetica,sans-Serif" font-size="10.00">::getTuioObject</text>
</a>
</g>
</g>
<!-- Node1&#45;&gt;Node7 -->
<g id="edge6" class="edge">
<title>Node1&#45;&gt;Node7</title>
<path fill="none" stroke="midnightblue" d="M356,-144.53C338.32,-139.28 319.19,-133.6 302.18,-128.55"/>
<polygon fill="midnightblue" stroke="midnightblue" points="355.07,-147.91 365.65,-147.4 357.06,-141.2 355.07,-147.91"/>
</g>
<!-- Node8 -->
<g id="node8" class="node">
<title>Node8</title>
<g id="a_node8"><a xlink:href="../../d4/dc1/classTUIO_1_1TuioDispatcher.html#ad12279b4d662eb77ea8107bc5a5cac42" target="_top" xlink:title=" ">
<polygon fill="white" stroke="black" points="191,-49.5 191,-79.5 310,-79.5 310,-49.5 191,-49.5"/>
<text text-anchor="start" x="199" y="-67.5" font-family="Helvetica,sans-Serif" font-size="10.00">TUIO::TuioDispatcher</text>
<text text-anchor="middle" x="250.5" y="-56.5" font-family="Helvetica,sans-Serif" font-size="10.00">::getTuioObjects</text>
</a>
</g>
</g>
<!-- Node1&#45;&gt;Node8 -->
<g id="edge7" class="edge">
<title>Node1&#45;&gt;Node8</title>
<path fill="none" stroke="midnightblue" d="M392.87,-140.3C374.65,-124.14 348.22,-102.7 322,-88.5 315.86,-85.18 309.17,-82.19 302.44,-79.54"/>
<polygon fill="midnightblue" stroke="midnightblue" points="390.86,-143.2 400.63,-147.3 395.55,-138 390.86,-143.2"/>
</g>
<!-- Node10 -->
<g id="node10" class="node">
<title>Node10</title>
<g id="a_node10"><a xlink:href="../../da/d8f/classTUIO_1_1TuioClient.html#add32552b6ca36fd595fab795075244be" target="_top" xlink:title=" ">
<polygon fill="white" stroke="black" points="182.5,-0.5 182.5,-30.5 318.5,-30.5 318.5,-0.5 182.5,-0.5"/>
<text text-anchor="start" x="190.5" y="-18.5" font-family="Helvetica,sans-Serif" font-size="10.00">TUIO::TuioClient::getTuio</text>
<text text-anchor="middle" x="250.5" y="-7.5" font-family="Helvetica,sans-Serif" font-size="10.00">Objects</text>
</a>
</g>
</g>
<!-- Node1&#45;&gt;Node10 -->
<g id="edge9" class="edge">
<title>Node1&#45;&gt;Node10</title>
<path fill="none" stroke="midnightblue" d="M403.76,-138.32C388.04,-110.68 358.81,-65.88 322,-39.5 317.27,-36.11 312.03,-33.17 306.59,-30.63"/>
<polygon fill="midnightblue" stroke="midnightblue" points="400.84,-140.27 408.75,-147.32 406.96,-136.87 400.84,-140.27"/>
</g>
<!-- Node4 -->
<g id="node4" class="node">
<title>Node4</title>
<g id="a_node4"><a xlink:href="../../da/d8f/classTUIO_1_1TuioClient.html#afd6a6c84cebfb1ac69f488c7ae7f6473" target="_top" xlink:title=" ">
<polygon fill="white" stroke="black" points="0,-245.5 0,-275.5 143,-275.5 143,-245.5 0,-245.5"/>
<text text-anchor="start" x="8" y="-263.5" font-family="Helvetica,sans-Serif" font-size="10.00">TUIO::TuioClient::copyTuio</text>
<text text-anchor="middle" x="71.5" y="-252.5" font-family="Helvetica,sans-Serif" font-size="10.00">Objects</text>
</a>
</g>
</g>
<!-- Node3&#45;&gt;Node4 -->
<g id="edge3" class="edge">
<title>Node3&#45;&gt;Node4</title>
<path fill="none" stroke="midnightblue" d="M180.43,-260.5C168.2,-260.5 155.44,-260.5 143.16,-260.5"/>
<polygon fill="midnightblue" stroke="midnightblue" points="180.56,-264 190.56,-260.5 180.56,-257 180.56,-264"/>
</g>
<!-- Node9 -->
<g id="node9" class="node">
<title>Node9</title>
<g id="a_node9"><a xlink:href="../../da/d8f/classTUIO_1_1TuioClient.html#ad9d968142e2e6d9639b685152ee2cf1b" target="_top" xlink:title=" ">
<polygon fill="white" stroke="black" points="3.5,-49.5 3.5,-79.5 139.5,-79.5 139.5,-49.5 3.5,-49.5"/>
<text text-anchor="start" x="11.5" y="-67.5" font-family="Helvetica,sans-Serif" font-size="10.00">TUIO::TuioClient::getTuio</text>
<text text-anchor="middle" x="71.5" y="-56.5" font-family="Helvetica,sans-Serif" font-size="10.00">Objects</text>
</a>
</g>
</g>
<!-- Node8&#45;&gt;Node9 -->
<g id="edge8" class="edge">
<title>Node8&#45;&gt;Node9</title>
<path fill="none" stroke="midnightblue" d="M180.47,-64.5C167.08,-64.5 153.07,-64.5 139.74,-64.5"/>
<polygon fill="midnightblue" stroke="midnightblue" points="180.56,-68 190.56,-64.5 180.56,-61 180.56,-68"/>
</g>
</g>
</svg>
