<?xml version="1.0" encoding="UTF-8" standalone="no"?>
<!DOCTYPE svg PUBLIC "-//W3C//DTD SVG 1.1//EN"
 "http://www.w3.org/Graphics/SVG/1.1/DTD/svg11.dtd">
<!-- Generated by graphviz version 2.43.0 (0)
 -->
<!-- Title: TUIO::TuioManager::removeExternalTuioBlob Pages: 1 -->
<svg width="322pt" height="78pt"
 viewBox="0.00 0.00 322.00 77.50" xmlns="http://www.w3.org/2000/svg" xmlns:xlink="http://www.w3.org/1999/xlink">
<g id="graph0" class="graph" transform="scale(1 1) rotate(0) translate(4 73.5)">
<title>TUIO::TuioManager::removeExternalTuioBlob</title>
<polygon fill="white" stroke="transparent" points="-4,4 -4,-73.5 318,-73.5 318,4 -4,4"/>
<!-- Node1 -->
<g id="node1" class="node">
<title>Node1</title>
<g id="a_node1"><a xlink:title=" ">
<polygon fill="#bfbfbf" stroke="black" points="0,-22.5 0,-52.5 136,-52.5 136,-22.5 0,-22.5"/>
<text text-anchor="start" x="8" y="-40.5" font-family="Helvetica,sans-Serif" font-size="10.00">TUIO::TuioManager::</text>
<text text-anchor="middle" x="68" y="-29.5" font-family="Helvetica,sans-Serif" font-size="10.00">removeExternalTuioBlob</text>
</a>
</g>
</g>
<!-- Node2 -->
<g id="node2" class="node">
<title>Node2</title>
<g id="a_node2"><a xlink:href="../../d1/dcf/classTUIO_1_1TuioBlob.html#a75b865ab648794432ad62a6d862d4ad6" target="_top" xlink:title=" ">
<polygon fill="white" stroke="black" points="172,-50 172,-69 314,-69 314,-50 172,-50"/>
<text text-anchor="middle" x="243" y="-57" font-family="Helvetica,sans-Serif" font-size="10.00">TUIO::TuioBlob::getBlobID</text>
</a>
</g>
</g>
<!-- Node1&#45;&gt;Node2 -->
<g id="edge1" class="edge">
<title>Node1&#45;&gt;Node2</title>
<path fill="none" stroke="midnightblue" d="M136.38,-46.07C144.77,-47.14 153.41,-48.23 161.96,-49.32"/>
<polygon fill="midnightblue" stroke="midnightblue" points="161.59,-52.8 171.95,-50.59 162.47,-45.86 161.59,-52.8"/>
</g>
<!-- Node3 -->
<g id="node3" class="node">
<title>Node3</title>
<g id="a_node3"><a xlink:href="../../d8/de3/classTUIO_1_1TuioContainer.html#a43a9b95e3108a178e16c8d86a9816f8a" target="_top" xlink:title=" ">
<polygon fill="white" stroke="black" points="186.5,-0.5 186.5,-30.5 299.5,-30.5 299.5,-0.5 186.5,-0.5"/>
<text text-anchor="start" x="194.5" y="-18.5" font-family="Helvetica,sans-Serif" font-size="10.00">TUIO::TuioContainer</text>
<text text-anchor="middle" x="243" y="-7.5" font-family="Helvetica,sans-Serif" font-size="10.00">::getSessionID</text>
</a>
</g>
</g>
<!-- Node1&#45;&gt;Node3 -->
<g id="edge2" class="edge">
<title>Node1&#45;&gt;Node3</title>
<path fill="none" stroke="midnightblue" d="M136.38,-28.93C149.41,-27.27 163.04,-25.54 176.02,-23.89"/>
<polygon fill="midnightblue" stroke="midnightblue" points="176.79,-27.32 186.27,-22.59 175.91,-20.38 176.79,-27.32"/>
</g>
</g>
</svg>
