<?xml version="1.0" encoding="UTF-8" standalone="no"?>
<!DOCTYPE svg PUBLIC "-//W3C//DTD SVG 1.1//EN"
 "http://www.w3.org/Graphics/SVG/1.1/DTD/svg11.dtd">
<!-- Generated by graphviz version 2.43.0 (0)
 -->
<!-- Title: TUIO::TuioManager::removeUntouchedStoppedCursors Pages: 1 -->
<svg width="581pt" height="176pt"
 viewBox="0.00 0.00 581.00 175.50" xmlns="http://www.w3.org/2000/svg" xmlns:xlink="http://www.w3.org/1999/xlink">
<g id="graph0" class="graph" transform="scale(1 1) rotate(0) translate(4 171.5)">
<title>TUIO::TuioManager::removeUntouchedStoppedCursors</title>
<polygon fill="white" stroke="transparent" points="-4,4 -4,-171.5 577,-171.5 577,4 -4,4"/>
<!-- Node1 -->
<g id="node1" class="node">
<title>Node1</title>
<g id="a_node1"><a xlink:title=" ">
<polygon fill="#bfbfbf" stroke="black" points="0,-98.5 0,-128.5 183,-128.5 183,-98.5 0,-98.5"/>
<text text-anchor="start" x="8" y="-116.5" font-family="Helvetica,sans-Serif" font-size="10.00">TUIO::TuioManager::</text>
<text text-anchor="middle" x="91.5" y="-105.5" font-family="Helvetica,sans-Serif" font-size="10.00">removeUntouchedStoppedCursors</text>
</a>
</g>
</g>
<!-- Node2 -->
<g id="node2" class="node">
<title>Node2</title>
<g id="a_node2"><a xlink:href="../../d0/db6/classTUIO_1_1TuioPoint.html#ac86687cf27772d0fd602c2044b6c8cdd" target="_top" xlink:title=" ">
<polygon fill="white" stroke="black" points="219,-148 219,-167 376,-167 376,-148 219,-148"/>
<text text-anchor="middle" x="297.5" y="-155" font-family="Helvetica,sans-Serif" font-size="10.00">TUIO::TuioPoint::getTuioTime</text>
</a>
</g>
</g>
<!-- Node1&#45;&gt;Node2 -->
<g id="edge1" class="edge">
<title>Node1&#45;&gt;Node2</title>
<path fill="none" stroke="midnightblue" d="M162.13,-128.52C188.41,-134.19 217.88,-140.54 242.51,-145.86"/>
<polygon fill="midnightblue" stroke="midnightblue" points="241.88,-149.3 252.4,-147.99 243.36,-142.46 241.88,-149.3"/>
</g>
<!-- Node3 -->
<g id="node3" class="node">
<title>Node3</title>
<g id="a_node3"><a xlink:href="../../d8/de3/classTUIO_1_1TuioContainer.html#a96bbcd7b0e99c5302db519c0b4750543" target="_top" xlink:title=" ">
<polygon fill="white" stroke="black" points="241,-98.5 241,-128.5 354,-128.5 354,-98.5 241,-98.5"/>
<text text-anchor="start" x="249" y="-116.5" font-family="Helvetica,sans-Serif" font-size="10.00">TUIO::TuioContainer</text>
<text text-anchor="middle" x="297.5" y="-105.5" font-family="Helvetica,sans-Serif" font-size="10.00">::isMoving</text>
</a>
</g>
</g>
<!-- Node1&#45;&gt;Node3 -->
<g id="edge2" class="edge">
<title>Node1&#45;&gt;Node3</title>
<path fill="none" stroke="midnightblue" d="M183.17,-113.5C199.16,-113.5 215.53,-113.5 230.68,-113.5"/>
<polygon fill="midnightblue" stroke="midnightblue" points="230.95,-117 240.95,-113.5 230.95,-110 230.95,-117"/>
</g>
<!-- Node4 -->
<g id="node4" class="node">
<title>Node4</title>
<g id="a_node4"><a xlink:href="../../d2/d82/classTUIO_1_1TuioManager.html#ab4ade3e971fea21179af6358e751aefe" target="_top" xlink:title=" ">
<polygon fill="white" stroke="black" points="240,-49.5 240,-79.5 355,-79.5 355,-49.5 240,-49.5"/>
<text text-anchor="start" x="248" y="-67.5" font-family="Helvetica,sans-Serif" font-size="10.00">TUIO::TuioManager::</text>
<text text-anchor="middle" x="297.5" y="-56.5" font-family="Helvetica,sans-Serif" font-size="10.00">removeTuioCursor</text>
</a>
</g>
</g>
<!-- Node1&#45;&gt;Node4 -->
<g id="edge3" class="edge">
<title>Node1&#45;&gt;Node4</title>
<path fill="none" stroke="midnightblue" d="M155.09,-98.47C178.87,-92.75 206.03,-86.23 230.14,-80.44"/>
<polygon fill="midnightblue" stroke="midnightblue" points="231.01,-83.83 239.92,-78.09 229.38,-77.02 231.01,-83.83"/>
</g>
<!-- Node5 -->
<g id="node5" class="node">
<title>Node5</title>
<g id="a_node5"><a xlink:href="../../d9/d95/classTUIO_1_1TuioCursor.html#a55c048bba2996a908b722f2fada39afb" target="_top" xlink:title=" ">
<polygon fill="white" stroke="black" points="412,-99 412,-118 573,-118 573,-99 412,-99"/>
<text text-anchor="middle" x="492.5" y="-106" font-family="Helvetica,sans-Serif" font-size="10.00">TUIO::TuioCursor::getCursorID</text>
</a>
</g>
</g>
<!-- Node4&#45;&gt;Node5 -->
<g id="edge4" class="edge">
<title>Node4&#45;&gt;Node5</title>
<path fill="none" stroke="midnightblue" d="M355.1,-77.4C381.81,-83.49 413.47,-90.71 439.56,-96.66"/>
<polygon fill="midnightblue" stroke="midnightblue" points="439.1,-100.14 449.63,-98.95 440.66,-93.32 439.1,-100.14"/>
</g>
<!-- Node6 -->
<g id="node6" class="node">
<title>Node6</title>
<g id="a_node6"><a xlink:href="../../d8/de3/classTUIO_1_1TuioContainer.html#a43a9b95e3108a178e16c8d86a9816f8a" target="_top" xlink:title=" ">
<polygon fill="white" stroke="black" points="436,-49.5 436,-79.5 549,-79.5 549,-49.5 436,-49.5"/>
<text text-anchor="start" x="444" y="-67.5" font-family="Helvetica,sans-Serif" font-size="10.00">TUIO::TuioContainer</text>
<text text-anchor="middle" x="492.5" y="-56.5" font-family="Helvetica,sans-Serif" font-size="10.00">::getSessionID</text>
</a>
</g>
</g>
<!-- Node4&#45;&gt;Node6 -->
<g id="edge5" class="edge">
<title>Node4&#45;&gt;Node6</title>
<path fill="none" stroke="midnightblue" d="M355.1,-64.5C377.29,-64.5 402.89,-64.5 425.88,-64.5"/>
<polygon fill="midnightblue" stroke="midnightblue" points="425.9,-68 435.9,-64.5 425.9,-61 425.9,-68"/>
</g>
<!-- Node7 -->
<g id="node7" class="node">
<title>Node7</title>
<g id="a_node7"><a xlink:href="../../d8/de3/classTUIO_1_1TuioContainer.html#a0c2a9708956006f8af5e6f2096526e61" target="_top" xlink:title=" ">
<polygon fill="white" stroke="black" points="436,-0.5 436,-30.5 549,-30.5 549,-0.5 436,-0.5"/>
<text text-anchor="start" x="444" y="-18.5" font-family="Helvetica,sans-Serif" font-size="10.00">TUIO::TuioContainer</text>
<text text-anchor="middle" x="492.5" y="-7.5" font-family="Helvetica,sans-Serif" font-size="10.00">::remove</text>
</a>
</g>
</g>
<!-- Node4&#45;&gt;Node7 -->
<g id="edge6" class="edge">
<title>Node4&#45;&gt;Node7</title>
<path fill="none" stroke="midnightblue" d="M355.1,-50.13C377.39,-44.47 403.12,-37.94 426.19,-32.08"/>
<polygon fill="midnightblue" stroke="midnightblue" points="427.07,-35.47 435.9,-29.62 425.34,-28.69 427.07,-35.47"/>
</g>
</g>
</svg>
