<?xml version="1.0" encoding="UTF-8" standalone="no"?>
<!DOCTYPE svg PUBLIC "-//W3C//DTD SVG 1.1//EN"
 "http://www.w3.org/Graphics/SVG/1.1/DTD/svg11.dtd">
<!-- Generated by graphviz version 2.43.0 (0)
 -->
<!-- Title: TUIO::TuioManager::updateTuioObject Pages: 1 -->
<!--zoomable 559 -->
<svg id="main" version="1.1" xmlns="http://www.w3.org/2000/svg" xmlns:xlink="http://www.w3.org/1999/xlink" xml:space="preserve" onload="init(evt)">
<style type="text/css"><![CDATA[
.edge:hover path { stroke: red; }
.edge:hover polygon { stroke: red; fill: red; }
]]></style>
<script type="text/javascript"><![CDATA[
var edges = document.getElementsByTagName('g');
if (edges && edges.length) {
  for (var i=0;i<edges.length;i++) {
    if (edges[i].id.substr(0,4)=='edge') {
      edges[i].setAttribute('class','edge');
    }
  }
}
]]></script>
        <defs>
                <circle id="rim" cx="0" cy="0" r="7"/>
                <circle id="rim2" cx="0" cy="0" r="3.5"/>
                <g id="zoomPlus">
                        <use xlink:href="#rim" fill="#404040">
                                <set attributeName="fill" to="#808080" begin="zoomplus.mouseover" end="zoomplus.mouseout"/>
                        </use>
                        <path d="M-4,0h8M0,-4v8" fill="none" stroke="white" stroke-width="1.5" pointer-events="none"/>
                </g>
                <g id="zoomMin">
                        <use xlink:href="#rim" fill="#404040">
                                <set attributeName="fill" to="#808080" begin="zoomminus.mouseover" end="zoomminus.mouseout"/>
                        </use>
                        <path d="M-4,0h8" fill="none" stroke="white" stroke-width="1.5" pointer-events="none"/>
                </g>
                <g id="dirArrow">
                        <path fill="none" stroke="white" stroke-width="1.5" d="M0,-3.0v7 M-2.5,-0.5L0,-3.0L2.5,-0.5"/>
                </g>
               <g id="resetDef">
                       <use xlink:href="#rim2" fill="#404040">
                               <set attributeName="fill" to="#808080" begin="reset.mouseover" end="reset.mouseout"/>
                       </use>
               </g>
        </defs>

<script type="text/javascript">
var viewWidth = 475;
var viewHeight = 559;
var sectionId = 'dynsection-63';
</script>
<script xlink:href="../../svgpan.js"/>
<svg id="graph" class="graph">
<g id="viewport">
<title>TUIO::TuioManager::updateTuioObject</title>
<polygon fill="white" stroke="transparent" points="-4,4 -4,-554.5 471,-554.5 471,4 -4,4"/>
<!-- Node1 -->
<g id="node1" class="node">
<title>Node1</title>
<g id="a_node1"><a xlink:title=" ">
<polygon fill="#bfbfbf" stroke="black" points="0,-252.5 0,-282.5 115,-282.5 115,-252.5 0,-252.5"/>
<text text-anchor="start" x="8" y="-270.5" font-family="Helvetica,sans-Serif" font-size="10.00">TUIO::TuioManager::</text>
<text text-anchor="middle" x="57.5" y="-259.5" font-family="Helvetica,sans-Serif" font-size="10.00">updateTuioObject</text>
</a>
</g>
</g>
<!-- Node2 -->
<g id="node2" class="node">
<title>Node2</title>
<g id="a_node2"><a xlink:href="../../d0/dd3/classTUIO_1_1TuioObject.html#ad1be94db9f777b98900503a10bdbe66c" target="_top" xlink:title=" ">
<polygon fill="white" stroke="black" points="161,-531 161,-550 308,-550 308,-531 161,-531"/>
<text text-anchor="middle" x="234.5" y="-538" font-family="Helvetica,sans-Serif" font-size="10.00">TUIO::TuioObject::getAngle</text>
</a>
</g>
</g>
<!-- Node1&#45;&gt;Node2 -->
<g id="edge1" class="edge">
<title>Node1&#45;&gt;Node2</title>
<path fill="none" stroke="midnightblue" d="M59.21,-282.52C62.15,-326.51 76.99,-456.07 151,-521.5 152.74,-523.04 154.59,-524.47 156.52,-525.78"/>
<polygon fill="midnightblue" stroke="midnightblue" points="155,-528.95 165.42,-530.87 158.47,-522.87 155,-528.95"/>
</g>
<!-- Node3 -->
<g id="node3" class="node">
<title>Node3</title>
<g id="a_node3"><a xlink:href="../../d8/de3/classTUIO_1_1TuioContainer.html#aca8c7670af13d100999eb4663ead8281" target="_top" xlink:title=" ">
<polygon fill="white" stroke="black" points="178,-481.5 178,-511.5 291,-511.5 291,-481.5 178,-481.5"/>
<text text-anchor="start" x="186" y="-499.5" font-family="Helvetica,sans-Serif" font-size="10.00">TUIO::TuioContainer</text>
<text text-anchor="middle" x="234.5" y="-488.5" font-family="Helvetica,sans-Serif" font-size="10.00">::getMotionAccel</text>
</a>
</g>
</g>
<!-- Node1&#45;&gt;Node3 -->
<g id="edge2" class="edge">
<title>Node1&#45;&gt;Node3</title>
<path fill="none" stroke="midnightblue" d="M60.9,-282.7C67.72,-320.62 90.71,-420.15 151,-472.5 156.15,-476.97 162.08,-480.61 168.36,-483.57"/>
<polygon fill="midnightblue" stroke="midnightblue" points="167.18,-486.87 177.76,-487.44 169.85,-480.39 167.18,-486.87"/>
</g>
<!-- Node4 -->
<g id="node4" class="node">
<title>Node4</title>
<g id="a_node4"><a xlink:href="../../d0/dd3/classTUIO_1_1TuioObject.html#a5daaf14f96beeacaa6d623df3c3574d9" target="_top" xlink:title=" ">
<polygon fill="white" stroke="black" points="154,-432.5 154,-462.5 315,-462.5 315,-432.5 154,-432.5"/>
<text text-anchor="start" x="162" y="-450.5" font-family="Helvetica,sans-Serif" font-size="10.00">TUIO::TuioObject::getRotation</text>
<text text-anchor="middle" x="234.5" y="-439.5" font-family="Helvetica,sans-Serif" font-size="10.00">Accel</text>
</a>
</g>
</g>
<!-- Node1&#45;&gt;Node4 -->
<g id="edge3" class="edge">
<title>Node1&#45;&gt;Node4</title>
<path fill="none" stroke="midnightblue" d="M63.32,-282.96C73.91,-314.33 102.22,-385.69 151,-423.5 152.82,-424.91 154.72,-426.24 156.69,-427.49"/>
<polygon fill="midnightblue" stroke="midnightblue" points="155.22,-430.68 165.66,-432.48 158.62,-424.56 155.22,-430.68"/>
</g>
<!-- Node5 -->
<g id="node5" class="node">
<title>Node5</title>
<g id="a_node5"><a xlink:href="../../d0/dd3/classTUIO_1_1TuioObject.html#a377e6d373c9d03dd2da50f5ac489e30f" target="_top" xlink:title=" ">
<polygon fill="white" stroke="black" points="154,-383.5 154,-413.5 315,-413.5 315,-383.5 154,-383.5"/>
<text text-anchor="start" x="162" y="-401.5" font-family="Helvetica,sans-Serif" font-size="10.00">TUIO::TuioObject::getRotation</text>
<text text-anchor="middle" x="234.5" y="-390.5" font-family="Helvetica,sans-Serif" font-size="10.00">Speed</text>
</a>
</g>
</g>
<!-- Node1&#45;&gt;Node5 -->
<g id="edge4" class="edge">
<title>Node1&#45;&gt;Node5</title>
<path fill="none" stroke="midnightblue" d="M67.55,-282.72C82.16,-305.98 113.18,-350.23 151,-374.5 153.61,-376.18 156.35,-377.74 159.17,-379.2"/>
<polygon fill="midnightblue" stroke="midnightblue" points="157.87,-382.45 168.41,-383.5 160.82,-376.11 157.87,-382.45"/>
</g>
<!-- Node6 -->
<g id="node6" class="node">
<title>Node6</title>
<g id="a_node6"><a xlink:href="../../d8/de3/classTUIO_1_1TuioContainer.html#a43a9b95e3108a178e16c8d86a9816f8a" target="_top" xlink:title=" ">
<polygon fill="white" stroke="black" points="178,-334.5 178,-364.5 291,-364.5 291,-334.5 178,-334.5"/>
<text text-anchor="start" x="186" y="-352.5" font-family="Helvetica,sans-Serif" font-size="10.00">TUIO::TuioContainer</text>
<text text-anchor="middle" x="234.5" y="-341.5" font-family="Helvetica,sans-Serif" font-size="10.00">::getSessionID</text>
</a>
</g>
</g>
<!-- Node1&#45;&gt;Node6 -->
<g id="edge5" class="edge">
<title>Node1&#45;&gt;Node6</title>
<path fill="none" stroke="midnightblue" d="M79.67,-282.75C97.88,-295.31 125.2,-312.88 151,-324.5 156.42,-326.94 162.14,-329.23 167.95,-331.35"/>
<polygon fill="midnightblue" stroke="midnightblue" points="167.15,-334.78 177.75,-334.75 169.45,-328.16 167.15,-334.78"/>
</g>
<!-- Node7 -->
<g id="node7" class="node">
<title>Node7</title>
<g id="a_node7"><a xlink:href="../../d0/dd3/classTUIO_1_1TuioObject.html#a3e95c874a6dccb7fb85c786403931dee" target="_top" xlink:title=" ">
<polygon fill="white" stroke="black" points="151,-296 151,-315 318,-315 318,-296 151,-296"/>
<text text-anchor="middle" x="234.5" y="-303" font-family="Helvetica,sans-Serif" font-size="10.00">TUIO::TuioObject::getSymbolID</text>
</a>
</g>
</g>
<!-- Node1&#45;&gt;Node7 -->
<g id="edge6" class="edge">
<title>Node1&#45;&gt;Node7</title>
<path fill="none" stroke="midnightblue" d="M115.32,-279.84C136.07,-284.34 159.47,-289.42 179.93,-293.87"/>
<polygon fill="midnightblue" stroke="midnightblue" points="179.2,-297.29 189.72,-295.99 180.69,-290.45 179.2,-297.29"/>
</g>
<!-- Node8 -->
<g id="node8" class="node">
<title>Node8</title>
<g id="a_node8"><a xlink:href="../../d0/db6/classTUIO_1_1TuioPoint.html#ac86687cf27772d0fd602c2044b6c8cdd" target="_top" xlink:title=" ">
<polygon fill="white" stroke="black" points="156,-258 156,-277 313,-277 313,-258 156,-258"/>
<text text-anchor="middle" x="234.5" y="-265" font-family="Helvetica,sans-Serif" font-size="10.00">TUIO::TuioPoint::getTuioTime</text>
</a>
</g>
</g>
<!-- Node1&#45;&gt;Node8 -->
<g id="edge7" class="edge">
<title>Node1&#45;&gt;Node8</title>
<path fill="none" stroke="midnightblue" d="M115.32,-267.5C125.05,-267.5 135.36,-267.5 145.68,-267.5"/>
<polygon fill="midnightblue" stroke="midnightblue" points="145.97,-271 155.97,-267.5 145.97,-264 145.97,-271"/>
</g>
<!-- Node9 -->
<g id="node9" class="node">
<title>Node9</title>
<g id="a_node9"><a xlink:href="../../d0/db6/classTUIO_1_1TuioPoint.html#a547710f33dd3786eaa8ca326b34911c0" target="_top" xlink:title=" ">
<polygon fill="white" stroke="black" points="175,-220 175,-239 294,-239 294,-220 175,-220"/>
<text text-anchor="middle" x="234.5" y="-227" font-family="Helvetica,sans-Serif" font-size="10.00">TUIO::TuioPoint::getX</text>
</a>
</g>
</g>
<!-- Node1&#45;&gt;Node9 -->
<g id="edge8" class="edge">
<title>Node1&#45;&gt;Node9</title>
<path fill="none" stroke="midnightblue" d="M115.32,-255.16C136.07,-250.66 159.47,-245.58 179.93,-241.13"/>
<polygon fill="midnightblue" stroke="midnightblue" points="180.69,-244.55 189.72,-239.01 179.2,-237.71 180.69,-244.55"/>
</g>
<!-- Node10 -->
<g id="node10" class="node">
<title>Node10</title>
<g id="a_node10"><a xlink:href="../../d8/de3/classTUIO_1_1TuioContainer.html#ad71a4dba72e5c46fa8b8f7fc0f961705" target="_top" xlink:title=" ">
<polygon fill="white" stroke="black" points="178,-170.5 178,-200.5 291,-200.5 291,-170.5 178,-170.5"/>
<text text-anchor="start" x="186" y="-188.5" font-family="Helvetica,sans-Serif" font-size="10.00">TUIO::TuioContainer</text>
<text text-anchor="middle" x="234.5" y="-177.5" font-family="Helvetica,sans-Serif" font-size="10.00">::getXSpeed</text>
</a>
</g>
</g>
<!-- Node1&#45;&gt;Node10 -->
<g id="edge9" class="edge">
<title>Node1&#45;&gt;Node10</title>
<path fill="none" stroke="midnightblue" d="M79.67,-252.25C97.88,-239.69 125.2,-222.12 151,-210.5 156.42,-208.06 162.14,-205.77 167.95,-203.65"/>
<polygon fill="midnightblue" stroke="midnightblue" points="169.45,-206.84 177.75,-200.25 167.15,-200.22 169.45,-206.84"/>
</g>
<!-- Node11 -->
<g id="node11" class="node">
<title>Node11</title>
<g id="a_node11"><a xlink:href="../../d0/db6/classTUIO_1_1TuioPoint.html#a2dbd53d10bbcddb6db271bdd30858733" target="_top" xlink:title=" ">
<polygon fill="white" stroke="black" points="175,-132 175,-151 294,-151 294,-132 175,-132"/>
<text text-anchor="middle" x="234.5" y="-139" font-family="Helvetica,sans-Serif" font-size="10.00">TUIO::TuioPoint::getY</text>
</a>
</g>
</g>
<!-- Node1&#45;&gt;Node11 -->
<g id="edge10" class="edge">
<title>Node1&#45;&gt;Node11</title>
<path fill="none" stroke="midnightblue" d="M67.45,-252.22C81.94,-228.89 112.79,-184.69 151,-161.5 155.45,-158.8 160.25,-156.46 165.21,-154.44"/>
<polygon fill="midnightblue" stroke="midnightblue" points="166.69,-157.62 174.9,-150.93 164.3,-151.04 166.69,-157.62"/>
</g>
<!-- Node12 -->
<g id="node12" class="node">
<title>Node12</title>
<g id="a_node12"><a xlink:href="../../d8/de3/classTUIO_1_1TuioContainer.html#af96183810e34c1ead6a6787fcf03c171" target="_top" xlink:title=" ">
<polygon fill="white" stroke="black" points="178,-82.5 178,-112.5 291,-112.5 291,-82.5 178,-82.5"/>
<text text-anchor="start" x="186" y="-100.5" font-family="Helvetica,sans-Serif" font-size="10.00">TUIO::TuioContainer</text>
<text text-anchor="middle" x="234.5" y="-89.5" font-family="Helvetica,sans-Serif" font-size="10.00">::getYSpeed</text>
</a>
</g>
</g>
<!-- Node1&#45;&gt;Node12 -->
<g id="edge11" class="edge">
<title>Node1&#45;&gt;Node12</title>
<path fill="none" stroke="midnightblue" d="M64.03,-252.26C75.52,-222.72 104.84,-157.49 151,-122.5 156.17,-118.58 161.95,-115.28 167.98,-112.49"/>
<polygon fill="midnightblue" stroke="midnightblue" points="169.72,-115.56 177.63,-108.51 167.05,-109.08 169.72,-115.56"/>
</g>
<!-- Node13 -->
<g id="node13" class="node">
<title>Node13</title>
<g id="a_node13"><a xlink:href="../../d0/dd3/classTUIO_1_1TuioObject.html#aaaa7ee8624ced61a296222eed8542bed" target="_top" xlink:title=" ">
<polygon fill="white" stroke="black" points="160.5,-44 160.5,-63 308.5,-63 308.5,-44 160.5,-44"/>
<text text-anchor="middle" x="234.5" y="-51" font-family="Helvetica,sans-Serif" font-size="10.00">TUIO::TuioObject::isMoving</text>
</a>
</g>
</g>
<!-- Node1&#45;&gt;Node13 -->
<g id="edge12" class="edge">
<title>Node1&#45;&gt;Node13</title>
<path fill="none" stroke="midnightblue" d="M61.14,-252.41C68.37,-215.72 92.05,-121.36 151,-73.5 153.63,-71.36 156.46,-69.45 159.42,-67.74"/>
<polygon fill="midnightblue" stroke="midnightblue" points="161.24,-70.74 168.66,-63.17 158.14,-64.46 161.24,-70.74"/>
</g>
<!-- Node14 -->
<g id="node14" class="node">
<title>Node14</title>
<g id="a_node14"><a xlink:href="../../d0/dd3/classTUIO_1_1TuioObject.html#ac6bee6c3fd22362393c6a7a11c98379f" target="_top" xlink:title=" ">
<polygon fill="white" stroke="black" points="166,-6 166,-25 303,-25 303,-6 166,-6"/>
<text text-anchor="middle" x="234.5" y="-13" font-family="Helvetica,sans-Serif" font-size="10.00">TUIO::TuioObject::update</text>
</a>
</g>
</g>
<!-- Node1&#45;&gt;Node14 -->
<g id="edge13" class="edge">
<title>Node1&#45;&gt;Node14</title>
<path fill="none" stroke="midnightblue" d="M59.79,-252.22C64.18,-210.43 82.33,-93.48 151,-34.5 152.81,-32.94 154.73,-31.51 156.72,-30.19"/>
<polygon fill="midnightblue" stroke="midnightblue" points="158.89,-32.98 165.94,-25.07 155.5,-26.86 158.89,-32.98"/>
</g>
<!-- Node15 -->
<g id="node15" class="node">
<title>Node15</title>
<g id="a_node15"><a xlink:href="../../d8/de3/classTUIO_1_1TuioContainer.html#ae6ed82aba4186921dc911a382f7e5f33" target="_top" xlink:title=" ">
<polygon fill="white" stroke="black" points="354,-0.5 354,-30.5 467,-30.5 467,-0.5 354,-0.5"/>
<text text-anchor="start" x="362" y="-18.5" font-family="Helvetica,sans-Serif" font-size="10.00">TUIO::TuioContainer</text>
<text text-anchor="middle" x="410.5" y="-7.5" font-family="Helvetica,sans-Serif" font-size="10.00">::update</text>
</a>
</g>
</g>
<!-- Node14&#45;&gt;Node15 -->
<g id="edge14" class="edge">
<title>Node14&#45;&gt;Node15</title>
<path fill="none" stroke="midnightblue" d="M303.27,-15.5C316.65,-15.5 330.68,-15.5 343.98,-15.5"/>
<polygon fill="midnightblue" stroke="midnightblue" points="344,-19 354,-15.5 344,-12 344,-19"/>
</g>
</g>
</svg>
        <g id="navigator" transform="translate(0 0)" fill="#404254">
                <rect fill="#f2f5e9" fill-opacity="0.5" stroke="#606060" stroke-width=".5" x="0" y="0" width="60" height="60"/>
                <use id="zoomplus" xlink:href="#zoomPlus" x="17" y="9" onmousedown="handleZoom(evt,'in')"/>
                <use id="zoomminus" xlink:href="#zoomMin" x="42" y="9" onmousedown="handleZoom(evt,'out')"/>
                <use id="reset" xlink:href="#resetDef" x="30" y="36" onmousedown="handleReset()"/>
                <g id="arrowUp" xlink:href="#dirArrow" transform="translate(30 24)" onmousedown="handlePan(0,-1)">
                  <use xlink:href="#rim" fill="#404040">
                        <set attributeName="fill" to="#808080" begin="arrowUp.mouseover" end="arrowUp.mouseout"/>
                  </use>
                  <path fill="none" stroke="white" stroke-width="1.5" d="M0,-3.0v7 M-2.5,-0.5L0,-3.0L2.5,-0.5"/>
                </g>
                <g id="arrowRight" xlink:href="#dirArrow" transform="rotate(90) translate(36 -43)" onmousedown="handlePan(1,0)">
                  <use xlink:href="#rim" fill="#404040">
                        <set attributeName="fill" to="#808080" begin="arrowRight.mouseover" end="arrowRight.mouseout"/>
                  </use>
                  <path fill="none" stroke="white" stroke-width="1.5" d="M0,-3.0v7 M-2.5,-0.5L0,-3.0L2.5,-0.5"/>
                </g>
                <g id="arrowDown" xlink:href="#dirArrow" transform="rotate(180) translate(-30 -48)" onmousedown="handlePan(0,1)">
                  <use xlink:href="#rim" fill="#404040">
                        <set attributeName="fill" to="#808080" begin="arrowDown.mouseover" end="arrowDown.mouseout"/>
                  </use>
                  <path fill="none" stroke="white" stroke-width="1.5" d="M0,-3.0v7 M-2.5,-0.5L0,-3.0L2.5,-0.5"/>
                </g>
                <g id="arrowLeft" xlink:href="#dirArrow" transform="rotate(270) translate(-36 17)" onmousedown="handlePan(-1,0)">
                  <use xlink:href="#rim" fill="#404040">
                        <set attributeName="fill" to="#808080" begin="arrowLeft.mouseover" end="arrowLeft.mouseout"/>
                  </use>
                  <path fill="none" stroke="white" stroke-width="1.5" d="M0,-3.0v7 M-2.5,-0.5L0,-3.0L2.5,-0.5"/>
                </g>
        </g>
        <svg viewBox="0 0 15 15" width="100%" height="30px" preserveAspectRatio="xMaxYMin meet">
         <g id="arrow_out" transform="scale(0.3 0.3)">
          <a xlink:href="classTUIO_1_1TuioManager_ab1108e679103f0ba3c6b8fc80246b6c7_cgraph_org.svg" target="_base">
           <rect id="button" ry="5" rx="5" y="6" x="6" height="38" width="38"
                fill="#f2f5e9" fill-opacity="0.5" stroke="#606060" stroke-width="1.0"/>
           <path id="arrow"
             d="M 11.500037,31.436501 C 11.940474,20.09759 22.043105,11.32322 32.158766,21.979434 L 37.068811,17.246167 C 37.068811,17.246167 37.088388,32 37.088388,32 L 22.160133,31.978069 C 22.160133,31.978069 26.997745,27.140456 26.997745,27.140456 C 18.528582,18.264221 13.291696,25.230495 11.500037,31.436501 z"
             style="fill:#404040;"/>
          </a>
         </g>
        </svg>
</svg>
