<?xml version="1.0" encoding="UTF-8" standalone="no"?>
<!DOCTYPE svg PUBLIC "-//W3C//DTD SVG 1.1//EN"
 "http://www.w3.org/Graphics/SVG/1.1/DTD/svg11.dtd">
<!-- Generated by graphviz version 2.43.0 (0)
 -->
<!-- Title: TUIO::TuioManager::updateExternalTuioCursor Pages: 1 -->
<svg width="347pt" height="352pt"
 viewBox="0.00 0.00 347.00 351.50" xmlns="http://www.w3.org/2000/svg" xmlns:xlink="http://www.w3.org/1999/xlink">
<g id="graph0" class="graph" transform="scale(1 1) rotate(0) translate(4 347.5)">
<title>TUIO::TuioManager::updateExternalTuioCursor</title>
<polygon fill="white" stroke="transparent" points="-4,4 -4,-347.5 343,-347.5 343,4 -4,4"/>
<!-- Node1 -->
<g id="node1" class="node">
<title>Node1</title>
<g id="a_node1"><a xlink:title=" ">
<polygon fill="#bfbfbf" stroke="black" points="0,-159.5 0,-189.5 142,-189.5 142,-159.5 0,-159.5"/>
<text text-anchor="start" x="8" y="-177.5" font-family="Helvetica,sans-Serif" font-size="10.00">TUIO::TuioManager::</text>
<text text-anchor="middle" x="71" y="-166.5" font-family="Helvetica,sans-Serif" font-size="10.00">updateExternalTuioCursor</text>
</a>
</g>
</g>
<!-- Node2 -->
<g id="node2" class="node">
<title>Node2</title>
<g id="a_node2"><a xlink:href="../../d9/d95/classTUIO_1_1TuioCursor.html#a55c048bba2996a908b722f2fada39afb" target="_top" xlink:title=" ">
<polygon fill="white" stroke="black" points="178,-324 178,-343 339,-343 339,-324 178,-324"/>
<text text-anchor="middle" x="258.5" y="-331" font-family="Helvetica,sans-Serif" font-size="10.00">TUIO::TuioCursor::getCursorID</text>
</a>
</g>
</g>
<!-- Node1&#45;&gt;Node2 -->
<g id="edge1" class="edge">
<title>Node1&#45;&gt;Node2</title>
<path fill="none" stroke="midnightblue" d="M79.15,-189.92C93.51,-219.09 128.74,-282.32 178,-314.5 181.16,-316.56 184.51,-318.4 187.99,-320.04"/>
<polygon fill="midnightblue" stroke="midnightblue" points="186.87,-323.36 197.45,-323.93 189.54,-316.89 186.87,-323.36"/>
</g>
<!-- Node3 -->
<g id="node3" class="node">
<title>Node3</title>
<g id="a_node3"><a xlink:href="../../d8/de3/classTUIO_1_1TuioContainer.html#aca8c7670af13d100999eb4663ead8281" target="_top" xlink:title=" ">
<polygon fill="white" stroke="black" points="202,-274.5 202,-304.5 315,-304.5 315,-274.5 202,-274.5"/>
<text text-anchor="start" x="210" y="-292.5" font-family="Helvetica,sans-Serif" font-size="10.00">TUIO::TuioContainer</text>
<text text-anchor="middle" x="258.5" y="-281.5" font-family="Helvetica,sans-Serif" font-size="10.00">::getMotionAccel</text>
</a>
</g>
</g>
<!-- Node1&#45;&gt;Node3 -->
<g id="edge2" class="edge">
<title>Node1&#45;&gt;Node3</title>
<path fill="none" stroke="midnightblue" d="M85.62,-189.6C104.5,-209.67 140.57,-244.99 178,-265.5 182.55,-267.99 187.38,-270.26 192.34,-272.31"/>
<polygon fill="midnightblue" stroke="midnightblue" points="191.38,-275.69 201.97,-276 193.89,-269.15 191.38,-275.69"/>
</g>
<!-- Node4 -->
<g id="node4" class="node">
<title>Node4</title>
<g id="a_node4"><a xlink:href="../../d8/de3/classTUIO_1_1TuioContainer.html#a43a9b95e3108a178e16c8d86a9816f8a" target="_top" xlink:title=" ">
<polygon fill="white" stroke="black" points="202,-225.5 202,-255.5 315,-255.5 315,-225.5 202,-225.5"/>
<text text-anchor="start" x="210" y="-243.5" font-family="Helvetica,sans-Serif" font-size="10.00">TUIO::TuioContainer</text>
<text text-anchor="middle" x="258.5" y="-232.5" font-family="Helvetica,sans-Serif" font-size="10.00">::getSessionID</text>
</a>
</g>
</g>
<!-- Node1&#45;&gt;Node4 -->
<g id="edge3" class="edge">
<title>Node1&#45;&gt;Node4</title>
<path fill="none" stroke="midnightblue" d="M109.07,-189.51C129.32,-197.54 154.91,-207.41 178,-215.5 184.42,-217.75 191.17,-220.02 197.9,-222.22"/>
<polygon fill="midnightblue" stroke="midnightblue" points="197.13,-225.65 207.72,-225.39 199.28,-218.98 197.13,-225.65"/>
</g>
<!-- Node5 -->
<g id="node5" class="node">
<title>Node5</title>
<g id="a_node5"><a xlink:href="../../d0/db6/classTUIO_1_1TuioPoint.html#a547710f33dd3786eaa8ca326b34911c0" target="_top" xlink:title=" ">
<polygon fill="white" stroke="black" points="199,-187 199,-206 318,-206 318,-187 199,-187"/>
<text text-anchor="middle" x="258.5" y="-194" font-family="Helvetica,sans-Serif" font-size="10.00">TUIO::TuioPoint::getX</text>
</a>
</g>
</g>
<!-- Node1&#45;&gt;Node5 -->
<g id="edge4" class="edge">
<title>Node1&#45;&gt;Node5</title>
<path fill="none" stroke="midnightblue" d="M142.13,-182.82C157.3,-184.62 173.33,-186.52 188.46,-188.31"/>
<polygon fill="midnightblue" stroke="midnightblue" points="188.43,-191.83 198.77,-189.53 189.25,-184.88 188.43,-191.83"/>
</g>
<!-- Node6 -->
<g id="node6" class="node">
<title>Node6</title>
<g id="a_node6"><a xlink:href="../../d8/de3/classTUIO_1_1TuioContainer.html#ad71a4dba72e5c46fa8b8f7fc0f961705" target="_top" xlink:title=" ">
<polygon fill="white" stroke="black" points="202,-137.5 202,-167.5 315,-167.5 315,-137.5 202,-137.5"/>
<text text-anchor="start" x="210" y="-155.5" font-family="Helvetica,sans-Serif" font-size="10.00">TUIO::TuioContainer</text>
<text text-anchor="middle" x="258.5" y="-144.5" font-family="Helvetica,sans-Serif" font-size="10.00">::getXSpeed</text>
</a>
</g>
</g>
<!-- Node1&#45;&gt;Node6 -->
<g id="edge5" class="edge">
<title>Node1&#45;&gt;Node6</title>
<path fill="none" stroke="midnightblue" d="M142.13,-166.18C158.29,-164.27 175.42,-162.23 191.4,-160.34"/>
<polygon fill="midnightblue" stroke="midnightblue" points="192.2,-163.77 201.72,-159.12 191.38,-156.82 192.2,-163.77"/>
</g>
<!-- Node7 -->
<g id="node7" class="node">
<title>Node7</title>
<g id="a_node7"><a xlink:href="../../d0/db6/classTUIO_1_1TuioPoint.html#a2dbd53d10bbcddb6db271bdd30858733" target="_top" xlink:title=" ">
<polygon fill="white" stroke="black" points="199,-99 199,-118 318,-118 318,-99 199,-99"/>
<text text-anchor="middle" x="258.5" y="-106" font-family="Helvetica,sans-Serif" font-size="10.00">TUIO::TuioPoint::getY</text>
</a>
</g>
</g>
<!-- Node1&#45;&gt;Node7 -->
<g id="edge6" class="edge">
<title>Node1&#45;&gt;Node7</title>
<path fill="none" stroke="midnightblue" d="M103.01,-159.45C123.87,-149.72 152.17,-137.29 178,-128.5 186.42,-125.64 195.46,-122.98 204.33,-120.6"/>
<polygon fill="midnightblue" stroke="midnightblue" points="205.42,-123.93 214.22,-118.03 203.66,-117.15 205.42,-123.93"/>
</g>
<!-- Node8 -->
<g id="node8" class="node">
<title>Node8</title>
<g id="a_node8"><a xlink:href="../../d8/de3/classTUIO_1_1TuioContainer.html#af96183810e34c1ead6a6787fcf03c171" target="_top" xlink:title=" ">
<polygon fill="white" stroke="black" points="202,-49.5 202,-79.5 315,-79.5 315,-49.5 202,-49.5"/>
<text text-anchor="start" x="210" y="-67.5" font-family="Helvetica,sans-Serif" font-size="10.00">TUIO::TuioContainer</text>
<text text-anchor="middle" x="258.5" y="-56.5" font-family="Helvetica,sans-Serif" font-size="10.00">::getYSpeed</text>
</a>
</g>
</g>
<!-- Node1&#45;&gt;Node8 -->
<g id="edge7" class="edge">
<title>Node1&#45;&gt;Node8</title>
<path fill="none" stroke="midnightblue" d="M87.19,-159.22C106.66,-140.41 142.21,-108.6 178,-89.5 182.51,-87.09 187.29,-84.87 192.18,-82.84"/>
<polygon fill="midnightblue" stroke="midnightblue" points="193.63,-86.03 201.68,-79.14 191.09,-79.5 193.63,-86.03"/>
</g>
<!-- Node9 -->
<g id="node9" class="node">
<title>Node9</title>
<g id="a_node9"><a xlink:href="../../d8/de3/classTUIO_1_1TuioContainer.html#a96bbcd7b0e99c5302db519c0b4750543" target="_top" xlink:title=" ">
<polygon fill="white" stroke="black" points="202,-0.5 202,-30.5 315,-30.5 315,-0.5 202,-0.5"/>
<text text-anchor="start" x="210" y="-18.5" font-family="Helvetica,sans-Serif" font-size="10.00">TUIO::TuioContainer</text>
<text text-anchor="middle" x="258.5" y="-7.5" font-family="Helvetica,sans-Serif" font-size="10.00">::isMoving</text>
</a>
</g>
</g>
<!-- Node1&#45;&gt;Node9 -->
<g id="edge8" class="edge">
<title>Node1&#45;&gt;Node9</title>
<path fill="none" stroke="midnightblue" d="M80.01,-159.19C95.3,-131.41 131.34,-72.64 178,-40.5 182.47,-37.42 187.33,-34.71 192.38,-32.32"/>
<polygon fill="midnightblue" stroke="midnightblue" points="193.81,-35.52 201.63,-28.36 191.06,-29.08 193.81,-35.52"/>
</g>
</g>
</svg>
