<?xml version="1.0" encoding="UTF-8" standalone="no"?>
<!DOCTYPE svg PUBLIC "-//W3C//DTD SVG 1.1//EN"
 "http://www.w3.org/Graphics/SVG/1.1/DTD/svg11.dtd">
<!-- Generated by graphviz version 2.43.0 (0)
 -->
<!-- Title: TUIO::TuioManager::removeTuioBlob Pages: 1 -->
<svg width="301pt" height="127pt"
 viewBox="0.00 0.00 301.00 126.50" xmlns="http://www.w3.org/2000/svg" xmlns:xlink="http://www.w3.org/1999/xlink">
<g id="graph0" class="graph" transform="scale(1 1) rotate(0) translate(4 122.5)">
<title>TUIO::TuioManager::removeTuioBlob</title>
<polygon fill="white" stroke="transparent" points="-4,4 -4,-122.5 297,-122.5 297,4 -4,4"/>
<!-- Node1 -->
<g id="node1" class="node">
<title>Node1</title>
<g id="a_node1"><a xlink:title=" ">
<polygon fill="#bfbfbf" stroke="black" points="0,-49.5 0,-79.5 115,-79.5 115,-49.5 0,-49.5"/>
<text text-anchor="start" x="8" y="-67.5" font-family="Helvetica,sans-Serif" font-size="10.00">TUIO::TuioManager::</text>
<text text-anchor="middle" x="57.5" y="-56.5" font-family="Helvetica,sans-Serif" font-size="10.00">removeTuioBlob</text>
</a>
</g>
</g>
<!-- Node2 -->
<g id="node2" class="node">
<title>Node2</title>
<g id="a_node2"><a xlink:href="../../d1/dcf/classTUIO_1_1TuioBlob.html#a75b865ab648794432ad62a6d862d4ad6" target="_top" xlink:title=" ">
<polygon fill="white" stroke="black" points="151,-99 151,-118 293,-118 293,-99 151,-99"/>
<text text-anchor="middle" x="222" y="-106" font-family="Helvetica,sans-Serif" font-size="10.00">TUIO::TuioBlob::getBlobID</text>
</a>
</g>
</g>
<!-- Node1&#45;&gt;Node2 -->
<g id="edge1" class="edge">
<title>Node1&#45;&gt;Node2</title>
<path fill="none" stroke="midnightblue" d="M113.97,-79.52C134.17,-84.99 156.74,-91.1 175.93,-96.3"/>
<polygon fill="midnightblue" stroke="midnightblue" points="175.06,-99.69 185.63,-98.92 176.89,-92.93 175.06,-99.69"/>
</g>
<!-- Node3 -->
<g id="node3" class="node">
<title>Node3</title>
<g id="a_node3"><a xlink:href="../../d8/de3/classTUIO_1_1TuioContainer.html#a43a9b95e3108a178e16c8d86a9816f8a" target="_top" xlink:title=" ">
<polygon fill="white" stroke="black" points="165.5,-49.5 165.5,-79.5 278.5,-79.5 278.5,-49.5 165.5,-49.5"/>
<text text-anchor="start" x="173.5" y="-67.5" font-family="Helvetica,sans-Serif" font-size="10.00">TUIO::TuioContainer</text>
<text text-anchor="middle" x="222" y="-56.5" font-family="Helvetica,sans-Serif" font-size="10.00">::getSessionID</text>
</a>
</g>
</g>
<!-- Node1&#45;&gt;Node3 -->
<g id="edge2" class="edge">
<title>Node1&#45;&gt;Node3</title>
<path fill="none" stroke="midnightblue" d="M115.33,-64.5C128.12,-64.5 141.79,-64.5 154.91,-64.5"/>
<polygon fill="midnightblue" stroke="midnightblue" points="155.29,-68 165.29,-64.5 155.29,-61 155.29,-68"/>
</g>
<!-- Node4 -->
<g id="node4" class="node">
<title>Node4</title>
<g id="a_node4"><a xlink:href="../../d8/de3/classTUIO_1_1TuioContainer.html#a0c2a9708956006f8af5e6f2096526e61" target="_top" xlink:title=" ">
<polygon fill="white" stroke="black" points="165.5,-0.5 165.5,-30.5 278.5,-30.5 278.5,-0.5 165.5,-0.5"/>
<text text-anchor="start" x="173.5" y="-18.5" font-family="Helvetica,sans-Serif" font-size="10.00">TUIO::TuioContainer</text>
<text text-anchor="middle" x="222" y="-7.5" font-family="Helvetica,sans-Serif" font-size="10.00">::remove</text>
</a>
</g>
</g>
<!-- Node1&#45;&gt;Node4 -->
<g id="edge3" class="edge">
<title>Node1&#45;&gt;Node4</title>
<path fill="none" stroke="midnightblue" d="M108.58,-49.4C125.19,-44.39 143.84,-38.77 161.1,-33.56"/>
<polygon fill="midnightblue" stroke="midnightblue" points="162.52,-36.79 171.08,-30.55 160.5,-30.09 162.52,-36.79"/>
</g>
</g>
</svg>
