<?xml version="1.0" encoding="UTF-8" standalone="no"?>
<!DOCTYPE svg PUBLIC "-//W3C//DTD SVG 1.1//EN"
 "http://www.w3.org/Graphics/SVG/1.1/DTD/svg11.dtd">
<!-- Generated by graphviz version 2.43.0 (0)
 -->
<!-- Title: TUIO::UdpReceiver Pages: 1 -->
<svg width="286pt" height="152pt"
 viewBox="0.00 0.00 285.50 152.00" xmlns="http://www.w3.org/2000/svg" xmlns:xlink="http://www.w3.org/1999/xlink">
<g id="graph0" class="graph" transform="scale(1 1) rotate(0) translate(4 148)">
<title>TUIO::UdpReceiver</title>
<polygon fill="white" stroke="transparent" points="-4,4 -4,-148 281.5,-148 281.5,4 -4,4"/>
<!-- Node1 -->
<g id="node1" class="node">
<title>Node1</title>
<g id="a_node1"><a xlink:title=" ">
<polygon fill="#bfbfbf" stroke="black" points="72,-0.5 72,-19.5 181,-19.5 181,-0.5 72,-0.5"/>
<text text-anchor="middle" x="126.5" y="-7.5" font-family="Helvetica,sans-Serif" font-size="10.00">TUIO::UdpReceiver</text>
</a>
</g>
</g>
<!-- Node2 -->
<g id="node2" class="node">
<title>Node2</title>
<g id="a_node2"><a xlink:href="../../d8/df1/classTUIO_1_1OscReceiver.html" target="_top" xlink:title=" ">
<polygon fill="white" stroke="black" points="0,-67.5 0,-86.5 107,-86.5 107,-67.5 0,-67.5"/>
<text text-anchor="middle" x="53.5" y="-74.5" font-family="Helvetica,sans-Serif" font-size="10.00">TUIO::OscReceiver</text>
</a>
</g>
</g>
<!-- Node2&#45;&gt;Node1 -->
<g id="edge1" class="edge">
<title>Node2&#45;&gt;Node1</title>
<path fill="none" stroke="midnightblue" d="M71.07,-60.36C85.42,-47.58 105.17,-29.99 116.81,-19.63"/>
<polygon fill="midnightblue" stroke="midnightblue" points="68.49,-57.97 63.35,-67.23 73.14,-63.2 68.49,-57.97"/>
</g>
<!-- Node3 -->
<g id="node3" class="node">
<title>Node3</title>
<g id="a_node3"><a xlink:href="../../dc/d98/classPacketListener.html" target="_top" xlink:title=" ">
<polygon fill="white" stroke="black" points="10,-124.5 10,-143.5 97,-143.5 97,-124.5 10,-124.5"/>
<text text-anchor="middle" x="53.5" y="-131.5" font-family="Helvetica,sans-Serif" font-size="10.00">PacketListener</text>
</a>
</g>
</g>
<!-- Node3&#45;&gt;Node2 -->
<g id="edge2" class="edge">
<title>Node3&#45;&gt;Node2</title>
<path fill="none" stroke="midnightblue" d="M53.5,-114.12C53.5,-104.82 53.5,-94.06 53.5,-86.71"/>
<polygon fill="midnightblue" stroke="midnightblue" points="50,-114.41 53.5,-124.41 57,-114.41 50,-114.41"/>
</g>
<!-- Node4 -->
<g id="node4" class="node">
<title>Node4</title>
<g id="a_node4"><a xlink:href="../../da/dfe/classUdpListeningReceiveSocket.html" target="_top" xlink:title=" ">
<polygon fill="white" stroke="black" points="125.5,-67.5 125.5,-86.5 277.5,-86.5 277.5,-67.5 125.5,-67.5"/>
<text text-anchor="middle" x="201.5" y="-74.5" font-family="Helvetica,sans-Serif" font-size="10.00">UdpListeningReceiveSocket</text>
</a>
</g>
</g>
<!-- Node4&#45;&gt;Node1 -->
<g id="edge3" class="edge">
<title>Node4&#45;&gt;Node1</title>
<path fill="none" stroke="#9a32cd" stroke-dasharray="5,2" d="M183.45,-60.36C168.71,-47.58 148.41,-29.99 136.45,-19.63"/>
<polygon fill="#9a32cd" stroke="#9a32cd" points="181.54,-63.33 191.39,-67.23 186.12,-58.04 181.54,-63.33"/>
<text text-anchor="middle" x="186" y="-41" font-family="Helvetica,sans-Serif" font-size="10.00"> socket</text>
</g>
<!-- Node5 -->
<g id="node5" class="node">
<title>Node5</title>
<g id="a_node5"><a xlink:href="../../de/dd7/classUdpSocket.html" target="_top" xlink:title=" ">
<polygon fill="white" stroke="black" points="167.5,-124.5 167.5,-143.5 235.5,-143.5 235.5,-124.5 167.5,-124.5"/>
<text text-anchor="middle" x="201.5" y="-131.5" font-family="Helvetica,sans-Serif" font-size="10.00">UdpSocket</text>
</a>
</g>
</g>
<!-- Node5&#45;&gt;Node4 -->
<g id="edge4" class="edge">
<title>Node5&#45;&gt;Node4</title>
<path fill="none" stroke="midnightblue" d="M201.5,-114.12C201.5,-104.82 201.5,-94.06 201.5,-86.71"/>
<polygon fill="midnightblue" stroke="midnightblue" points="198,-114.41 201.5,-124.41 205,-114.41 198,-114.41"/>
</g>
</g>
</svg>
