<?xml version="1.0" encoding="UTF-8" standalone="no"?>
<!DOCTYPE svg PUBLIC "-//W3C//DTD SVG 1.1//EN"
 "http://www.w3.org/Graphics/SVG/1.1/DTD/svg11.dtd">
<!-- Generated by graphviz version 2.43.0 (0)
 -->
<!-- Title: osc::WrongArgumentTypeException Pages: 1 -->
<svg width="197pt" height="140pt"
 viewBox="0.00 0.00 197.00 140.00" xmlns="http://www.w3.org/2000/svg" xmlns:xlink="http://www.w3.org/1999/xlink">
<g id="graph0" class="graph" transform="scale(1 1) rotate(0) translate(4 136)">
<title>osc::WrongArgumentTypeException</title>
<polygon fill="white" stroke="transparent" points="-4,4 -4,-136 193,-136 193,4 -4,4"/>
<!-- Node1 -->
<g id="node1" class="node">
<title>Node1</title>
<g id="a_node1"><a xlink:title=" ">
<polygon fill="#bfbfbf" stroke="black" points="0,-0.5 0,-19.5 189,-19.5 189,-0.5 0,-0.5"/>
<text text-anchor="middle" x="94.5" y="-7.5" font-family="Helvetica,sans-Serif" font-size="10.00">osc::WrongArgumentTypeException</text>
</a>
</g>
</g>
<!-- Node2 -->
<g id="node2" class="node">
<title>Node2</title>
<g id="a_node2"><a xlink:href="../../dd/dd4/classosc_1_1Exception.html" target="_top" xlink:title=" ">
<polygon fill="white" stroke="black" points="51,-56.5 51,-75.5 138,-75.5 138,-56.5 51,-56.5"/>
<text text-anchor="middle" x="94.5" y="-63.5" font-family="Helvetica,sans-Serif" font-size="10.00">osc::Exception</text>
</a>
</g>
</g>
<!-- Node2&#45;&gt;Node1 -->
<g id="edge1" class="edge">
<title>Node2&#45;&gt;Node1</title>
<path fill="none" stroke="midnightblue" d="M94.5,-45.8C94.5,-36.91 94.5,-26.78 94.5,-19.75"/>
<polygon fill="midnightblue" stroke="midnightblue" points="91,-46.08 94.5,-56.08 98,-46.08 91,-46.08"/>
</g>
<!-- Node3 -->
<g id="node3" class="node">
<title>Node3</title>
<g id="a_node3"><a xlink:title=" ">
<polygon fill="white" stroke="#bfbfbf" points="51.5,-112.5 51.5,-131.5 137.5,-131.5 137.5,-112.5 51.5,-112.5"/>
<text text-anchor="middle" x="94.5" y="-119.5" font-family="Helvetica,sans-Serif" font-size="10.00">std::exception</text>
</a>
</g>
</g>
<!-- Node3&#45;&gt;Node2 -->
<g id="edge2" class="edge">
<title>Node3&#45;&gt;Node2</title>
<path fill="none" stroke="midnightblue" d="M94.5,-101.8C94.5,-92.91 94.5,-82.78 94.5,-75.75"/>
<polygon fill="midnightblue" stroke="midnightblue" points="91,-102.08 94.5,-112.08 98,-102.08 91,-102.08"/>
</g>
</g>
</svg>
