<?xml version="1.0" encoding="UTF-8" standalone="no"?>
<!DOCTYPE svg PUBLIC "-//W3C//DTD SVG 1.1//EN"
 "http://www.w3.org/Graphics/SVG/1.1/DTD/svg11.dtd">
<!-- Generated by graphviz version 2.43.0 (0)
 -->
<!-- Title: TUIO::TuioBlob::getBlobID Pages: 1 -->
<svg width="671pt" height="361pt"
 viewBox="0.00 0.00 671.00 361.00" xmlns="http://www.w3.org/2000/svg" xmlns:xlink="http://www.w3.org/1999/xlink">
<g id="graph0" class="graph" transform="scale(1 1) rotate(0) translate(4 357)">
<title>TUIO::TuioBlob::getBlobID</title>
<polygon fill="white" stroke="transparent" points="-4,4 -4,-357 667,-357 667,4 -4,4"/>
<!-- Node1 -->
<g id="node1" class="node">
<title>Node1</title>
<g id="a_node1"><a xlink:title=" ">
<polygon fill="#bfbfbf" stroke="black" points="521,-159 521,-178 663,-178 663,-159 521,-159"/>
<text text-anchor="middle" x="592" y="-166" font-family="Helvetica,sans-Serif" font-size="10.00">TUIO::TuioBlob::getBlobID</text>
</a>
</g>
</g>
<!-- Node2 -->
<g id="node2" class="node">
<title>Node2</title>
<g id="a_node2"><a xlink:href="../../d2/d82/classTUIO_1_1TuioManager.html#aa3bf208467095db93ab6f7d0f66eba06" target="_top" xlink:title=" ">
<polygon fill="white" stroke="black" points="359,-322.5 359,-352.5 475,-352.5 475,-322.5 359,-322.5"/>
<text text-anchor="start" x="367" y="-340.5" font-family="Helvetica,sans-Serif" font-size="10.00">TUIO::TuioManager::</text>
<text text-anchor="middle" x="417" y="-329.5" font-family="Helvetica,sans-Serif" font-size="10.00">addExternalTuioBlob</text>
</a>
</g>
</g>
<!-- Node1&#45;&gt;Node2 -->
<g id="edge1" class="edge">
<title>Node1&#45;&gt;Node2</title>
<path fill="none" stroke="midnightblue" d="M581.97,-187.32C566.36,-217.98 531.45,-278.79 485,-313.5 480.45,-316.9 475.37,-319.86 470.1,-322.41"/>
<polygon fill="midnightblue" stroke="midnightblue" points="585.21,-188.67 586.52,-178.16 578.94,-185.56 585.21,-188.67"/>
</g>
<!-- Node3 -->
<g id="node3" class="node">
<title>Node3</title>
<g id="a_node3"><a xlink:href="../../d2/d82/classTUIO_1_1TuioManager.html#a7925107580bde23e4293e27795633c8e" target="_top" xlink:title=" ">
<polygon fill="white" stroke="black" points="359.5,-273.5 359.5,-303.5 474.5,-303.5 474.5,-273.5 359.5,-273.5"/>
<text text-anchor="start" x="367.5" y="-291.5" font-family="Helvetica,sans-Serif" font-size="10.00">TUIO::TuioManager::</text>
<text text-anchor="middle" x="417" y="-280.5" font-family="Helvetica,sans-Serif" font-size="10.00">addTuioBlob</text>
</a>
</g>
</g>
<!-- Node1&#45;&gt;Node3 -->
<g id="edge2" class="edge">
<title>Node1&#45;&gt;Node3</title>
<path fill="none" stroke="midnightblue" d="M576.13,-185.58C556.95,-206.69 521.66,-242.53 485,-264.5 479.49,-267.8 473.45,-270.75 467.33,-273.36"/>
<polygon fill="midnightblue" stroke="midnightblue" points="578.84,-187.81 582.89,-178.01 573.62,-183.14 578.84,-187.81"/>
</g>
<!-- Node4 -->
<g id="node4" class="node">
<title>Node4</title>
<g id="a_node4"><a xlink:href="../../d2/d82/classTUIO_1_1TuioManager.html#ac8928525e25d127c13b34118f40c2c61" target="_top" xlink:title=" ">
<polygon fill="white" stroke="black" points="349,-224.5 349,-254.5 485,-254.5 485,-224.5 349,-224.5"/>
<text text-anchor="start" x="357" y="-242.5" font-family="Helvetica,sans-Serif" font-size="10.00">TUIO::TuioManager::</text>
<text text-anchor="middle" x="417" y="-231.5" font-family="Helvetica,sans-Serif" font-size="10.00">removeExternalTuioBlob</text>
</a>
</g>
</g>
<!-- Node1&#45;&gt;Node4 -->
<g id="edge3" class="edge">
<title>Node1&#45;&gt;Node4</title>
<path fill="none" stroke="midnightblue" d="M561.37,-182.33C540.25,-192.03 511.09,-205.06 485,-215.5 477.43,-218.53 469.31,-221.59 461.42,-224.47"/>
<polygon fill="midnightblue" stroke="midnightblue" points="562.86,-185.51 570.47,-178.14 559.93,-179.15 562.86,-185.51"/>
</g>
<!-- Node5 -->
<g id="node5" class="node">
<title>Node5</title>
<g id="a_node5"><a xlink:href="../../d2/d82/classTUIO_1_1TuioManager.html#aeb065e0e33c386af05bcb7c670e4c352" target="_top" xlink:title=" ">
<polygon fill="white" stroke="black" points="359.5,-175.5 359.5,-205.5 474.5,-205.5 474.5,-175.5 359.5,-175.5"/>
<text text-anchor="start" x="367.5" y="-193.5" font-family="Helvetica,sans-Serif" font-size="10.00">TUIO::TuioManager::</text>
<text text-anchor="middle" x="417" y="-182.5" font-family="Helvetica,sans-Serif" font-size="10.00">removeTuioBlob</text>
</a>
</g>
</g>
<!-- Node1&#45;&gt;Node5 -->
<g id="edge4" class="edge">
<title>Node1&#45;&gt;Node5</title>
<path fill="none" stroke="midnightblue" d="M510.49,-178.74C498.34,-180.28 486.03,-181.85 474.53,-183.31"/>
<polygon fill="midnightblue" stroke="midnightblue" points="511.16,-182.18 520.63,-177.45 510.27,-175.24 511.16,-182.18"/>
</g>
<!-- Node8 -->
<g id="node8" class="node">
<title>Node8</title>
<g id="a_node8"><a xlink:href="../../d2/d82/classTUIO_1_1TuioManager.html#a8e3905a2a7fb550ba795676be3e0b49b" target="_top" xlink:title=" ">
<polygon fill="white" stroke="black" points="150,-128.5 150,-158.5 303,-158.5 303,-128.5 150,-128.5"/>
<text text-anchor="start" x="158" y="-146.5" font-family="Helvetica,sans-Serif" font-size="10.00">TUIO::TuioManager::</text>
<text text-anchor="middle" x="226.5" y="-135.5" font-family="Helvetica,sans-Serif" font-size="10.00">stopUntouchedMovingBlobs</text>
</a>
</g>
</g>
<!-- Node1&#45;&gt;Node8 -->
<g id="edge7" class="edge">
<title>Node1&#45;&gt;Node8</title>
<path fill="none" stroke="midnightblue" d="M510.79,-162.98C448.85,-158.72 363.74,-152.87 303.01,-148.69"/>
<polygon fill="midnightblue" stroke="midnightblue" points="510.7,-166.49 520.91,-163.68 511.18,-159.5 510.7,-166.49"/>
</g>
<!-- Node9 -->
<g id="node9" class="node">
<title>Node9</title>
<g id="a_node9"><a xlink:href="../../d1/dcf/classTUIO_1_1TuioBlob.html#a614d095e3e8a23996489bef0288f9acd" target="_top" xlink:title=" ">
<polygon fill="white" stroke="black" points="349.5,-99 349.5,-118 484.5,-118 484.5,-99 349.5,-99"/>
<text text-anchor="middle" x="417" y="-106" font-family="Helvetica,sans-Serif" font-size="10.00">TUIO::TuioBlob::TuioBlob</text>
</a>
</g>
</g>
<!-- Node1&#45;&gt;Node9 -->
<g id="edge9" class="edge">
<title>Node1&#45;&gt;Node9</title>
<path fill="none" stroke="midnightblue" d="M553.98,-155.66C521.47,-144.39 474.9,-128.23 445.57,-118.06"/>
<polygon fill="midnightblue" stroke="midnightblue" points="552.99,-159.02 563.59,-158.99 555.29,-152.41 552.99,-159.02"/>
</g>
<!-- Node10 -->
<g id="node10" class="node">
<title>Node10</title>
<g id="a_node10"><a xlink:href="../../d2/d82/classTUIO_1_1TuioManager.html#a3563251a5257e75633d6d30b269f69f0" target="_top" xlink:title=" ">
<polygon fill="white" stroke="black" points="351,-49.5 351,-79.5 483,-79.5 483,-49.5 351,-49.5"/>
<text text-anchor="start" x="359" y="-67.5" font-family="Helvetica,sans-Serif" font-size="10.00">TUIO::TuioManager::</text>
<text text-anchor="middle" x="417" y="-56.5" font-family="Helvetica,sans-Serif" font-size="10.00">updateExternalTuioBlob</text>
</a>
</g>
</g>
<!-- Node1&#45;&gt;Node10 -->
<g id="edge10" class="edge">
<title>Node1&#45;&gt;Node10</title>
<path fill="none" stroke="midnightblue" d="M572.44,-152.08C552.1,-134.74 517.98,-107.47 485,-89.5 478.35,-85.88 471.06,-82.56 463.82,-79.61"/>
<polygon fill="midnightblue" stroke="midnightblue" points="570.41,-154.96 580.26,-158.85 574.99,-149.66 570.41,-154.96"/>
</g>
<!-- Node11 -->
<g id="node11" class="node">
<title>Node11</title>
<g id="a_node11"><a xlink:href="../../d2/d82/classTUIO_1_1TuioManager.html#aa532b9759c1a39b18e59740b7b268bab" target="_top" xlink:title=" ">
<polygon fill="white" stroke="black" points="359.5,-0.5 359.5,-30.5 474.5,-30.5 474.5,-0.5 359.5,-0.5"/>
<text text-anchor="start" x="367.5" y="-18.5" font-family="Helvetica,sans-Serif" font-size="10.00">TUIO::TuioManager::</text>
<text text-anchor="middle" x="417" y="-7.5" font-family="Helvetica,sans-Serif" font-size="10.00">updateTuioBlob</text>
</a>
</g>
</g>
<!-- Node1&#45;&gt;Node11 -->
<g id="edge11" class="edge">
<title>Node1&#45;&gt;Node11</title>
<path fill="none" stroke="midnightblue" d="M580.5,-150.23C563.7,-122.54 528.25,-69.95 485,-39.5 480.15,-36.09 474.76,-33.11 469.21,-30.52"/>
<polygon fill="midnightblue" stroke="midnightblue" points="577.53,-152.09 585.64,-158.91 583.55,-148.52 577.53,-152.09"/>
</g>
<!-- Node6 -->
<g id="node6" class="node">
<title>Node6</title>
<g id="a_node6"><a xlink:href="../../d2/d82/classTUIO_1_1TuioManager.html#a0063262b037e56b554a31f90a81d53bb" target="_top" xlink:title=" ">
<polygon fill="white" stroke="black" points="140,-177.5 140,-207.5 313,-207.5 313,-177.5 140,-177.5"/>
<text text-anchor="start" x="148" y="-195.5" font-family="Helvetica,sans-Serif" font-size="10.00">TUIO::TuioManager::</text>
<text text-anchor="middle" x="226.5" y="-184.5" font-family="Helvetica,sans-Serif" font-size="10.00">removeUntouchedStoppedBlobs</text>
</a>
</g>
</g>
<!-- Node5&#45;&gt;Node6 -->
<g id="edge5" class="edge">
<title>Node5&#45;&gt;Node6</title>
<path fill="none" stroke="midnightblue" d="M349.37,-191.21C337.7,-191.33 325.4,-191.46 313.3,-191.59"/>
<polygon fill="midnightblue" stroke="midnightblue" points="349.48,-194.71 359.44,-191.1 349.41,-187.71 349.48,-194.71"/>
</g>
<!-- Node7 -->
<g id="node7" class="node">
<title>Node7</title>
<g id="a_node7"><a xlink:href="../../d8/dc8/classTUIO_1_1TuioServer.html#ab3b84d7f13f0cecc4709ae7ff0e89118" target="_top" xlink:title=" ">
<polygon fill="white" stroke="black" points="0,-152.5 0,-182.5 104,-182.5 104,-152.5 0,-152.5"/>
<text text-anchor="start" x="8" y="-170.5" font-family="Helvetica,sans-Serif" font-size="10.00">TUIO::TuioServer::</text>
<text text-anchor="middle" x="52" y="-159.5" font-family="Helvetica,sans-Serif" font-size="10.00">~TuioServer</text>
</a>
</g>
</g>
<!-- Node6&#45;&gt;Node7 -->
<g id="edge6" class="edge">
<title>Node6&#45;&gt;Node7</title>
<path fill="none" stroke="midnightblue" d="M129.78,-178.63C120.98,-177.35 112.32,-176.1 104.16,-174.91"/>
<polygon fill="midnightblue" stroke="midnightblue" points="129.36,-182.1 139.76,-180.07 130.36,-175.18 129.36,-182.1"/>
</g>
<!-- Node8&#45;&gt;Node7 -->
<g id="edge8" class="edge">
<title>Node8&#45;&gt;Node7</title>
<path fill="none" stroke="midnightblue" d="M139.64,-155.45C127.46,-157.14 115.27,-158.84 104.05,-160.4"/>
<polygon fill="midnightblue" stroke="midnightblue" points="140.42,-158.87 149.84,-154.03 139.45,-151.94 140.42,-158.87"/>
</g>
</g>
</svg>
