<?xml version="1.0" encoding="UTF-8" standalone="no"?>
<!DOCTYPE svg PUBLIC "-//W3C//DTD SVG 1.1//EN"
 "http://www.w3.org/Graphics/SVG/1.1/DTD/svg11.dtd">
<!-- Generated by graphviz version 2.43.0 (0)
 -->
<!-- Title: TUIO::TuioBlob::getAngle Pages: 1 -->
<svg width="474pt" height="312pt"
 viewBox="0.00 0.00 474.00 312.00" xmlns="http://www.w3.org/2000/svg" xmlns:xlink="http://www.w3.org/1999/xlink">
<g id="graph0" class="graph" transform="scale(1 1) rotate(0) translate(4 308)">
<title>TUIO::TuioBlob::getAngle</title>
<polygon fill="white" stroke="transparent" points="-4,4 -4,-308 470,-308 470,4 -4,4"/>
<!-- Node1 -->
<g id="node1" class="node">
<title>Node1</title>
<g id="a_node1"><a xlink:title=" ">
<polygon fill="#bfbfbf" stroke="black" points="329,-137 329,-156 466,-156 466,-137 329,-137"/>
<text text-anchor="middle" x="397.5" y="-144" font-family="Helvetica,sans-Serif" font-size="10.00">TUIO::TuioBlob::getAngle</text>
</a>
</g>
</g>
<!-- Node2 -->
<g id="node2" class="node">
<title>Node2</title>
<g id="a_node2"><a xlink:href="../../d2/d82/classTUIO_1_1TuioManager.html#aa3bf208467095db93ab6f7d0f66eba06" target="_top" xlink:title=" ">
<polygon fill="white" stroke="black" points="158.5,-273.5 158.5,-303.5 274.5,-303.5 274.5,-273.5 158.5,-273.5"/>
<text text-anchor="start" x="166.5" y="-291.5" font-family="Helvetica,sans-Serif" font-size="10.00">TUIO::TuioManager::</text>
<text text-anchor="middle" x="216.5" y="-280.5" font-family="Helvetica,sans-Serif" font-size="10.00">addExternalTuioBlob</text>
</a>
</g>
</g>
<!-- Node1&#45;&gt;Node2 -->
<g id="edge1" class="edge">
<title>Node1&#45;&gt;Node2</title>
<path fill="none" stroke="midnightblue" d="M385.38,-164.47C368.51,-190.27 334.03,-237.66 293,-264.5 287.36,-268.19 281.11,-271.35 274.7,-274.04"/>
<polygon fill="midnightblue" stroke="midnightblue" points="388.34,-166.33 390.78,-156.01 382.44,-162.56 388.34,-166.33"/>
</g>
<!-- Node3 -->
<g id="node3" class="node">
<title>Node3</title>
<g id="a_node3"><a xlink:href="../../d2/d82/classTUIO_1_1TuioManager.html#a7925107580bde23e4293e27795633c8e" target="_top" xlink:title=" ">
<polygon fill="white" stroke="black" points="159,-224.5 159,-254.5 274,-254.5 274,-224.5 159,-224.5"/>
<text text-anchor="start" x="167" y="-242.5" font-family="Helvetica,sans-Serif" font-size="10.00">TUIO::TuioManager::</text>
<text text-anchor="middle" x="216.5" y="-231.5" font-family="Helvetica,sans-Serif" font-size="10.00">addTuioBlob</text>
</a>
</g>
</g>
<!-- Node1&#45;&gt;Node3 -->
<g id="edge2" class="edge">
<title>Node1&#45;&gt;Node3</title>
<path fill="none" stroke="midnightblue" d="M376.34,-162.44C356.19,-177.75 323.86,-200.67 293,-215.5 286.18,-218.78 278.81,-221.75 271.43,-224.41"/>
<polygon fill="midnightblue" stroke="midnightblue" points="378.65,-165.07 384.44,-156.2 374.38,-159.53 378.65,-165.07"/>
</g>
<!-- Node4 -->
<g id="node4" class="node">
<title>Node4</title>
<g id="a_node4"><a xlink:href="../../d2/d82/classTUIO_1_1TuioManager.html#a8e3905a2a7fb550ba795676be3e0b49b" target="_top" xlink:title=" ">
<polygon fill="white" stroke="black" points="140,-175.5 140,-205.5 293,-205.5 293,-175.5 140,-175.5"/>
<text text-anchor="start" x="148" y="-193.5" font-family="Helvetica,sans-Serif" font-size="10.00">TUIO::TuioManager::</text>
<text text-anchor="middle" x="216.5" y="-182.5" font-family="Helvetica,sans-Serif" font-size="10.00">stopUntouchedMovingBlobs</text>
</a>
</g>
</g>
<!-- Node1&#45;&gt;Node4 -->
<g id="edge3" class="edge">
<title>Node1&#45;&gt;Node4</title>
<path fill="none" stroke="midnightblue" d="M347.86,-158.46C326.57,-163.69 301.35,-169.89 278.79,-175.43"/>
<polygon fill="midnightblue" stroke="midnightblue" points="348.78,-161.83 357.66,-156.05 347.11,-155.04 348.78,-161.83"/>
</g>
<!-- Node6 -->
<g id="node6" class="node">
<title>Node6</title>
<g id="a_node6"><a xlink:href="../../d1/dcf/classTUIO_1_1TuioBlob.html#a614d095e3e8a23996489bef0288f9acd" target="_top" xlink:title=" ">
<polygon fill="white" stroke="black" points="149,-137 149,-156 284,-156 284,-137 149,-137"/>
<text text-anchor="middle" x="216.5" y="-144" font-family="Helvetica,sans-Serif" font-size="10.00">TUIO::TuioBlob::TuioBlob</text>
</a>
</g>
</g>
<!-- Node1&#45;&gt;Node6 -->
<g id="edge5" class="edge">
<title>Node1&#45;&gt;Node6</title>
<path fill="none" stroke="midnightblue" d="M318.76,-146.5C307.2,-146.5 295.38,-146.5 284.08,-146.5"/>
<polygon fill="midnightblue" stroke="midnightblue" points="318.83,-150 328.83,-146.5 318.83,-143 318.83,-150"/>
</g>
<!-- Node7 -->
<g id="node7" class="node">
<title>Node7</title>
<g id="a_node7"><a xlink:href="../../d1/dcf/classTUIO_1_1TuioBlob.html#ae0d74d93c5f7707f066ec7e5e0f6f8d5" target="_top" xlink:title=" ">
<polygon fill="white" stroke="black" points="152.5,-99 152.5,-118 280.5,-118 280.5,-99 152.5,-99"/>
<text text-anchor="middle" x="216.5" y="-106" font-family="Helvetica,sans-Serif" font-size="10.00">TUIO::TuioBlob::update</text>
</a>
</g>
</g>
<!-- Node1&#45;&gt;Node7 -->
<g id="edge6" class="edge">
<title>Node1&#45;&gt;Node7</title>
<path fill="none" stroke="midnightblue" d="M341.48,-134.82C316.09,-129.43 286.34,-123.11 262.34,-118.02"/>
<polygon fill="midnightblue" stroke="midnightblue" points="340.82,-138.26 351.33,-136.91 342.28,-131.41 340.82,-138.26"/>
</g>
<!-- Node8 -->
<g id="node8" class="node">
<title>Node8</title>
<g id="a_node8"><a xlink:href="../../d2/d82/classTUIO_1_1TuioManager.html#a3563251a5257e75633d6d30b269f69f0" target="_top" xlink:title=" ">
<polygon fill="white" stroke="black" points="150.5,-49.5 150.5,-79.5 282.5,-79.5 282.5,-49.5 150.5,-49.5"/>
<text text-anchor="start" x="158.5" y="-67.5" font-family="Helvetica,sans-Serif" font-size="10.00">TUIO::TuioManager::</text>
<text text-anchor="middle" x="216.5" y="-56.5" font-family="Helvetica,sans-Serif" font-size="10.00">updateExternalTuioBlob</text>
</a>
</g>
</g>
<!-- Node1&#45;&gt;Node8 -->
<g id="edge7" class="edge">
<title>Node1&#45;&gt;Node8</title>
<path fill="none" stroke="midnightblue" d="M372.47,-131.61C351.9,-119.27 321.21,-101.81 293,-89.5 284.9,-85.96 276.13,-82.63 267.54,-79.63"/>
<polygon fill="midnightblue" stroke="midnightblue" points="370.81,-134.69 381.17,-136.89 374.44,-128.71 370.81,-134.69"/>
</g>
<!-- Node9 -->
<g id="node9" class="node">
<title>Node9</title>
<g id="a_node9"><a xlink:href="../../d2/d82/classTUIO_1_1TuioManager.html#aa532b9759c1a39b18e59740b7b268bab" target="_top" xlink:title=" ">
<polygon fill="white" stroke="black" points="159,-0.5 159,-30.5 274,-30.5 274,-0.5 159,-0.5"/>
<text text-anchor="start" x="167" y="-18.5" font-family="Helvetica,sans-Serif" font-size="10.00">TUIO::TuioManager::</text>
<text text-anchor="middle" x="216.5" y="-7.5" font-family="Helvetica,sans-Serif" font-size="10.00">updateTuioBlob</text>
</a>
</g>
</g>
<!-- Node1&#45;&gt;Node9 -->
<g id="edge8" class="edge">
<title>Node1&#45;&gt;Node9</title>
<path fill="none" stroke="midnightblue" d="M383.61,-128.77C365.74,-105.39 331.29,-64.43 293,-40.5 286.91,-36.69 280.18,-33.4 273.32,-30.58"/>
<polygon fill="midnightblue" stroke="midnightblue" points="380.82,-130.89 389.62,-136.8 386.43,-126.7 380.82,-130.89"/>
</g>
<!-- Node5 -->
<g id="node5" class="node">
<title>Node5</title>
<g id="a_node5"><a xlink:href="../../d8/dc8/classTUIO_1_1TuioServer.html#ab3b84d7f13f0cecc4709ae7ff0e89118" target="_top" xlink:title=" ">
<polygon fill="white" stroke="black" points="0,-175.5 0,-205.5 104,-205.5 104,-175.5 0,-175.5"/>
<text text-anchor="start" x="8" y="-193.5" font-family="Helvetica,sans-Serif" font-size="10.00">TUIO::TuioServer::</text>
<text text-anchor="middle" x="52" y="-182.5" font-family="Helvetica,sans-Serif" font-size="10.00">~TuioServer</text>
</a>
</g>
</g>
<!-- Node4&#45;&gt;Node5 -->
<g id="edge4" class="edge">
<title>Node4&#45;&gt;Node5</title>
<path fill="none" stroke="midnightblue" d="M129.73,-190.5C121.03,-190.5 112.39,-190.5 104.23,-190.5"/>
<polygon fill="midnightblue" stroke="midnightblue" points="129.96,-194 139.96,-190.5 129.96,-187 129.96,-194"/>
</g>
</g>
</svg>
