<?xml version="1.0" encoding="UTF-8" standalone="no"?>
<!DOCTYPE svg PUBLIC "-//W3C//DTD SVG 1.1//EN"
 "http://www.w3.org/Graphics/SVG/1.1/DTD/svg11.dtd">
<!-- Generated by graphviz version 2.43.0 (0)
 -->
<!-- Title: TUIO::TuioContainer::setSessionID Pages: 1 -->
<svg width="283pt" height="137pt"
 viewBox="0.00 0.00 283.00 137.00" xmlns="http://www.w3.org/2000/svg" xmlns:xlink="http://www.w3.org/1999/xlink">
<g id="graph0" class="graph" transform="scale(1 1) rotate(0) translate(4 133)">
<title>TUIO::TuioContainer::setSessionID</title>
<polygon fill="white" stroke="transparent" points="-4,4 -4,-133 279,-133 279,4 -4,4"/>
<!-- Node1 -->
<g id="node1" class="node">
<title>Node1</title>
<g id="a_node1"><a xlink:title=" ">
<polygon fill="#bfbfbf" stroke="black" points="162,-49.5 162,-79.5 275,-79.5 275,-49.5 162,-49.5"/>
<text text-anchor="start" x="170" y="-67.5" font-family="Helvetica,sans-Serif" font-size="10.00">TUIO::TuioContainer</text>
<text text-anchor="middle" x="218.5" y="-56.5" font-family="Helvetica,sans-Serif" font-size="10.00">::setSessionID</text>
</a>
</g>
</g>
<!-- Node2 -->
<g id="node2" class="node">
<title>Node2</title>
<g id="a_node2"><a xlink:href="../../d2/d82/classTUIO_1_1TuioManager.html#aa3bf208467095db93ab6f7d0f66eba06" target="_top" xlink:title=" ">
<polygon fill="white" stroke="black" points="5,-98.5 5,-128.5 121,-128.5 121,-98.5 5,-98.5"/>
<text text-anchor="start" x="13" y="-116.5" font-family="Helvetica,sans-Serif" font-size="10.00">TUIO::TuioManager::</text>
<text text-anchor="middle" x="63" y="-105.5" font-family="Helvetica,sans-Serif" font-size="10.00">addExternalTuioBlob</text>
</a>
</g>
</g>
<!-- Node1&#45;&gt;Node2 -->
<g id="edge1" class="edge">
<title>Node1&#45;&gt;Node2</title>
<path fill="none" stroke="midnightblue" d="M160.3,-82.76C144.11,-87.93 126.68,-93.49 111.15,-98.45"/>
<polygon fill="midnightblue" stroke="midnightblue" points="161.73,-85.98 170.19,-79.6 159.6,-79.31 161.73,-85.98"/>
</g>
<!-- Node3 -->
<g id="node3" class="node">
<title>Node3</title>
<g id="a_node3"><a xlink:href="../../d2/d82/classTUIO_1_1TuioManager.html#a47b243461b2c22cce0a064d8a1f8ce31" target="_top" xlink:title=" ">
<polygon fill="white" stroke="black" points="0,-49.5 0,-79.5 126,-79.5 126,-49.5 0,-49.5"/>
<text text-anchor="start" x="8" y="-67.5" font-family="Helvetica,sans-Serif" font-size="10.00">TUIO::TuioManager::</text>
<text text-anchor="middle" x="63" y="-56.5" font-family="Helvetica,sans-Serif" font-size="10.00">addExternalTuioCursor</text>
</a>
</g>
</g>
<!-- Node1&#45;&gt;Node3 -->
<g id="edge2" class="edge">
<title>Node1&#45;&gt;Node3</title>
<path fill="none" stroke="midnightblue" d="M151.47,-64.5C143.03,-64.5 134.41,-64.5 126.04,-64.5"/>
<polygon fill="midnightblue" stroke="midnightblue" points="151.65,-68 161.65,-64.5 151.65,-61 151.65,-68"/>
</g>
<!-- Node4 -->
<g id="node4" class="node">
<title>Node4</title>
<g id="a_node4"><a xlink:href="../../d2/d82/classTUIO_1_1TuioManager.html#ab8bede39e174712efd1ef97a16a39d98" target="_top" xlink:title=" ">
<polygon fill="white" stroke="black" points="0,-0.5 0,-30.5 126,-30.5 126,-0.5 0,-0.5"/>
<text text-anchor="start" x="8" y="-18.5" font-family="Helvetica,sans-Serif" font-size="10.00">TUIO::TuioManager::</text>
<text text-anchor="middle" x="63" y="-7.5" font-family="Helvetica,sans-Serif" font-size="10.00">addExternalTuioObject</text>
</a>
</g>
</g>
<!-- Node1&#45;&gt;Node4 -->
<g id="edge3" class="edge">
<title>Node1&#45;&gt;Node4</title>
<path fill="none" stroke="midnightblue" d="M160.3,-46.24C144.11,-41.07 126.68,-35.51 111.15,-30.55"/>
<polygon fill="midnightblue" stroke="midnightblue" points="159.6,-49.69 170.19,-49.4 161.73,-43.02 159.6,-49.69"/>
</g>
</g>
</svg>
