<?xml version="1.0" encoding="UTF-8" standalone="no"?>
<!DOCTYPE svg PUBLIC "-//W3C//DTD SVG 1.1//EN"
 "http://www.w3.org/Graphics/SVG/1.1/DTD/svg11.dtd">
<!-- Generated by graphviz version 2.43.0 (0)
 -->
<!-- Title: TUIO::TuioContainer::getXSpeed Pages: 1 -->
<!--zoomable 480 -->
<svg id="main" version="1.1" xmlns="http://www.w3.org/2000/svg" xmlns:xlink="http://www.w3.org/1999/xlink" xml:space="preserve" onload="init(evt)">
<style type="text/css"><![CDATA[
.edge:hover path { stroke: red; }
.edge:hover polygon { stroke: red; fill: red; }
]]></style>
<script type="text/javascript"><![CDATA[
var edges = document.getElementsByTagName('g');
if (edges && edges.length) {
  for (var i=0;i<edges.length;i++) {
    if (edges[i].id.substr(0,4)=='edge') {
      edges[i].setAttribute('class','edge');
    }
  }
}
]]></script>
        <defs>
                <circle id="rim" cx="0" cy="0" r="7"/>
                <circle id="rim2" cx="0" cy="0" r="3.5"/>
                <g id="zoomPlus">
                        <use xlink:href="#rim" fill="#404040">
                                <set attributeName="fill" to="#808080" begin="zoomplus.mouseover" end="zoomplus.mouseout"/>
                        </use>
                        <path d="M-4,0h8M0,-4v8" fill="none" stroke="white" stroke-width="1.5" pointer-events="none"/>
                </g>
                <g id="zoomMin">
                        <use xlink:href="#rim" fill="#404040">
                                <set attributeName="fill" to="#808080" begin="zoomminus.mouseover" end="zoomminus.mouseout"/>
                        </use>
                        <path d="M-4,0h8" fill="none" stroke="white" stroke-width="1.5" pointer-events="none"/>
                </g>
                <g id="dirArrow">
                        <path fill="none" stroke="white" stroke-width="1.5" d="M0,-3.0v7 M-2.5,-0.5L0,-3.0L2.5,-0.5"/>
                </g>
               <g id="resetDef">
                       <use xlink:href="#rim2" fill="#404040">
                               <set attributeName="fill" to="#808080" begin="reset.mouseover" end="reset.mouseout"/>
                       </use>
               </g>
        </defs>

<script type="text/javascript">
var viewWidth = 460;
var viewHeight = 480;
var sectionId = 'dynsection-23';
</script>
<script xlink:href="../../svgpan.js"/>
<svg id="graph" class="graph">
<g id="viewport">
<title>TUIO::TuioContainer::getXSpeed</title>
<polygon fill="white" stroke="transparent" points="-4,4 -4,-476 456,-476 456,4 -4,4"/>
<!-- Node1 -->
<g id="node1" class="node">
<title>Node1</title>
<g id="a_node1"><a xlink:title=" ">
<polygon fill="#bfbfbf" stroke="black" points="339,-220.5 339,-250.5 452,-250.5 452,-220.5 339,-220.5"/>
<text text-anchor="start" x="347" y="-238.5" font-family="Helvetica,sans-Serif" font-size="10.00">TUIO::TuioContainer</text>
<text text-anchor="middle" x="395.5" y="-227.5" font-family="Helvetica,sans-Serif" font-size="10.00">::getXSpeed</text>
</a>
</g>
</g>
<!-- Node2 -->
<g id="node2" class="node">
<title>Node2</title>
<g id="a_node2"><a xlink:href="../../d2/d82/classTUIO_1_1TuioManager.html#a8e3905a2a7fb550ba795676be3e0b49b" target="_top" xlink:title=" ">
<polygon fill="white" stroke="black" points="145,-441.5 145,-471.5 298,-471.5 298,-441.5 145,-441.5"/>
<text text-anchor="start" x="153" y="-459.5" font-family="Helvetica,sans-Serif" font-size="10.00">TUIO::TuioManager::</text>
<text text-anchor="middle" x="221.5" y="-448.5" font-family="Helvetica,sans-Serif" font-size="10.00">stopUntouchedMovingBlobs</text>
</a>
</g>
</g>
<!-- Node1&#45;&gt;Node2 -->
<g id="edge1" class="edge">
<title>Node1&#45;&gt;Node2</title>
<path fill="none" stroke="midnightblue" d="M389.8,-260.53C380.63,-302.34 356.41,-386.33 303,-432.5 299.03,-435.93 294.58,-438.88 289.87,-441.4"/>
<polygon fill="midnightblue" stroke="midnightblue" points="393.25,-261.13 391.86,-250.63 386.4,-259.7 393.25,-261.13"/>
</g>
<!-- Node4 -->
<g id="node4" class="node">
<title>Node4</title>
<g id="a_node4"><a xlink:href="../../d2/d82/classTUIO_1_1TuioManager.html#adfc49bad8bab2420269d7d3e3b9002a1" target="_top" xlink:title=" ">
<polygon fill="white" stroke="black" points="140,-392.5 140,-422.5 303,-422.5 303,-392.5 140,-392.5"/>
<text text-anchor="start" x="148" y="-410.5" font-family="Helvetica,sans-Serif" font-size="10.00">TUIO::TuioManager::</text>
<text text-anchor="middle" x="221.5" y="-399.5" font-family="Helvetica,sans-Serif" font-size="10.00">stopUntouchedMovingCursors</text>
</a>
</g>
</g>
<!-- Node1&#45;&gt;Node4 -->
<g id="edge3" class="edge">
<title>Node1&#45;&gt;Node4</title>
<path fill="none" stroke="midnightblue" d="M385.8,-259.95C372.86,-292.87 345.39,-351.05 303,-383.5 298.48,-386.96 293.48,-389.92 288.23,-392.45"/>
<polygon fill="midnightblue" stroke="midnightblue" points="389.08,-261.2 389.36,-250.61 382.53,-258.71 389.08,-261.2"/>
</g>
<!-- Node5 -->
<g id="node5" class="node">
<title>Node5</title>
<g id="a_node5"><a xlink:href="../../d2/d82/classTUIO_1_1TuioManager.html#abd2007ba7fce0494c2abfca7f737808f" target="_top" xlink:title=" ">
<polygon fill="white" stroke="black" points="140,-343.5 140,-373.5 303,-373.5 303,-343.5 140,-343.5"/>
<text text-anchor="start" x="148" y="-361.5" font-family="Helvetica,sans-Serif" font-size="10.00">TUIO::TuioManager::</text>
<text text-anchor="middle" x="221.5" y="-350.5" font-family="Helvetica,sans-Serif" font-size="10.00">stopUntouchedMovingObjects</text>
</a>
</g>
</g>
<!-- Node1&#45;&gt;Node5 -->
<g id="edge5" class="edge">
<title>Node1&#45;&gt;Node5</title>
<path fill="none" stroke="midnightblue" d="M378.62,-258.93C362.2,-281.44 334.56,-314.83 303,-334.5 297.55,-337.89 291.6,-340.83 285.48,-343.36"/>
<polygon fill="midnightblue" stroke="midnightblue" points="381.6,-260.78 384.55,-250.6 375.9,-256.72 381.6,-260.78"/>
</g>
<!-- Node6 -->
<g id="node6" class="node">
<title>Node6</title>
<g id="a_node6"><a xlink:href="../../d8/de3/classTUIO_1_1TuioContainer.html#a1acceee4f1b609bd31a1775787e9e51c" target="_top" xlink:title=" ">
<polygon fill="white" stroke="black" points="165,-294.5 165,-324.5 278,-324.5 278,-294.5 165,-294.5"/>
<text text-anchor="start" x="173" y="-312.5" font-family="Helvetica,sans-Serif" font-size="10.00">TUIO::TuioContainer</text>
<text text-anchor="middle" x="221.5" y="-301.5" font-family="Helvetica,sans-Serif" font-size="10.00">::update</text>
</a>
</g>
</g>
<!-- Node1&#45;&gt;Node6 -->
<g id="edge7" class="edge">
<title>Node1&#45;&gt;Node6</title>
<path fill="none" stroke="midnightblue" d="M361.36,-255.81C344.34,-265.67 323.02,-277.16 303,-285.5 295.06,-288.81 286.5,-291.87 278.03,-294.62"/>
<polygon fill="midnightblue" stroke="midnightblue" points="363.5,-258.62 370.34,-250.53 359.95,-252.58 363.5,-258.62"/>
</g>
<!-- Node7 -->
<g id="node7" class="node">
<title>Node7</title>
<g id="a_node7"><a xlink:href="../../d2/d82/classTUIO_1_1TuioManager.html#a3563251a5257e75633d6d30b269f69f0" target="_top" xlink:title=" ">
<polygon fill="white" stroke="black" points="155.5,-245.5 155.5,-275.5 287.5,-275.5 287.5,-245.5 155.5,-245.5"/>
<text text-anchor="start" x="163.5" y="-263.5" font-family="Helvetica,sans-Serif" font-size="10.00">TUIO::TuioManager::</text>
<text text-anchor="middle" x="221.5" y="-252.5" font-family="Helvetica,sans-Serif" font-size="10.00">updateExternalTuioBlob</text>
</a>
</g>
</g>
<!-- Node1&#45;&gt;Node7 -->
<g id="edge8" class="edge">
<title>Node1&#45;&gt;Node7</title>
<path fill="none" stroke="midnightblue" d="M328.55,-245.09C315.13,-247.04 301.03,-249.09 287.64,-251.03"/>
<polygon fill="midnightblue" stroke="midnightblue" points="329.26,-248.52 338.66,-243.62 328.26,-241.59 329.26,-248.52"/>
</g>
<!-- Node8 -->
<g id="node8" class="node">
<title>Node8</title>
<g id="a_node8"><a xlink:href="../../d2/d82/classTUIO_1_1TuioManager.html#a90a7c5cf07d57c95cd12a0c5ea1d7564" target="_top" xlink:title=" ">
<polygon fill="white" stroke="black" points="150.5,-196.5 150.5,-226.5 292.5,-226.5 292.5,-196.5 150.5,-196.5"/>
<text text-anchor="start" x="158.5" y="-214.5" font-family="Helvetica,sans-Serif" font-size="10.00">TUIO::TuioManager::</text>
<text text-anchor="middle" x="221.5" y="-203.5" font-family="Helvetica,sans-Serif" font-size="10.00">updateExternalTuioCursor</text>
</a>
</g>
</g>
<!-- Node1&#45;&gt;Node8 -->
<g id="edge9" class="edge">
<title>Node1&#45;&gt;Node8</title>
<path fill="none" stroke="midnightblue" d="M328.47,-226.29C316.7,-224.64 304.4,-222.93 292.52,-221.27"/>
<polygon fill="midnightblue" stroke="midnightblue" points="328.27,-229.79 338.66,-227.71 329.24,-222.86 328.27,-229.79"/>
</g>
<!-- Node9 -->
<g id="node9" class="node">
<title>Node9</title>
<g id="a_node9"><a xlink:href="../../d2/d82/classTUIO_1_1TuioManager.html#a378d02744ada2cde0d0887612d5cb7c1" target="_top" xlink:title=" ">
<polygon fill="white" stroke="black" points="150.5,-147.5 150.5,-177.5 292.5,-177.5 292.5,-147.5 150.5,-147.5"/>
<text text-anchor="start" x="158.5" y="-165.5" font-family="Helvetica,sans-Serif" font-size="10.00">TUIO::TuioManager::</text>
<text text-anchor="middle" x="221.5" y="-154.5" font-family="Helvetica,sans-Serif" font-size="10.00">updateExternalTuioObject</text>
</a>
</g>
</g>
<!-- Node1&#45;&gt;Node9 -->
<g id="edge10" class="edge">
<title>Node1&#45;&gt;Node9</title>
<path fill="none" stroke="midnightblue" d="M359.78,-215.37C342.97,-206.13 322.3,-195.48 303,-187.5 294.35,-183.92 284.99,-180.57 275.82,-177.55"/>
<polygon fill="midnightblue" stroke="midnightblue" points="358.24,-218.53 368.68,-220.34 361.65,-212.41 358.24,-218.53"/>
</g>
<!-- Node10 -->
<g id="node10" class="node">
<title>Node10</title>
<g id="a_node10"><a xlink:href="../../d2/d82/classTUIO_1_1TuioManager.html#aa532b9759c1a39b18e59740b7b268bab" target="_top" xlink:title=" ">
<polygon fill="white" stroke="black" points="164,-98.5 164,-128.5 279,-128.5 279,-98.5 164,-98.5"/>
<text text-anchor="start" x="172" y="-116.5" font-family="Helvetica,sans-Serif" font-size="10.00">TUIO::TuioManager::</text>
<text text-anchor="middle" x="221.5" y="-105.5" font-family="Helvetica,sans-Serif" font-size="10.00">updateTuioBlob</text>
</a>
</g>
</g>
<!-- Node1&#45;&gt;Node10 -->
<g id="edge11" class="edge">
<title>Node1&#45;&gt;Node10</title>
<path fill="none" stroke="midnightblue" d="M378.19,-212.26C361.62,-190.28 334.04,-157.87 303,-138.5 295.67,-133.93 287.45,-130.14 279.13,-127.01"/>
<polygon fill="midnightblue" stroke="midnightblue" points="375.44,-214.43 384.19,-220.41 381.08,-210.28 375.44,-214.43"/>
</g>
<!-- Node11 -->
<g id="node11" class="node">
<title>Node11</title>
<g id="a_node11"><a xlink:href="../../d2/d82/classTUIO_1_1TuioManager.html#a3bfeef585a46f4cad7203c106ddf1959" target="_top" xlink:title=" ">
<polygon fill="white" stroke="black" points="164,-49.5 164,-79.5 279,-79.5 279,-49.5 164,-49.5"/>
<text text-anchor="start" x="172" y="-67.5" font-family="Helvetica,sans-Serif" font-size="10.00">TUIO::TuioManager::</text>
<text text-anchor="middle" x="221.5" y="-56.5" font-family="Helvetica,sans-Serif" font-size="10.00">updateTuioCursor</text>
</a>
</g>
</g>
<!-- Node1&#45;&gt;Node11 -->
<g id="edge12" class="edge">
<title>Node1&#45;&gt;Node11</title>
<path fill="none" stroke="midnightblue" d="M385.29,-210.52C372.03,-177.97 344.49,-121.44 303,-89.5 295.93,-84.05 287.65,-79.79 279.15,-76.44"/>
<polygon fill="midnightblue" stroke="midnightblue" points="382.17,-212.16 389.09,-220.19 388.69,-209.6 382.17,-212.16"/>
</g>
<!-- Node12 -->
<g id="node12" class="node">
<title>Node12</title>
<g id="a_node12"><a xlink:href="../../d2/d82/classTUIO_1_1TuioManager.html#ab1108e679103f0ba3c6b8fc80246b6c7" target="_top" xlink:title=" ">
<polygon fill="white" stroke="black" points="164,-0.5 164,-30.5 279,-30.5 279,-0.5 164,-0.5"/>
<text text-anchor="start" x="172" y="-18.5" font-family="Helvetica,sans-Serif" font-size="10.00">TUIO::TuioManager::</text>
<text text-anchor="middle" x="221.5" y="-7.5" font-family="Helvetica,sans-Serif" font-size="10.00">updateTuioObject</text>
</a>
</g>
</g>
<!-- Node1&#45;&gt;Node12 -->
<g id="edge13" class="edge">
<title>Node1&#45;&gt;Node12</title>
<path fill="none" stroke="midnightblue" d="M389.6,-210.48C380.18,-169.08 355.66,-86.37 303,-40.5 296.16,-34.54 287.91,-30 279.33,-26.54"/>
<polygon fill="midnightblue" stroke="midnightblue" points="386.18,-211.26 391.72,-220.3 393.03,-209.78 386.18,-211.26"/>
</g>
<!-- Node3 -->
<g id="node3" class="node">
<title>Node3</title>
<g id="a_node3"><a xlink:href="../../d8/dc8/classTUIO_1_1TuioServer.html#ab3b84d7f13f0cecc4709ae7ff0e89118" target="_top" xlink:title=" ">
<polygon fill="white" stroke="black" points="0,-392.5 0,-422.5 104,-422.5 104,-392.5 0,-392.5"/>
<text text-anchor="start" x="8" y="-410.5" font-family="Helvetica,sans-Serif" font-size="10.00">TUIO::TuioServer::</text>
<text text-anchor="middle" x="52" y="-399.5" font-family="Helvetica,sans-Serif" font-size="10.00">~TuioServer</text>
</a>
</g>
</g>
<!-- Node2&#45;&gt;Node3 -->
<g id="edge2" class="edge">
<title>Node2&#45;&gt;Node3</title>
<path fill="none" stroke="midnightblue" d="M159.04,-438.52C141,-433.24 121.48,-427.53 104.16,-422.47"/>
<polygon fill="midnightblue" stroke="midnightblue" points="158.3,-441.95 168.88,-441.4 160.26,-435.23 158.3,-441.95"/>
</g>
<!-- Node4&#45;&gt;Node3 -->
<g id="edge4" class="edge">
<title>Node4&#45;&gt;Node3</title>
<path fill="none" stroke="midnightblue" d="M129.53,-407.5C120.9,-407.5 112.37,-407.5 104.31,-407.5"/>
<polygon fill="midnightblue" stroke="midnightblue" points="129.69,-411 139.69,-407.5 129.69,-404 129.69,-411"/>
</g>
<!-- Node5&#45;&gt;Node3 -->
<g id="edge6" class="edge">
<title>Node5&#45;&gt;Node3</title>
<path fill="none" stroke="midnightblue" d="M159.04,-376.48C141,-381.76 121.48,-387.47 104.16,-392.53"/>
<polygon fill="midnightblue" stroke="midnightblue" points="160.26,-379.77 168.88,-373.6 158.3,-373.05 160.26,-379.77"/>
</g>
</g>
</svg>
        <g id="navigator" transform="translate(0 0)" fill="#404254">
                <rect fill="#f2f5e9" fill-opacity="0.5" stroke="#606060" stroke-width=".5" x="0" y="0" width="60" height="60"/>
                <use id="zoomplus" xlink:href="#zoomPlus" x="17" y="9" onmousedown="handleZoom(evt,'in')"/>
                <use id="zoomminus" xlink:href="#zoomMin" x="42" y="9" onmousedown="handleZoom(evt,'out')"/>
                <use id="reset" xlink:href="#resetDef" x="30" y="36" onmousedown="handleReset()"/>
                <g id="arrowUp" xlink:href="#dirArrow" transform="translate(30 24)" onmousedown="handlePan(0,-1)">
                  <use xlink:href="#rim" fill="#404040">
                        <set attributeName="fill" to="#808080" begin="arrowUp.mouseover" end="arrowUp.mouseout"/>
                  </use>
                  <path fill="none" stroke="white" stroke-width="1.5" d="M0,-3.0v7 M-2.5,-0.5L0,-3.0L2.5,-0.5"/>
                </g>
                <g id="arrowRight" xlink:href="#dirArrow" transform="rotate(90) translate(36 -43)" onmousedown="handlePan(1,0)">
                  <use xlink:href="#rim" fill="#404040">
                        <set attributeName="fill" to="#808080" begin="arrowRight.mouseover" end="arrowRight.mouseout"/>
                  </use>
                  <path fill="none" stroke="white" stroke-width="1.5" d="M0,-3.0v7 M-2.5,-0.5L0,-3.0L2.5,-0.5"/>
                </g>
                <g id="arrowDown" xlink:href="#dirArrow" transform="rotate(180) translate(-30 -48)" onmousedown="handlePan(0,1)">
                  <use xlink:href="#rim" fill="#404040">
                        <set attributeName="fill" to="#808080" begin="arrowDown.mouseover" end="arrowDown.mouseout"/>
                  </use>
                  <path fill="none" stroke="white" stroke-width="1.5" d="M0,-3.0v7 M-2.5,-0.5L0,-3.0L2.5,-0.5"/>
                </g>
                <g id="arrowLeft" xlink:href="#dirArrow" transform="rotate(270) translate(-36 17)" onmousedown="handlePan(-1,0)">
                  <use xlink:href="#rim" fill="#404040">
                        <set attributeName="fill" to="#808080" begin="arrowLeft.mouseover" end="arrowLeft.mouseout"/>
                  </use>
                  <path fill="none" stroke="white" stroke-width="1.5" d="M0,-3.0v7 M-2.5,-0.5L0,-3.0L2.5,-0.5"/>
                </g>
        </g>
        <svg viewBox="0 0 15 15" width="100%" height="30px" preserveAspectRatio="xMaxYMin meet">
         <g id="arrow_out" transform="scale(0.3 0.3)">
          <a xlink:href="classTUIO_1_1TuioContainer_ad71a4dba72e5c46fa8b8f7fc0f961705_icgraph_org.svg" target="_base">
           <rect id="button" ry="5" rx="5" y="6" x="6" height="38" width="38"
                fill="#f2f5e9" fill-opacity="0.5" stroke="#606060" stroke-width="1.0"/>
           <path id="arrow"
             d="M 11.500037,31.436501 C 11.940474,20.09759 22.043105,11.32322 32.158766,21.979434 L 37.068811,17.246167 C 37.068811,17.246167 37.088388,32 37.088388,32 L 22.160133,31.978069 C 22.160133,31.978069 26.997745,27.140456 26.997745,27.140456 C 18.528582,18.264221 13.291696,25.230495 11.500037,31.436501 z"
             style="fill:#404040;"/>
          </a>
         </g>
        </svg>
</svg>
