<?xml version="1.0" encoding="UTF-8" standalone="no"?>
<!DOCTYPE svg PUBLIC "-//W3C//DTD SVG 1.1//EN"
 "http://www.w3.org/Graphics/SVG/1.1/DTD/svg11.dtd">
<!-- Generated by graphviz version 2.43.0 (0)
 -->
<!-- Title: TUIO::TuioContainer::update Pages: 1 -->
<svg width="469pt" height="283pt"
 viewBox="0.00 0.00 469.00 282.50" xmlns="http://www.w3.org/2000/svg" xmlns:xlink="http://www.w3.org/1999/xlink">
<g id="graph0" class="graph" transform="scale(1 1) rotate(0) translate(4 278.5)">
<title>TUIO::TuioContainer::update</title>
<polygon fill="white" stroke="transparent" points="-4,4 -4,-278.5 465,-278.5 465,4 -4,4"/>
<!-- Node1 -->
<g id="node1" class="node">
<title>Node1</title>
<g id="a_node1"><a xlink:title=" ">
<polygon fill="#bfbfbf" stroke="black" points="0,-129 0,-159 113,-159 113,-129 0,-129"/>
<text text-anchor="start" x="8" y="-147" font-family="Helvetica,sans-Serif" font-size="10.00">TUIO::TuioContainer</text>
<text text-anchor="middle" x="56.5" y="-136" font-family="Helvetica,sans-Serif" font-size="10.00">::update</text>
</a>
</g>
</g>
<!-- Node2 -->
<g id="node2" class="node">
<title>Node2</title>
<g id="a_node2"><a xlink:href="../../d8/de3/classTUIO_1_1TuioContainer.html#aca8c7670af13d100999eb4663ead8281" target="_top" xlink:title=" ">
<polygon fill="white" stroke="black" points="171,-244 171,-274 284,-274 284,-244 171,-244"/>
<text text-anchor="start" x="179" y="-262" font-family="Helvetica,sans-Serif" font-size="10.00">TUIO::TuioContainer</text>
<text text-anchor="middle" x="227.5" y="-251" font-family="Helvetica,sans-Serif" font-size="10.00">::getMotionAccel</text>
</a>
</g>
</g>
<!-- Node1&#45;&gt;Node2 -->
<g id="edge1" class="edge">
<title>Node1&#45;&gt;Node2</title>
<path fill="none" stroke="midnightblue" d="M68.82,-159.15C84.63,-179.29 115.21,-214.68 149,-235 152.91,-237.35 157.07,-239.49 161.35,-241.43"/>
<polygon fill="midnightblue" stroke="midnightblue" points="160.3,-244.79 170.88,-245.39 162.98,-238.32 160.3,-244.79"/>
</g>
<!-- Node3 -->
<g id="node3" class="node">
<title>Node3</title>
<g id="a_node3"><a xlink:href="../../d8/de3/classTUIO_1_1TuioContainer.html#a47b073942ef45ff7adfa040a9a63b25c" target="_top" xlink:title=" ">
<polygon fill="white" stroke="black" points="171,-195 171,-225 284,-225 284,-195 171,-195"/>
<text text-anchor="start" x="179" y="-213" font-family="Helvetica,sans-Serif" font-size="10.00">TUIO::TuioContainer</text>
<text text-anchor="middle" x="227.5" y="-202" font-family="Helvetica,sans-Serif" font-size="10.00">::getMotionSpeed</text>
</a>
</g>
</g>
<!-- Node1&#45;&gt;Node3 -->
<g id="edge2" class="edge">
<title>Node1&#45;&gt;Node3</title>
<path fill="none" stroke="midnightblue" d="M88.9,-159.09C106.4,-167.24 128.69,-177.2 149,-185 154.89,-187.26 161.08,-189.49 167.29,-191.64"/>
<polygon fill="midnightblue" stroke="midnightblue" points="166.43,-195.04 177.02,-194.93 168.67,-188.41 166.43,-195.04"/>
</g>
<!-- Node4 -->
<g id="node4" class="node">
<title>Node4</title>
<g id="a_node4"><a xlink:href="../../d0/db6/classTUIO_1_1TuioPoint.html#ac86687cf27772d0fd602c2044b6c8cdd" target="_top" xlink:title=" ">
<polygon fill="white" stroke="black" points="149,-156.5 149,-175.5 306,-175.5 306,-156.5 149,-156.5"/>
<text text-anchor="middle" x="227.5" y="-163.5" font-family="Helvetica,sans-Serif" font-size="10.00">TUIO::TuioPoint::getTuioTime</text>
</a>
</g>
</g>
<!-- Node1&#45;&gt;Node4 -->
<g id="edge3" class="edge">
<title>Node1&#45;&gt;Node4</title>
<path fill="none" stroke="midnightblue" d="M113.31,-151.26C122.9,-152.51 133.05,-153.83 143.17,-155.15"/>
<polygon fill="midnightblue" stroke="midnightblue" points="142.9,-158.65 153.27,-156.47 143.81,-151.71 142.9,-158.65"/>
</g>
<!-- Node5 -->
<g id="node5" class="node">
<title>Node5</title>
<g id="a_node5"><a xlink:href="../../d8/de3/classTUIO_1_1TuioContainer.html#ad71a4dba72e5c46fa8b8f7fc0f961705" target="_top" xlink:title=" ">
<polygon fill="white" stroke="black" points="171,-107 171,-137 284,-137 284,-107 171,-107"/>
<text text-anchor="start" x="179" y="-125" font-family="Helvetica,sans-Serif" font-size="10.00">TUIO::TuioContainer</text>
<text text-anchor="middle" x="227.5" y="-114" font-family="Helvetica,sans-Serif" font-size="10.00">::getXSpeed</text>
</a>
</g>
</g>
<!-- Node1&#45;&gt;Node5 -->
<g id="edge4" class="edge">
<title>Node1&#45;&gt;Node5</title>
<path fill="none" stroke="midnightblue" d="M113.31,-136.74C128.45,-134.76 144.99,-132.61 160.63,-130.58"/>
<polygon fill="midnightblue" stroke="midnightblue" points="161.29,-134.02 170.75,-129.26 160.39,-127.08 161.29,-134.02"/>
</g>
<!-- Node6 -->
<g id="node6" class="node">
<title>Node6</title>
<g id="a_node6"><a xlink:href="../../d8/de3/classTUIO_1_1TuioContainer.html#af96183810e34c1ead6a6787fcf03c171" target="_top" xlink:title=" ">
<polygon fill="white" stroke="black" points="171,-58 171,-88 284,-88 284,-58 171,-58"/>
<text text-anchor="start" x="179" y="-76" font-family="Helvetica,sans-Serif" font-size="10.00">TUIO::TuioContainer</text>
<text text-anchor="middle" x="227.5" y="-65" font-family="Helvetica,sans-Serif" font-size="10.00">::getYSpeed</text>
</a>
</g>
</g>
<!-- Node1&#45;&gt;Node6 -->
<g id="edge5" class="edge">
<title>Node1&#45;&gt;Node6</title>
<path fill="none" stroke="midnightblue" d="M84.62,-128.99C102.56,-119.4 126.79,-107.1 149,-98 154.53,-95.73 160.35,-93.53 166.21,-91.44"/>
<polygon fill="midnightblue" stroke="midnightblue" points="167.76,-94.61 176.07,-88.02 165.47,-87.99 167.76,-94.61"/>
</g>
<!-- Node7 -->
<g id="node7" class="node">
<title>Node7</title>
<g id="a_node7"><a xlink:href="../../d0/db6/classTUIO_1_1TuioPoint.html#ae6ed82aba4186921dc911a382f7e5f33" target="_top" xlink:title=" ">
<polygon fill="white" stroke="black" points="162,-19.5 162,-38.5 293,-38.5 293,-19.5 162,-19.5"/>
<text text-anchor="middle" x="227.5" y="-26.5" font-family="Helvetica,sans-Serif" font-size="10.00">TUIO::TuioPoint::update</text>
</a>
</g>
</g>
<!-- Node1&#45;&gt;Node7 -->
<g id="edge6" class="edge">
<title>Node1&#45;&gt;Node7</title>
<path fill="none" stroke="midnightblue" d="M67.75,-128.99C82.97,-107.88 113.6,-69.66 149,-49 153.53,-46.35 158.42,-44.05 163.45,-42.05"/>
<polygon fill="midnightblue" stroke="midnightblue" points="165,-45.21 173.25,-38.57 162.66,-38.62 165,-45.21"/>
</g>
<!-- Node8 -->
<g id="node8" class="node">
<title>Node8</title>
<g id="a_node8"><a xlink:href="../../d0/db6/classTUIO_1_1TuioPoint.html#a547710f33dd3786eaa8ca326b34911c0" target="_top" xlink:title=" ">
<polygon fill="white" stroke="black" points="342,-38.5 342,-57.5 461,-57.5 461,-38.5 342,-38.5"/>
<text text-anchor="middle" x="401.5" y="-45.5" font-family="Helvetica,sans-Serif" font-size="10.00">TUIO::TuioPoint::getX</text>
</a>
</g>
</g>
<!-- Node7&#45;&gt;Node8 -->
<g id="edge7" class="edge">
<title>Node7&#45;&gt;Node8</title>
<path fill="none" stroke="midnightblue" d="M293.04,-36.13C305.67,-37.52 318.97,-38.99 331.74,-40.4"/>
<polygon fill="midnightblue" stroke="midnightblue" points="331.52,-43.9 341.84,-41.52 332.29,-36.94 331.52,-43.9"/>
</g>
<!-- Node9 -->
<g id="node9" class="node">
<title>Node9</title>
<g id="a_node9"><a xlink:href="../../d0/db6/classTUIO_1_1TuioPoint.html#a2dbd53d10bbcddb6db271bdd30858733" target="_top" xlink:title=" ">
<polygon fill="white" stroke="black" points="342,-0.5 342,-19.5 461,-19.5 461,-0.5 342,-0.5"/>
<text text-anchor="middle" x="401.5" y="-7.5" font-family="Helvetica,sans-Serif" font-size="10.00">TUIO::TuioPoint::getY</text>
</a>
</g>
</g>
<!-- Node7&#45;&gt;Node9 -->
<g id="edge8" class="edge">
<title>Node7&#45;&gt;Node9</title>
<path fill="none" stroke="midnightblue" d="M293.04,-21.87C305.67,-20.48 318.97,-19.01 331.74,-17.6"/>
<polygon fill="midnightblue" stroke="midnightblue" points="332.29,-21.06 341.84,-16.48 331.52,-14.1 332.29,-21.06"/>
</g>
</g>
</svg>
