<?xml version="1.0" encoding="UTF-8" standalone="no"?>
<!DOCTYPE svg PUBLIC "-//W3C//DTD SVG 1.1//EN"
 "http://www.w3.org/Graphics/SVG/1.1/DTD/svg11.dtd">
<!-- Generated by graphviz version 2.43.0 (0)
 -->
<!-- Title: TUIO::TuioTime::getSessionTime Pages: 1 -->
<svg width="570pt" height="66pt"
 viewBox="0.00 0.00 570.00 66.00" xmlns="http://www.w3.org/2000/svg" xmlns:xlink="http://www.w3.org/1999/xlink">
<g id="graph0" class="graph" transform="scale(1 1) rotate(0) translate(4 62)">
<title>TUIO::TuioTime::getSessionTime</title>
<polygon fill="white" stroke="transparent" points="-4,4 -4,-62 566,-62 566,4 -4,4"/>
<!-- Node1 -->
<g id="node1" class="node">
<title>Node1</title>
<g id="a_node1"><a xlink:title=" ">
<polygon fill="#bfbfbf" stroke="black" points="0,-19.5 0,-38.5 175,-38.5 175,-19.5 0,-19.5"/>
<text text-anchor="middle" x="87.5" y="-26.5" font-family="Helvetica,sans-Serif" font-size="10.00">TUIO::TuioTime::getSessionTime</text>
</a>
</g>
</g>
<!-- Node2 -->
<g id="node2" class="node">
<title>Node2</title>
<g id="a_node2"><a xlink:href="../../d0/db2/classTUIO_1_1TuioTime.html#ab597fbf7c076f8017ea2b05708be8488" target="_top" xlink:title=" ">
<polygon fill="white" stroke="black" points="217.5,-38.5 217.5,-57.5 378.5,-57.5 378.5,-38.5 217.5,-38.5"/>
<text text-anchor="middle" x="298" y="-45.5" font-family="Helvetica,sans-Serif" font-size="10.00">TUIO::TuioTime::getStartTime</text>
</a>
</g>
</g>
<!-- Node1&#45;&gt;Node2 -->
<g id="edge1" class="edge">
<title>Node1&#45;&gt;Node2</title>
<path fill="none" stroke="midnightblue" d="M175.11,-36.89C185.71,-37.86 196.56,-38.85 207.2,-39.82"/>
<polygon fill="midnightblue" stroke="midnightblue" points="207.05,-43.32 217.33,-40.74 207.69,-36.35 207.05,-43.32"/>
</g>
<!-- Node4 -->
<g id="node4" class="node">
<title>Node4</title>
<g id="a_node4"><a xlink:href="../../d0/db2/classTUIO_1_1TuioTime.html#a65efe154e6b7c888c8d25cc3d2bded3e" target="_top" xlink:title=" ">
<polygon fill="white" stroke="black" points="211,-0.5 211,-19.5 385,-19.5 385,-0.5 211,-0.5"/>
<text text-anchor="middle" x="298" y="-7.5" font-family="Helvetica,sans-Serif" font-size="10.00">TUIO::TuioTime::getSystemTime</text>
</a>
</g>
</g>
<!-- Node1&#45;&gt;Node4 -->
<g id="edge3" class="edge">
<title>Node1&#45;&gt;Node4</title>
<path fill="none" stroke="midnightblue" d="M175.11,-21.11C183.64,-20.33 192.32,-19.54 200.93,-18.75"/>
<polygon fill="midnightblue" stroke="midnightblue" points="201.35,-22.23 210.99,-17.84 200.72,-15.26 201.35,-22.23"/>
</g>
<!-- Node3 -->
<g id="node3" class="node">
<title>Node3</title>
<g id="a_node3"><a xlink:href="../../d0/db2/classTUIO_1_1TuioTime.html#a924521ecf43b6484fad9550661eedb0a" target="_top" xlink:title=" ">
<polygon fill="white" stroke="black" points="421,-38.5 421,-57.5 562,-57.5 562,-38.5 421,-38.5"/>
<text text-anchor="middle" x="491.5" y="-45.5" font-family="Helvetica,sans-Serif" font-size="10.00">TUIO::TuioTime::TuioTime</text>
</a>
</g>
</g>
<!-- Node2&#45;&gt;Node3 -->
<g id="edge2" class="edge">
<title>Node2&#45;&gt;Node3</title>
<path fill="none" stroke="midnightblue" d="M378.55,-48C389.22,-48 400.16,-48 410.83,-48"/>
<polygon fill="midnightblue" stroke="midnightblue" points="410.96,-51.5 420.96,-48 410.96,-44.5 410.96,-51.5"/>
</g>
</g>
</svg>
