<?xml version="1.0" encoding="UTF-8" standalone="no"?>
<!DOCTYPE svg PUBLIC "-//W3C//DTD SVG 1.1//EN"
 "http://www.w3.org/Graphics/SVG/1.1/DTD/svg11.dtd">
<!-- Generated by graphviz version 2.43.0 (0)
 -->
<!-- Title: TUIO::TuioTime::operator+ Pages: 1 -->
<svg width="369pt" height="104pt"
 viewBox="0.00 0.00 369.00 104.00" xmlns="http://www.w3.org/2000/svg" xmlns:xlink="http://www.w3.org/1999/xlink">
<g id="graph0" class="graph" transform="scale(1 1) rotate(0) translate(4 100)">
<title>TUIO::TuioTime::operator+</title>
<polygon fill="white" stroke="transparent" points="-4,4 -4,-100 365,-100 365,4 -4,4"/>
<!-- Node1 -->
<g id="node1" class="node">
<title>Node1</title>
<g id="a_node1"><a xlink:title=" ">
<polygon fill="#bfbfbf" stroke="black" points="0,-38.5 0,-57.5 146,-57.5 146,-38.5 0,-38.5"/>
<text text-anchor="middle" x="73" y="-45.5" font-family="Helvetica,sans-Serif" font-size="10.00">TUIO::TuioTime::operator+</text>
</a>
</g>
</g>
<!-- Node2 -->
<g id="node2" class="node">
<title>Node2</title>
<g id="a_node2"><a xlink:href="../../d0/db2/classTUIO_1_1TuioTime.html#ac22179f91fb2c6c733c4fe78bbb99275" target="_top" xlink:title=" ">
<polygon fill="white" stroke="black" points="182,-76.5 182,-95.5 361,-95.5 361,-76.5 182,-76.5"/>
<text text-anchor="middle" x="271.5" y="-83.5" font-family="Helvetica,sans-Serif" font-size="10.00">TUIO::TuioTime::getMicroseconds</text>
</a>
</g>
</g>
<!-- Node1&#45;&gt;Node2 -->
<g id="edge1" class="edge">
<title>Node1&#45;&gt;Node2</title>
<path fill="none" stroke="midnightblue" d="M123.33,-57.54C149.96,-62.69 183.03,-69.08 211.07,-74.51"/>
<polygon fill="midnightblue" stroke="midnightblue" points="210.67,-77.99 221.15,-76.46 211.99,-71.12 210.67,-77.99"/>
</g>
<!-- Node3 -->
<g id="node3" class="node">
<title>Node3</title>
<g id="a_node3"><a xlink:href="../../d0/db2/classTUIO_1_1TuioTime.html#a4ad63c2210c47841c1e89be2664f300f" target="_top" xlink:title=" ">
<polygon fill="white" stroke="black" points="195,-38.5 195,-57.5 348,-57.5 348,-38.5 195,-38.5"/>
<text text-anchor="middle" x="271.5" y="-45.5" font-family="Helvetica,sans-Serif" font-size="10.00">TUIO::TuioTime::getSeconds</text>
</a>
</g>
</g>
<!-- Node1&#45;&gt;Node3 -->
<g id="edge2" class="edge">
<title>Node1&#45;&gt;Node3</title>
<path fill="none" stroke="midnightblue" d="M146.05,-48C158.59,-48 171.73,-48 184.59,-48"/>
<polygon fill="midnightblue" stroke="midnightblue" points="184.82,-51.5 194.82,-48 184.82,-44.5 184.82,-51.5"/>
</g>
<!-- Node4 -->
<g id="node4" class="node">
<title>Node4</title>
<g id="a_node4"><a xlink:href="../../d0/db2/classTUIO_1_1TuioTime.html#a924521ecf43b6484fad9550661eedb0a" target="_top" xlink:title=" ">
<polygon fill="white" stroke="black" points="201,-0.5 201,-19.5 342,-19.5 342,-0.5 201,-0.5"/>
<text text-anchor="middle" x="271.5" y="-7.5" font-family="Helvetica,sans-Serif" font-size="10.00">TUIO::TuioTime::TuioTime</text>
</a>
</g>
</g>
<!-- Node1&#45;&gt;Node4 -->
<g id="edge3" class="edge">
<title>Node1&#45;&gt;Node4</title>
<path fill="none" stroke="midnightblue" d="M123.33,-38.46C149.96,-33.31 183.03,-26.92 211.07,-21.49"/>
<polygon fill="midnightblue" stroke="midnightblue" points="211.99,-24.88 221.15,-19.54 210.67,-18.01 211.99,-24.88"/>
</g>
</g>
</svg>
