<?xml version="1.0" encoding="UTF-8" standalone="no"?>
<!DOCTYPE svg PUBLIC "-//W3C//DTD SVG 1.1//EN"
 "http://www.w3.org/Graphics/SVG/1.1/DTD/svg11.dtd">
<!-- Generated by graphviz version 2.43.0 (0)
 -->
<!-- Title: TUIO::TuioTime::operator&#45; Pages: 1 -->
<svg width="365pt" height="104pt"
 viewBox="0.00 0.00 365.00 104.00" xmlns="http://www.w3.org/2000/svg" xmlns:xlink="http://www.w3.org/1999/xlink">
<g id="graph0" class="graph" transform="scale(1 1) rotate(0) translate(4 100)">
<title>TUIO::TuioTime::operator&#45;</title>
<polygon fill="white" stroke="transparent" points="-4,4 -4,-100 361,-100 361,4 -4,4"/>
<!-- Node1 -->
<g id="node1" class="node">
<title>Node1</title>
<g id="a_node1"><a xlink:title=" ">
<polygon fill="#bfbfbf" stroke="black" points="0,-38.5 0,-57.5 142,-57.5 142,-38.5 0,-38.5"/>
<text text-anchor="middle" x="71" y="-45.5" font-family="Helvetica,sans-Serif" font-size="10.00">TUIO::TuioTime::operator&#45;</text>
</a>
</g>
</g>
<!-- Node2 -->
<g id="node2" class="node">
<title>Node2</title>
<g id="a_node2"><a xlink:href="../../d0/db2/classTUIO_1_1TuioTime.html#ac22179f91fb2c6c733c4fe78bbb99275" target="_top" xlink:title=" ">
<polygon fill="white" stroke="black" points="178,-76.5 178,-95.5 357,-95.5 357,-76.5 178,-76.5"/>
<text text-anchor="middle" x="267.5" y="-83.5" font-family="Helvetica,sans-Serif" font-size="10.00">TUIO::TuioTime::getMicroseconds</text>
</a>
</g>
</g>
<!-- Node1&#45;&gt;Node2 -->
<g id="edge1" class="edge">
<title>Node1&#45;&gt;Node2</title>
<path fill="none" stroke="midnightblue" d="M120.83,-57.54C147.19,-62.69 179.92,-69.08 207.67,-74.51"/>
<polygon fill="midnightblue" stroke="midnightblue" points="207.16,-77.97 217.65,-76.46 208.51,-71.1 207.16,-77.97"/>
</g>
<!-- Node3 -->
<g id="node3" class="node">
<title>Node3</title>
<g id="a_node3"><a xlink:href="../../d0/db2/classTUIO_1_1TuioTime.html#a4ad63c2210c47841c1e89be2664f300f" target="_top" xlink:title=" ">
<polygon fill="white" stroke="black" points="191,-38.5 191,-57.5 344,-57.5 344,-38.5 191,-38.5"/>
<text text-anchor="middle" x="267.5" y="-45.5" font-family="Helvetica,sans-Serif" font-size="10.00">TUIO::TuioTime::getSeconds</text>
</a>
</g>
</g>
<!-- Node1&#45;&gt;Node3 -->
<g id="edge2" class="edge">
<title>Node1&#45;&gt;Node3</title>
<path fill="none" stroke="midnightblue" d="M142.22,-48C154.67,-48 167.76,-48 180.59,-48"/>
<polygon fill="midnightblue" stroke="midnightblue" points="180.8,-51.5 190.8,-48 180.8,-44.5 180.8,-51.5"/>
</g>
<!-- Node4 -->
<g id="node4" class="node">
<title>Node4</title>
<g id="a_node4"><a xlink:href="../../d0/db2/classTUIO_1_1TuioTime.html#a924521ecf43b6484fad9550661eedb0a" target="_top" xlink:title=" ">
<polygon fill="white" stroke="black" points="197,-0.5 197,-19.5 338,-19.5 338,-0.5 197,-0.5"/>
<text text-anchor="middle" x="267.5" y="-7.5" font-family="Helvetica,sans-Serif" font-size="10.00">TUIO::TuioTime::TuioTime</text>
</a>
</g>
</g>
<!-- Node1&#45;&gt;Node4 -->
<g id="edge3" class="edge">
<title>Node1&#45;&gt;Node4</title>
<path fill="none" stroke="midnightblue" d="M120.83,-38.46C147.19,-33.31 179.92,-26.92 207.67,-21.49"/>
<polygon fill="midnightblue" stroke="midnightblue" points="208.51,-24.9 217.65,-19.54 207.16,-18.03 208.51,-24.9"/>
</g>
</g>
</svg>
