<?xml version="1.0" encoding="UTF-8" standalone="no"?>
<!DOCTYPE svg PUBLIC "-//W3C//DTD SVG 1.1//EN"
 "http://www.w3.org/Graphics/SVG/1.1/DTD/svg11.dtd">
<!-- Generated by graphviz version 2.43.0 (0)
 -->
<!-- Title: TUIO::TuioTime::getSeconds Pages: 1 -->
<svg width="527pt" height="268pt"
 viewBox="0.00 0.00 527.00 267.50" xmlns="http://www.w3.org/2000/svg" xmlns:xlink="http://www.w3.org/1999/xlink">
<g id="graph0" class="graph" transform="scale(1 1) rotate(0) translate(4 263.5)">
<title>TUIO::TuioTime::getSeconds</title>
<polygon fill="white" stroke="transparent" points="-4,4 -4,-263.5 523,-263.5 523,4 -4,4"/>
<!-- Node1 -->
<g id="node1" class="node">
<title>Node1</title>
<g id="a_node1"><a xlink:title=" ">
<polygon fill="#bfbfbf" stroke="black" points="366,-114.5 366,-133.5 519,-133.5 519,-114.5 366,-114.5"/>
<text text-anchor="middle" x="442.5" y="-121.5" font-family="Helvetica,sans-Serif" font-size="10.00">TUIO::TuioTime::getSeconds</text>
</a>
</g>
</g>
<!-- Node2 -->
<g id="node2" class="node">
<title>Node2</title>
<g id="a_node2"><a xlink:href="../../d8/dc8/classTUIO_1_1TuioServer.html#a2897fba538037cb8f81a075830d4bc1a" target="_top" xlink:title=" ">
<polygon fill="white" stroke="black" points="182,-229 182,-259 323,-259 323,-229 182,-229"/>
<text text-anchor="start" x="190" y="-247" font-family="Helvetica,sans-Serif" font-size="10.00">TUIO::TuioServer::commit</text>
<text text-anchor="middle" x="252.5" y="-236" font-family="Helvetica,sans-Serif" font-size="10.00">Frame</text>
</a>
</g>
</g>
<!-- Node1&#45;&gt;Node2 -->
<g id="edge1" class="edge">
<title>Node1&#45;&gt;Node2</title>
<path fill="none" stroke="midnightblue" d="M425.7,-141.06C405.38,-162.07 368.16,-197.61 330,-219 323.3,-222.76 315.94,-226.05 308.53,-228.91"/>
<polygon fill="midnightblue" stroke="midnightblue" points="428.27,-143.43 432.62,-133.77 423.19,-138.61 428.27,-143.43"/>
</g>
<!-- Node3 -->
<g id="node3" class="node">
<title>Node3</title>
<g id="a_node3"><a xlink:href="../../d0/db2/classTUIO_1_1TuioTime.html#a852026c3214217bd4ac47daa2071f588" target="_top" xlink:title=" ">
<polygon fill="white" stroke="black" points="177.5,-190.5 177.5,-209.5 327.5,-209.5 327.5,-190.5 177.5,-190.5"/>
<text text-anchor="middle" x="252.5" y="-197.5" font-family="Helvetica,sans-Serif" font-size="10.00">TUIO::TuioTime::initSession</text>
</a>
</g>
</g>
<!-- Node1&#45;&gt;Node3 -->
<g id="edge2" class="edge">
<title>Node1&#45;&gt;Node3</title>
<path fill="none" stroke="midnightblue" d="M417.06,-138.57C394.95,-151.23 361.18,-169.33 330,-181 320.26,-184.64 309.56,-187.8 299.33,-190.43"/>
<polygon fill="midnightblue" stroke="midnightblue" points="418.89,-141.55 425.78,-133.5 415.37,-135.5 418.89,-141.55"/>
</g>
<!-- Node5 -->
<g id="node5" class="node">
<title>Node5</title>
<g id="a_node5"><a xlink:href="../../d0/db2/classTUIO_1_1TuioTime.html#a0a3a35dd9f44212a40f14e65aa52daf6" target="_top" xlink:title=" ">
<polygon fill="white" stroke="black" points="177.5,-152.5 177.5,-171.5 327.5,-171.5 327.5,-152.5 177.5,-152.5"/>
<text text-anchor="middle" x="252.5" y="-159.5" font-family="Helvetica,sans-Serif" font-size="10.00">TUIO::TuioTime::operator!=</text>
</a>
</g>
</g>
<!-- Node1&#45;&gt;Node5 -->
<g id="edge4" class="edge">
<title>Node1&#45;&gt;Node5</title>
<path fill="none" stroke="midnightblue" d="M384.06,-135.61C357.33,-141.01 325.91,-147.36 300.6,-152.48"/>
<polygon fill="midnightblue" stroke="midnightblue" points="384.95,-139 394.06,-133.59 383.56,-132.14 384.95,-139"/>
</g>
<!-- Node6 -->
<g id="node6" class="node">
<title>Node6</title>
<g id="a_node6"><a xlink:href="../../d0/db2/classTUIO_1_1TuioTime.html#ad0903c456360dd0a8599096f710e5e9d" target="_top" xlink:title=" ">
<polygon fill="white" stroke="black" points="179.5,-114.5 179.5,-133.5 325.5,-133.5 325.5,-114.5 179.5,-114.5"/>
<text text-anchor="middle" x="252.5" y="-121.5" font-family="Helvetica,sans-Serif" font-size="10.00">TUIO::TuioTime::operator+</text>
</a>
</g>
</g>
<!-- Node1&#45;&gt;Node6 -->
<g id="edge5" class="edge">
<title>Node1&#45;&gt;Node6</title>
<path fill="none" stroke="midnightblue" d="M355.82,-124C345.73,-124 335.52,-124 325.64,-124"/>
<polygon fill="midnightblue" stroke="midnightblue" points="355.85,-127.5 365.85,-124 355.85,-120.5 355.85,-127.5"/>
</g>
<!-- Node7 -->
<g id="node7" class="node">
<title>Node7</title>
<g id="a_node7"><a xlink:href="../../d0/db2/classTUIO_1_1TuioTime.html#a62cd56009e28df8d506c7247020d131c" target="_top" xlink:title=" ">
<polygon fill="white" stroke="black" points="181.5,-76.5 181.5,-95.5 323.5,-95.5 323.5,-76.5 181.5,-76.5"/>
<text text-anchor="middle" x="252.5" y="-83.5" font-family="Helvetica,sans-Serif" font-size="10.00">TUIO::TuioTime::operator&#45;</text>
</a>
</g>
</g>
<!-- Node1&#45;&gt;Node7 -->
<g id="edge6" class="edge">
<title>Node1&#45;&gt;Node7</title>
<path fill="none" stroke="midnightblue" d="M384.06,-112.39C357.33,-106.99 325.91,-100.64 300.6,-95.52"/>
<polygon fill="midnightblue" stroke="midnightblue" points="383.56,-115.86 394.06,-114.41 384.95,-109 383.56,-115.86"/>
</g>
<!-- Node8 -->
<g id="node8" class="node">
<title>Node8</title>
<g id="a_node8"><a xlink:href="../../d0/db2/classTUIO_1_1TuioTime.html#a9b321a0500ced851be17194731e12491" target="_top" xlink:title=" ">
<polygon fill="white" stroke="black" points="179.5,-38.5 179.5,-57.5 325.5,-57.5 325.5,-38.5 179.5,-38.5"/>
<text text-anchor="middle" x="252.5" y="-45.5" font-family="Helvetica,sans-Serif" font-size="10.00">TUIO::TuioTime::operator=</text>
</a>
</g>
</g>
<!-- Node1&#45;&gt;Node8 -->
<g id="edge7" class="edge">
<title>Node1&#45;&gt;Node8</title>
<path fill="none" stroke="midnightblue" d="M417.06,-109.43C394.95,-96.77 361.18,-78.67 330,-67 320.26,-63.36 309.56,-60.2 299.33,-57.57"/>
<polygon fill="midnightblue" stroke="midnightblue" points="415.37,-112.5 425.78,-114.5 418.89,-106.45 415.37,-112.5"/>
</g>
<!-- Node9 -->
<g id="node9" class="node">
<title>Node9</title>
<g id="a_node9"><a xlink:href="../../d0/db2/classTUIO_1_1TuioTime.html#a82fb879903d0226c672f8e54bf89ec6f" target="_top" xlink:title=" ">
<polygon fill="white" stroke="black" points="175,-0.5 175,-19.5 330,-19.5 330,-0.5 175,-0.5"/>
<text text-anchor="middle" x="252.5" y="-7.5" font-family="Helvetica,sans-Serif" font-size="10.00">TUIO::TuioTime::operator==</text>
</a>
</g>
</g>
<!-- Node1&#45;&gt;Node9 -->
<g id="edge8" class="edge">
<title>Node1&#45;&gt;Node9</title>
<path fill="none" stroke="midnightblue" d="M426.25,-106.82C406.26,-85.38 369.11,-49.09 330,-29 322.45,-25.12 314.07,-22.01 305.71,-19.52"/>
<polygon fill="midnightblue" stroke="midnightblue" points="423.71,-109.23 433.04,-114.25 428.87,-104.51 423.71,-109.23"/>
</g>
<!-- Node4 -->
<g id="node4" class="node">
<title>Node4</title>
<g id="a_node4"><a xlink:href="../../da/d8f/classTUIO_1_1TuioClient.html#a31a6f750e753d955ff298555ecf1270d" target="_top" xlink:title=" ">
<polygon fill="white" stroke="black" points="0,-190.5 0,-209.5 139,-209.5 139,-190.5 0,-190.5"/>
<text text-anchor="middle" x="69.5" y="-197.5" font-family="Helvetica,sans-Serif" font-size="10.00">TUIO::TuioClient::connect</text>
</a>
</g>
</g>
<!-- Node3&#45;&gt;Node4 -->
<g id="edge3" class="edge">
<title>Node3&#45;&gt;Node4</title>
<path fill="none" stroke="midnightblue" d="M167.25,-200C157.88,-200 148.43,-200 139.28,-200"/>
<polygon fill="midnightblue" stroke="midnightblue" points="167.36,-203.5 177.36,-200 167.36,-196.5 167.36,-203.5"/>
</g>
</g>
</svg>
