<?xml version="1.0" encoding="UTF-8" standalone="no"?>
<!DOCTYPE svg PUBLIC "-//W3C//DTD SVG 1.1//EN"
 "http://www.w3.org/Graphics/SVG/1.1/DTD/svg11.dtd">
<!-- Generated by graphviz version 2.43.0 (0)
 -->
<!-- Title: TUIO::TuioPoint::TuioPoint Pages: 1 -->
<svg width="747pt" height="66pt"
 viewBox="0.00 0.00 747.00 66.00" xmlns="http://www.w3.org/2000/svg" xmlns:xlink="http://www.w3.org/1999/xlink">
<g id="graph0" class="graph" transform="scale(1 1) rotate(0) translate(4 62)">
<title>TUIO::TuioPoint::TuioPoint</title>
<polygon fill="white" stroke="transparent" points="-4,4 -4,-62 743,-62 743,4 -4,4"/>
<!-- Node1 -->
<g id="node1" class="node">
<title>Node1</title>
<g id="a_node1"><a xlink:title=" ">
<polygon fill="#bfbfbf" stroke="black" points="0,-19.5 0,-38.5 141,-38.5 141,-19.5 0,-19.5"/>
<text text-anchor="middle" x="70.5" y="-26.5" font-family="Helvetica,sans-Serif" font-size="10.00">TUIO::TuioPoint::TuioPoint</text>
</a>
</g>
</g>
<!-- Node2 -->
<g id="node2" class="node">
<title>Node2</title>
<g id="a_node2"><a xlink:href="../../d0/db2/classTUIO_1_1TuioTime.html#ad6812543bf3fed2a982309a6191be8f3" target="_top" xlink:title=" ">
<polygon fill="white" stroke="black" points="177,-19.5 177,-38.5 352,-38.5 352,-19.5 177,-19.5"/>
<text text-anchor="middle" x="264.5" y="-26.5" font-family="Helvetica,sans-Serif" font-size="10.00">TUIO::TuioTime::getSessionTime</text>
</a>
</g>
</g>
<!-- Node1&#45;&gt;Node2 -->
<g id="edge1" class="edge">
<title>Node1&#45;&gt;Node2</title>
<path fill="none" stroke="midnightblue" d="M141.09,-29C149.42,-29 158.04,-29 166.66,-29"/>
<polygon fill="midnightblue" stroke="midnightblue" points="166.78,-32.5 176.78,-29 166.78,-25.5 166.78,-32.5"/>
</g>
<!-- Node3 -->
<g id="node3" class="node">
<title>Node3</title>
<g id="a_node3"><a xlink:href="../../d0/db2/classTUIO_1_1TuioTime.html#ab597fbf7c076f8017ea2b05708be8488" target="_top" xlink:title=" ">
<polygon fill="white" stroke="black" points="394.5,-38.5 394.5,-57.5 555.5,-57.5 555.5,-38.5 394.5,-38.5"/>
<text text-anchor="middle" x="475" y="-45.5" font-family="Helvetica,sans-Serif" font-size="10.00">TUIO::TuioTime::getStartTime</text>
</a>
</g>
</g>
<!-- Node2&#45;&gt;Node3 -->
<g id="edge2" class="edge">
<title>Node2&#45;&gt;Node3</title>
<path fill="none" stroke="midnightblue" d="M352.11,-36.89C362.71,-37.86 373.56,-38.85 384.2,-39.82"/>
<polygon fill="midnightblue" stroke="midnightblue" points="384.05,-43.32 394.33,-40.74 384.69,-36.35 384.05,-43.32"/>
</g>
<!-- Node5 -->
<g id="node5" class="node">
<title>Node5</title>
<g id="a_node5"><a xlink:href="../../d0/db2/classTUIO_1_1TuioTime.html#a65efe154e6b7c888c8d25cc3d2bded3e" target="_top" xlink:title=" ">
<polygon fill="white" stroke="black" points="388,-0.5 388,-19.5 562,-19.5 562,-0.5 388,-0.5"/>
<text text-anchor="middle" x="475" y="-7.5" font-family="Helvetica,sans-Serif" font-size="10.00">TUIO::TuioTime::getSystemTime</text>
</a>
</g>
</g>
<!-- Node2&#45;&gt;Node5 -->
<g id="edge4" class="edge">
<title>Node2&#45;&gt;Node5</title>
<path fill="none" stroke="midnightblue" d="M352.11,-21.11C360.64,-20.33 369.32,-19.54 377.93,-18.75"/>
<polygon fill="midnightblue" stroke="midnightblue" points="378.35,-22.23 387.99,-17.84 377.72,-15.26 378.35,-22.23"/>
</g>
<!-- Node4 -->
<g id="node4" class="node">
<title>Node4</title>
<g id="a_node4"><a xlink:href="../../d0/db2/classTUIO_1_1TuioTime.html#a924521ecf43b6484fad9550661eedb0a" target="_top" xlink:title=" ">
<polygon fill="white" stroke="black" points="598,-38.5 598,-57.5 739,-57.5 739,-38.5 598,-38.5"/>
<text text-anchor="middle" x="668.5" y="-45.5" font-family="Helvetica,sans-Serif" font-size="10.00">TUIO::TuioTime::TuioTime</text>
</a>
</g>
</g>
<!-- Node3&#45;&gt;Node4 -->
<g id="edge3" class="edge">
<title>Node3&#45;&gt;Node4</title>
<path fill="none" stroke="midnightblue" d="M555.55,-48C566.22,-48 577.16,-48 587.83,-48"/>
<polygon fill="midnightblue" stroke="midnightblue" points="587.96,-51.5 597.96,-48 587.96,-44.5 587.96,-51.5"/>
</g>
</g>
</svg>
