<?xml version="1.0" encoding="UTF-8" standalone="no"?>
<!DOCTYPE svg PUBLIC "-//W3C//DTD SVG 1.1//EN"
 "http://www.w3.org/Graphics/SVG/1.1/DTD/svg11.dtd">
<!-- Generated by graphviz version 2.43.0 (0)
 -->
<!-- Title: TUIO::TuioPoint::getAngle Pages: 1 -->
<svg width="515pt" height="104pt"
 viewBox="0.00 0.00 515.00 104.00" xmlns="http://www.w3.org/2000/svg" xmlns:xlink="http://www.w3.org/1999/xlink">
<g id="graph0" class="graph" transform="scale(1 1) rotate(0) translate(4 100)">
<title>TUIO::TuioPoint::getAngle</title>
<polygon fill="white" stroke="transparent" points="-4,4 -4,-100 511,-100 511,4 -4,4"/>
<!-- Node1 -->
<g id="node1" class="node">
<title>Node1</title>
<g id="a_node1"><a xlink:title=" ">
<polygon fill="#bfbfbf" stroke="black" points="0,-38.5 0,-57.5 140,-57.5 140,-38.5 0,-38.5"/>
<text text-anchor="middle" x="70" y="-45.5" font-family="Helvetica,sans-Serif" font-size="10.00">TUIO::TuioPoint::getAngle</text>
</a>
</g>
</g>
<!-- Node2 -->
<g id="node2" class="node">
<title>Node2</title>
<g id="a_node2"><a xlink:href="../../d0/db6/classTUIO_1_1TuioPoint.html#ac25dbf02911cec80f47cfcc59b02b633" target="_top" xlink:title=" ">
<polygon fill="white" stroke="black" points="176,-76.5 176,-95.5 316,-95.5 316,-76.5 176,-76.5"/>
<text text-anchor="middle" x="246" y="-83.5" font-family="Helvetica,sans-Serif" font-size="10.00">TUIO::TuioPoint::getAngle</text>
</a>
</g>
</g>
<!-- Node1&#45;&gt;Node2 -->
<g id="edge1" class="edge">
<title>Node1&#45;&gt;Node2</title>
<path fill="none" stroke="midnightblue" d="M114.91,-57.59C138.18,-62.67 166.95,-68.96 191.52,-74.32"/>
<polygon fill="midnightblue" stroke="midnightblue" points="190.89,-77.77 201.41,-76.48 192.39,-70.93 190.89,-77.77"/>
</g>
<!-- Node4 -->
<g id="node4" class="node">
<title>Node4</title>
<g id="a_node4"><a xlink:href="../../d0/db6/classTUIO_1_1TuioPoint.html#a547710f33dd3786eaa8ca326b34911c0" target="_top" xlink:title=" ">
<polygon fill="white" stroke="black" points="186.5,-38.5 186.5,-57.5 305.5,-57.5 305.5,-38.5 186.5,-38.5"/>
<text text-anchor="middle" x="246" y="-45.5" font-family="Helvetica,sans-Serif" font-size="10.00">TUIO::TuioPoint::getX</text>
</a>
</g>
</g>
<!-- Node1&#45;&gt;Node4 -->
<g id="edge3" class="edge">
<title>Node1&#45;&gt;Node4</title>
<path fill="none" stroke="midnightblue" d="M140.02,-48C151.91,-48 164.26,-48 176.15,-48"/>
<polygon fill="midnightblue" stroke="midnightblue" points="176.45,-51.5 186.45,-48 176.45,-44.5 176.45,-51.5"/>
</g>
<!-- Node5 -->
<g id="node5" class="node">
<title>Node5</title>
<g id="a_node5"><a xlink:href="../../d0/db6/classTUIO_1_1TuioPoint.html#a2dbd53d10bbcddb6db271bdd30858733" target="_top" xlink:title=" ">
<polygon fill="white" stroke="black" points="186.5,-0.5 186.5,-19.5 305.5,-19.5 305.5,-0.5 186.5,-0.5"/>
<text text-anchor="middle" x="246" y="-7.5" font-family="Helvetica,sans-Serif" font-size="10.00">TUIO::TuioPoint::getY</text>
</a>
</g>
</g>
<!-- Node1&#45;&gt;Node5 -->
<g id="edge4" class="edge">
<title>Node1&#45;&gt;Node5</title>
<path fill="none" stroke="midnightblue" d="M114.91,-38.41C138.18,-33.33 166.95,-27.04 191.52,-21.68"/>
<polygon fill="midnightblue" stroke="midnightblue" points="192.39,-25.07 201.41,-19.52 190.89,-18.23 192.39,-25.07"/>
</g>
<!-- Node3 -->
<g id="node3" class="node">
<title>Node3</title>
<g id="a_node3"><a xlink:href="../../d0/db6/classTUIO_1_1TuioPoint.html#af271e7213d8ca793996236b340cb5c7f" target="_top" xlink:title=" ">
<polygon fill="white" stroke="black" points="352,-76.5 352,-95.5 507,-95.5 507,-76.5 352,-76.5"/>
<text text-anchor="middle" x="429.5" y="-83.5" font-family="Helvetica,sans-Serif" font-size="10.00">TUIO::TuioPoint::getDistance</text>
</a>
</g>
</g>
<!-- Node2&#45;&gt;Node3 -->
<g id="edge2" class="edge">
<title>Node2&#45;&gt;Node3</title>
<path fill="none" stroke="midnightblue" d="M316.14,-86C324.56,-86 333.25,-86 341.89,-86"/>
<polygon fill="midnightblue" stroke="midnightblue" points="341.98,-89.5 351.98,-86 341.98,-82.5 341.98,-89.5"/>
</g>
</g>
</svg>
