<?xml version="1.0" encoding="UTF-8" standalone="no"?>
<!DOCTYPE svg PUBLIC "-//W3C//DTD SVG 1.1//EN"
 "http://www.w3.org/Graphics/SVG/1.1/DTD/svg11.dtd">
<!-- Generated by graphviz version 2.43.0 (0)
 -->
<!-- Title: TUIO::TuioBlob::update Pages: 1 -->
<svg width="323pt" height="291pt"
 viewBox="0.00 0.00 323.00 290.50" xmlns="http://www.w3.org/2000/svg" xmlns:xlink="http://www.w3.org/1999/xlink">
<g id="graph0" class="graph" transform="scale(1 1) rotate(0) translate(4 286.5)">
<title>TUIO::TuioBlob::update</title>
<polygon fill="white" stroke="transparent" points="-4,4 -4,-286.5 319,-286.5 319,4 -4,4"/>
<!-- Node1 -->
<g id="node1" class="node">
<title>Node1</title>
<g id="a_node1"><a xlink:title=" ">
<polygon fill="#bfbfbf" stroke="black" points="0,-143 0,-162 128,-162 128,-143 0,-143"/>
<text text-anchor="middle" x="64" y="-150" font-family="Helvetica,sans-Serif" font-size="10.00">TUIO::TuioBlob::update</text>
</a>
</g>
</g>
<!-- Node2 -->
<g id="node2" class="node">
<title>Node2</title>
<g id="a_node2"><a xlink:href="../../d1/dcf/classTUIO_1_1TuioBlob.html#a807abce60406535ca47b82cb2759df8b" target="_top" xlink:title=" ">
<polygon fill="white" stroke="black" points="171,-263 171,-282 308,-282 308,-263 171,-263"/>
<text text-anchor="middle" x="239.5" y="-270" font-family="Helvetica,sans-Serif" font-size="10.00">TUIO::TuioBlob::getAngle</text>
</a>
</g>
</g>
<!-- Node1&#45;&gt;Node2 -->
<g id="edge1" class="edge">
<title>Node1&#45;&gt;Node2</title>
<path fill="none" stroke="midnightblue" d="M71.67,-162.27C86.05,-182.56 122.08,-229.36 164,-253.5 167.88,-255.73 172.02,-257.71 176.29,-259.45"/>
<polygon fill="midnightblue" stroke="midnightblue" points="175.19,-262.78 185.78,-262.92 177.59,-256.2 175.19,-262.78"/>
</g>
<!-- Node3 -->
<g id="node3" class="node">
<title>Node3</title>
<g id="a_node3"><a xlink:href="../../d1/dcf/classTUIO_1_1TuioBlob.html#ab3665c8b01b0864b0863ee5ba639e36b" target="_top" xlink:title=" ">
<polygon fill="white" stroke="black" points="173.5,-225 173.5,-244 305.5,-244 305.5,-225 173.5,-225"/>
<text text-anchor="middle" x="239.5" y="-232" font-family="Helvetica,sans-Serif" font-size="10.00">TUIO::TuioBlob::getArea</text>
</a>
</g>
</g>
<!-- Node1&#45;&gt;Node3 -->
<g id="edge2" class="edge">
<title>Node1&#45;&gt;Node3</title>
<path fill="none" stroke="midnightblue" d="M77.1,-162.01C95.07,-175.71 130.34,-200.94 164,-215.5 169.71,-217.97 175.81,-220.17 181.96,-222.12"/>
<polygon fill="midnightblue" stroke="midnightblue" points="181.06,-225.5 191.64,-224.97 183.04,-218.78 181.06,-225.5"/>
</g>
<!-- Node4 -->
<g id="node4" class="node">
<title>Node4</title>
<g id="a_node4"><a xlink:href="../../d1/dcf/classTUIO_1_1TuioBlob.html#ada148b8140e9f251fc7fd70117be3e71" target="_top" xlink:title=" ">
<polygon fill="white" stroke="black" points="168.5,-187 168.5,-206 310.5,-206 310.5,-187 168.5,-187"/>
<text text-anchor="middle" x="239.5" y="-194" font-family="Helvetica,sans-Serif" font-size="10.00">TUIO::TuioBlob::getHeight</text>
</a>
</g>
</g>
<!-- Node1&#45;&gt;Node4 -->
<g id="edge3" class="edge">
<title>Node1&#45;&gt;Node4</title>
<path fill="none" stroke="midnightblue" d="M102.65,-162.05C128.57,-168.62 163.2,-177.4 191.02,-184.46"/>
<polygon fill="midnightblue" stroke="midnightblue" points="190.37,-187.91 200.93,-186.97 192.09,-181.12 190.37,-187.91"/>
</g>
<!-- Node5 -->
<g id="node5" class="node">
<title>Node5</title>
<g id="a_node5"><a xlink:href="../../d1/dcf/classTUIO_1_1TuioBlob.html#aa52fee5957a0bded74e670ea00ceeceb" target="_top" xlink:title=" ">
<polygon fill="white" stroke="black" points="164,-137.5 164,-167.5 315,-167.5 315,-137.5 164,-137.5"/>
<text text-anchor="start" x="172" y="-155.5" font-family="Helvetica,sans-Serif" font-size="10.00">TUIO::TuioBlob::getRotation</text>
<text text-anchor="middle" x="239.5" y="-144.5" font-family="Helvetica,sans-Serif" font-size="10.00">Accel</text>
</a>
</g>
</g>
<!-- Node1&#45;&gt;Node5 -->
<g id="edge4" class="edge">
<title>Node1&#45;&gt;Node5</title>
<path fill="none" stroke="midnightblue" d="M128.13,-152.5C136.49,-152.5 145.16,-152.5 153.8,-152.5"/>
<polygon fill="midnightblue" stroke="midnightblue" points="153.92,-156 163.92,-152.5 153.92,-149 153.92,-156"/>
</g>
<!-- Node6 -->
<g id="node6" class="node">
<title>Node6</title>
<g id="a_node6"><a xlink:href="../../d1/dcf/classTUIO_1_1TuioBlob.html#a71fb8b327590a287e08a76804e237d84" target="_top" xlink:title=" ">
<polygon fill="white" stroke="black" points="164,-88.5 164,-118.5 315,-118.5 315,-88.5 164,-88.5"/>
<text text-anchor="start" x="172" y="-106.5" font-family="Helvetica,sans-Serif" font-size="10.00">TUIO::TuioBlob::getRotation</text>
<text text-anchor="middle" x="239.5" y="-95.5" font-family="Helvetica,sans-Serif" font-size="10.00">Speed</text>
</a>
</g>
</g>
<!-- Node1&#45;&gt;Node6 -->
<g id="edge5" class="edge">
<title>Node1&#45;&gt;Node6</title>
<path fill="none" stroke="midnightblue" d="M98.86,-142.94C120.64,-136.79 149.6,-128.61 175.5,-121.29"/>
<polygon fill="midnightblue" stroke="midnightblue" points="176.58,-124.62 185.26,-118.54 174.68,-117.89 176.58,-124.62"/>
</g>
<!-- Node7 -->
<g id="node7" class="node">
<title>Node7</title>
<g id="a_node7"><a xlink:href="../../d1/dcf/classTUIO_1_1TuioBlob.html#a0e85862145fe92340f4552c91313d0fe" target="_top" xlink:title=" ">
<polygon fill="white" stroke="black" points="170.5,-50 170.5,-69 308.5,-69 308.5,-50 170.5,-50"/>
<text text-anchor="middle" x="239.5" y="-57" font-family="Helvetica,sans-Serif" font-size="10.00">TUIO::TuioBlob::getWidth</text>
</a>
</g>
</g>
<!-- Node1&#45;&gt;Node7 -->
<g id="edge6" class="edge">
<title>Node1&#45;&gt;Node7</title>
<path fill="none" stroke="midnightblue" d="M75.13,-142.98C92.17,-127.46 128.21,-96.73 164,-79.5 169.78,-76.72 176.01,-74.27 182.31,-72.14"/>
<polygon fill="midnightblue" stroke="midnightblue" points="183.72,-75.37 192.22,-69.05 181.63,-68.69 183.72,-75.37"/>
</g>
<!-- Node8 -->
<g id="node8" class="node">
<title>Node8</title>
<g id="a_node8"><a xlink:href="../../d8/de3/classTUIO_1_1TuioContainer.html#ae6ed82aba4186921dc911a382f7e5f33" target="_top" xlink:title=" ">
<polygon fill="white" stroke="black" points="183,-0.5 183,-30.5 296,-30.5 296,-0.5 183,-0.5"/>
<text text-anchor="start" x="191" y="-18.5" font-family="Helvetica,sans-Serif" font-size="10.00">TUIO::TuioContainer</text>
<text text-anchor="middle" x="239.5" y="-7.5" font-family="Helvetica,sans-Serif" font-size="10.00">::update</text>
</a>
</g>
</g>
<!-- Node1&#45;&gt;Node8 -->
<g id="edge7" class="edge">
<title>Node1&#45;&gt;Node8</title>
<path fill="none" stroke="midnightblue" d="M70.93,-142.88C84.65,-121.41 120.74,-69.18 164,-40.5 167.08,-38.46 170.34,-36.57 173.72,-34.82"/>
<polygon fill="midnightblue" stroke="midnightblue" points="175.29,-37.95 182.85,-30.52 172.31,-31.61 175.29,-37.95"/>
</g>
</g>
</svg>
