<?xml version="1.0" encoding="UTF-8" standalone="no"?>
<!DOCTYPE svg PUBLIC "-//W3C//DTD SVG 1.1//EN"
 "http://www.w3.org/Graphics/SVG/1.1/DTD/svg11.dtd">
<!-- Generated by graphviz version 2.43.0 (0)
 -->
<!-- Title: TUIO::TuioBlob::TuioBlob Pages: 1 -->
<svg width="321pt" height="180pt"
 viewBox="0.00 0.00 321.00 180.00" xmlns="http://www.w3.org/2000/svg" xmlns:xlink="http://www.w3.org/1999/xlink">
<g id="graph0" class="graph" transform="scale(1 1) rotate(0) translate(4 176)">
<title>TUIO::TuioBlob::TuioBlob</title>
<polygon fill="white" stroke="transparent" points="-4,4 -4,-176 317,-176 317,4 -4,4"/>
<!-- Node1 -->
<g id="node1" class="node">
<title>Node1</title>
<g id="a_node1"><a xlink:title=" ">
<polygon fill="#bfbfbf" stroke="black" points="0,-76.5 0,-95.5 135,-95.5 135,-76.5 0,-76.5"/>
<text text-anchor="middle" x="67.5" y="-83.5" font-family="Helvetica,sans-Serif" font-size="10.00">TUIO::TuioBlob::TuioBlob</text>
</a>
</g>
</g>
<!-- Node2 -->
<g id="node2" class="node">
<title>Node2</title>
<g id="a_node2"><a xlink:href="../../d1/dcf/classTUIO_1_1TuioBlob.html#a807abce60406535ca47b82cb2759df8b" target="_top" xlink:title=" ">
<polygon fill="white" stroke="black" points="173.5,-152.5 173.5,-171.5 310.5,-171.5 310.5,-152.5 173.5,-152.5"/>
<text text-anchor="middle" x="242" y="-159.5" font-family="Helvetica,sans-Serif" font-size="10.00">TUIO::TuioBlob::getAngle</text>
</a>
</g>
</g>
<!-- Node1&#45;&gt;Node2 -->
<g id="edge1" class="edge">
<title>Node1&#45;&gt;Node2</title>
<path fill="none" stroke="midnightblue" d="M83.21,-95.69C102.62,-108.12 138.18,-129.65 171,-143 176.89,-145.4 183.19,-147.59 189.5,-149.56"/>
<polygon fill="midnightblue" stroke="midnightblue" points="188.78,-153 199.36,-152.48 190.77,-146.29 188.78,-153"/>
</g>
<!-- Node3 -->
<g id="node3" class="node">
<title>Node3</title>
<g id="a_node3"><a xlink:href="../../d1/dcf/classTUIO_1_1TuioBlob.html#ab3665c8b01b0864b0863ee5ba639e36b" target="_top" xlink:title=" ">
<polygon fill="white" stroke="black" points="176,-114.5 176,-133.5 308,-133.5 308,-114.5 176,-114.5"/>
<text text-anchor="middle" x="242" y="-121.5" font-family="Helvetica,sans-Serif" font-size="10.00">TUIO::TuioBlob::getArea</text>
</a>
</g>
</g>
<!-- Node1&#45;&gt;Node3 -->
<g id="edge2" class="edge">
<title>Node1&#45;&gt;Node3</title>
<path fill="none" stroke="midnightblue" d="M112.03,-95.59C135.1,-100.67 163.63,-106.96 187.98,-112.32"/>
<polygon fill="midnightblue" stroke="midnightblue" points="187.27,-115.75 197.78,-114.48 188.77,-108.91 187.27,-115.75"/>
</g>
<!-- Node4 -->
<g id="node4" class="node">
<title>Node4</title>
<g id="a_node4"><a xlink:href="../../d1/dcf/classTUIO_1_1TuioBlob.html#a75b865ab648794432ad62a6d862d4ad6" target="_top" xlink:title=" ">
<polygon fill="white" stroke="black" points="171,-76.5 171,-95.5 313,-95.5 313,-76.5 171,-76.5"/>
<text text-anchor="middle" x="242" y="-83.5" font-family="Helvetica,sans-Serif" font-size="10.00">TUIO::TuioBlob::getBlobID</text>
</a>
</g>
</g>
<!-- Node1&#45;&gt;Node4 -->
<g id="edge3" class="edge">
<title>Node1&#45;&gt;Node4</title>
<path fill="none" stroke="midnightblue" d="M135.19,-86C143.48,-86 152.03,-86 160.5,-86"/>
<polygon fill="midnightblue" stroke="midnightblue" points="160.77,-89.5 170.77,-86 160.77,-82.5 160.77,-89.5"/>
</g>
<!-- Node5 -->
<g id="node5" class="node">
<title>Node5</title>
<g id="a_node5"><a xlink:href="../../d1/dcf/classTUIO_1_1TuioBlob.html#ada148b8140e9f251fc7fd70117be3e71" target="_top" xlink:title=" ">
<polygon fill="white" stroke="black" points="171,-38.5 171,-57.5 313,-57.5 313,-38.5 171,-38.5"/>
<text text-anchor="middle" x="242" y="-45.5" font-family="Helvetica,sans-Serif" font-size="10.00">TUIO::TuioBlob::getHeight</text>
</a>
</g>
</g>
<!-- Node1&#45;&gt;Node5 -->
<g id="edge4" class="edge">
<title>Node1&#45;&gt;Node5</title>
<path fill="none" stroke="midnightblue" d="M112.03,-76.41C135.1,-71.33 163.63,-65.04 187.98,-59.68"/>
<polygon fill="midnightblue" stroke="midnightblue" points="188.77,-63.09 197.78,-57.52 187.27,-56.25 188.77,-63.09"/>
</g>
<!-- Node6 -->
<g id="node6" class="node">
<title>Node6</title>
<g id="a_node6"><a xlink:href="../../d1/dcf/classTUIO_1_1TuioBlob.html#a0e85862145fe92340f4552c91313d0fe" target="_top" xlink:title=" ">
<polygon fill="white" stroke="black" points="173,-0.5 173,-19.5 311,-19.5 311,-0.5 173,-0.5"/>
<text text-anchor="middle" x="242" y="-7.5" font-family="Helvetica,sans-Serif" font-size="10.00">TUIO::TuioBlob::getWidth</text>
</a>
</g>
</g>
<!-- Node1&#45;&gt;Node6 -->
<g id="edge5" class="edge">
<title>Node1&#45;&gt;Node6</title>
<path fill="none" stroke="midnightblue" d="M83.21,-76.31C102.62,-63.88 138.18,-42.35 171,-29 176.89,-26.6 183.19,-24.41 189.5,-22.44"/>
<polygon fill="midnightblue" stroke="midnightblue" points="190.77,-25.71 199.36,-19.52 188.78,-19 190.77,-25.71"/>
</g>
</g>
</svg>
