<?xml version="1.0" encoding="UTF-8" standalone="no"?>
<!DOCTYPE svg PUBLIC "-//W3C//DTD SVG 1.1//EN"
 "http://www.w3.org/Graphics/SVG/1.1/DTD/svg11.dtd">
<!-- Generated by graphviz version 2.43.0 (0)
 -->
<!-- Title: TUIO::TuioBlob::update Pages: 1 -->
<svg width="329pt" height="127pt"
 viewBox="0.00 0.00 329.00 127.00" xmlns="http://www.w3.org/2000/svg" xmlns:xlink="http://www.w3.org/1999/xlink">
<g id="graph0" class="graph" transform="scale(1 1) rotate(0) translate(4 123)">
<title>TUIO::TuioBlob::update</title>
<polygon fill="white" stroke="transparent" points="-4,4 -4,-123 325,-123 325,4 -4,4"/>
<!-- Node1 -->
<g id="node1" class="node">
<title>Node1</title>
<g id="a_node1"><a xlink:title=" ">
<polygon fill="#bfbfbf" stroke="black" points="0,-50 0,-69 128,-69 128,-50 0,-50"/>
<text text-anchor="middle" x="64" y="-57" font-family="Helvetica,sans-Serif" font-size="10.00">TUIO::TuioBlob::update</text>
</a>
</g>
</g>
<!-- Node2 -->
<g id="node2" class="node">
<title>Node2</title>
<g id="a_node2"><a xlink:href="../../d0/db2/classTUIO_1_1TuioTime.html#ac403aea1a8928e714f9f6388f488fa33" target="_top" xlink:title=" ">
<polygon fill="white" stroke="black" points="174.5,-88.5 174.5,-118.5 310.5,-118.5 310.5,-88.5 174.5,-88.5"/>
<text text-anchor="start" x="182.5" y="-106.5" font-family="Helvetica,sans-Serif" font-size="10.00">TUIO::TuioTime::getTotal</text>
<text text-anchor="middle" x="242.5" y="-95.5" font-family="Helvetica,sans-Serif" font-size="10.00">Milliseconds</text>
</a>
</g>
</g>
<!-- Node1&#45;&gt;Node2 -->
<g id="edge1" class="edge">
<title>Node1&#45;&gt;Node2</title>
<path fill="none" stroke="midnightblue" d="M103.3,-69.05C123.17,-74 148.08,-80.21 171.26,-85.99"/>
<polygon fill="midnightblue" stroke="midnightblue" points="170.52,-89.41 181.07,-88.43 172.21,-82.62 170.52,-89.41"/>
</g>
<!-- Node3 -->
<g id="node3" class="node">
<title>Node3</title>
<g id="a_node3"><a xlink:href="../../d0/db6/classTUIO_1_1TuioPoint.html#ac86687cf27772d0fd602c2044b6c8cdd" target="_top" xlink:title=" ">
<polygon fill="white" stroke="black" points="164,-50 164,-69 321,-69 321,-50 164,-50"/>
<text text-anchor="middle" x="242.5" y="-57" font-family="Helvetica,sans-Serif" font-size="10.00">TUIO::TuioPoint::getTuioTime</text>
</a>
</g>
</g>
<!-- Node1&#45;&gt;Node3 -->
<g id="edge2" class="edge">
<title>Node1&#45;&gt;Node3</title>
<path fill="none" stroke="midnightblue" d="M128.22,-59.5C136.54,-59.5 145.18,-59.5 153.82,-59.5"/>
<polygon fill="midnightblue" stroke="midnightblue" points="153.93,-63 163.93,-59.5 153.93,-56 153.93,-63"/>
</g>
<!-- Node4 -->
<g id="node4" class="node">
<title>Node4</title>
<g id="a_node4"><a xlink:href="../../d8/de3/classTUIO_1_1TuioContainer.html#ae6ed82aba4186921dc911a382f7e5f33" target="_top" xlink:title=" ">
<polygon fill="white" stroke="black" points="186,-0.5 186,-30.5 299,-30.5 299,-0.5 186,-0.5"/>
<text text-anchor="start" x="194" y="-18.5" font-family="Helvetica,sans-Serif" font-size="10.00">TUIO::TuioContainer</text>
<text text-anchor="middle" x="242.5" y="-7.5" font-family="Helvetica,sans-Serif" font-size="10.00">::update</text>
</a>
</g>
</g>
<!-- Node1&#45;&gt;Node4 -->
<g id="edge3" class="edge">
<title>Node1&#45;&gt;Node4</title>
<path fill="none" stroke="midnightblue" d="M103.3,-49.95C124.51,-44.67 151.45,-37.95 175.91,-31.85"/>
<polygon fill="midnightblue" stroke="midnightblue" points="177,-35.19 185.85,-29.37 175.31,-28.39 177,-35.19"/>
</g>
</g>
</svg>
