<?xml version="1.0" encoding="UTF-8" standalone="no"?>
<!DOCTYPE svg PUBLIC "-//W3C//DTD SVG 1.1//EN"
 "http://www.w3.org/Graphics/SVG/1.1/DTD/svg11.dtd">
<!-- Generated by graphviz version 2.43.0 (0)
 -->
<!-- Title: TUIO::TuioBlob::getArea Pages: 1 -->
<svg width="469pt" height="312pt"
 viewBox="0.00 0.00 469.00 312.00" xmlns="http://www.w3.org/2000/svg" xmlns:xlink="http://www.w3.org/1999/xlink">
<g id="graph0" class="graph" transform="scale(1 1) rotate(0) translate(4 308)">
<title>TUIO::TuioBlob::getArea</title>
<polygon fill="white" stroke="transparent" points="-4,4 -4,-308 465,-308 465,4 -4,4"/>
<!-- Node1 -->
<g id="node1" class="node">
<title>Node1</title>
<g id="a_node1"><a xlink:title=" ">
<polygon fill="#bfbfbf" stroke="black" points="329,-137 329,-156 461,-156 461,-137 329,-137"/>
<text text-anchor="middle" x="395" y="-144" font-family="Helvetica,sans-Serif" font-size="10.00">TUIO::TuioBlob::getArea</text>
</a>
</g>
</g>
<!-- Node2 -->
<g id="node2" class="node">
<title>Node2</title>
<g id="a_node2"><a xlink:href="../../d2/d82/classTUIO_1_1TuioManager.html#aa3bf208467095db93ab6f7d0f66eba06" target="_top" xlink:title=" ">
<polygon fill="white" stroke="black" points="158.5,-273.5 158.5,-303.5 274.5,-303.5 274.5,-273.5 158.5,-273.5"/>
<text text-anchor="start" x="166.5" y="-291.5" font-family="Helvetica,sans-Serif" font-size="10.00">TUIO::TuioManager::</text>
<text text-anchor="middle" x="216.5" y="-280.5" font-family="Helvetica,sans-Serif" font-size="10.00">addExternalTuioBlob</text>
</a>
</g>
</g>
<!-- Node1&#45;&gt;Node2 -->
<g id="edge1" class="edge">
<title>Node1&#45;&gt;Node2</title>
<path fill="none" stroke="midnightblue" d="M383.04,-164.82C366.63,-190.71 333.26,-237.82 293,-264.5 287.38,-268.22 281.15,-271.4 274.74,-274.1"/>
<polygon fill="midnightblue" stroke="midnightblue" points="386.19,-166.37 388.47,-156.02 380.24,-162.68 386.19,-166.37"/>
</g>
<!-- Node3 -->
<g id="node3" class="node">
<title>Node3</title>
<g id="a_node3"><a xlink:href="../../d2/d82/classTUIO_1_1TuioManager.html#a7925107580bde23e4293e27795633c8e" target="_top" xlink:title=" ">
<polygon fill="white" stroke="black" points="159,-224.5 159,-254.5 274,-254.5 274,-224.5 159,-224.5"/>
<text text-anchor="start" x="167" y="-242.5" font-family="Helvetica,sans-Serif" font-size="10.00">TUIO::TuioManager::</text>
<text text-anchor="middle" x="216.5" y="-231.5" font-family="Helvetica,sans-Serif" font-size="10.00">addTuioBlob</text>
</a>
</g>
</g>
<!-- Node1&#45;&gt;Node3 -->
<g id="edge2" class="edge">
<title>Node1&#45;&gt;Node3</title>
<path fill="none" stroke="midnightblue" d="M374.39,-162.47C354.78,-177.8 323.26,-200.75 293,-215.5 286.2,-218.81 278.84,-221.81 271.47,-224.48"/>
<polygon fill="midnightblue" stroke="midnightblue" points="376.61,-165.18 382.27,-156.22 372.26,-159.69 376.61,-165.18"/>
</g>
<!-- Node4 -->
<g id="node4" class="node">
<title>Node4</title>
<g id="a_node4"><a xlink:href="../../d2/d82/classTUIO_1_1TuioManager.html#a8e3905a2a7fb550ba795676be3e0b49b" target="_top" xlink:title=" ">
<polygon fill="white" stroke="black" points="140,-175.5 140,-205.5 293,-205.5 293,-175.5 140,-175.5"/>
<text text-anchor="start" x="148" y="-193.5" font-family="Helvetica,sans-Serif" font-size="10.00">TUIO::TuioManager::</text>
<text text-anchor="middle" x="216.5" y="-182.5" font-family="Helvetica,sans-Serif" font-size="10.00">stopUntouchedMovingBlobs</text>
</a>
</g>
</g>
<!-- Node1&#45;&gt;Node4 -->
<g id="edge3" class="edge">
<title>Node1&#45;&gt;Node4</title>
<path fill="none" stroke="midnightblue" d="M345.76,-158.53C324.82,-163.75 300.08,-169.91 277.93,-175.43"/>
<polygon fill="midnightblue" stroke="midnightblue" points="346.85,-161.86 355.7,-156.05 345.15,-155.07 346.85,-161.86"/>
</g>
<!-- Node6 -->
<g id="node6" class="node">
<title>Node6</title>
<g id="a_node6"><a xlink:href="../../d1/dcf/classTUIO_1_1TuioBlob.html#a614d095e3e8a23996489bef0288f9acd" target="_top" xlink:title=" ">
<polygon fill="white" stroke="black" points="149,-137 149,-156 284,-156 284,-137 149,-137"/>
<text text-anchor="middle" x="216.5" y="-144" font-family="Helvetica,sans-Serif" font-size="10.00">TUIO::TuioBlob::TuioBlob</text>
</a>
</g>
</g>
<!-- Node1&#45;&gt;Node6 -->
<g id="edge5" class="edge">
<title>Node1&#45;&gt;Node6</title>
<path fill="none" stroke="midnightblue" d="M318.44,-146.5C307.06,-146.5 295.4,-146.5 284.22,-146.5"/>
<polygon fill="midnightblue" stroke="midnightblue" points="318.78,-150 328.78,-146.5 318.78,-143 318.78,-150"/>
</g>
<!-- Node7 -->
<g id="node7" class="node">
<title>Node7</title>
<g id="a_node7"><a xlink:href="../../d1/dcf/classTUIO_1_1TuioBlob.html#ae0d74d93c5f7707f066ec7e5e0f6f8d5" target="_top" xlink:title=" ">
<polygon fill="white" stroke="black" points="152.5,-99 152.5,-118 280.5,-118 280.5,-99 152.5,-99"/>
<text text-anchor="middle" x="216.5" y="-106" font-family="Helvetica,sans-Serif" font-size="10.00">TUIO::TuioBlob::update</text>
</a>
</g>
</g>
<!-- Node1&#45;&gt;Node7 -->
<g id="edge6" class="edge">
<title>Node1&#45;&gt;Node7</title>
<path fill="none" stroke="midnightblue" d="M339.41,-134.75C314.46,-129.37 285.27,-123.09 261.72,-118.02"/>
<polygon fill="midnightblue" stroke="midnightblue" points="338.95,-138.23 349.46,-136.91 340.42,-131.38 338.95,-138.23"/>
</g>
<!-- Node8 -->
<g id="node8" class="node">
<title>Node8</title>
<g id="a_node8"><a xlink:href="../../d2/d82/classTUIO_1_1TuioManager.html#a3563251a5257e75633d6d30b269f69f0" target="_top" xlink:title=" ">
<polygon fill="white" stroke="black" points="150.5,-49.5 150.5,-79.5 282.5,-79.5 282.5,-49.5 150.5,-49.5"/>
<text text-anchor="start" x="158.5" y="-67.5" font-family="Helvetica,sans-Serif" font-size="10.00">TUIO::TuioManager::</text>
<text text-anchor="middle" x="216.5" y="-56.5" font-family="Helvetica,sans-Serif" font-size="10.00">updateExternalTuioBlob</text>
</a>
</g>
</g>
<!-- Node1&#45;&gt;Node8 -->
<g id="edge7" class="edge">
<title>Node1&#45;&gt;Node8</title>
<path fill="none" stroke="midnightblue" d="M370.33,-131.4C350.29,-119.04 320.5,-101.67 293,-89.5 284.92,-85.92 276.16,-82.57 267.57,-79.56"/>
<polygon fill="midnightblue" stroke="midnightblue" points="368.74,-134.53 379.08,-136.86 372.45,-128.59 368.74,-134.53"/>
</g>
<!-- Node9 -->
<g id="node9" class="node">
<title>Node9</title>
<g id="a_node9"><a xlink:href="../../d2/d82/classTUIO_1_1TuioManager.html#aa532b9759c1a39b18e59740b7b268bab" target="_top" xlink:title=" ">
<polygon fill="white" stroke="black" points="159,-0.5 159,-30.5 274,-30.5 274,-0.5 159,-0.5"/>
<text text-anchor="start" x="167" y="-18.5" font-family="Helvetica,sans-Serif" font-size="10.00">TUIO::TuioManager::</text>
<text text-anchor="middle" x="216.5" y="-7.5" font-family="Helvetica,sans-Serif" font-size="10.00">updateTuioBlob</text>
</a>
</g>
</g>
<!-- Node1&#45;&gt;Node9 -->
<g id="edge8" class="edge">
<title>Node1&#45;&gt;Node9</title>
<path fill="none" stroke="midnightblue" d="M381.29,-128.45C363.9,-105 330.53,-64.28 293,-40.5 286.93,-36.66 280.22,-33.35 273.37,-30.51"/>
<polygon fill="midnightblue" stroke="midnightblue" points="378.64,-130.75 387.34,-136.79 384.3,-126.64 378.64,-130.75"/>
</g>
<!-- Node5 -->
<g id="node5" class="node">
<title>Node5</title>
<g id="a_node5"><a xlink:href="../../d8/dc8/classTUIO_1_1TuioServer.html#ab3b84d7f13f0cecc4709ae7ff0e89118" target="_top" xlink:title=" ">
<polygon fill="white" stroke="black" points="0,-175.5 0,-205.5 104,-205.5 104,-175.5 0,-175.5"/>
<text text-anchor="start" x="8" y="-193.5" font-family="Helvetica,sans-Serif" font-size="10.00">TUIO::TuioServer::</text>
<text text-anchor="middle" x="52" y="-182.5" font-family="Helvetica,sans-Serif" font-size="10.00">~TuioServer</text>
</a>
</g>
</g>
<!-- Node4&#45;&gt;Node5 -->
<g id="edge4" class="edge">
<title>Node4&#45;&gt;Node5</title>
<path fill="none" stroke="midnightblue" d="M129.73,-190.5C121.03,-190.5 112.39,-190.5 104.23,-190.5"/>
<polygon fill="midnightblue" stroke="midnightblue" points="129.96,-194 139.96,-190.5 129.96,-187 129.96,-194"/>
</g>
</g>
</svg>
