<?xml version="1.0" encoding="UTF-8" standalone="no"?>
<!DOCTYPE svg PUBLIC "-//W3C//DTD SVG 1.1//EN"
 "http://www.w3.org/Graphics/SVG/1.1/DTD/svg11.dtd">
<!-- Generated by graphviz version 2.43.0 (0)
 -->
<!-- Title: TUIO::TuioBlob::getRotationSpeed Pages: 1 -->
<svg width="488pt" height="176pt"
 viewBox="0.00 0.00 488.00 176.00" xmlns="http://www.w3.org/2000/svg" xmlns:xlink="http://www.w3.org/1999/xlink">
<g id="graph0" class="graph" transform="scale(1 1) rotate(0) translate(4 172)">
<title>TUIO::TuioBlob::getRotationSpeed</title>
<polygon fill="white" stroke="transparent" points="-4,4 -4,-172 484,-172 484,4 -4,4"/>
<!-- Node1 -->
<g id="node1" class="node">
<title>Node1</title>
<g id="a_node1"><a xlink:title=" ">
<polygon fill="#bfbfbf" stroke="black" points="329,-71.5 329,-101.5 480,-101.5 480,-71.5 329,-71.5"/>
<text text-anchor="start" x="337" y="-89.5" font-family="Helvetica,sans-Serif" font-size="10.00">TUIO::TuioBlob::getRotation</text>
<text text-anchor="middle" x="404.5" y="-78.5" font-family="Helvetica,sans-Serif" font-size="10.00">Speed</text>
</a>
</g>
</g>
<!-- Node2 -->
<g id="node2" class="node">
<title>Node2</title>
<g id="a_node2"><a xlink:href="../../d2/d82/classTUIO_1_1TuioManager.html#a8e3905a2a7fb550ba795676be3e0b49b" target="_top" xlink:title=" ">
<polygon fill="white" stroke="black" points="140,-137.5 140,-167.5 293,-167.5 293,-137.5 140,-137.5"/>
<text text-anchor="start" x="148" y="-155.5" font-family="Helvetica,sans-Serif" font-size="10.00">TUIO::TuioManager::</text>
<text text-anchor="middle" x="216.5" y="-144.5" font-family="Helvetica,sans-Serif" font-size="10.00">stopUntouchedMovingBlobs</text>
</a>
</g>
</g>
<!-- Node1&#45;&gt;Node2 -->
<g id="edge1" class="edge">
<title>Node1&#45;&gt;Node2</title>
<path fill="none" stroke="midnightblue" d="M354.57,-105.08C335.42,-112.24 313.23,-120.4 293,-127.5 283.62,-130.79 273.54,-134.21 263.9,-137.42"/>
<polygon fill="midnightblue" stroke="midnightblue" points="355.85,-108.34 363.99,-101.55 353.39,-101.78 355.85,-108.34"/>
</g>
<!-- Node4 -->
<g id="node4" class="node">
<title>Node4</title>
<g id="a_node4"><a xlink:href="../../d1/dcf/classTUIO_1_1TuioBlob.html#ae0d74d93c5f7707f066ec7e5e0f6f8d5" target="_top" xlink:title=" ">
<polygon fill="white" stroke="black" points="152.5,-99 152.5,-118 280.5,-118 280.5,-99 152.5,-99"/>
<text text-anchor="middle" x="216.5" y="-106" font-family="Helvetica,sans-Serif" font-size="10.00">TUIO::TuioBlob::update</text>
</a>
</g>
</g>
<!-- Node1&#45;&gt;Node4 -->
<g id="edge3" class="edge">
<title>Node1&#45;&gt;Node4</title>
<path fill="none" stroke="midnightblue" d="M318.73,-96.53C305.95,-98.04 292.96,-99.57 280.73,-101.02"/>
<polygon fill="midnightblue" stroke="midnightblue" points="319.4,-99.97 328.92,-95.32 318.58,-93.02 319.4,-99.97"/>
</g>
<!-- Node5 -->
<g id="node5" class="node">
<title>Node5</title>
<g id="a_node5"><a xlink:href="../../d2/d82/classTUIO_1_1TuioManager.html#a3563251a5257e75633d6d30b269f69f0" target="_top" xlink:title=" ">
<polygon fill="white" stroke="black" points="150.5,-49.5 150.5,-79.5 282.5,-79.5 282.5,-49.5 150.5,-49.5"/>
<text text-anchor="start" x="158.5" y="-67.5" font-family="Helvetica,sans-Serif" font-size="10.00">TUIO::TuioManager::</text>
<text text-anchor="middle" x="216.5" y="-56.5" font-family="Helvetica,sans-Serif" font-size="10.00">updateExternalTuioBlob</text>
</a>
</g>
</g>
<!-- Node1&#45;&gt;Node5 -->
<g id="edge4" class="edge">
<title>Node1&#45;&gt;Node5</title>
<path fill="none" stroke="midnightblue" d="M318.76,-76.48C306.58,-75.04 294.22,-73.57 282.5,-72.19"/>
<polygon fill="midnightblue" stroke="midnightblue" points="318.58,-79.98 328.92,-77.68 319.4,-73.03 318.58,-79.98"/>
</g>
<!-- Node6 -->
<g id="node6" class="node">
<title>Node6</title>
<g id="a_node6"><a xlink:href="../../d2/d82/classTUIO_1_1TuioManager.html#aa532b9759c1a39b18e59740b7b268bab" target="_top" xlink:title=" ">
<polygon fill="white" stroke="black" points="159,-0.5 159,-30.5 274,-30.5 274,-0.5 159,-0.5"/>
<text text-anchor="start" x="167" y="-18.5" font-family="Helvetica,sans-Serif" font-size="10.00">TUIO::TuioManager::</text>
<text text-anchor="middle" x="216.5" y="-7.5" font-family="Helvetica,sans-Serif" font-size="10.00">updateTuioBlob</text>
</a>
</g>
</g>
<!-- Node1&#45;&gt;Node6 -->
<g id="edge5" class="edge">
<title>Node1&#45;&gt;Node6</title>
<path fill="none" stroke="midnightblue" d="M359.68,-67.37C339.51,-58.8 315.19,-48.78 293,-40.5 283.94,-37.12 274.2,-33.72 264.81,-30.56"/>
<polygon fill="midnightblue" stroke="midnightblue" points="358.36,-70.61 368.93,-71.33 361.11,-64.18 358.36,-70.61"/>
</g>
<!-- Node3 -->
<g id="node3" class="node">
<title>Node3</title>
<g id="a_node3"><a xlink:href="../../d8/dc8/classTUIO_1_1TuioServer.html#ab3b84d7f13f0cecc4709ae7ff0e89118" target="_top" xlink:title=" ">
<polygon fill="white" stroke="black" points="0,-137.5 0,-167.5 104,-167.5 104,-137.5 0,-137.5"/>
<text text-anchor="start" x="8" y="-155.5" font-family="Helvetica,sans-Serif" font-size="10.00">TUIO::TuioServer::</text>
<text text-anchor="middle" x="52" y="-144.5" font-family="Helvetica,sans-Serif" font-size="10.00">~TuioServer</text>
</a>
</g>
</g>
<!-- Node2&#45;&gt;Node3 -->
<g id="edge2" class="edge">
<title>Node2&#45;&gt;Node3</title>
<path fill="none" stroke="midnightblue" d="M129.73,-152.5C121.03,-152.5 112.39,-152.5 104.23,-152.5"/>
<polygon fill="midnightblue" stroke="midnightblue" points="129.96,-156 139.96,-152.5 129.96,-149 129.96,-156"/>
</g>
</g>
</svg>
