<?xml version="1.0" encoding="UTF-8" standalone="no"?>
<!DOCTYPE svg PUBLIC "-//W3C//DTD SVG 1.1//EN"
 "http://www.w3.org/Graphics/SVG/1.1/DTD/svg11.dtd">
<!-- Generated by graphviz version 2.43.0 (0)
 -->
<!-- Title: TUIO::TuioPoint::getTuioTime Pages: 1 -->
<!--zoomable 704 -->
<svg id="main" version="1.1" xmlns="http://www.w3.org/2000/svg" xmlns:xlink="http://www.w3.org/1999/xlink" xml:space="preserve" onload="init(evt)">
<style type="text/css"><![CDATA[
.edge:hover path { stroke: red; }
.edge:hover polygon { stroke: red; fill: red; }
]]></style>
<script type="text/javascript"><![CDATA[
var edges = document.getElementsByTagName('g');
if (edges && edges.length) {
  for (var i=0;i<edges.length;i++) {
    if (edges[i].id.substr(0,4)=='edge') {
      edges[i].setAttribute('class','edge');
    }
  }
}
]]></script>
        <defs>
                <circle id="rim" cx="0" cy="0" r="7"/>
                <circle id="rim2" cx="0" cy="0" r="3.5"/>
                <g id="zoomPlus">
                        <use xlink:href="#rim" fill="#404040">
                                <set attributeName="fill" to="#808080" begin="zoomplus.mouseover" end="zoomplus.mouseout"/>
                        </use>
                        <path d="M-4,0h8M0,-4v8" fill="none" stroke="white" stroke-width="1.5" pointer-events="none"/>
                </g>
                <g id="zoomMin">
                        <use xlink:href="#rim" fill="#404040">
                                <set attributeName="fill" to="#808080" begin="zoomminus.mouseover" end="zoomminus.mouseout"/>
                        </use>
                        <path d="M-4,0h8" fill="none" stroke="white" stroke-width="1.5" pointer-events="none"/>
                </g>
                <g id="dirArrow">
                        <path fill="none" stroke="white" stroke-width="1.5" d="M0,-3.0v7 M-2.5,-0.5L0,-3.0L2.5,-0.5"/>
                </g>
               <g id="resetDef">
                       <use xlink:href="#rim2" fill="#404040">
                               <set attributeName="fill" to="#808080" begin="reset.mouseover" end="reset.mouseout"/>
                       </use>
               </g>
        </defs>

<script type="text/javascript">
var viewWidth = 524;
var viewHeight = 704;
var sectionId = 'dynsection-20';
</script>
<script xlink:href="../../svgpan.js"/>
<svg id="graph" class="graph">
<g id="viewport">
<title>TUIO::TuioPoint::getTuioTime</title>
<polygon fill="white" stroke="transparent" points="-4,4 -4,-700 520,-700 520,4 -4,4"/>
<!-- Node1 -->
<g id="node1" class="node">
<title>Node1</title>
<g id="a_node1"><a xlink:title=" ">
<polygon fill="#bfbfbf" stroke="black" points="359,-328 359,-347 516,-347 516,-328 359,-328"/>
<text text-anchor="middle" x="437.5" y="-335" font-family="Helvetica,sans-Serif" font-size="10.00">TUIO::TuioPoint::getTuioTime</text>
</a>
</g>
</g>
<!-- Node2 -->
<g id="node2" class="node">
<title>Node2</title>
<g id="a_node2"><a xlink:href="../../d8/dc8/classTUIO_1_1TuioServer.html#a2897fba538037cb8f81a075830d4bc1a" target="_top" xlink:title=" ">
<polygon fill="white" stroke="black" points="161,-665.5 161,-695.5 302,-695.5 302,-665.5 161,-665.5"/>
<text text-anchor="start" x="169" y="-683.5" font-family="Helvetica,sans-Serif" font-size="10.00">TUIO::TuioServer::commit</text>
<text text-anchor="middle" x="231.5" y="-672.5" font-family="Helvetica,sans-Serif" font-size="10.00">Frame</text>
</a>
</g>
</g>
<!-- Node1&#45;&gt;Node2 -->
<g id="edge1" class="edge">
<title>Node1&#45;&gt;Node2</title>
<path fill="none" stroke="midnightblue" d="M435.57,-357.29C431.86,-413.13 413.44,-573.24 323,-656.5 317.02,-662 309.92,-666.27 302.38,-669.58"/>
<polygon fill="midnightblue" stroke="midnightblue" points="439.08,-357.21 436.16,-347.03 432.1,-356.81 439.08,-357.21"/>
</g>
<!-- Node3 -->
<g id="node3" class="node">
<title>Node3</title>
<g id="a_node3"><a xlink:href="../../d2/d82/classTUIO_1_1TuioManager.html#a34f8e65ba375491c99616fc4bdd07272" target="_top" xlink:title=" ">
<polygon fill="white" stroke="black" points="174,-616.5 174,-646.5 289,-646.5 289,-616.5 174,-616.5"/>
<text text-anchor="start" x="182" y="-634.5" font-family="Helvetica,sans-Serif" font-size="10.00">TUIO::TuioManager::</text>
<text text-anchor="middle" x="231.5" y="-623.5" font-family="Helvetica,sans-Serif" font-size="10.00">getUntouchedBlobs</text>
</a>
</g>
</g>
<!-- Node1&#45;&gt;Node3 -->
<g id="edge2" class="edge">
<title>Node1&#45;&gt;Node3</title>
<path fill="none" stroke="midnightblue" d="M434.15,-357.21C427.12,-407.06 401.65,-539.07 323,-607.5 313.43,-615.82 301.3,-621.3 289.04,-624.9"/>
<polygon fill="midnightblue" stroke="midnightblue" points="437.64,-357.49 435.47,-347.12 430.7,-356.58 437.64,-357.49"/>
</g>
<!-- Node4 -->
<g id="node4" class="node">
<title>Node4</title>
<g id="a_node4"><a xlink:href="../../d2/d82/classTUIO_1_1TuioManager.html#a41dd5cdb2256b18d094ec14003e4d309" target="_top" xlink:title=" ">
<polygon fill="white" stroke="black" points="170.5,-567.5 170.5,-597.5 292.5,-597.5 292.5,-567.5 170.5,-567.5"/>
<text text-anchor="start" x="178.5" y="-585.5" font-family="Helvetica,sans-Serif" font-size="10.00">TUIO::TuioManager::</text>
<text text-anchor="middle" x="231.5" y="-574.5" font-family="Helvetica,sans-Serif" font-size="10.00">getUntouchedCursors</text>
</a>
</g>
</g>
<!-- Node1&#45;&gt;Node4 -->
<g id="edge3" class="edge">
<title>Node1&#45;&gt;Node4</title>
<path fill="none" stroke="midnightblue" d="M432.17,-357.08C421.55,-400.34 390.07,-504.51 323,-558.5 314.26,-565.53 303.66,-570.52 292.84,-574.05"/>
<polygon fill="midnightblue" stroke="midnightblue" points="435.6,-357.77 434.48,-347.24 428.79,-356.17 435.6,-357.77"/>
</g>
<!-- Node5 -->
<g id="node5" class="node">
<title>Node5</title>
<g id="a_node5"><a xlink:href="../../d2/d82/classTUIO_1_1TuioManager.html#a867c47742edb48f5cfe7f0ee0ea5fcb5" target="_top" xlink:title=" ">
<polygon fill="white" stroke="black" points="170.5,-518.5 170.5,-548.5 292.5,-548.5 292.5,-518.5 170.5,-518.5"/>
<text text-anchor="start" x="178.5" y="-536.5" font-family="Helvetica,sans-Serif" font-size="10.00">TUIO::TuioManager::</text>
<text text-anchor="middle" x="231.5" y="-525.5" font-family="Helvetica,sans-Serif" font-size="10.00">getUntouchedObjects</text>
</a>
</g>
</g>
<!-- Node1&#45;&gt;Node5 -->
<g id="edge4" class="edge">
<title>Node1&#45;&gt;Node5</title>
<path fill="none" stroke="midnightblue" d="M429.25,-356.79C414.78,-392.6 378.81,-469.37 323,-509.5 314.03,-515.95 303.43,-520.67 292.72,-524.12"/>
<polygon fill="midnightblue" stroke="midnightblue" points="432.67,-357.66 433.05,-347.07 426.15,-355.11 432.67,-357.66"/>
</g>
<!-- Node6 -->
<g id="node6" class="node">
<title>Node6</title>
<g id="a_node6"><a xlink:href="../../d2/d82/classTUIO_1_1TuioManager.html#a0063262b037e56b554a31f90a81d53bb" target="_top" xlink:title=" ">
<polygon fill="white" stroke="black" points="145,-469.5 145,-499.5 318,-499.5 318,-469.5 145,-469.5"/>
<text text-anchor="start" x="153" y="-487.5" font-family="Helvetica,sans-Serif" font-size="10.00">TUIO::TuioManager::</text>
<text text-anchor="middle" x="231.5" y="-476.5" font-family="Helvetica,sans-Serif" font-size="10.00">removeUntouchedStoppedBlobs</text>
</a>
</g>
</g>
<!-- Node1&#45;&gt;Node6 -->
<g id="edge5" class="edge">
<title>Node1&#45;&gt;Node6</title>
<path fill="none" stroke="midnightblue" d="M424.76,-355.73C406.38,-382.78 368.19,-433.26 323,-460.5 317.29,-463.94 311.09,-466.89 304.7,-469.43"/>
<polygon fill="midnightblue" stroke="midnightblue" points="427.8,-357.48 430.42,-347.22 421.97,-353.61 427.8,-357.48"/>
</g>
<!-- Node8 -->
<g id="node8" class="node">
<title>Node8</title>
<g id="a_node8"><a xlink:href="../../d2/d82/classTUIO_1_1TuioManager.html#a1c1f7f27b1a91abfeef75b0a3e80907f" target="_top" xlink:title=" ">
<polygon fill="white" stroke="black" points="140,-420.5 140,-450.5 323,-450.5 323,-420.5 140,-420.5"/>
<text text-anchor="start" x="148" y="-438.5" font-family="Helvetica,sans-Serif" font-size="10.00">TUIO::TuioManager::</text>
<text text-anchor="middle" x="231.5" y="-427.5" font-family="Helvetica,sans-Serif" font-size="10.00">removeUntouchedStoppedCursors</text>
</a>
</g>
</g>
<!-- Node1&#45;&gt;Node8 -->
<g id="edge7" class="edge">
<title>Node1&#45;&gt;Node8</title>
<path fill="none" stroke="midnightblue" d="M416.51,-353.39C394.68,-370.03 358.14,-395.87 323,-411.5 315.43,-414.87 307.28,-417.85 299.08,-420.46"/>
<polygon fill="midnightblue" stroke="midnightblue" points="418.88,-355.97 424.65,-347.08 414.6,-350.44 418.88,-355.97"/>
</g>
<!-- Node9 -->
<g id="node9" class="node">
<title>Node9</title>
<g id="a_node9"><a xlink:href="../../d2/d82/classTUIO_1_1TuioManager.html#aaa73f7d5e6ab45270a1d901e92a198b2" target="_top" xlink:title=" ">
<polygon fill="white" stroke="black" points="140,-371.5 140,-401.5 323,-401.5 323,-371.5 140,-371.5"/>
<text text-anchor="start" x="148" y="-389.5" font-family="Helvetica,sans-Serif" font-size="10.00">TUIO::TuioManager::</text>
<text text-anchor="middle" x="231.5" y="-378.5" font-family="Helvetica,sans-Serif" font-size="10.00">removeUntouchedStoppedObjects</text>
</a>
</g>
</g>
<!-- Node1&#45;&gt;Node9 -->
<g id="edge9" class="edge">
<title>Node1&#45;&gt;Node9</title>
<path fill="none" stroke="midnightblue" d="M386.85,-349.43C359.22,-356.06 324.57,-364.39 295.1,-371.46"/>
<polygon fill="midnightblue" stroke="midnightblue" points="387.78,-352.8 396.68,-347.06 386.14,-346 387.78,-352.8"/>
</g>
<!-- Node10 -->
<g id="node10" class="node">
<title>Node10</title>
<g id="a_node10"><a xlink:href="../../d2/d82/classTUIO_1_1TuioManager.html#a8e3905a2a7fb550ba795676be3e0b49b" target="_top" xlink:title=" ">
<polygon fill="white" stroke="black" points="155,-322.5 155,-352.5 308,-352.5 308,-322.5 155,-322.5"/>
<text text-anchor="start" x="163" y="-340.5" font-family="Helvetica,sans-Serif" font-size="10.00">TUIO::TuioManager::</text>
<text text-anchor="middle" x="231.5" y="-329.5" font-family="Helvetica,sans-Serif" font-size="10.00">stopUntouchedMovingBlobs</text>
</a>
</g>
</g>
<!-- Node1&#45;&gt;Node10 -->
<g id="edge11" class="edge">
<title>Node1&#45;&gt;Node10</title>
<path fill="none" stroke="midnightblue" d="M348.61,-337.5C335.19,-337.5 321.44,-337.5 308.3,-337.5"/>
<polygon fill="midnightblue" stroke="midnightblue" points="348.79,-341 358.79,-337.5 348.79,-334 348.79,-341"/>
</g>
<!-- Node11 -->
<g id="node11" class="node">
<title>Node11</title>
<g id="a_node11"><a xlink:href="../../d2/d82/classTUIO_1_1TuioManager.html#adfc49bad8bab2420269d7d3e3b9002a1" target="_top" xlink:title=" ">
<polygon fill="white" stroke="black" points="150,-273.5 150,-303.5 313,-303.5 313,-273.5 150,-273.5"/>
<text text-anchor="start" x="158" y="-291.5" font-family="Helvetica,sans-Serif" font-size="10.00">TUIO::TuioManager::</text>
<text text-anchor="middle" x="231.5" y="-280.5" font-family="Helvetica,sans-Serif" font-size="10.00">stopUntouchedMovingCursors</text>
</a>
</g>
</g>
<!-- Node1&#45;&gt;Node11 -->
<g id="edge13" class="edge">
<title>Node1&#45;&gt;Node11</title>
<path fill="none" stroke="midnightblue" d="M386.85,-325.57C359.22,-318.94 324.57,-310.61 295.1,-303.54"/>
<polygon fill="midnightblue" stroke="midnightblue" points="386.14,-329 396.68,-327.94 387.78,-322.2 386.14,-329"/>
</g>
<!-- Node12 -->
<g id="node12" class="node">
<title>Node12</title>
<g id="a_node12"><a xlink:href="../../d2/d82/classTUIO_1_1TuioManager.html#abd2007ba7fce0494c2abfca7f737808f" target="_top" xlink:title=" ">
<polygon fill="white" stroke="black" points="150,-224.5 150,-254.5 313,-254.5 313,-224.5 150,-224.5"/>
<text text-anchor="start" x="158" y="-242.5" font-family="Helvetica,sans-Serif" font-size="10.00">TUIO::TuioManager::</text>
<text text-anchor="middle" x="231.5" y="-231.5" font-family="Helvetica,sans-Serif" font-size="10.00">stopUntouchedMovingObjects</text>
</a>
</g>
</g>
<!-- Node1&#45;&gt;Node12 -->
<g id="edge15" class="edge">
<title>Node1&#45;&gt;Node12</title>
<path fill="none" stroke="midnightblue" d="M416.09,-321.65C394.16,-305.3 357.78,-280.05 323,-264.5 314.67,-260.77 305.65,-257.48 296.65,-254.61"/>
<polygon fill="midnightblue" stroke="midnightblue" points="414.2,-324.61 424.28,-327.85 418.42,-319.03 414.2,-324.61"/>
</g>
<!-- Node13 -->
<g id="node13" class="node">
<title>Node13</title>
<g id="a_node13"><a xlink:href="../../d8/de3/classTUIO_1_1TuioContainer.html#aed52146a83f9f27712ce704a42d5d78f" target="_top" xlink:title=" ">
<polygon fill="white" stroke="black" points="175,-175.5 175,-205.5 288,-205.5 288,-175.5 175,-175.5"/>
<text text-anchor="start" x="183" y="-193.5" font-family="Helvetica,sans-Serif" font-size="10.00">TUIO::TuioContainer</text>
<text text-anchor="middle" x="231.5" y="-182.5" font-family="Helvetica,sans-Serif" font-size="10.00">::update</text>
</a>
</g>
</g>
<!-- Node1&#45;&gt;Node13 -->
<g id="edge17" class="edge">
<title>Node1&#45;&gt;Node13</title>
<path fill="none" stroke="midnightblue" d="M424.69,-319.48C406.21,-292.73 367.91,-242.76 323,-215.5 312.41,-209.07 300.13,-204.26 288.1,-200.67"/>
<polygon fill="midnightblue" stroke="midnightblue" points="421.88,-321.57 430.38,-327.9 427.68,-317.65 421.88,-321.57"/>
</g>
<!-- Node14 -->
<g id="node14" class="node">
<title>Node14</title>
<g id="a_node14"><a xlink:href="../../d0/dd3/classTUIO_1_1TuioObject.html#aff07c3707e176fc3a17595eb60f5fe5e" target="_top" xlink:title=" ">
<polygon fill="white" stroke="black" points="163,-137 163,-156 300,-156 300,-137 163,-137"/>
<text text-anchor="middle" x="231.5" y="-144" font-family="Helvetica,sans-Serif" font-size="10.00">TUIO::TuioObject::update</text>
</a>
</g>
</g>
<!-- Node1&#45;&gt;Node14 -->
<g id="edge18" class="edge">
<title>Node1&#45;&gt;Node14</title>
<path fill="none" stroke="midnightblue" d="M429.37,-318.11C415.1,-282.13 379.46,-205.22 323,-166.5 316.1,-161.77 308.27,-158.13 300.17,-155.34"/>
<polygon fill="midnightblue" stroke="midnightblue" points="426.27,-319.78 433.11,-327.87 432.8,-317.28 426.27,-319.78"/>
</g>
<!-- Node15 -->
<g id="node15" class="node">
<title>Node15</title>
<g id="a_node15"><a xlink:href="../../d1/dcf/classTUIO_1_1TuioBlob.html#ab0b6b490ec665887424666f576118b3e" target="_top" xlink:title=" ">
<polygon fill="white" stroke="black" points="167.5,-99 167.5,-118 295.5,-118 295.5,-99 167.5,-99"/>
<text text-anchor="middle" x="231.5" y="-106" font-family="Helvetica,sans-Serif" font-size="10.00">TUIO::TuioBlob::update</text>
</a>
</g>
</g>
<!-- Node1&#45;&gt;Node15 -->
<g id="edge19" class="edge">
<title>Node1&#45;&gt;Node15</title>
<path fill="none" stroke="midnightblue" d="M431.84,-317.78C420.79,-275.64 388.86,-176.65 323,-127.5 315.02,-121.55 305.6,-117.36 295.9,-114.44"/>
<polygon fill="midnightblue" stroke="midnightblue" points="428.48,-318.79 434.31,-327.64 435.27,-317.09 428.48,-318.79"/>
</g>
<!-- Node16 -->
<g id="node16" class="node">
<title>Node16</title>
<g id="a_node16"><a xlink:href="../../d2/d82/classTUIO_1_1TuioManager.html#aa532b9759c1a39b18e59740b7b268bab" target="_top" xlink:title=" ">
<polygon fill="white" stroke="black" points="174,-49.5 174,-79.5 289,-79.5 289,-49.5 174,-49.5"/>
<text text-anchor="start" x="182" y="-67.5" font-family="Helvetica,sans-Serif" font-size="10.00">TUIO::TuioManager::</text>
<text text-anchor="middle" x="231.5" y="-56.5" font-family="Helvetica,sans-Serif" font-size="10.00">updateTuioBlob</text>
</a>
</g>
</g>
<!-- Node1&#45;&gt;Node16 -->
<g id="edge20" class="edge">
<title>Node1&#45;&gt;Node16</title>
<path fill="none" stroke="midnightblue" d="M433.3,-317.87C424.6,-270.99 396.09,-151.76 323,-89.5 313.45,-81.36 301.45,-75.86 289.35,-72.14"/>
<polygon fill="midnightblue" stroke="midnightblue" points="429.89,-318.68 435.06,-327.92 436.78,-317.47 429.89,-318.68"/>
</g>
<!-- Node17 -->
<g id="node17" class="node">
<title>Node17</title>
<g id="a_node17"><a xlink:href="../../d2/d82/classTUIO_1_1TuioManager.html#ab1108e679103f0ba3c6b8fc80246b6c7" target="_top" xlink:title=" ">
<polygon fill="white" stroke="black" points="174,-0.5 174,-30.5 289,-30.5 289,-0.5 174,-0.5"/>
<text text-anchor="start" x="182" y="-18.5" font-family="Helvetica,sans-Serif" font-size="10.00">TUIO::TuioManager::</text>
<text text-anchor="middle" x="231.5" y="-7.5" font-family="Helvetica,sans-Serif" font-size="10.00">updateTuioObject</text>
</a>
</g>
</g>
<!-- Node1&#45;&gt;Node17 -->
<g id="edge21" class="edge">
<title>Node1&#45;&gt;Node17</title>
<path fill="none" stroke="midnightblue" d="M434.93,-317.69C429.64,-264.52 407.68,-117.45 323,-40.5 313.59,-31.95 301.51,-26.29 289.27,-22.55"/>
<polygon fill="midnightblue" stroke="midnightblue" points="431.46,-318.17 435.85,-327.82 438.43,-317.54 431.46,-318.17"/>
</g>
<!-- Node7 -->
<g id="node7" class="node">
<title>Node7</title>
<g id="a_node7"><a xlink:href="../../d8/dc8/classTUIO_1_1TuioServer.html#ab3b84d7f13f0cecc4709ae7ff0e89118" target="_top" xlink:title=" ">
<polygon fill="white" stroke="black" points="0,-346.5 0,-376.5 104,-376.5 104,-346.5 0,-346.5"/>
<text text-anchor="start" x="8" y="-364.5" font-family="Helvetica,sans-Serif" font-size="10.00">TUIO::TuioServer::</text>
<text text-anchor="middle" x="52" y="-353.5" font-family="Helvetica,sans-Serif" font-size="10.00">~TuioServer</text>
</a>
</g>
</g>
<!-- Node6&#45;&gt;Node7 -->
<g id="edge6" class="edge">
<title>Node6&#45;&gt;Node7</title>
<path fill="none" stroke="midnightblue" d="M148.62,-465.28C145.65,-463.8 142.76,-462.21 140,-460.5 104.99,-438.81 76.2,-398.68 62.19,-376.76"/>
<polygon fill="midnightblue" stroke="midnightblue" points="147.19,-468.48 157.74,-469.39 150.06,-462.09 147.19,-468.48"/>
</g>
<!-- Node8&#45;&gt;Node7 -->
<g id="edge8" class="edge">
<title>Node8&#45;&gt;Node7</title>
<path fill="none" stroke="midnightblue" d="M155.78,-417.36C150.38,-415.54 145.07,-413.59 140,-411.5 116.96,-402.02 92.52,-387.53 75.42,-376.58"/>
<polygon fill="midnightblue" stroke="midnightblue" points="154.95,-420.77 165.54,-420.49 157.09,-414.11 154.95,-420.77"/>
</g>
<!-- Node9&#45;&gt;Node7 -->
<g id="edge10" class="edge">
<title>Node9&#45;&gt;Node7</title>
<path fill="none" stroke="midnightblue" d="M129.86,-372.33C120.99,-371.08 112.28,-369.85 104.09,-368.7"/>
<polygon fill="midnightblue" stroke="midnightblue" points="129.54,-375.81 139.93,-373.74 130.52,-368.88 129.54,-375.81"/>
</g>
<!-- Node10&#45;&gt;Node7 -->
<g id="edge12" class="edge">
<title>Node10&#45;&gt;Node7</title>
<path fill="none" stroke="midnightblue" d="M144.85,-349.08C130.9,-350.97 116.84,-352.87 104.07,-354.59"/>
<polygon fill="midnightblue" stroke="midnightblue" points="145.53,-352.52 154.97,-347.71 144.59,-345.58 145.53,-352.52"/>
</g>
<!-- Node11&#45;&gt;Node7 -->
<g id="edge14" class="edge">
<title>Node11&#45;&gt;Node7</title>
<path fill="none" stroke="midnightblue" d="M158.53,-306.71C152.2,-308.81 145.94,-311.08 140,-313.5 117.63,-322.61 93.71,-336.11 76.62,-346.48"/>
<polygon fill="midnightblue" stroke="midnightblue" points="160.04,-309.9 168.51,-303.54 157.92,-303.23 160.04,-309.9"/>
</g>
<!-- Node12&#45;&gt;Node7 -->
<g id="edge16" class="edge">
<title>Node12&#45;&gt;Node7</title>
<path fill="none" stroke="midnightblue" d="M150.71,-258.67C147,-260.45 143.41,-262.39 140,-264.5 105.58,-285.82 76.76,-324.75 62.54,-346.24"/>
<polygon fill="midnightblue" stroke="midnightblue" points="152.34,-261.78 160.11,-254.58 149.55,-255.36 152.34,-261.78"/>
</g>
</g>
</svg>
        <g id="navigator" transform="translate(0 0)" fill="#404254">
                <rect fill="#f2f5e9" fill-opacity="0.5" stroke="#606060" stroke-width=".5" x="0" y="0" width="60" height="60"/>
                <use id="zoomplus" xlink:href="#zoomPlus" x="17" y="9" onmousedown="handleZoom(evt,'in')"/>
                <use id="zoomminus" xlink:href="#zoomMin" x="42" y="9" onmousedown="handleZoom(evt,'out')"/>
                <use id="reset" xlink:href="#resetDef" x="30" y="36" onmousedown="handleReset()"/>
                <g id="arrowUp" xlink:href="#dirArrow" transform="translate(30 24)" onmousedown="handlePan(0,-1)">
                  <use xlink:href="#rim" fill="#404040">
                        <set attributeName="fill" to="#808080" begin="arrowUp.mouseover" end="arrowUp.mouseout"/>
                  </use>
                  <path fill="none" stroke="white" stroke-width="1.5" d="M0,-3.0v7 M-2.5,-0.5L0,-3.0L2.5,-0.5"/>
                </g>
                <g id="arrowRight" xlink:href="#dirArrow" transform="rotate(90) translate(36 -43)" onmousedown="handlePan(1,0)">
                  <use xlink:href="#rim" fill="#404040">
                        <set attributeName="fill" to="#808080" begin="arrowRight.mouseover" end="arrowRight.mouseout"/>
                  </use>
                  <path fill="none" stroke="white" stroke-width="1.5" d="M0,-3.0v7 M-2.5,-0.5L0,-3.0L2.5,-0.5"/>
                </g>
                <g id="arrowDown" xlink:href="#dirArrow" transform="rotate(180) translate(-30 -48)" onmousedown="handlePan(0,1)">
                  <use xlink:href="#rim" fill="#404040">
                        <set attributeName="fill" to="#808080" begin="arrowDown.mouseover" end="arrowDown.mouseout"/>
                  </use>
                  <path fill="none" stroke="white" stroke-width="1.5" d="M0,-3.0v7 M-2.5,-0.5L0,-3.0L2.5,-0.5"/>
                </g>
                <g id="arrowLeft" xlink:href="#dirArrow" transform="rotate(270) translate(-36 17)" onmousedown="handlePan(-1,0)">
                  <use xlink:href="#rim" fill="#404040">
                        <set attributeName="fill" to="#808080" begin="arrowLeft.mouseover" end="arrowLeft.mouseout"/>
                  </use>
                  <path fill="none" stroke="white" stroke-width="1.5" d="M0,-3.0v7 M-2.5,-0.5L0,-3.0L2.5,-0.5"/>
                </g>
        </g>
        <svg viewBox="0 0 15 15" width="100%" height="30px" preserveAspectRatio="xMaxYMin meet">
         <g id="arrow_out" transform="scale(0.3 0.3)">
          <a xlink:href="classTUIO_1_1TuioPoint_ac86687cf27772d0fd602c2044b6c8cdd_icgraph_org.svg" target="_base">
           <rect id="button" ry="5" rx="5" y="6" x="6" height="38" width="38"
                fill="#f2f5e9" fill-opacity="0.5" stroke="#606060" stroke-width="1.0"/>
           <path id="arrow"
             d="M 11.500037,31.436501 C 11.940474,20.09759 22.043105,11.32322 32.158766,21.979434 L 37.068811,17.246167 C 37.068811,17.246167 37.088388,32 37.088388,32 L 22.160133,31.978069 C 22.160133,31.978069 26.997745,27.140456 26.997745,27.140456 C 18.528582,18.264221 13.291696,25.230495 11.500037,31.436501 z"
             style="fill:#404040;"/>
          </a>
         </g>
        </svg>
</svg>
