<?xml version="1.0" encoding="UTF-8" standalone="no"?>
<!DOCTYPE svg PUBLIC "-//W3C//DTD SVG 1.1//EN"
 "http://www.w3.org/Graphics/SVG/1.1/DTD/svg11.dtd">
<!-- Generated by graphviz version 2.43.0 (0)
 -->
<!-- Title: TUIO::TuioPoint::TuioPoint Pages: 1 -->
<svg width="747pt" height="123pt"
 viewBox="0.00 0.00 747.00 123.00" xmlns="http://www.w3.org/2000/svg" xmlns:xlink="http://www.w3.org/1999/xlink">
<g id="graph0" class="graph" transform="scale(1 1) rotate(0) translate(4 119)">
<title>TUIO::TuioPoint::TuioPoint</title>
<polygon fill="white" stroke="transparent" points="-4,4 -4,-119 743,-119 743,4 -4,4"/>
<!-- Node1 -->
<g id="node1" class="node">
<title>Node1</title>
<g id="a_node1"><a xlink:title=" ">
<polygon fill="#bfbfbf" stroke="black" points="0,-38.5 0,-57.5 141,-57.5 141,-38.5 0,-38.5"/>
<text text-anchor="middle" x="70.5" y="-45.5" font-family="Helvetica,sans-Serif" font-size="10.00">TUIO::TuioPoint::TuioPoint</text>
</a>
</g>
</g>
<!-- Node2 -->
<g id="node2" class="node">
<title>Node2</title>
<g id="a_node2"><a xlink:href="../../d0/db2/classTUIO_1_1TuioTime.html#ad6812543bf3fed2a982309a6191be8f3" target="_top" xlink:title=" ">
<polygon fill="white" stroke="black" points="177,-76.5 177,-95.5 352,-95.5 352,-76.5 177,-76.5"/>
<text text-anchor="middle" x="264.5" y="-83.5" font-family="Helvetica,sans-Serif" font-size="10.00">TUIO::TuioTime::getSessionTime</text>
</a>
</g>
</g>
<!-- Node1&#45;&gt;Node2 -->
<g id="edge1" class="edge">
<title>Node1&#45;&gt;Node2</title>
<path fill="none" stroke="midnightblue" d="M119.95,-57.59C145.97,-62.74 178.23,-69.12 205.57,-74.53"/>
<polygon fill="midnightblue" stroke="midnightblue" points="204.91,-77.97 215.4,-76.48 206.27,-71.1 204.91,-77.97"/>
</g>
<!-- Node6 -->
<g id="node6" class="node">
<title>Node6</title>
<g id="a_node6"><a xlink:href="../../d0/db6/classTUIO_1_1TuioPoint.html#a547710f33dd3786eaa8ca326b34911c0" target="_top" xlink:title=" ">
<polygon fill="white" stroke="black" points="205,-38.5 205,-57.5 324,-57.5 324,-38.5 205,-38.5"/>
<text text-anchor="middle" x="264.5" y="-45.5" font-family="Helvetica,sans-Serif" font-size="10.00">TUIO::TuioPoint::getX</text>
</a>
</g>
</g>
<!-- Node1&#45;&gt;Node6 -->
<g id="edge5" class="edge">
<title>Node1&#45;&gt;Node6</title>
<path fill="none" stroke="midnightblue" d="M141.09,-48C158.58,-48 177.34,-48 194.79,-48"/>
<polygon fill="midnightblue" stroke="midnightblue" points="194.9,-51.5 204.9,-48 194.9,-44.5 194.9,-51.5"/>
</g>
<!-- Node7 -->
<g id="node7" class="node">
<title>Node7</title>
<g id="a_node7"><a xlink:href="../../d0/db6/classTUIO_1_1TuioPoint.html#a2dbd53d10bbcddb6db271bdd30858733" target="_top" xlink:title=" ">
<polygon fill="white" stroke="black" points="205,-0.5 205,-19.5 324,-19.5 324,-0.5 205,-0.5"/>
<text text-anchor="middle" x="264.5" y="-7.5" font-family="Helvetica,sans-Serif" font-size="10.00">TUIO::TuioPoint::getY</text>
</a>
</g>
</g>
<!-- Node1&#45;&gt;Node7 -->
<g id="edge6" class="edge">
<title>Node1&#45;&gt;Node7</title>
<path fill="none" stroke="midnightblue" d="M119.95,-38.41C145.97,-33.26 178.23,-26.88 205.57,-21.47"/>
<polygon fill="midnightblue" stroke="midnightblue" points="206.27,-24.9 215.4,-19.52 204.91,-18.03 206.27,-24.9"/>
</g>
<!-- Node3 -->
<g id="node3" class="node">
<title>Node3</title>
<g id="a_node3"><a xlink:href="../../d0/db2/classTUIO_1_1TuioTime.html#ab597fbf7c076f8017ea2b05708be8488" target="_top" xlink:title=" ">
<polygon fill="white" stroke="black" points="394.5,-95.5 394.5,-114.5 555.5,-114.5 555.5,-95.5 394.5,-95.5"/>
<text text-anchor="middle" x="475" y="-102.5" font-family="Helvetica,sans-Serif" font-size="10.00">TUIO::TuioTime::getStartTime</text>
</a>
</g>
</g>
<!-- Node2&#45;&gt;Node3 -->
<g id="edge2" class="edge">
<title>Node2&#45;&gt;Node3</title>
<path fill="none" stroke="midnightblue" d="M352.11,-93.89C362.71,-94.86 373.56,-95.85 384.2,-96.82"/>
<polygon fill="midnightblue" stroke="midnightblue" points="384.05,-100.32 394.33,-97.74 384.69,-93.35 384.05,-100.32"/>
</g>
<!-- Node5 -->
<g id="node5" class="node">
<title>Node5</title>
<g id="a_node5"><a xlink:href="../../d0/db2/classTUIO_1_1TuioTime.html#a65efe154e6b7c888c8d25cc3d2bded3e" target="_top" xlink:title=" ">
<polygon fill="white" stroke="black" points="388,-57.5 388,-76.5 562,-76.5 562,-57.5 388,-57.5"/>
<text text-anchor="middle" x="475" y="-64.5" font-family="Helvetica,sans-Serif" font-size="10.00">TUIO::TuioTime::getSystemTime</text>
</a>
</g>
</g>
<!-- Node2&#45;&gt;Node5 -->
<g id="edge4" class="edge">
<title>Node2&#45;&gt;Node5</title>
<path fill="none" stroke="midnightblue" d="M352.11,-78.11C360.64,-77.33 369.32,-76.54 377.93,-75.75"/>
<polygon fill="midnightblue" stroke="midnightblue" points="378.35,-79.23 387.99,-74.84 377.72,-72.26 378.35,-79.23"/>
</g>
<!-- Node4 -->
<g id="node4" class="node">
<title>Node4</title>
<g id="a_node4"><a xlink:href="../../d0/db2/classTUIO_1_1TuioTime.html#a924521ecf43b6484fad9550661eedb0a" target="_top" xlink:title=" ">
<polygon fill="white" stroke="black" points="598,-95.5 598,-114.5 739,-114.5 739,-95.5 598,-95.5"/>
<text text-anchor="middle" x="668.5" y="-102.5" font-family="Helvetica,sans-Serif" font-size="10.00">TUIO::TuioTime::TuioTime</text>
</a>
</g>
</g>
<!-- Node3&#45;&gt;Node4 -->
<g id="edge3" class="edge">
<title>Node3&#45;&gt;Node4</title>
<path fill="none" stroke="midnightblue" d="M555.55,-105C566.22,-105 577.16,-105 587.83,-105"/>
<polygon fill="midnightblue" stroke="midnightblue" points="587.96,-108.5 597.96,-105 587.96,-101.5 587.96,-108.5"/>
</g>
</g>
</svg>
