<?xml version="1.0" encoding="UTF-8" standalone="no"?>
<!DOCTYPE svg PUBLIC "-//W3C//DTD SVG 1.1//EN"
 "http://www.w3.org/Graphics/SVG/1.1/DTD/svg11.dtd">
<!-- Generated by graphviz version 2.43.0 (0)
 -->
<!-- Title: TUIO::TuioPoint::getY Pages: 1 -->
<!--zoomable 917 -->
<svg id="main" version="1.1" xmlns="http://www.w3.org/2000/svg" xmlns:xlink="http://www.w3.org/1999/xlink" xml:space="preserve" onload="init(evt)">
<style type="text/css"><![CDATA[
.edge:hover path { stroke: red; }
.edge:hover polygon { stroke: red; fill: red; }
]]></style>
<script type="text/javascript"><![CDATA[
var edges = document.getElementsByTagName('g');
if (edges && edges.length) {
  for (var i=0;i<edges.length;i++) {
    if (edges[i].id.substr(0,4)=='edge') {
      edges[i].setAttribute('class','edge');
    }
  }
}
]]></script>
        <defs>
                <circle id="rim" cx="0" cy="0" r="7"/>
                <circle id="rim2" cx="0" cy="0" r="3.5"/>
                <g id="zoomPlus">
                        <use xlink:href="#rim" fill="#404040">
                                <set attributeName="fill" to="#808080" begin="zoomplus.mouseover" end="zoomplus.mouseout"/>
                        </use>
                        <path d="M-4,0h8M0,-4v8" fill="none" stroke="white" stroke-width="1.5" pointer-events="none"/>
                </g>
                <g id="zoomMin">
                        <use xlink:href="#rim" fill="#404040">
                                <set attributeName="fill" to="#808080" begin="zoomminus.mouseover" end="zoomminus.mouseout"/>
                        </use>
                        <path d="M-4,0h8" fill="none" stroke="white" stroke-width="1.5" pointer-events="none"/>
                </g>
                <g id="dirArrow">
                        <path fill="none" stroke="white" stroke-width="1.5" d="M0,-3.0v7 M-2.5,-0.5L0,-3.0L2.5,-0.5"/>
                </g>
               <g id="resetDef">
                       <use xlink:href="#rim2" fill="#404040">
                               <set attributeName="fill" to="#808080" begin="reset.mouseover" end="reset.mouseout"/>
                       </use>
               </g>
        </defs>

<script type="text/javascript">
var viewWidth = 475;
var viewHeight = 917;
var sectionId = 'dynsection-24';
</script>
<script xlink:href="../../svgpan.js"/>
<svg id="graph" class="graph">
<g id="viewport">
<title>TUIO::TuioPoint::getY</title>
<polygon fill="white" stroke="transparent" points="-4,4 -4,-913 471,-913 471,4 -4,4"/>
<!-- Node1 -->
<g id="node1" class="node">
<title>Node1</title>
<g id="a_node1"><a xlink:title=" ">
<polygon fill="#bfbfbf" stroke="black" points="348,-439 348,-458 467,-458 467,-439 348,-439"/>
<text text-anchor="middle" x="407.5" y="-446" font-family="Helvetica,sans-Serif" font-size="10.00">TUIO::TuioPoint::getY</text>
</a>
</g>
</g>
<!-- Node2 -->
<g id="node2" class="node">
<title>Node2</title>
<g id="a_node2"><a xlink:href="../../d2/d82/classTUIO_1_1TuioManager.html#aa3bf208467095db93ab6f7d0f66eba06" target="_top" xlink:title=" ">
<polygon fill="white" stroke="black" points="172.5,-878.5 172.5,-908.5 288.5,-908.5 288.5,-878.5 172.5,-878.5"/>
<text text-anchor="start" x="180.5" y="-896.5" font-family="Helvetica,sans-Serif" font-size="10.00">TUIO::TuioManager::</text>
<text text-anchor="middle" x="230.5" y="-885.5" font-family="Helvetica,sans-Serif" font-size="10.00">addExternalTuioBlob</text>
</a>
</g>
</g>
<!-- Node1&#45;&gt;Node2 -->
<g id="edge1" class="edge">
<title>Node1&#45;&gt;Node2</title>
<path fill="none" stroke="midnightblue" d="M404.68,-468.33C397.4,-543.47 368.03,-809.47 312,-869.5 305.63,-876.32 297.42,-881.23 288.68,-884.76"/>
<polygon fill="midnightblue" stroke="midnightblue" points="408.17,-468.61 405.63,-458.32 401.2,-467.95 408.17,-468.61"/>
</g>
<!-- Node3 -->
<g id="node3" class="node">
<title>Node3</title>
<g id="a_node3"><a xlink:href="../../d2/d82/classTUIO_1_1TuioManager.html#a47b243461b2c22cce0a064d8a1f8ce31" target="_top" xlink:title=" ">
<polygon fill="white" stroke="black" points="167.5,-829.5 167.5,-859.5 293.5,-859.5 293.5,-829.5 167.5,-829.5"/>
<text text-anchor="start" x="175.5" y="-847.5" font-family="Helvetica,sans-Serif" font-size="10.00">TUIO::TuioManager::</text>
<text text-anchor="middle" x="230.5" y="-836.5" font-family="Helvetica,sans-Serif" font-size="10.00">addExternalTuioCursor</text>
</a>
</g>
</g>
<!-- Node1&#45;&gt;Node3 -->
<g id="edge2" class="edge">
<title>Node1&#45;&gt;Node3</title>
<path fill="none" stroke="midnightblue" d="M404.06,-468.21C395.13,-537.48 362.05,-768.36 312,-820.5 306.85,-825.87 300.56,-830.05 293.78,-833.3"/>
<polygon fill="midnightblue" stroke="midnightblue" points="407.55,-468.56 405.33,-458.2 400.6,-467.69 407.55,-468.56"/>
</g>
<!-- Node4 -->
<g id="node4" class="node">
<title>Node4</title>
<g id="a_node4"><a xlink:href="../../d2/d82/classTUIO_1_1TuioManager.html#ab8bede39e174712efd1ef97a16a39d98" target="_top" xlink:title=" ">
<polygon fill="white" stroke="black" points="167.5,-780.5 167.5,-810.5 293.5,-810.5 293.5,-780.5 167.5,-780.5"/>
<text text-anchor="start" x="175.5" y="-798.5" font-family="Helvetica,sans-Serif" font-size="10.00">TUIO::TuioManager::</text>
<text text-anchor="middle" x="230.5" y="-787.5" font-family="Helvetica,sans-Serif" font-size="10.00">addExternalTuioObject</text>
</a>
</g>
</g>
<!-- Node1&#45;&gt;Node4 -->
<g id="edge3" class="edge">
<title>Node1&#45;&gt;Node4</title>
<path fill="none" stroke="midnightblue" d="M406.82,-468.31C406.62,-524.24 398.18,-684.88 312,-771.5 306.75,-776.77 300.4,-780.9 293.6,-784.12"/>
<polygon fill="midnightblue" stroke="midnightblue" points="410.32,-468.01 406.77,-458.03 403.32,-468.05 410.32,-468.01"/>
</g>
<!-- Node5 -->
<g id="node5" class="node">
<title>Node5</title>
<g id="a_node5"><a xlink:href="../../d2/d82/classTUIO_1_1TuioManager.html#a7925107580bde23e4293e27795633c8e" target="_top" xlink:title=" ">
<polygon fill="white" stroke="black" points="173,-731.5 173,-761.5 288,-761.5 288,-731.5 173,-731.5"/>
<text text-anchor="start" x="181" y="-749.5" font-family="Helvetica,sans-Serif" font-size="10.00">TUIO::TuioManager::</text>
<text text-anchor="middle" x="230.5" y="-738.5" font-family="Helvetica,sans-Serif" font-size="10.00">addTuioBlob</text>
</a>
</g>
</g>
<!-- Node1&#45;&gt;Node5 -->
<g id="edge4" class="edge">
<title>Node1&#45;&gt;Node5</title>
<path fill="none" stroke="midnightblue" d="M405.61,-468.27C402.27,-518.32 386.48,-651.11 312,-722.5 305.26,-728.96 296.86,-733.69 288.05,-737.15"/>
<polygon fill="midnightblue" stroke="midnightblue" points="409.11,-468.33 406.19,-458.15 402.12,-467.93 409.11,-468.33"/>
</g>
<!-- Node6 -->
<g id="node6" class="node">
<title>Node6</title>
<g id="a_node6"><a xlink:href="../../d2/d82/classTUIO_1_1TuioManager.html#a93fbf41bbfe76b9378335deb55cabc20" target="_top" xlink:title=" ">
<polygon fill="white" stroke="black" points="173,-682.5 173,-712.5 288,-712.5 288,-682.5 173,-682.5"/>
<text text-anchor="start" x="181" y="-700.5" font-family="Helvetica,sans-Serif" font-size="10.00">TUIO::TuioManager::</text>
<text text-anchor="middle" x="230.5" y="-689.5" font-family="Helvetica,sans-Serif" font-size="10.00">addTuioCursor</text>
</a>
</g>
</g>
<!-- Node1&#45;&gt;Node6 -->
<g id="edge5" class="edge">
<title>Node1&#45;&gt;Node6</title>
<path fill="none" stroke="midnightblue" d="M403.93,-468.21C397.18,-511.81 374.94,-617.01 312,-673.5 305.16,-679.64 296.82,-684.21 288.12,-687.61"/>
<polygon fill="midnightblue" stroke="midnightblue" points="407.39,-468.7 405.35,-458.3 400.46,-467.7 407.39,-468.7"/>
</g>
<!-- Node7 -->
<g id="node7" class="node">
<title>Node7</title>
<g id="a_node7"><a xlink:href="../../d2/d82/classTUIO_1_1TuioManager.html#aaa9fd4f7f197442e711ab75da9854eac" target="_top" xlink:title=" ">
<polygon fill="white" stroke="black" points="173,-633.5 173,-663.5 288,-663.5 288,-633.5 173,-633.5"/>
<text text-anchor="start" x="181" y="-651.5" font-family="Helvetica,sans-Serif" font-size="10.00">TUIO::TuioManager::</text>
<text text-anchor="middle" x="230.5" y="-640.5" font-family="Helvetica,sans-Serif" font-size="10.00">addTuioObject</text>
</a>
</g>
</g>
<!-- Node1&#45;&gt;Node7 -->
<g id="edge6" class="edge">
<title>Node1&#45;&gt;Node7</title>
<path fill="none" stroke="midnightblue" d="M401.35,-467.88C390.79,-503.9 363.23,-581.36 312,-623.5 304.99,-629.26 296.66,-633.7 288.05,-637.12"/>
<polygon fill="midnightblue" stroke="midnightblue" points="404.76,-468.68 404.09,-458.11 398.02,-466.79 404.76,-468.68"/>
</g>
<!-- Node8 -->
<g id="node8" class="node">
<title>Node8</title>
<g id="a_node8"><a xlink:href="../../d0/db6/classTUIO_1_1TuioPoint.html#a3a5854aa402f86e426bc1017944ca5c7" target="_top" xlink:title=" ">
<polygon fill="white" stroke="black" points="160.5,-595 160.5,-614 300.5,-614 300.5,-595 160.5,-595"/>
<text text-anchor="middle" x="230.5" y="-602" font-family="Helvetica,sans-Serif" font-size="10.00">TUIO::TuioPoint::getAngle</text>
</a>
</g>
</g>
<!-- Node1&#45;&gt;Node8 -->
<g id="edge7" class="edge">
<title>Node1&#45;&gt;Node8</title>
<path fill="none" stroke="midnightblue" d="M398.76,-467.66C385.6,-497.68 355.96,-555.46 312,-585.5 306.31,-589.39 299.92,-592.49 293.3,-594.95"/>
<polygon fill="midnightblue" stroke="midnightblue" points="402.05,-468.87 402.72,-458.29 395.6,-466.14 402.05,-468.87"/>
</g>
<!-- Node9 -->
<g id="node9" class="node">
<title>Node9</title>
<g id="a_node9"><a xlink:href="../../d0/db6/classTUIO_1_1TuioPoint.html#af972941ee4bbe110ee9fa68b93afd16b" target="_top" xlink:title=" ">
<polygon fill="white" stroke="black" points="153,-557 153,-576 308,-576 308,-557 153,-557"/>
<text text-anchor="middle" x="230.5" y="-564" font-family="Helvetica,sans-Serif" font-size="10.00">TUIO::TuioPoint::getDistance</text>
</a>
</g>
</g>
<!-- Node1&#45;&gt;Node9 -->
<g id="edge8" class="edge">
<title>Node1&#45;&gt;Node9</title>
<path fill="none" stroke="midnightblue" d="M394.43,-466.47C378.34,-488.98 347.7,-527.05 312,-547.5 305.27,-551.35 297.8,-554.43 290.2,-556.88"/>
<polygon fill="midnightblue" stroke="midnightblue" points="397.39,-468.35 400.23,-458.14 391.64,-464.35 397.39,-468.35"/>
</g>
<!-- Node10 -->
<g id="node10" class="node">
<title>Node10</title>
<g id="a_node10"><a xlink:href="../../d2/d82/classTUIO_1_1TuioManager.html#a8e3905a2a7fb550ba795676be3e0b49b" target="_top" xlink:title=" ">
<polygon fill="white" stroke="black" points="154,-507.5 154,-537.5 307,-537.5 307,-507.5 154,-507.5"/>
<text text-anchor="start" x="162" y="-525.5" font-family="Helvetica,sans-Serif" font-size="10.00">TUIO::TuioManager::</text>
<text text-anchor="middle" x="230.5" y="-514.5" font-family="Helvetica,sans-Serif" font-size="10.00">stopUntouchedMovingBlobs</text>
</a>
</g>
</g>
<!-- Node1&#45;&gt;Node10 -->
<g id="edge9" class="edge">
<title>Node1&#45;&gt;Node10</title>
<path fill="none" stroke="midnightblue" d="M381.82,-463.28C363.12,-474.06 336.54,-488.46 312,-498.5 304.17,-501.7 295.76,-504.68 287.43,-507.38"/>
<polygon fill="midnightblue" stroke="midnightblue" points="383.71,-466.24 390.58,-458.17 380.18,-460.19 383.71,-466.24"/>
</g>
<!-- Node12 -->
<g id="node12" class="node">
<title>Node12</title>
<g id="a_node12"><a xlink:href="../../d2/d82/classTUIO_1_1TuioManager.html#adfc49bad8bab2420269d7d3e3b9002a1" target="_top" xlink:title=" ">
<polygon fill="white" stroke="black" points="149,-458.5 149,-488.5 312,-488.5 312,-458.5 149,-458.5"/>
<text text-anchor="start" x="157" y="-476.5" font-family="Helvetica,sans-Serif" font-size="10.00">TUIO::TuioManager::</text>
<text text-anchor="middle" x="230.5" y="-465.5" font-family="Helvetica,sans-Serif" font-size="10.00">stopUntouchedMovingCursors</text>
</a>
</g>
</g>
<!-- Node1&#45;&gt;Node12 -->
<g id="edge11" class="edge">
<title>Node1&#45;&gt;Node12</title>
<path fill="none" stroke="midnightblue" d="M337.68,-458.33C329.31,-459.53 320.7,-460.76 312.19,-461.97"/>
<polygon fill="midnightblue" stroke="midnightblue" points="338.34,-461.77 347.74,-456.89 337.35,-454.84 338.34,-461.77"/>
</g>
<!-- Node13 -->
<g id="node13" class="node">
<title>Node13</title>
<g id="a_node13"><a xlink:href="../../d2/d82/classTUIO_1_1TuioManager.html#abd2007ba7fce0494c2abfca7f737808f" target="_top" xlink:title=" ">
<polygon fill="white" stroke="black" points="149,-409.5 149,-439.5 312,-439.5 312,-409.5 149,-409.5"/>
<text text-anchor="start" x="157" y="-427.5" font-family="Helvetica,sans-Serif" font-size="10.00">TUIO::TuioManager::</text>
<text text-anchor="middle" x="230.5" y="-416.5" font-family="Helvetica,sans-Serif" font-size="10.00">stopUntouchedMovingObjects</text>
</a>
</g>
</g>
<!-- Node1&#45;&gt;Node13 -->
<g id="edge13" class="edge">
<title>Node1&#45;&gt;Node13</title>
<path fill="none" stroke="midnightblue" d="M337.68,-439.06C329.31,-437.91 320.7,-436.73 312.19,-435.57"/>
<polygon fill="midnightblue" stroke="midnightblue" points="337.36,-442.55 347.74,-440.44 338.31,-435.62 337.36,-442.55"/>
</g>
<!-- Node14 -->
<g id="node14" class="node">
<title>Node14</title>
<g id="a_node14"><a xlink:href="../../d0/db6/classTUIO_1_1TuioPoint.html#aa79f24a5ccec0aaa9ec5ffcd91149cc8" target="_top" xlink:title=" ">
<polygon fill="white" stroke="black" points="160,-371 160,-390 301,-390 301,-371 160,-371"/>
<text text-anchor="middle" x="230.5" y="-378" font-family="Helvetica,sans-Serif" font-size="10.00">TUIO::TuioPoint::TuioPoint</text>
</a>
</g>
</g>
<!-- Node1&#45;&gt;Node14 -->
<g id="edge15" class="edge">
<title>Node1&#45;&gt;Node14</title>
<path fill="none" stroke="midnightblue" d="M381.54,-433.85C362.89,-423.4 336.49,-409.63 312,-400.5 301.07,-396.43 289,-392.93 277.6,-390.05"/>
<polygon fill="midnightblue" stroke="midnightblue" points="379.86,-436.93 390.29,-438.83 383.33,-430.84 379.86,-436.93"/>
</g>
<!-- Node15 -->
<g id="node15" class="node">
<title>Node15</title>
<g id="a_node15"><a xlink:href="../../d0/db6/classTUIO_1_1TuioPoint.html#ae6ed82aba4186921dc911a382f7e5f33" target="_top" xlink:title=" ">
<polygon fill="white" stroke="black" points="165,-333 165,-352 296,-352 296,-333 165,-333"/>
<text text-anchor="middle" x="230.5" y="-340" font-family="Helvetica,sans-Serif" font-size="10.00">TUIO::TuioPoint::update</text>
</a>
</g>
</g>
<!-- Node1&#45;&gt;Node15 -->
<g id="edge16" class="edge">
<title>Node1&#45;&gt;Node15</title>
<path fill="none" stroke="midnightblue" d="M392.45,-431C375.49,-411.09 345.12,-379.08 312,-361.5 304.64,-357.6 296.49,-354.48 288.27,-352.01"/>
<polygon fill="midnightblue" stroke="midnightblue" points="389.97,-433.5 399.05,-438.95 395.36,-429.02 389.97,-433.5"/>
</g>
<!-- Node16 -->
<g id="node16" class="node">
<title>Node16</title>
<g id="a_node16"><a xlink:href="../../d8/de3/classTUIO_1_1TuioContainer.html#aed52146a83f9f27712ce704a42d5d78f" target="_top" xlink:title=" ">
<polygon fill="white" stroke="black" points="0,-308.5 0,-338.5 113,-338.5 113,-308.5 0,-308.5"/>
<text text-anchor="start" x="8" y="-326.5" font-family="Helvetica,sans-Serif" font-size="10.00">TUIO::TuioContainer</text>
<text text-anchor="middle" x="56.5" y="-315.5" font-family="Helvetica,sans-Serif" font-size="10.00">::update</text>
</a>
</g>
</g>
<!-- Node1&#45;&gt;Node16 -->
<g id="edge18" class="edge">
<title>Node1&#45;&gt;Node16</title>
<path fill="none" stroke="midnightblue" d="M398.8,-429.44C385.86,-400.3 356.69,-345.74 312,-323.5 249.4,-292.35 166.94,-299.71 113.1,-309.88"/>
<polygon fill="midnightblue" stroke="midnightblue" points="395.7,-431.08 402.84,-438.91 402.14,-428.34 395.7,-431.08"/>
</g>
<!-- Node17 -->
<g id="node17" class="node">
<title>Node17</title>
<g id="a_node17"><a xlink:href="../../d2/d82/classTUIO_1_1TuioManager.html#a3563251a5257e75633d6d30b269f69f0" target="_top" xlink:title=" ">
<polygon fill="white" stroke="black" points="164.5,-245.5 164.5,-275.5 296.5,-275.5 296.5,-245.5 164.5,-245.5"/>
<text text-anchor="start" x="172.5" y="-263.5" font-family="Helvetica,sans-Serif" font-size="10.00">TUIO::TuioManager::</text>
<text text-anchor="middle" x="230.5" y="-252.5" font-family="Helvetica,sans-Serif" font-size="10.00">updateExternalTuioBlob</text>
</a>
</g>
</g>
<!-- Node1&#45;&gt;Node17 -->
<g id="edge19" class="edge">
<title>Node1&#45;&gt;Node17</title>
<path fill="none" stroke="midnightblue" d="M399.77,-429C387.43,-395.97 358.13,-328.9 312,-290.5 304.66,-284.39 295.96,-279.46 287.04,-275.51"/>
<polygon fill="midnightblue" stroke="midnightblue" points="396.62,-430.58 403.31,-438.8 403.21,-428.21 396.62,-430.58"/>
</g>
<!-- Node18 -->
<g id="node18" class="node">
<title>Node18</title>
<g id="a_node18"><a xlink:href="../../d2/d82/classTUIO_1_1TuioManager.html#a90a7c5cf07d57c95cd12a0c5ea1d7564" target="_top" xlink:title=" ">
<polygon fill="white" stroke="black" points="159.5,-196.5 159.5,-226.5 301.5,-226.5 301.5,-196.5 159.5,-196.5"/>
<text text-anchor="start" x="167.5" y="-214.5" font-family="Helvetica,sans-Serif" font-size="10.00">TUIO::TuioManager::</text>
<text text-anchor="middle" x="230.5" y="-203.5" font-family="Helvetica,sans-Serif" font-size="10.00">updateExternalTuioCursor</text>
</a>
</g>
</g>
<!-- Node1&#45;&gt;Node18 -->
<g id="edge20" class="edge">
<title>Node1&#45;&gt;Node18</title>
<path fill="none" stroke="midnightblue" d="M403.39,-428.71C395.75,-386.75 372.1,-288.37 312,-235.5 308.06,-232.03 303.63,-229.07 298.94,-226.53"/>
<polygon fill="midnightblue" stroke="midnightblue" points="399.97,-429.48 405.1,-438.75 406.87,-428.31 399.97,-429.48"/>
</g>
<!-- Node19 -->
<g id="node19" class="node">
<title>Node19</title>
<g id="a_node19"><a xlink:href="../../d2/d82/classTUIO_1_1TuioManager.html#a378d02744ada2cde0d0887612d5cb7c1" target="_top" xlink:title=" ">
<polygon fill="white" stroke="black" points="159.5,-147.5 159.5,-177.5 301.5,-177.5 301.5,-147.5 159.5,-147.5"/>
<text text-anchor="start" x="167.5" y="-165.5" font-family="Helvetica,sans-Serif" font-size="10.00">TUIO::TuioManager::</text>
<text text-anchor="middle" x="230.5" y="-154.5" font-family="Helvetica,sans-Serif" font-size="10.00">updateExternalTuioObject</text>
</a>
</g>
</g>
<!-- Node1&#45;&gt;Node19 -->
<g id="edge21" class="edge">
<title>Node1&#45;&gt;Node19</title>
<path fill="none" stroke="midnightblue" d="M405.24,-428.61C401.08,-379.99 383.58,-254.15 312,-186.5 308.4,-183.09 304.33,-180.17 299.99,-177.66"/>
<polygon fill="midnightblue" stroke="midnightblue" points="401.76,-429.04 406.01,-438.75 408.74,-428.51 401.76,-429.04"/>
</g>
<!-- Node20 -->
<g id="node20" class="node">
<title>Node20</title>
<g id="a_node20"><a xlink:href="../../d2/d82/classTUIO_1_1TuioManager.html#aa532b9759c1a39b18e59740b7b268bab" target="_top" xlink:title=" ">
<polygon fill="white" stroke="black" points="173,-98.5 173,-128.5 288,-128.5 288,-98.5 173,-98.5"/>
<text text-anchor="start" x="181" y="-116.5" font-family="Helvetica,sans-Serif" font-size="10.00">TUIO::TuioManager::</text>
<text text-anchor="middle" x="230.5" y="-105.5" font-family="Helvetica,sans-Serif" font-size="10.00">updateTuioBlob</text>
</a>
</g>
</g>
<!-- Node1&#45;&gt;Node20 -->
<g id="edge22" class="edge">
<title>Node1&#45;&gt;Node20</title>
<path fill="none" stroke="midnightblue" d="M406.56,-428.68C405.61,-374.13 395.29,-220.36 312,-137.5 305.38,-130.92 297.04,-126.13 288.26,-122.64"/>
<polygon fill="midnightblue" stroke="midnightblue" points="403.06,-428.78 406.64,-438.75 410.06,-428.72 403.06,-428.78"/>
</g>
<!-- Node21 -->
<g id="node21" class="node">
<title>Node21</title>
<g id="a_node21"><a xlink:href="../../d2/d82/classTUIO_1_1TuioManager.html#a3bfeef585a46f4cad7203c106ddf1959" target="_top" xlink:title=" ">
<polygon fill="white" stroke="black" points="173,-49.5 173,-79.5 288,-79.5 288,-49.5 173,-49.5"/>
<text text-anchor="start" x="181" y="-67.5" font-family="Helvetica,sans-Serif" font-size="10.00">TUIO::TuioManager::</text>
<text text-anchor="middle" x="230.5" y="-56.5" font-family="Helvetica,sans-Serif" font-size="10.00">updateTuioCursor</text>
</a>
</g>
</g>
<!-- Node1&#45;&gt;Node21 -->
<g id="edge23" class="edge">
<title>Node1&#45;&gt;Node21</title>
<path fill="none" stroke="midnightblue" d="M403.85,-428.56C394.44,-360.47 360.53,-138.66 312,-88.5 305.41,-81.69 296.97,-76.79 288.06,-73.27"/>
<polygon fill="midnightblue" stroke="midnightblue" points="400.43,-429.33 405.24,-438.77 407.36,-428.39 400.43,-429.33"/>
</g>
<!-- Node22 -->
<g id="node22" class="node">
<title>Node22</title>
<g id="a_node22"><a xlink:href="../../d2/d82/classTUIO_1_1TuioManager.html#ab1108e679103f0ba3c6b8fc80246b6c7" target="_top" xlink:title=" ">
<polygon fill="white" stroke="black" points="173,-0.5 173,-30.5 288,-30.5 288,-0.5 173,-0.5"/>
<text text-anchor="start" x="181" y="-18.5" font-family="Helvetica,sans-Serif" font-size="10.00">TUIO::TuioManager::</text>
<text text-anchor="middle" x="230.5" y="-7.5" font-family="Helvetica,sans-Serif" font-size="10.00">updateTuioObject</text>
</a>
</g>
</g>
<!-- Node1&#45;&gt;Node22 -->
<g id="edge24" class="edge">
<title>Node1&#45;&gt;Node22</title>
<path fill="none" stroke="midnightblue" d="M404.55,-428.78C396.89,-355.15 366.58,-97.61 312,-39.5 305.51,-32.59 297.13,-27.64 288.23,-24.11"/>
<polygon fill="midnightblue" stroke="midnightblue" points="401.09,-429.36 405.59,-438.96 408.06,-428.65 401.09,-429.36"/>
</g>
<!-- Node11 -->
<g id="node11" class="node">
<title>Node11</title>
<g id="a_node11"><a xlink:href="../../d8/dc8/classTUIO_1_1TuioServer.html#ab3b84d7f13f0cecc4709ae7ff0e89118" target="_top" xlink:title=" ">
<polygon fill="white" stroke="black" points="4.5,-458.5 4.5,-488.5 108.5,-488.5 108.5,-458.5 4.5,-458.5"/>
<text text-anchor="start" x="12.5" y="-476.5" font-family="Helvetica,sans-Serif" font-size="10.00">TUIO::TuioServer::</text>
<text text-anchor="middle" x="56.5" y="-465.5" font-family="Helvetica,sans-Serif" font-size="10.00">~TuioServer</text>
</a>
</g>
</g>
<!-- Node10&#45;&gt;Node11 -->
<g id="edge10" class="edge">
<title>Node10&#45;&gt;Node11</title>
<path fill="none" stroke="midnightblue" d="M166.67,-504.6C147.56,-499.16 126.8,-493.24 108.57,-488.05"/>
<polygon fill="midnightblue" stroke="midnightblue" points="165.91,-508.02 176.49,-507.4 167.83,-501.29 165.91,-508.02"/>
</g>
<!-- Node12&#45;&gt;Node11 -->
<g id="edge12" class="edge">
<title>Node12&#45;&gt;Node11</title>
<path fill="none" stroke="midnightblue" d="M138.56,-473.5C128.35,-473.5 118.23,-473.5 108.78,-473.5"/>
<polygon fill="midnightblue" stroke="midnightblue" points="138.79,-477 148.79,-473.5 138.79,-470 138.79,-477"/>
</g>
<!-- Node13&#45;&gt;Node11 -->
<g id="edge14" class="edge">
<title>Node13&#45;&gt;Node11</title>
<path fill="none" stroke="midnightblue" d="M166.67,-442.4C147.56,-447.84 126.8,-453.76 108.57,-458.95"/>
<polygon fill="midnightblue" stroke="midnightblue" points="167.83,-445.71 176.49,-439.6 165.91,-438.98 167.83,-445.71"/>
</g>
<!-- Node15&#45;&gt;Node16 -->
<g id="edge17" class="edge">
<title>Node15&#45;&gt;Node16</title>
<path fill="none" stroke="midnightblue" d="M154.85,-334.25C140.83,-332.71 126.4,-331.11 113.09,-329.64"/>
<polygon fill="midnightblue" stroke="midnightblue" points="154.64,-337.75 164.96,-335.37 155.41,-330.79 154.64,-337.75"/>
</g>
</g>
</svg>
        <g id="navigator" transform="translate(0 0)" fill="#404254">
                <rect fill="#f2f5e9" fill-opacity="0.5" stroke="#606060" stroke-width=".5" x="0" y="0" width="60" height="60"/>
                <use id="zoomplus" xlink:href="#zoomPlus" x="17" y="9" onmousedown="handleZoom(evt,'in')"/>
                <use id="zoomminus" xlink:href="#zoomMin" x="42" y="9" onmousedown="handleZoom(evt,'out')"/>
                <use id="reset" xlink:href="#resetDef" x="30" y="36" onmousedown="handleReset()"/>
                <g id="arrowUp" xlink:href="#dirArrow" transform="translate(30 24)" onmousedown="handlePan(0,-1)">
                  <use xlink:href="#rim" fill="#404040">
                        <set attributeName="fill" to="#808080" begin="arrowUp.mouseover" end="arrowUp.mouseout"/>
                  </use>
                  <path fill="none" stroke="white" stroke-width="1.5" d="M0,-3.0v7 M-2.5,-0.5L0,-3.0L2.5,-0.5"/>
                </g>
                <g id="arrowRight" xlink:href="#dirArrow" transform="rotate(90) translate(36 -43)" onmousedown="handlePan(1,0)">
                  <use xlink:href="#rim" fill="#404040">
                        <set attributeName="fill" to="#808080" begin="arrowRight.mouseover" end="arrowRight.mouseout"/>
                  </use>
                  <path fill="none" stroke="white" stroke-width="1.5" d="M0,-3.0v7 M-2.5,-0.5L0,-3.0L2.5,-0.5"/>
                </g>
                <g id="arrowDown" xlink:href="#dirArrow" transform="rotate(180) translate(-30 -48)" onmousedown="handlePan(0,1)">
                  <use xlink:href="#rim" fill="#404040">
                        <set attributeName="fill" to="#808080" begin="arrowDown.mouseover" end="arrowDown.mouseout"/>
                  </use>
                  <path fill="none" stroke="white" stroke-width="1.5" d="M0,-3.0v7 M-2.5,-0.5L0,-3.0L2.5,-0.5"/>
                </g>
                <g id="arrowLeft" xlink:href="#dirArrow" transform="rotate(270) translate(-36 17)" onmousedown="handlePan(-1,0)">
                  <use xlink:href="#rim" fill="#404040">
                        <set attributeName="fill" to="#808080" begin="arrowLeft.mouseover" end="arrowLeft.mouseout"/>
                  </use>
                  <path fill="none" stroke="white" stroke-width="1.5" d="M0,-3.0v7 M-2.5,-0.5L0,-3.0L2.5,-0.5"/>
                </g>
        </g>
        <svg viewBox="0 0 15 15" width="100%" height="30px" preserveAspectRatio="xMaxYMin meet">
         <g id="arrow_out" transform="scale(0.3 0.3)">
          <a xlink:href="classTUIO_1_1TuioPoint_a2dbd53d10bbcddb6db271bdd30858733_icgraph_org.svg" target="_base">
           <rect id="button" ry="5" rx="5" y="6" x="6" height="38" width="38"
                fill="#f2f5e9" fill-opacity="0.5" stroke="#606060" stroke-width="1.0"/>
           <path id="arrow"
             d="M 11.500037,31.436501 C 11.940474,20.09759 22.043105,11.32322 32.158766,21.979434 L 37.068811,17.246167 C 37.068811,17.246167 37.088388,32 37.088388,32 L 22.160133,31.978069 C 22.160133,31.978069 26.997745,27.140456 26.997745,27.140456 C 18.528582,18.264221 13.291696,25.230495 11.500037,31.436501 z"
             style="fill:#404040;"/>
          </a>
         </g>
        </svg>
</svg>
