<?xml version="1.0" encoding="UTF-8" standalone="no"?>
<!DOCTYPE svg PUBLIC "-//W3C//DTD SVG 1.1//EN"
 "http://www.w3.org/Graphics/SVG/1.1/DTD/svg11.dtd">
<!-- Generated by graphviz version 2.43.0 (0)
 -->
<!-- Title: TUIO::TuioPoint::getDistance Pages: 1 -->
<!--zoomable 236 -->
<svg id="main" version="1.1" xmlns="http://www.w3.org/2000/svg" xmlns:xlink="http://www.w3.org/1999/xlink" xml:space="preserve" onload="init(evt)">
<style type="text/css"><![CDATA[
.edge:hover path { stroke: red; }
.edge:hover polygon { stroke: red; fill: red; }
]]></style>
<script type="text/javascript"><![CDATA[
var edges = document.getElementsByTagName('g');
if (edges && edges.length) {
  for (var i=0;i<edges.length;i++) {
    if (edges[i].id.substr(0,4)=='edge') {
      edges[i].setAttribute('class','edge');
    }
  }
}
]]></script>
        <defs>
                <circle id="rim" cx="0" cy="0" r="7"/>
                <circle id="rim2" cx="0" cy="0" r="3.5"/>
                <g id="zoomPlus">
                        <use xlink:href="#rim" fill="#404040">
                                <set attributeName="fill" to="#808080" begin="zoomplus.mouseover" end="zoomplus.mouseout"/>
                        </use>
                        <path d="M-4,0h8M0,-4v8" fill="none" stroke="white" stroke-width="1.5" pointer-events="none"/>
                </g>
                <g id="zoomMin">
                        <use xlink:href="#rim" fill="#404040">
                                <set attributeName="fill" to="#808080" begin="zoomminus.mouseover" end="zoomminus.mouseout"/>
                        </use>
                        <path d="M-4,0h8" fill="none" stroke="white" stroke-width="1.5" pointer-events="none"/>
                </g>
                <g id="dirArrow">
                        <path fill="none" stroke="white" stroke-width="1.5" d="M0,-3.0v7 M-2.5,-0.5L0,-3.0L2.5,-0.5"/>
                </g>
               <g id="resetDef">
                       <use xlink:href="#rim2" fill="#404040">
                               <set attributeName="fill" to="#808080" begin="reset.mouseover" end="reset.mouseout"/>
                       </use>
               </g>
        </defs>

<script type="text/javascript">
var viewWidth = 530;
var viewHeight = 236;
var sectionId = 'dynsection-11';
</script>
<script xlink:href="../../svgpan.js"/>
<svg id="graph" class="graph">
<g id="viewport">
<title>TUIO::TuioPoint::getDistance</title>
<polygon fill="white" stroke="transparent" points="-4,4 -4,-232 526,-232 526,4 -4,4"/>
<!-- Node1 -->
<g id="node1" class="node">
<title>Node1</title>
<g id="a_node1"><a xlink:title=" ">
<polygon fill="#bfbfbf" stroke="black" points="367,-93.5 367,-112.5 522,-112.5 522,-93.5 367,-93.5"/>
<text text-anchor="middle" x="444.5" y="-100.5" font-family="Helvetica,sans-Serif" font-size="10.00">TUIO::TuioPoint::getDistance</text>
</a>
</g>
</g>
<!-- Node2 -->
<g id="node2" class="node">
<title>Node2</title>
<g id="a_node2"><a xlink:href="../../d0/db6/classTUIO_1_1TuioPoint.html#ac25dbf02911cec80f47cfcc59b02b633" target="_top" xlink:title=" ">
<polygon fill="white" stroke="black" points="183.5,-186.5 183.5,-205.5 323.5,-205.5 323.5,-186.5 183.5,-186.5"/>
<text text-anchor="middle" x="253.5" y="-193.5" font-family="Helvetica,sans-Serif" font-size="10.00">TUIO::TuioPoint::getAngle</text>
</a>
</g>
</g>
<!-- Node1&#45;&gt;Node2 -->
<g id="edge1" class="edge">
<title>Node1&#45;&gt;Node2</title>
<path fill="none" stroke="midnightblue" d="M423.33,-118.96C401.66,-135.4 365.63,-160.71 331,-176 321.46,-180.21 310.84,-183.69 300.62,-186.49"/>
<polygon fill="midnightblue" stroke="midnightblue" points="425.65,-121.59 431.43,-112.72 421.37,-116.05 425.65,-121.59"/>
</g>
<!-- Node5 -->
<g id="node5" class="node">
<title>Node5</title>
<g id="a_node5"><a xlink:href="../../d2/d82/classTUIO_1_1TuioManager.html#a03e51ba8220cfc9895b944feca43132a" target="_top" xlink:title=" ">
<polygon fill="white" stroke="black" points="196,-137 196,-167 311,-167 311,-137 196,-137"/>
<text text-anchor="start" x="204" y="-155" font-family="Helvetica,sans-Serif" font-size="10.00">TUIO::TuioManager::</text>
<text text-anchor="middle" x="253.5" y="-144" font-family="Helvetica,sans-Serif" font-size="10.00">getClosestTuioBlob</text>
</a>
</g>
</g>
<!-- Node1&#45;&gt;Node5 -->
<g id="edge4" class="edge">
<title>Node1&#45;&gt;Node5</title>
<path fill="none" stroke="midnightblue" d="M396.66,-115.14C370.74,-121.86 338.35,-130.26 311.03,-137.34"/>
<polygon fill="midnightblue" stroke="midnightblue" points="397.81,-118.46 406.61,-112.56 396.05,-111.69 397.81,-118.46"/>
</g>
<!-- Node6 -->
<g id="node6" class="node">
<title>Node6</title>
<g id="a_node6"><a xlink:href="../../d2/d82/classTUIO_1_1TuioManager.html#a23f3441e16464bbbde1355b84a3af450" target="_top" xlink:title=" ">
<polygon fill="white" stroke="black" points="194,-88 194,-118 313,-118 313,-88 194,-88"/>
<text text-anchor="start" x="202" y="-106" font-family="Helvetica,sans-Serif" font-size="10.00">TUIO::TuioManager::</text>
<text text-anchor="middle" x="253.5" y="-95" font-family="Helvetica,sans-Serif" font-size="10.00">getClosestTuioCursor</text>
</a>
</g>
</g>
<!-- Node1&#45;&gt;Node6 -->
<g id="edge5" class="edge">
<title>Node1&#45;&gt;Node6</title>
<path fill="none" stroke="midnightblue" d="M356.75,-103C342.01,-103 327.01,-103 313.21,-103"/>
<polygon fill="midnightblue" stroke="midnightblue" points="356.9,-106.5 366.9,-103 356.9,-99.5 356.9,-106.5"/>
</g>
<!-- Node7 -->
<g id="node7" class="node">
<title>Node7</title>
<g id="a_node7"><a xlink:href="../../d2/d82/classTUIO_1_1TuioManager.html#a05fb2ffb7b4c8a426044446886acdfb8" target="_top" xlink:title=" ">
<polygon fill="white" stroke="black" points="194,-39 194,-69 313,-69 313,-39 194,-39"/>
<text text-anchor="start" x="202" y="-57" font-family="Helvetica,sans-Serif" font-size="10.00">TUIO::TuioManager::</text>
<text text-anchor="middle" x="253.5" y="-46" font-family="Helvetica,sans-Serif" font-size="10.00">getClosestTuioObject</text>
</a>
</g>
</g>
<!-- Node1&#45;&gt;Node7 -->
<g id="edge6" class="edge">
<title>Node1&#45;&gt;Node7</title>
<path fill="none" stroke="midnightblue" d="M396.82,-90.9C371.34,-84.29 339.56,-76.05 312.5,-69.04"/>
<polygon fill="midnightblue" stroke="midnightblue" points="396.05,-94.31 406.61,-93.44 397.81,-87.54 396.05,-94.31"/>
</g>
<!-- Node8 -->
<g id="node8" class="node">
<title>Node8</title>
<g id="a_node8"><a xlink:href="../../d0/db6/classTUIO_1_1TuioPoint.html#af972941ee4bbe110ee9fa68b93afd16b" target="_top" xlink:title=" ">
<polygon fill="white" stroke="black" points="176,-0.5 176,-19.5 331,-19.5 331,-0.5 176,-0.5"/>
<text text-anchor="middle" x="253.5" y="-7.5" font-family="Helvetica,sans-Serif" font-size="10.00">TUIO::TuioPoint::getDistance</text>
</a>
</g>
</g>
<!-- Node1&#45;&gt;Node8 -->
<g id="edge7" class="edge">
<title>Node1&#45;&gt;Node8</title>
<path fill="none" stroke="midnightblue" d="M423.76,-86.99C402.18,-70.25 366.01,-44.33 331,-29 322.35,-25.21 312.81,-22.09 303.48,-19.54"/>
<polygon fill="midnightblue" stroke="midnightblue" points="421.78,-89.89 431.8,-93.34 426.12,-84.4 421.78,-89.89"/>
</g>
<!-- Node3 -->
<g id="node3" class="node">
<title>Node3</title>
<g id="a_node3"><a xlink:href="../../d0/db6/classTUIO_1_1TuioPoint.html#a3a5854aa402f86e426bc1017944ca5c7" target="_top" xlink:title=" ">
<polygon fill="white" stroke="black" points="0,-208.5 0,-227.5 140,-227.5 140,-208.5 0,-208.5"/>
<text text-anchor="middle" x="70" y="-215.5" font-family="Helvetica,sans-Serif" font-size="10.00">TUIO::TuioPoint::getAngle</text>
</a>
</g>
</g>
<!-- Node2&#45;&gt;Node3 -->
<g id="edge2" class="edge">
<title>Node2&#45;&gt;Node3</title>
<path fill="none" stroke="midnightblue" d="M173.33,-205.6C162.31,-206.93 151.06,-208.3 140.24,-209.61"/>
<polygon fill="midnightblue" stroke="midnightblue" points="173.86,-209.06 183.36,-204.38 173.02,-202.11 173.86,-209.06"/>
</g>
<!-- Node4 -->
<g id="node4" class="node">
<title>Node4</title>
<g id="a_node4"><a xlink:href="../../d0/db6/classTUIO_1_1TuioPoint.html#a57b2c915ea37b065c8dee8e78602ad3b" target="_top" xlink:title=" ">
<polygon fill="white" stroke="black" points="0,-159 0,-189 140,-189 140,-159 0,-159"/>
<text text-anchor="start" x="8" y="-177" font-family="Helvetica,sans-Serif" font-size="10.00">TUIO::TuioPoint::getAngle</text>
<text text-anchor="middle" x="70" y="-166" font-family="Helvetica,sans-Serif" font-size="10.00">Degrees</text>
</a>
</g>
</g>
<!-- Node2&#45;&gt;Node4 -->
<g id="edge3" class="edge">
<title>Node2&#45;&gt;Node4</title>
<path fill="none" stroke="midnightblue" d="M173.33,-186.4C162.31,-185.07 151.06,-183.7 140.24,-182.39"/>
<polygon fill="midnightblue" stroke="midnightblue" points="173.02,-189.89 183.36,-187.62 173.86,-182.94 173.02,-189.89"/>
</g>
</g>
</svg>
        <g id="navigator" transform="translate(0 0)" fill="#404254">
                <rect fill="#f2f5e9" fill-opacity="0.5" stroke="#606060" stroke-width=".5" x="0" y="0" width="60" height="60"/>
                <use id="zoomplus" xlink:href="#zoomPlus" x="17" y="9" onmousedown="handleZoom(evt,'in')"/>
                <use id="zoomminus" xlink:href="#zoomMin" x="42" y="9" onmousedown="handleZoom(evt,'out')"/>
                <use id="reset" xlink:href="#resetDef" x="30" y="36" onmousedown="handleReset()"/>
                <g id="arrowUp" xlink:href="#dirArrow" transform="translate(30 24)" onmousedown="handlePan(0,-1)">
                  <use xlink:href="#rim" fill="#404040">
                        <set attributeName="fill" to="#808080" begin="arrowUp.mouseover" end="arrowUp.mouseout"/>
                  </use>
                  <path fill="none" stroke="white" stroke-width="1.5" d="M0,-3.0v7 M-2.5,-0.5L0,-3.0L2.5,-0.5"/>
                </g>
                <g id="arrowRight" xlink:href="#dirArrow" transform="rotate(90) translate(36 -43)" onmousedown="handlePan(1,0)">
                  <use xlink:href="#rim" fill="#404040">
                        <set attributeName="fill" to="#808080" begin="arrowRight.mouseover" end="arrowRight.mouseout"/>
                  </use>
                  <path fill="none" stroke="white" stroke-width="1.5" d="M0,-3.0v7 M-2.5,-0.5L0,-3.0L2.5,-0.5"/>
                </g>
                <g id="arrowDown" xlink:href="#dirArrow" transform="rotate(180) translate(-30 -48)" onmousedown="handlePan(0,1)">
                  <use xlink:href="#rim" fill="#404040">
                        <set attributeName="fill" to="#808080" begin="arrowDown.mouseover" end="arrowDown.mouseout"/>
                  </use>
                  <path fill="none" stroke="white" stroke-width="1.5" d="M0,-3.0v7 M-2.5,-0.5L0,-3.0L2.5,-0.5"/>
                </g>
                <g id="arrowLeft" xlink:href="#dirArrow" transform="rotate(270) translate(-36 17)" onmousedown="handlePan(-1,0)">
                  <use xlink:href="#rim" fill="#404040">
                        <set attributeName="fill" to="#808080" begin="arrowLeft.mouseover" end="arrowLeft.mouseout"/>
                  </use>
                  <path fill="none" stroke="white" stroke-width="1.5" d="M0,-3.0v7 M-2.5,-0.5L0,-3.0L2.5,-0.5"/>
                </g>
        </g>
        <svg viewBox="0 0 15 15" width="100%" height="30px" preserveAspectRatio="xMaxYMin meet">
         <g id="arrow_out" transform="scale(0.3 0.3)">
          <a xlink:href="classTUIO_1_1TuioPoint_af271e7213d8ca793996236b340cb5c7f_icgraph_org.svg" target="_base">
           <rect id="button" ry="5" rx="5" y="6" x="6" height="38" width="38"
                fill="#f2f5e9" fill-opacity="0.5" stroke="#606060" stroke-width="1.0"/>
           <path id="arrow"
             d="M 11.500037,31.436501 C 11.940474,20.09759 22.043105,11.32322 32.158766,21.979434 L 37.068811,17.246167 C 37.068811,17.246167 37.088388,32 37.088388,32 L 22.160133,31.978069 C 22.160133,31.978069 26.997745,27.140456 26.997745,27.140456 C 18.528582,18.264221 13.291696,25.230495 11.500037,31.436501 z"
             style="fill:#404040;"/>
          </a>
         </g>
        </svg>
</svg>
