<?xml version="1.0" encoding="UTF-8" standalone="no"?>
<!DOCTYPE svg PUBLIC "-//W3C//DTD SVG 1.1//EN"
 "http://www.w3.org/Graphics/SVG/1.1/DTD/svg11.dtd">
<!-- Generated by graphviz version 2.43.0 (0)
 -->
<!-- Title: Graphical Class Hierarchy Pages: 1 -->
<svg width="264pt" height="104pt"
 viewBox="0.00 0.00 264.00 104.00" xmlns="http://www.w3.org/2000/svg" xmlns:xlink="http://www.w3.org/1999/xlink">
<g id="graph0" class="graph" transform="scale(1 1) rotate(0) translate(4 100)">
<title>Graphical Class Hierarchy</title>
<polygon fill="white" stroke="transparent" points="-4,4 -4,-100 260,-100 260,4 -4,4"/>
<!-- Node0 -->
<g id="node1" class="node">
<title>Node0</title>
<g id="a_node1"><a xlink:href="de/dd7/classUdpSocket.html" target="_top" xlink:title=" ">
<polygon fill="white" stroke="black" points="0,-38.5 0,-57.5 68,-57.5 68,-38.5 0,-38.5"/>
<text text-anchor="middle" x="34" y="-45.5" font-family="Helvetica,sans-Serif" font-size="10.00">UdpSocket</text>
</a>
</g>
</g>
<!-- Node1 -->
<g id="node2" class="node">
<title>Node1</title>
<g id="a_node2"><a xlink:href="da/dfe/classUdpListeningReceiveSocket.html" target="_top" xlink:title=" ">
<polygon fill="white" stroke="black" points="104,-76.5 104,-95.5 256,-95.5 256,-76.5 104,-76.5"/>
<text text-anchor="middle" x="180" y="-83.5" font-family="Helvetica,sans-Serif" font-size="10.00">UdpListeningReceiveSocket</text>
</a>
</g>
</g>
<!-- Node0&#45;&gt;Node1 -->
<g id="edge1" class="edge">
<title>Node0&#45;&gt;Node1</title>
<path fill="none" stroke="midnightblue" d="M78.13,-60.02C86.69,-62.37 95.63,-64.79 104,-67 115.95,-70.16 128.99,-73.5 140.81,-76.49"/>
<polygon fill="midnightblue" stroke="midnightblue" points="78.87,-56.6 68.3,-57.32 77.02,-63.35 78.87,-56.6"/>
</g>
<!-- Node2 -->
<g id="node3" class="node">
<title>Node2</title>
<g id="a_node3"><a xlink:href="d5/dd5/classUdpReceiveSocket.html" target="_top" xlink:title=" ">
<polygon fill="white" stroke="black" points="126.5,-38.5 126.5,-57.5 233.5,-57.5 233.5,-38.5 126.5,-38.5"/>
<text text-anchor="middle" x="180" y="-45.5" font-family="Helvetica,sans-Serif" font-size="10.00">UdpReceiveSocket</text>
</a>
</g>
</g>
<!-- Node0&#45;&gt;Node2 -->
<g id="edge2" class="edge">
<title>Node0&#45;&gt;Node2</title>
<path fill="none" stroke="midnightblue" d="M78.16,-48C93.32,-48 110.52,-48 126.36,-48"/>
<polygon fill="midnightblue" stroke="midnightblue" points="78.04,-44.5 68.04,-48 78.04,-51.5 78.04,-44.5"/>
</g>
<!-- Node3 -->
<g id="node4" class="node">
<title>Node3</title>
<g id="a_node4"><a xlink:href="d4/deb/classUdpTransmitSocket.html" target="_top" xlink:title=" ">
<polygon fill="white" stroke="black" points="125,-0.5 125,-19.5 235,-19.5 235,-0.5 125,-0.5"/>
<text text-anchor="middle" x="180" y="-7.5" font-family="Helvetica,sans-Serif" font-size="10.00">UdpTransmitSocket</text>
</a>
</g>
</g>
<!-- Node0&#45;&gt;Node3 -->
<g id="edge3" class="edge">
<title>Node0&#45;&gt;Node3</title>
<path fill="none" stroke="midnightblue" d="M78.13,-35.98C86.69,-33.63 95.63,-31.21 104,-29 115.95,-25.84 128.99,-22.5 140.81,-19.51"/>
<polygon fill="midnightblue" stroke="midnightblue" points="77.02,-32.65 68.3,-38.68 78.87,-39.4 77.02,-32.65"/>
</g>
</g>
</svg>
