<?xml version="1.0" encoding="UTF-8" standalone="no"?>
<!DOCTYPE svg PUBLIC "-//W3C//DTD SVG 1.1//EN"
 "http://www.w3.org/Graphics/SVG/1.1/DTD/svg11.dtd">
<!-- Generated by graphviz version 2.43.0 (0)
 -->
<!-- Title: Graphical Class Hierarchy Pages: 1 -->
<svg width="529pt" height="356pt"
 viewBox="0.00 0.00 529.00 355.50" xmlns="http://www.w3.org/2000/svg" xmlns:xlink="http://www.w3.org/1999/xlink">
<g id="graph0" class="graph" transform="scale(1 1) rotate(0) translate(4 351.5)">
<title>Graphical Class Hierarchy</title>
<polygon fill="white" stroke="transparent" points="-4,4 -4,-351.5 525,-351.5 525,4 -4,4"/>
<!-- Node8 -->
<g id="node1" class="node">
<title>Node8</title>
<g id="a_node1"><a xlink:href="db/de6/classosc_1_1MissingArgumentException.html" target="_top" xlink:title=" ">
<polygon fill="white" stroke="black" points="0,-164.5 0,-183.5 173,-183.5 173,-164.5 0,-164.5"/>
<text text-anchor="middle" x="86.5" y="-171.5" font-family="Helvetica,sans-Serif" font-size="10.00">osc::MissingArgumentException</text>
</a>
</g>
</g>
<!-- Node0 -->
<g id="node2" class="node">
<title>Node0</title>
<g id="a_node2"><a xlink:href="dd/dd4/classosc_1_1Exception.html" target="_top" xlink:title=" ">
<polygon fill="white" stroke="black" points="209,-164.5 209,-183.5 296,-183.5 296,-164.5 209,-164.5"/>
<text text-anchor="middle" x="252.5" y="-171.5" font-family="Helvetica,sans-Serif" font-size="10.00">osc::Exception</text>
</a>
</g>
</g>
<!-- Node8&#45;&gt;Node0 -->
<g id="edge1" class="edge">
<title>Node8&#45;&gt;Node0</title>
<path fill="none" stroke="midnightblue" d="M183.62,-167.34C192.32,-167.45 200.79,-167.67 208.64,-167.99"/>
<polygon fill="midnightblue" stroke="midnightblue" points="183.37,-163.84 173.34,-167.26 183.31,-170.84 183.37,-163.84"/>
</g>
<!-- Node0&#45;&gt;Node8 -->
<g id="edge9" class="edge">
<title>Node0&#45;&gt;Node8</title>
<path fill="none" stroke="midnightblue" d="M198.62,-180.36C190.51,-180.58 181.95,-180.71 173.34,-180.74"/>
<polygon fill="midnightblue" stroke="midnightblue" points="198.76,-183.85 208.64,-180.01 198.52,-176.86 198.76,-183.85"/>
</g>
<!-- Node1 -->
<g id="node3" class="node">
<title>Node1</title>
<g id="a_node3"><a xlink:href="d4/dea/classosc_1_1BundleNotInProgressException.html" target="_top" xlink:title=" ">
<polygon fill="white" stroke="black" points="356,-317 356,-347 497,-347 497,-317 356,-317"/>
<text text-anchor="start" x="364" y="-335" font-family="Helvetica,sans-Serif" font-size="10.00">osc::BundleNotInProgress</text>
<text text-anchor="middle" x="426.5" y="-324" font-family="Helvetica,sans-Serif" font-size="10.00">Exception</text>
</a>
</g>
</g>
<!-- Node0&#45;&gt;Node1 -->
<g id="edge2" class="edge">
<title>Node0&#45;&gt;Node1</title>
<path fill="none" stroke="midnightblue" d="M259.68,-193.62C269.91,-222.85 293.18,-277.53 332,-307 339.09,-312.39 347.26,-316.61 355.74,-319.93"/>
<polygon fill="midnightblue" stroke="midnightblue" points="262.88,-192.15 256.39,-183.77 256.24,-194.37 262.88,-192.15"/>
</g>
<!-- Node2 -->
<g id="node4" class="node">
<title>Node2</title>
<g id="a_node4"><a xlink:href="d9/da5/classosc_1_1ExcessArgumentException.html" target="_top" xlink:title=" ">
<polygon fill="white" stroke="black" points="342,-278.5 342,-297.5 511,-297.5 511,-278.5 342,-278.5"/>
<text text-anchor="middle" x="426.5" y="-285.5" font-family="Helvetica,sans-Serif" font-size="10.00">osc::ExcessArgumentException</text>
</a>
</g>
</g>
<!-- Node0&#45;&gt;Node2 -->
<g id="edge3" class="edge">
<title>Node0&#45;&gt;Node2</title>
<path fill="none" stroke="midnightblue" d="M263.57,-192.64C276.44,-214.55 300.82,-250.29 332,-269 338.39,-272.83 345.43,-275.91 352.68,-278.37"/>
<polygon fill="midnightblue" stroke="midnightblue" points="266.46,-190.63 258.49,-183.65 260.37,-194.08 266.46,-190.63"/>
</g>
<!-- Node3 -->
<g id="node5" class="node">
<title>Node3</title>
<g id="a_node5"><a xlink:href="d9/d6d/classosc_1_1MalformedBundleException.html" target="_top" xlink:title=" ">
<polygon fill="white" stroke="black" points="339.5,-240.5 339.5,-259.5 513.5,-259.5 513.5,-240.5 339.5,-240.5"/>
<text text-anchor="middle" x="426.5" y="-247.5" font-family="Helvetica,sans-Serif" font-size="10.00">osc::MalformedBundleException</text>
</a>
</g>
</g>
<!-- Node0&#45;&gt;Node3 -->
<g id="edge4" class="edge">
<title>Node0&#45;&gt;Node3</title>
<path fill="none" stroke="midnightblue" d="M271.29,-190.39C286.36,-203.37 309.1,-220.93 332,-231 340.79,-234.87 350.4,-237.96 360.01,-240.42"/>
<polygon fill="midnightblue" stroke="midnightblue" points="273.57,-187.73 263.76,-183.72 268.93,-192.97 273.57,-187.73"/>
</g>
<!-- Node4 -->
<g id="node6" class="node">
<title>Node4</title>
<g id="a_node6"><a xlink:href="d5/d58/classosc_1_1MalformedMessageException.html" target="_top" xlink:title=" ">
<polygon fill="white" stroke="black" points="334.5,-202.5 334.5,-221.5 518.5,-221.5 518.5,-202.5 334.5,-202.5"/>
<text text-anchor="middle" x="426.5" y="-209.5" font-family="Helvetica,sans-Serif" font-size="10.00">osc::MalformedMessageException</text>
</a>
</g>
</g>
<!-- Node0&#45;&gt;Node4 -->
<g id="edge5" class="edge">
<title>Node0&#45;&gt;Node4</title>
<path fill="none" stroke="midnightblue" d="M301.59,-185.94C311.62,-188.34 322.15,-190.81 332,-193 346.55,-196.24 362.43,-199.55 376.9,-202.48"/>
<polygon fill="midnightblue" stroke="midnightblue" points="302.31,-182.51 291.76,-183.56 300.66,-189.31 302.31,-182.51"/>
</g>
<!-- Node5 -->
<g id="node7" class="node">
<title>Node5</title>
<g id="a_node7"><a xlink:href="df/d36/classosc_1_1MalformedPacketException.html" target="_top" xlink:title=" ">
<polygon fill="white" stroke="black" points="340.5,-164.5 340.5,-183.5 512.5,-183.5 512.5,-164.5 340.5,-164.5"/>
<text text-anchor="middle" x="426.5" y="-171.5" font-family="Helvetica,sans-Serif" font-size="10.00">osc::MalformedPacketException</text>
</a>
</g>
</g>
<!-- Node0&#45;&gt;Node5 -->
<g id="edge6" class="edge">
<title>Node0&#45;&gt;Node5</title>
<path fill="none" stroke="midnightblue" d="M306.16,-174C317.04,-174 328.76,-174 340.46,-174"/>
<polygon fill="midnightblue" stroke="midnightblue" points="306.02,-170.5 296.02,-174 306.02,-177.5 306.02,-170.5"/>
</g>
<!-- Node6 -->
<g id="node8" class="node">
<title>Node6</title>
<g id="a_node8"><a xlink:href="d4/d02/classosc_1_1MessageInProgressException.html" target="_top" xlink:title=" ">
<polygon fill="white" stroke="black" points="335.5,-126.5 335.5,-145.5 517.5,-145.5 517.5,-126.5 335.5,-126.5"/>
<text text-anchor="middle" x="426.5" y="-133.5" font-family="Helvetica,sans-Serif" font-size="10.00">osc::MessageInProgressException</text>
</a>
</g>
</g>
<!-- Node0&#45;&gt;Node6 -->
<g id="edge7" class="edge">
<title>Node0&#45;&gt;Node6</title>
<path fill="none" stroke="midnightblue" d="M301.59,-162.06C311.62,-159.66 322.15,-157.19 332,-155 346.55,-151.76 362.43,-148.45 376.9,-145.52"/>
<polygon fill="midnightblue" stroke="midnightblue" points="300.66,-158.69 291.76,-164.44 302.31,-165.49 300.66,-158.69"/>
</g>
<!-- Node7 -->
<g id="node9" class="node">
<title>Node7</title>
<g id="a_node9"><a xlink:href="d4/d21/classosc_1_1MessageNotInProgressException.html" target="_top" xlink:title=" ">
<polygon fill="white" stroke="black" points="351,-77 351,-107 502,-107 502,-77 351,-77"/>
<text text-anchor="start" x="359" y="-95" font-family="Helvetica,sans-Serif" font-size="10.00">osc::MessageNotInProgress</text>
<text text-anchor="middle" x="426.5" y="-84" font-family="Helvetica,sans-Serif" font-size="10.00">Exception</text>
</a>
</g>
</g>
<!-- Node0&#45;&gt;Node7 -->
<g id="edge8" class="edge">
<title>Node0&#45;&gt;Node7</title>
<path fill="none" stroke="midnightblue" d="M271.72,-157.76C286.88,-145.02 309.55,-127.7 332,-117 340.04,-113.17 348.76,-109.85 357.53,-107"/>
<polygon fill="midnightblue" stroke="midnightblue" points="269.41,-155.13 264.11,-164.3 273.98,-160.43 269.41,-155.13"/>
</g>
<!-- Node9 -->
<g id="node10" class="node">
<title>Node9</title>
<g id="a_node10"><a xlink:href="d9/d9f/classosc_1_1OutOfBufferMemoryException.html" target="_top" xlink:title=" ">
<polygon fill="white" stroke="black" points="334,-38.5 334,-57.5 519,-57.5 519,-38.5 334,-38.5"/>
<text text-anchor="middle" x="426.5" y="-45.5" font-family="Helvetica,sans-Serif" font-size="10.00">osc::OutOfBufferMemoryException</text>
</a>
</g>
</g>
<!-- Node0&#45;&gt;Node9 -->
<g id="edge10" class="edge">
<title>Node0&#45;&gt;Node9</title>
<path fill="none" stroke="midnightblue" d="M262.16,-155.03C274.24,-130.85 298.47,-89.59 332,-68 338.7,-63.69 346.17,-60.29 353.9,-57.61"/>
<polygon fill="midnightblue" stroke="midnightblue" points="258.91,-153.71 257.74,-164.24 265.23,-156.74 258.91,-153.71"/>
</g>
<!-- Node10 -->
<g id="node11" class="node">
<title>Node10</title>
<g id="a_node11"><a xlink:href="df/d1e/classosc_1_1WrongArgumentTypeException.html" target="_top" xlink:title=" ">
<polygon fill="white" stroke="black" points="332,-0.5 332,-19.5 521,-19.5 521,-0.5 332,-0.5"/>
<text text-anchor="middle" x="426.5" y="-7.5" font-family="Helvetica,sans-Serif" font-size="10.00">osc::WrongArgumentTypeException</text>
</a>
</g>
</g>
<!-- Node0&#45;&gt;Node10 -->
<g id="edge11" class="edge">
<title>Node0&#45;&gt;Node10</title>
<path fill="none" stroke="midnightblue" d="M258.29,-154.55C267.15,-122.92 289.2,-60.7 332,-29 337.19,-25.15 342.97,-22.04 349.04,-19.52"/>
<polygon fill="midnightblue" stroke="midnightblue" points="254.87,-153.79 255.7,-164.36 261.64,-155.58 254.87,-153.79"/>
</g>
</g>
</svg>
