<?xml version="1.0" encoding="UTF-8" standalone="no"?>
<!DOCTYPE svg PUBLIC "-//W3C//DTD SVG 1.1//EN"
 "http://www.w3.org/Graphics/SVG/1.1/DTD/svg11.dtd">
<!-- Generated by graphviz version 2.43.0 (0)
 -->
<!-- Title: Graphical Class Hierarchy Pages: 1 -->
<svg width="410pt" height="104pt"
 viewBox="0.00 0.00 410.00 104.00" xmlns="http://www.w3.org/2000/svg" xmlns:xlink="http://www.w3.org/1999/xlink">
<g id="graph0" class="graph" transform="scale(1 1) rotate(0) translate(4 100)">
<title>Graphical Class Hierarchy</title>
<polygon fill="white" stroke="transparent" points="-4,4 -4,-100 406,-100 406,4 -4,4"/>
<!-- Node0 -->
<g id="node1" class="node">
<title>Node0</title>
<g id="a_node1"><a xlink:href="d5/dc8/classTUIO_1_1OscSender.html" target="_top" xlink:title=" ">
<polygon fill="white" stroke="black" points="0,-38.5 0,-57.5 98,-57.5 98,-38.5 0,-38.5"/>
<text text-anchor="middle" x="49" y="-45.5" font-family="Helvetica,sans-Serif" font-size="10.00">TUIO::OscSender</text>
</a>
</g>
</g>
<!-- Node1 -->
<g id="node2" class="node">
<title>Node1</title>
<g id="a_node2"><a xlink:href="d8/dd1/classTUIO_1_1FlashSender.html" target="_top" xlink:title=" ">
<polygon fill="white" stroke="black" points="134,-76.5 134,-95.5 241,-95.5 241,-76.5 134,-76.5"/>
<text text-anchor="middle" x="187.5" y="-83.5" font-family="Helvetica,sans-Serif" font-size="10.00">TUIO::FlashSender</text>
</a>
</g>
</g>
<!-- Node0&#45;&gt;Node1 -->
<g id="edge1" class="edge">
<title>Node0&#45;&gt;Node1</title>
<path fill="none" stroke="midnightblue" d="M94.25,-60.32C113,-65.54 134.53,-71.53 152.07,-76.41"/>
<polygon fill="midnightblue" stroke="midnightblue" points="95.02,-56.9 84.44,-57.59 93.14,-63.64 95.02,-56.9"/>
</g>
<!-- Node2 -->
<g id="node3" class="node">
<title>Node2</title>
<g id="a_node3"><a xlink:href="d8/d5d/classTUIO_1_1TcpSender.html" target="_top" xlink:title=" ">
<polygon fill="white" stroke="black" points="139.5,-38.5 139.5,-57.5 235.5,-57.5 235.5,-38.5 139.5,-38.5"/>
<text text-anchor="middle" x="187.5" y="-45.5" font-family="Helvetica,sans-Serif" font-size="10.00">TUIO::TcpSender</text>
</a>
</g>
</g>
<!-- Node0&#45;&gt;Node2 -->
<g id="edge2" class="edge">
<title>Node0&#45;&gt;Node2</title>
<path fill="none" stroke="midnightblue" d="M108.32,-48C118.65,-48 129.29,-48 139.27,-48"/>
<polygon fill="midnightblue" stroke="midnightblue" points="108.12,-44.5 98.12,-48 108.12,-51.5 108.12,-44.5"/>
</g>
<!-- Node4 -->
<g id="node5" class="node">
<title>Node4</title>
<g id="a_node5"><a xlink:href="d1/ded/classTUIO_1_1UdpSender.html" target="_top" xlink:title=" ">
<polygon fill="white" stroke="black" points="137.5,-0.5 137.5,-19.5 237.5,-19.5 237.5,-0.5 137.5,-0.5"/>
<text text-anchor="middle" x="187.5" y="-7.5" font-family="Helvetica,sans-Serif" font-size="10.00">TUIO::UdpSender</text>
</a>
</g>
</g>
<!-- Node0&#45;&gt;Node4 -->
<g id="edge4" class="edge">
<title>Node0&#45;&gt;Node4</title>
<path fill="none" stroke="midnightblue" d="M94.25,-35.68C113,-30.46 134.53,-24.47 152.07,-19.59"/>
<polygon fill="midnightblue" stroke="midnightblue" points="93.14,-32.36 84.44,-38.41 95.02,-39.1 93.14,-32.36"/>
</g>
<!-- Node3 -->
<g id="node4" class="node">
<title>Node3</title>
<g id="a_node4"><a xlink:href="da/d32/classTUIO_1_1WebSockSender.html" target="_top" xlink:title=" ">
<polygon fill="white" stroke="black" points="277,-38.5 277,-57.5 402,-57.5 402,-38.5 277,-38.5"/>
<text text-anchor="middle" x="339.5" y="-45.5" font-family="Helvetica,sans-Serif" font-size="10.00">TUIO::WebSockSender</text>
</a>
</g>
</g>
<!-- Node2&#45;&gt;Node3 -->
<g id="edge3" class="edge">
<title>Node2&#45;&gt;Node3</title>
<path fill="none" stroke="midnightblue" d="M245.56,-48C255.76,-48 266.43,-48 276.75,-48"/>
<polygon fill="midnightblue" stroke="midnightblue" points="245.55,-44.5 235.55,-48 245.55,-51.5 245.55,-44.5"/>
</g>
</g>
</svg>
