<?xml version="1.0" encoding="UTF-8" standalone="no"?>
<!DOCTYPE svg PUBLIC "-//W3C//DTD SVG 1.1//EN"
 "http://www.w3.org/Graphics/SVG/1.1/DTD/svg11.dtd">
<!-- Generated by graphviz version 2.43.0 (0)
 -->
<!-- Title: osc::Exception Pages: 1 -->
<svg width="442pt" height="394pt"
 viewBox="0.00 0.00 442.00 393.50" xmlns="http://www.w3.org/2000/svg" xmlns:xlink="http://www.w3.org/1999/xlink">
<g id="graph0" class="graph" transform="scale(1 1) rotate(0) translate(4 389.5)">
<title>osc::Exception</title>
<polygon fill="white" stroke="transparent" points="-4,4 -4,-389.5 438,-389.5 438,4 -4,4"/>
<!-- Node1 -->
<g id="node1" class="node">
<title>Node1</title>
<g id="a_node1"><a xlink:title=" ">
<polygon fill="#bfbfbf" stroke="black" points="122,-183.5 122,-202.5 209,-202.5 209,-183.5 122,-183.5"/>
<text text-anchor="middle" x="165.5" y="-190.5" font-family="Helvetica,sans-Serif" font-size="10.00">osc::Exception</text>
</a>
</g>
</g>
<!-- Node3 -->
<g id="node3" class="node">
<title>Node3</title>
<g id="a_node3"><a xlink:href="../../d4/dea/classosc_1_1BundleNotInProgressException.html" target="_top" xlink:title=" ">
<polygon fill="white" stroke="black" points="269,-355 269,-385 410,-385 410,-355 269,-355"/>
<text text-anchor="start" x="277" y="-373" font-family="Helvetica,sans-Serif" font-size="10.00">osc::BundleNotInProgress</text>
<text text-anchor="middle" x="339.5" y="-362" font-family="Helvetica,sans-Serif" font-size="10.00">Exception</text>
</a>
</g>
</g>
<!-- Node1&#45;&gt;Node3 -->
<g id="edge2" class="edge">
<title>Node1&#45;&gt;Node3</title>
<path fill="none" stroke="midnightblue" d="M171.11,-212.61C179.8,-245.15 201.74,-310.19 245,-345 252.07,-350.69 260.32,-355.09 268.93,-358.49"/>
<polygon fill="midnightblue" stroke="midnightblue" points="174.41,-211.39 168.58,-202.55 167.63,-213.11 174.41,-211.39"/>
</g>
<!-- Node4 -->
<g id="node4" class="node">
<title>Node4</title>
<g id="a_node4"><a xlink:href="../../d9/da5/classosc_1_1ExcessArgumentException.html" target="_top" xlink:title=" ">
<polygon fill="white" stroke="black" points="255,-316.5 255,-335.5 424,-335.5 424,-316.5 255,-316.5"/>
<text text-anchor="middle" x="339.5" y="-323.5" font-family="Helvetica,sans-Serif" font-size="10.00">osc::ExcessArgumentException</text>
</a>
</g>
</g>
<!-- Node1&#45;&gt;Node4 -->
<g id="edge3" class="edge">
<title>Node1&#45;&gt;Node4</title>
<path fill="none" stroke="midnightblue" d="M174.07,-211.93C185.43,-237.75 209.41,-283.47 245,-307 250.8,-310.84 257.22,-313.93 263.89,-316.41"/>
<polygon fill="midnightblue" stroke="midnightblue" points="177.21,-210.36 170.1,-202.5 170.76,-213.08 177.21,-210.36"/>
</g>
<!-- Node5 -->
<g id="node5" class="node">
<title>Node5</title>
<g id="a_node5"><a xlink:href="../../d9/d6d/classosc_1_1MalformedBundleException.html" target="_top" xlink:title=" ">
<polygon fill="white" stroke="black" points="252.5,-278.5 252.5,-297.5 426.5,-297.5 426.5,-278.5 252.5,-278.5"/>
<text text-anchor="middle" x="339.5" y="-285.5" font-family="Helvetica,sans-Serif" font-size="10.00">osc::MalformedBundleException</text>
</a>
</g>
</g>
<!-- Node1&#45;&gt;Node5 -->
<g id="edge4" class="edge">
<title>Node1&#45;&gt;Node5</title>
<path fill="none" stroke="midnightblue" d="M179.98,-211.05C194.17,-228.67 218.13,-254.85 245,-269 252.33,-272.86 260.36,-275.94 268.54,-278.39"/>
<polygon fill="midnightblue" stroke="midnightblue" points="182.4,-208.46 173.5,-202.72 176.88,-212.76 182.4,-208.46"/>
</g>
<!-- Node6 -->
<g id="node6" class="node">
<title>Node6</title>
<g id="a_node6"><a xlink:href="../../d5/d58/classosc_1_1MalformedMessageException.html" target="_top" xlink:title=" ">
<polygon fill="white" stroke="black" points="247.5,-240.5 247.5,-259.5 431.5,-259.5 431.5,-240.5 247.5,-240.5"/>
<text text-anchor="middle" x="339.5" y="-247.5" font-family="Helvetica,sans-Serif" font-size="10.00">osc::MalformedMessageException</text>
</a>
</g>
</g>
<!-- Node1&#45;&gt;Node6 -->
<g id="edge5" class="edge">
<title>Node1&#45;&gt;Node6</title>
<path fill="none" stroke="midnightblue" d="M192.28,-207.51C207.27,-215.43 226.76,-224.84 245,-231 256.14,-234.76 268.3,-237.9 280.04,-240.47"/>
<polygon fill="midnightblue" stroke="midnightblue" points="193.59,-204.24 183.13,-202.57 190.27,-210.4 193.59,-204.24"/>
</g>
<!-- Node7 -->
<g id="node7" class="node">
<title>Node7</title>
<g id="a_node7"><a xlink:href="../../df/d36/classosc_1_1MalformedPacketException.html" target="_top" xlink:title=" ">
<polygon fill="white" stroke="black" points="253.5,-202.5 253.5,-221.5 425.5,-221.5 425.5,-202.5 253.5,-202.5"/>
<text text-anchor="middle" x="339.5" y="-209.5" font-family="Helvetica,sans-Serif" font-size="10.00">osc::MalformedPacketException</text>
</a>
</g>
</g>
<!-- Node1&#45;&gt;Node7 -->
<g id="edge6" class="edge">
<title>Node1&#45;&gt;Node7</title>
<path fill="none" stroke="midnightblue" d="M219.16,-198.82C230.04,-200.02 241.76,-201.31 253.46,-202.61"/>
<polygon fill="midnightblue" stroke="midnightblue" points="219.34,-195.32 209.02,-197.7 218.57,-202.27 219.34,-195.32"/>
</g>
<!-- Node8 -->
<g id="node8" class="node">
<title>Node8</title>
<g id="a_node8"><a xlink:href="../../d4/d02/classosc_1_1MessageInProgressException.html" target="_top" xlink:title=" ">
<polygon fill="white" stroke="black" points="248.5,-164.5 248.5,-183.5 430.5,-183.5 430.5,-164.5 248.5,-164.5"/>
<text text-anchor="middle" x="339.5" y="-171.5" font-family="Helvetica,sans-Serif" font-size="10.00">osc::MessageInProgressException</text>
</a>
</g>
</g>
<!-- Node1&#45;&gt;Node8 -->
<g id="edge7" class="edge">
<title>Node1&#45;&gt;Node8</title>
<path fill="none" stroke="midnightblue" d="M219.26,-187.17C229.8,-186.01 241.12,-184.76 252.44,-183.51"/>
<polygon fill="midnightblue" stroke="midnightblue" points="218.57,-183.73 209.02,-188.3 219.34,-190.68 218.57,-183.73"/>
</g>
<!-- Node9 -->
<g id="node9" class="node">
<title>Node9</title>
<g id="a_node9"><a xlink:href="../../d4/d21/classosc_1_1MessageNotInProgressException.html" target="_top" xlink:title=" ">
<polygon fill="white" stroke="black" points="264,-115 264,-145 415,-145 415,-115 264,-115"/>
<text text-anchor="start" x="272" y="-133" font-family="Helvetica,sans-Serif" font-size="10.00">osc::MessageNotInProgress</text>
<text text-anchor="middle" x="339.5" y="-122" font-family="Helvetica,sans-Serif" font-size="10.00">Exception</text>
</a>
</g>
</g>
<!-- Node1&#45;&gt;Node9 -->
<g id="edge8" class="edge">
<title>Node1&#45;&gt;Node9</title>
<path fill="none" stroke="midnightblue" d="M193.01,-178.61C207.97,-170.89 227.19,-161.62 245,-155 254.76,-151.37 265.28,-148.03 275.62,-145.05"/>
<polygon fill="midnightblue" stroke="midnightblue" points="191.08,-175.67 183.85,-183.42 194.33,-181.87 191.08,-175.67"/>
</g>
<!-- Node10 -->
<g id="node10" class="node">
<title>Node10</title>
<g id="a_node10"><a xlink:href="../../db/de6/classosc_1_1MissingArgumentException.html" target="_top" xlink:title=" ">
<polygon fill="white" stroke="black" points="253,-76.5 253,-95.5 426,-95.5 426,-76.5 253,-76.5"/>
<text text-anchor="middle" x="339.5" y="-83.5" font-family="Helvetica,sans-Serif" font-size="10.00">osc::MissingArgumentException</text>
</a>
</g>
</g>
<!-- Node1&#45;&gt;Node10 -->
<g id="edge9" class="edge">
<title>Node1&#45;&gt;Node10</title>
<path fill="none" stroke="midnightblue" d="M177.5,-174.84C190.84,-154.47 215.27,-122.08 245,-105 251.75,-101.12 259.17,-98.03 266.8,-95.56"/>
<polygon fill="midnightblue" stroke="midnightblue" points="174.41,-173.17 172.02,-183.5 180.33,-176.92 174.41,-173.17"/>
</g>
<!-- Node11 -->
<g id="node11" class="node">
<title>Node11</title>
<g id="a_node11"><a xlink:href="../../d9/d9f/classosc_1_1OutOfBufferMemoryException.html" target="_top" xlink:title=" ">
<polygon fill="white" stroke="black" points="247,-38.5 247,-57.5 432,-57.5 432,-38.5 247,-38.5"/>
<text text-anchor="middle" x="339.5" y="-45.5" font-family="Helvetica,sans-Serif" font-size="10.00">osc::OutOfBufferMemoryException</text>
</a>
</g>
</g>
<!-- Node1&#45;&gt;Node11 -->
<g id="edge10" class="edge">
<title>Node1&#45;&gt;Node11</title>
<path fill="none" stroke="midnightblue" d="M172.92,-173.69C183.34,-145.52 206.71,-93.59 245,-67 250.44,-63.22 256.47,-60.16 262.76,-57.68"/>
<polygon fill="midnightblue" stroke="midnightblue" points="169.58,-172.63 169.56,-183.23 176.18,-174.96 169.58,-172.63"/>
</g>
<!-- Node12 -->
<g id="node12" class="node">
<title>Node12</title>
<g id="a_node12"><a xlink:href="../../df/d1e/classosc_1_1WrongArgumentTypeException.html" target="_top" xlink:title=" ">
<polygon fill="white" stroke="black" points="245,-0.5 245,-19.5 434,-19.5 434,-0.5 245,-0.5"/>
<text text-anchor="middle" x="339.5" y="-7.5" font-family="Helvetica,sans-Serif" font-size="10.00">osc::WrongArgumentTypeException</text>
</a>
</g>
</g>
<!-- Node1&#45;&gt;Node12 -->
<g id="edge11" class="edge">
<title>Node1&#45;&gt;Node12</title>
<path fill="none" stroke="midnightblue" d="M169.99,-173.49C177.29,-138.66 197.61,-65.96 245,-29 249.83,-25.23 255.22,-22.15 260.9,-19.65"/>
<polygon fill="midnightblue" stroke="midnightblue" points="166.54,-172.89 168.06,-183.38 173.41,-174.23 166.54,-172.89"/>
</g>
<!-- Node2 -->
<g id="node2" class="node">
<title>Node2</title>
<g id="a_node2"><a xlink:title=" ">
<polygon fill="white" stroke="#bfbfbf" points="0,-183.5 0,-202.5 86,-202.5 86,-183.5 0,-183.5"/>
<text text-anchor="middle" x="43" y="-190.5" font-family="Helvetica,sans-Serif" font-size="10.00">std::exception</text>
</a>
</g>
</g>
<!-- Node2&#45;&gt;Node1 -->
<g id="edge1" class="edge">
<title>Node2&#45;&gt;Node1</title>
<path fill="none" stroke="midnightblue" d="M96.35,-193C104.84,-193 113.54,-193 121.77,-193"/>
<polygon fill="midnightblue" stroke="midnightblue" points="96.15,-189.5 86.15,-193 96.15,-196.5 96.15,-189.5"/>
</g>
</g>
</svg>
