<?xml version="1.0" encoding="UTF-8" standalone="no"?>
<!DOCTYPE svg PUBLIC "-//W3C//DTD SVG 1.1//EN"
 "http://www.w3.org/Graphics/SVG/1.1/DTD/svg11.dtd">
<!-- Generated by graphviz version 2.43.0 (0)
 -->
<!-- Title: TUIO::TuioContainer Pages: 1 -->
<svg width="230pt" height="163pt"
 viewBox="0.00 0.00 230.00 163.00" xmlns="http://www.w3.org/2000/svg" xmlns:xlink="http://www.w3.org/1999/xlink">
<g id="graph0" class="graph" transform="scale(1 1) rotate(0) translate(4 159)">
<title>TUIO::TuioContainer</title>
<polygon fill="white" stroke="transparent" points="-4,4 -4,-159 226,-159 226,4 -4,4"/>
<!-- Node1 -->
<g id="node1" class="node">
<title>Node1</title>
<g id="a_node1"><a xlink:title=" ">
<polygon fill="#bfbfbf" stroke="black" points="49,-0.5 49,-19.5 162,-19.5 162,-0.5 49,-0.5"/>
<text text-anchor="middle" x="105.5" y="-7.5" font-family="Helvetica,sans-Serif" font-size="10.00">TUIO::TuioContainer</text>
</a>
</g>
</g>
<!-- Node2 -->
<g id="node2" class="node">
<title>Node2</title>
<g id="a_node2"><a xlink:href="../../d0/db6/classTUIO_1_1TuioPoint.html" target="_top" xlink:title=" ">
<polygon fill="white" stroke="black" points="60,-57.5 60,-76.5 151,-76.5 151,-57.5 60,-57.5"/>
<text text-anchor="middle" x="105.5" y="-64.5" font-family="Helvetica,sans-Serif" font-size="10.00">TUIO::TuioPoint</text>
</a>
</g>
</g>
<!-- Node2&#45;&gt;Node1 -->
<g id="edge1" class="edge">
<title>Node2&#45;&gt;Node1</title>
<path fill="none" stroke="midnightblue" d="M105.5,-47.12C105.5,-37.82 105.5,-27.06 105.5,-19.71"/>
<polygon fill="midnightblue" stroke="midnightblue" points="102,-47.41 105.5,-57.41 109,-47.41 102,-47.41"/>
</g>
<!-- Node3 -->
<g id="node3" class="node">
<title>Node3</title>
<g id="a_node3"><a xlink:href="../../d0/db2/classTUIO_1_1TuioTime.html" target="_top" xlink:title=" ">
<polygon fill="white" stroke="black" points="0,-135.5 0,-154.5 91,-154.5 91,-135.5 0,-135.5"/>
<text text-anchor="middle" x="45.5" y="-142.5" font-family="Helvetica,sans-Serif" font-size="10.00">TUIO::TuioTime</text>
</a>
</g>
</g>
<!-- Node3&#45;&gt;Node2 -->
<g id="edge2" class="edge">
<title>Node3&#45;&gt;Node2</title>
<path fill="none" stroke="#9a32cd" stroke-dasharray="5,2" d="M56.77,-127.13C63.39,-117.49 72.09,-105.32 80.5,-95 85.66,-88.66 91.91,-81.91 96.87,-76.75"/>
<polygon fill="#9a32cd" stroke="#9a32cd" points="53.85,-125.2 51.13,-135.44 59.64,-129.13 53.85,-125.2"/>
<text text-anchor="middle" x="112" y="-109" font-family="Helvetica,sans-Serif" font-size="10.00"> currentTime</text>
<text text-anchor="middle" x="112" y="-98" font-family="Helvetica,sans-Serif" font-size="10.00">startTime</text>
</g>
<!-- Node4 -->
<g id="node4" class="node">
<title>Node4</title>
<g id="a_node4"><a xlink:href="../../d3/de2/classTUIO_1_1OneEuroFilter.html" target="_top" xlink:title=" ">
<polygon fill="white" stroke="black" points="109,-135.5 109,-154.5 222,-154.5 222,-135.5 109,-135.5"/>
<text text-anchor="middle" x="165.5" y="-142.5" font-family="Helvetica,sans-Serif" font-size="10.00">TUIO::OneEuroFilter</text>
</a>
</g>
</g>
<!-- Node4&#45;&gt;Node2 -->
<g id="edge3" class="edge">
<title>Node4&#45;&gt;Node2</title>
<path fill="none" stroke="#9a32cd" stroke-dasharray="5,2" d="M159.91,-125.68C156.3,-115.87 150.89,-104 143.5,-95 137.44,-87.62 128.89,-81.31 121.44,-76.65"/>
<polygon fill="#9a32cd" stroke="#9a32cd" points="156.63,-126.9 163.13,-135.27 163.27,-124.68 156.63,-126.9"/>
<text text-anchor="middle" x="181.5" y="-109" font-family="Helvetica,sans-Serif" font-size="10.00"> xposFilter</text>
<text text-anchor="middle" x="181.5" y="-98" font-family="Helvetica,sans-Serif" font-size="10.00">yposFilter</text>
</g>
</g>
</svg>
