<?xml version="1.0" encoding="UTF-8" standalone="no"?>
<!DOCTYPE svg PUBLIC "-//W3C//DTD SVG 1.1//EN"
 "http://www.w3.org/Graphics/SVG/1.1/DTD/svg11.dtd">
<!-- Generated by graphviz version 2.43.0 (0)
 -->
<!-- Title: TUIO::TuioObject::update Pages: 1 -->
<svg width="338pt" height="127pt"
 viewBox="0.00 0.00 338.00 127.00" xmlns="http://www.w3.org/2000/svg" xmlns:xlink="http://www.w3.org/1999/xlink">
<g id="graph0" class="graph" transform="scale(1 1) rotate(0) translate(4 123)">
<title>TUIO::TuioObject::update</title>
<polygon fill="white" stroke="transparent" points="-4,4 -4,-123 334,-123 334,4 -4,4"/>
<!-- Node1 -->
<g id="node1" class="node">
<title>Node1</title>
<g id="a_node1"><a xlink:title=" ">
<polygon fill="#bfbfbf" stroke="black" points="0,-50 0,-69 137,-69 137,-50 0,-50"/>
<text text-anchor="middle" x="68.5" y="-57" font-family="Helvetica,sans-Serif" font-size="10.00">TUIO::TuioObject::update</text>
</a>
</g>
</g>
<!-- Node2 -->
<g id="node2" class="node">
<title>Node2</title>
<g id="a_node2"><a xlink:href="../../d0/db2/classTUIO_1_1TuioTime.html#ac403aea1a8928e714f9f6388f488fa33" target="_top" xlink:title=" ">
<polygon fill="white" stroke="black" points="183.5,-88.5 183.5,-118.5 319.5,-118.5 319.5,-88.5 183.5,-88.5"/>
<text text-anchor="start" x="191.5" y="-106.5" font-family="Helvetica,sans-Serif" font-size="10.00">TUIO::TuioTime::getTotal</text>
<text text-anchor="middle" x="251.5" y="-95.5" font-family="Helvetica,sans-Serif" font-size="10.00">Milliseconds</text>
</a>
</g>
</g>
<!-- Node1&#45;&gt;Node2 -->
<g id="edge1" class="edge">
<title>Node1&#45;&gt;Node2</title>
<path fill="none" stroke="midnightblue" d="M108.77,-69.05C129.24,-74.02 154.93,-80.27 178.79,-86.07"/>
<polygon fill="midnightblue" stroke="midnightblue" points="177.98,-89.47 188.53,-88.43 179.64,-82.67 177.98,-89.47"/>
</g>
<!-- Node3 -->
<g id="node3" class="node">
<title>Node3</title>
<g id="a_node3"><a xlink:href="../../d0/db6/classTUIO_1_1TuioPoint.html#ac86687cf27772d0fd602c2044b6c8cdd" target="_top" xlink:title=" ">
<polygon fill="white" stroke="black" points="173,-50 173,-69 330,-69 330,-50 173,-50"/>
<text text-anchor="middle" x="251.5" y="-57" font-family="Helvetica,sans-Serif" font-size="10.00">TUIO::TuioPoint::getTuioTime</text>
</a>
</g>
</g>
<!-- Node1&#45;&gt;Node3 -->
<g id="edge2" class="edge">
<title>Node1&#45;&gt;Node3</title>
<path fill="none" stroke="midnightblue" d="M137.16,-59.5C145.53,-59.5 154.18,-59.5 162.79,-59.5"/>
<polygon fill="midnightblue" stroke="midnightblue" points="162.88,-63 172.88,-59.5 162.88,-56 162.88,-63"/>
</g>
<!-- Node4 -->
<g id="node4" class="node">
<title>Node4</title>
<g id="a_node4"><a xlink:href="../../d8/de3/classTUIO_1_1TuioContainer.html#ae6ed82aba4186921dc911a382f7e5f33" target="_top" xlink:title=" ">
<polygon fill="white" stroke="black" points="195,-0.5 195,-30.5 308,-30.5 308,-0.5 195,-0.5"/>
<text text-anchor="start" x="203" y="-18.5" font-family="Helvetica,sans-Serif" font-size="10.00">TUIO::TuioContainer</text>
<text text-anchor="middle" x="251.5" y="-7.5" font-family="Helvetica,sans-Serif" font-size="10.00">::update</text>
</a>
</g>
</g>
<!-- Node1&#45;&gt;Node4 -->
<g id="edge3" class="edge">
<title>Node1&#45;&gt;Node4</title>
<path fill="none" stroke="midnightblue" d="M108.77,-49.95C130.99,-44.55 159.34,-37.66 184.84,-31.46"/>
<polygon fill="midnightblue" stroke="midnightblue" points="185.93,-34.8 194.82,-29.04 184.28,-28 185.93,-34.8"/>
</g>
</g>
</svg>
