<?xml version="1.0" encoding="UTF-8" standalone="no"?>
<!DOCTYPE svg PUBLIC "-//W3C//DTD SVG 1.1//EN"
 "http://www.w3.org/Graphics/SVG/1.1/DTD/svg11.dtd">
<!-- Generated by graphviz version 2.43.0 (0)
 -->
<!-- Title: TUIO::TuioObject::update Pages: 1 -->
<svg width="342pt" height="176pt"
 viewBox="0.00 0.00 342.00 175.50" xmlns="http://www.w3.org/2000/svg" xmlns:xlink="http://www.w3.org/1999/xlink">
<g id="graph0" class="graph" transform="scale(1 1) rotate(0) translate(4 171.5)">
<title>TUIO::TuioObject::update</title>
<polygon fill="white" stroke="transparent" points="-4,4 -4,-171.5 338,-171.5 338,4 -4,4"/>
<!-- Node1 -->
<g id="node1" class="node">
<title>Node1</title>
<g id="a_node1"><a xlink:title=" ">
<polygon fill="#bfbfbf" stroke="black" points="0,-79 0,-98 137,-98 137,-79 0,-79"/>
<text text-anchor="middle" x="68.5" y="-86" font-family="Helvetica,sans-Serif" font-size="10.00">TUIO::TuioObject::update</text>
</a>
</g>
</g>
<!-- Node2 -->
<g id="node2" class="node">
<title>Node2</title>
<g id="a_node2"><a xlink:href="../../d0/dd3/classTUIO_1_1TuioObject.html#ad1be94db9f777b98900503a10bdbe66c" target="_top" xlink:title=" ">
<polygon fill="white" stroke="black" points="180,-148 180,-167 327,-167 327,-148 180,-148"/>
<text text-anchor="middle" x="253.5" y="-155" font-family="Helvetica,sans-Serif" font-size="10.00">TUIO::TuioObject::getAngle</text>
</a>
</g>
</g>
<!-- Node1&#45;&gt;Node2 -->
<g id="edge1" class="edge">
<title>Node1&#45;&gt;Node2</title>
<path fill="none" stroke="midnightblue" d="M86.59,-98.17C106.71,-109.23 141.42,-127.25 173,-138.5 180.06,-141.02 187.6,-143.3 195.11,-145.35"/>
<polygon fill="midnightblue" stroke="midnightblue" points="194.37,-148.77 204.93,-147.9 196.13,-142 194.37,-148.77"/>
</g>
<!-- Node3 -->
<g id="node3" class="node">
<title>Node3</title>
<g id="a_node3"><a xlink:href="../../d0/dd3/classTUIO_1_1TuioObject.html#a5daaf14f96beeacaa6d623df3c3574d9" target="_top" xlink:title=" ">
<polygon fill="white" stroke="black" points="173,-98.5 173,-128.5 334,-128.5 334,-98.5 173,-98.5"/>
<text text-anchor="start" x="181" y="-116.5" font-family="Helvetica,sans-Serif" font-size="10.00">TUIO::TuioObject::getRotation</text>
<text text-anchor="middle" x="253.5" y="-105.5" font-family="Helvetica,sans-Serif" font-size="10.00">Accel</text>
</a>
</g>
</g>
<!-- Node1&#45;&gt;Node3 -->
<g id="edge2" class="edge">
<title>Node1&#45;&gt;Node3</title>
<path fill="none" stroke="midnightblue" d="M137.12,-97.74C145.47,-98.88 154.09,-100.06 162.7,-101.23"/>
<polygon fill="midnightblue" stroke="midnightblue" points="162.39,-104.72 172.78,-102.61 163.34,-97.79 162.39,-104.72"/>
</g>
<!-- Node4 -->
<g id="node4" class="node">
<title>Node4</title>
<g id="a_node4"><a xlink:href="../../d0/dd3/classTUIO_1_1TuioObject.html#a377e6d373c9d03dd2da50f5ac489e30f" target="_top" xlink:title=" ">
<polygon fill="white" stroke="black" points="173,-49.5 173,-79.5 334,-79.5 334,-49.5 173,-49.5"/>
<text text-anchor="start" x="181" y="-67.5" font-family="Helvetica,sans-Serif" font-size="10.00">TUIO::TuioObject::getRotation</text>
<text text-anchor="middle" x="253.5" y="-56.5" font-family="Helvetica,sans-Serif" font-size="10.00">Speed</text>
</a>
</g>
</g>
<!-- Node1&#45;&gt;Node4 -->
<g id="edge3" class="edge">
<title>Node1&#45;&gt;Node4</title>
<path fill="none" stroke="midnightblue" d="M137.12,-79.63C145.47,-78.54 154.09,-77.41 162.7,-76.28"/>
<polygon fill="midnightblue" stroke="midnightblue" points="163.32,-79.73 172.78,-74.96 162.41,-72.79 163.32,-79.73"/>
</g>
<!-- Node5 -->
<g id="node5" class="node">
<title>Node5</title>
<g id="a_node5"><a xlink:href="../../d8/de3/classTUIO_1_1TuioContainer.html#ae6ed82aba4186921dc911a382f7e5f33" target="_top" xlink:title=" ">
<polygon fill="white" stroke="black" points="197,-0.5 197,-30.5 310,-30.5 310,-0.5 197,-0.5"/>
<text text-anchor="start" x="205" y="-18.5" font-family="Helvetica,sans-Serif" font-size="10.00">TUIO::TuioContainer</text>
<text text-anchor="middle" x="253.5" y="-7.5" font-family="Helvetica,sans-Serif" font-size="10.00">::update</text>
</a>
</g>
</g>
<!-- Node1&#45;&gt;Node5 -->
<g id="edge4" class="edge">
<title>Node1&#45;&gt;Node5</title>
<path fill="none" stroke="midnightblue" d="M88.26,-78.9C108.75,-68.63 142.71,-52.23 173,-40.5 178.93,-38.2 185.17,-35.96 191.44,-33.81"/>
<polygon fill="midnightblue" stroke="midnightblue" points="192.89,-37.02 201.27,-30.54 190.67,-30.38 192.89,-37.02"/>
</g>
</g>
</svg>
