<?xml version="1.0" encoding="UTF-8" standalone="no"?>
<!DOCTYPE svg PUBLIC "-//W3C//DTD SVG 1.1//EN"
 "http://www.w3.org/Graphics/SVG/1.1/DTD/svg11.dtd">
<!-- Generated by graphviz version 2.43.0 (0)
 -->
<!-- Title: TUIO::TuioObject::getSymbolID Pages: 1 -->
<svg width="725pt" height="361pt"
 viewBox="0.00 0.00 725.00 361.00" xmlns="http://www.w3.org/2000/svg" xmlns:xlink="http://www.w3.org/1999/xlink">
<g id="graph0" class="graph" transform="scale(1 1) rotate(0) translate(4 357)">
<title>TUIO::TuioObject::getSymbolID</title>
<polygon fill="white" stroke="transparent" points="-4,4 -4,-357 721,-357 721,4 -4,4"/>
<!-- Node1 -->
<g id="node1" class="node">
<title>Node1</title>
<g id="a_node1"><a xlink:title=" ">
<polygon fill="#bfbfbf" stroke="black" points="550,-159 550,-178 717,-178 717,-159 550,-159"/>
<text text-anchor="middle" x="633.5" y="-166" font-family="Helvetica,sans-Serif" font-size="10.00">TUIO::TuioObject::getSymbolID</text>
</a>
</g>
</g>
<!-- Node2 -->
<g id="node2" class="node">
<title>Node2</title>
<g id="a_node2"><a xlink:href="../../d2/d82/classTUIO_1_1TuioManager.html#ab8bede39e174712efd1ef97a16a39d98" target="_top" xlink:title=" ">
<polygon fill="white" stroke="black" points="373.5,-322.5 373.5,-352.5 499.5,-352.5 499.5,-322.5 373.5,-322.5"/>
<text text-anchor="start" x="381.5" y="-340.5" font-family="Helvetica,sans-Serif" font-size="10.00">TUIO::TuioManager::</text>
<text text-anchor="middle" x="436.5" y="-329.5" font-family="Helvetica,sans-Serif" font-size="10.00">addExternalTuioObject</text>
</a>
</g>
</g>
<!-- Node1&#45;&gt;Node2 -->
<g id="edge1" class="edge">
<title>Node1&#45;&gt;Node2</title>
<path fill="none" stroke="midnightblue" d="M622.23,-187.1C604.28,-217.91 564.3,-279.47 514,-313.5 508.93,-316.93 503.34,-319.89 497.56,-322.44"/>
<polygon fill="midnightblue" stroke="midnightblue" points="625.36,-188.68 627.26,-178.26 619.27,-185.22 625.36,-188.68"/>
</g>
<!-- Node3 -->
<g id="node3" class="node">
<title>Node3</title>
<g id="a_node3"><a xlink:href="../../d2/d82/classTUIO_1_1TuioManager.html#aaa9fd4f7f197442e711ab75da9854eac" target="_top" xlink:title=" ">
<polygon fill="white" stroke="black" points="379,-273.5 379,-303.5 494,-303.5 494,-273.5 379,-273.5"/>
<text text-anchor="start" x="387" y="-291.5" font-family="Helvetica,sans-Serif" font-size="10.00">TUIO::TuioManager::</text>
<text text-anchor="middle" x="436.5" y="-280.5" font-family="Helvetica,sans-Serif" font-size="10.00">addTuioObject</text>
</a>
</g>
</g>
<!-- Node1&#45;&gt;Node3 -->
<g id="edge2" class="edge">
<title>Node1&#45;&gt;Node3</title>
<path fill="none" stroke="midnightblue" d="M615.9,-185.43C594.25,-206.65 554.34,-242.86 514,-264.5 507.74,-267.86 500.95,-270.83 494.07,-273.43"/>
<polygon fill="midnightblue" stroke="midnightblue" points="618.65,-187.63 623.27,-178.1 613.72,-182.67 618.65,-187.63"/>
</g>
<!-- Node4 -->
<g id="node4" class="node">
<title>Node4</title>
<g id="a_node4"><a xlink:href="../../d2/d82/classTUIO_1_1TuioManager.html#a63983ba2eec017ec8a7378bae60db5a8" target="_top" xlink:title=" ">
<polygon fill="white" stroke="black" points="363.5,-224.5 363.5,-254.5 509.5,-254.5 509.5,-224.5 363.5,-224.5"/>
<text text-anchor="start" x="371.5" y="-242.5" font-family="Helvetica,sans-Serif" font-size="10.00">TUIO::TuioManager::</text>
<text text-anchor="middle" x="436.5" y="-231.5" font-family="Helvetica,sans-Serif" font-size="10.00">removeExternalTuioObject</text>
</a>
</g>
</g>
<!-- Node1&#45;&gt;Node4 -->
<g id="edge3" class="edge">
<title>Node1&#45;&gt;Node4</title>
<path fill="none" stroke="midnightblue" d="M600.43,-181.96C576.72,-191.73 543.57,-205.01 514,-215.5 505.47,-218.52 496.34,-221.56 487.47,-224.41"/>
<polygon fill="midnightblue" stroke="midnightblue" points="602.07,-185.07 609.97,-178.01 599.39,-178.6 602.07,-185.07"/>
</g>
<!-- Node5 -->
<g id="node5" class="node">
<title>Node5</title>
<g id="a_node5"><a xlink:href="../../d2/d82/classTUIO_1_1TuioManager.html#a88cfbca9c0782a152ea9339deceaf19d" target="_top" xlink:title=" ">
<polygon fill="white" stroke="black" points="379,-175.5 379,-205.5 494,-205.5 494,-175.5 379,-175.5"/>
<text text-anchor="start" x="387" y="-193.5" font-family="Helvetica,sans-Serif" font-size="10.00">TUIO::TuioManager::</text>
<text text-anchor="middle" x="436.5" y="-182.5" font-family="Helvetica,sans-Serif" font-size="10.00">removeTuioObject</text>
</a>
</g>
</g>
<!-- Node1&#45;&gt;Node5 -->
<g id="edge4" class="edge">
<title>Node1&#45;&gt;Node5</title>
<path fill="none" stroke="midnightblue" d="M539.62,-178.98C524.06,-180.73 508.35,-182.51 494.06,-184.12"/>
<polygon fill="midnightblue" stroke="midnightblue" points="540.26,-182.43 549.8,-177.83 539.47,-175.47 540.26,-182.43"/>
</g>
<!-- Node8 -->
<g id="node8" class="node">
<title>Node8</title>
<g id="a_node8"><a xlink:href="../../d2/d82/classTUIO_1_1TuioManager.html#abd2007ba7fce0494c2abfca7f737808f" target="_top" xlink:title=" ">
<polygon fill="white" stroke="black" points="150,-128.5 150,-158.5 313,-158.5 313,-128.5 150,-128.5"/>
<text text-anchor="start" x="158" y="-146.5" font-family="Helvetica,sans-Serif" font-size="10.00">TUIO::TuioManager::</text>
<text text-anchor="middle" x="231.5" y="-135.5" font-family="Helvetica,sans-Serif" font-size="10.00">stopUntouchedMovingObjects</text>
</a>
</g>
</g>
<!-- Node1&#45;&gt;Node8 -->
<g id="edge7" class="edge">
<title>Node1&#45;&gt;Node8</title>
<path fill="none" stroke="midnightblue" d="M539.26,-162.67C470.75,-158.39 378.59,-152.63 313.22,-148.55"/>
<polygon fill="midnightblue" stroke="midnightblue" points="539.42,-166.19 549.62,-163.32 539.86,-159.2 539.42,-166.19"/>
</g>
<!-- Node9 -->
<g id="node9" class="node">
<title>Node9</title>
<g id="a_node9"><a xlink:href="../../d0/dd3/classTUIO_1_1TuioObject.html#acbe697c914b68a82802a2239b7125e9c" target="_top" xlink:title=" ">
<polygon fill="white" stroke="black" points="359,-99 359,-118 514,-118 514,-99 359,-99"/>
<text text-anchor="middle" x="436.5" y="-106" font-family="Helvetica,sans-Serif" font-size="10.00">TUIO::TuioObject::TuioObject</text>
</a>
</g>
</g>
<!-- Node1&#45;&gt;Node9 -->
<g id="edge9" class="edge">
<title>Node1&#45;&gt;Node9</title>
<path fill="none" stroke="midnightblue" d="M591.72,-155.95C555.03,-144.66 501.92,-128.32 468.58,-118.06"/>
<polygon fill="midnightblue" stroke="midnightblue" points="591.01,-159.4 601.6,-158.99 593.07,-152.71 591.01,-159.4"/>
</g>
<!-- Node10 -->
<g id="node10" class="node">
<title>Node10</title>
<g id="a_node10"><a xlink:href="../../d2/d82/classTUIO_1_1TuioManager.html#a378d02744ada2cde0d0887612d5cb7c1" target="_top" xlink:title=" ">
<polygon fill="white" stroke="black" points="365.5,-49.5 365.5,-79.5 507.5,-79.5 507.5,-49.5 365.5,-49.5"/>
<text text-anchor="start" x="373.5" y="-67.5" font-family="Helvetica,sans-Serif" font-size="10.00">TUIO::TuioManager::</text>
<text text-anchor="middle" x="436.5" y="-56.5" font-family="Helvetica,sans-Serif" font-size="10.00">updateExternalTuioObject</text>
</a>
</g>
</g>
<!-- Node1&#45;&gt;Node10 -->
<g id="edge10" class="edge">
<title>Node1&#45;&gt;Node10</title>
<path fill="none" stroke="midnightblue" d="M612.17,-152.43C589.36,-135.01 550.72,-107.33 514,-89.5 506.46,-85.84 498.25,-82.52 490.1,-79.59"/>
<polygon fill="midnightblue" stroke="midnightblue" points="610.33,-155.43 620.38,-158.78 614.61,-149.89 610.33,-155.43"/>
</g>
<!-- Node11 -->
<g id="node11" class="node">
<title>Node11</title>
<g id="a_node11"><a xlink:href="../../d2/d82/classTUIO_1_1TuioManager.html#ab1108e679103f0ba3c6b8fc80246b6c7" target="_top" xlink:title=" ">
<polygon fill="white" stroke="black" points="379,-0.5 379,-30.5 494,-30.5 494,-0.5 379,-0.5"/>
<text text-anchor="start" x="387" y="-18.5" font-family="Helvetica,sans-Serif" font-size="10.00">TUIO::TuioManager::</text>
<text text-anchor="middle" x="436.5" y="-7.5" font-family="Helvetica,sans-Serif" font-size="10.00">updateTuioObject</text>
</a>
</g>
</g>
<!-- Node1&#45;&gt;Node11 -->
<g id="edge11" class="edge">
<title>Node1&#45;&gt;Node11</title>
<path fill="none" stroke="midnightblue" d="M620.64,-150.42C601.47,-122.6 561.05,-69.38 514,-39.5 507.89,-35.62 501.11,-32.32 494.17,-29.54"/>
<polygon fill="midnightblue" stroke="midnightblue" points="617.8,-152.48 626.3,-158.81 623.61,-148.57 617.8,-152.48"/>
</g>
<!-- Node6 -->
<g id="node6" class="node">
<title>Node6</title>
<g id="a_node6"><a xlink:href="../../d2/d82/classTUIO_1_1TuioManager.html#aaa73f7d5e6ab45270a1d901e92a198b2" target="_top" xlink:title=" ">
<polygon fill="white" stroke="black" points="140,-177.5 140,-207.5 323,-207.5 323,-177.5 140,-177.5"/>
<text text-anchor="start" x="148" y="-195.5" font-family="Helvetica,sans-Serif" font-size="10.00">TUIO::TuioManager::</text>
<text text-anchor="middle" x="231.5" y="-184.5" font-family="Helvetica,sans-Serif" font-size="10.00">removeUntouchedStoppedObjects</text>
</a>
</g>
</g>
<!-- Node5&#45;&gt;Node6 -->
<g id="edge5" class="edge">
<title>Node5&#45;&gt;Node6</title>
<path fill="none" stroke="midnightblue" d="M368.62,-191.16C354.14,-191.3 338.6,-191.45 323.37,-191.6"/>
<polygon fill="midnightblue" stroke="midnightblue" points="368.99,-194.66 378.95,-191.06 368.92,-187.66 368.99,-194.66"/>
</g>
<!-- Node7 -->
<g id="node7" class="node">
<title>Node7</title>
<g id="a_node7"><a xlink:href="../../d8/dc8/classTUIO_1_1TuioServer.html#ab3b84d7f13f0cecc4709ae7ff0e89118" target="_top" xlink:title=" ">
<polygon fill="white" stroke="black" points="0,-152.5 0,-182.5 104,-182.5 104,-152.5 0,-152.5"/>
<text text-anchor="start" x="8" y="-170.5" font-family="Helvetica,sans-Serif" font-size="10.00">TUIO::TuioServer::</text>
<text text-anchor="middle" x="52" y="-159.5" font-family="Helvetica,sans-Serif" font-size="10.00">~TuioServer</text>
</a>
</g>
</g>
<!-- Node6&#45;&gt;Node7 -->
<g id="edge6" class="edge">
<title>Node6&#45;&gt;Node7</title>
<path fill="none" stroke="midnightblue" d="M129.86,-178.33C120.99,-177.08 112.28,-175.85 104.09,-174.7"/>
<polygon fill="midnightblue" stroke="midnightblue" points="129.54,-181.81 139.93,-179.74 130.52,-174.88 129.54,-181.81"/>
</g>
<!-- Node8&#45;&gt;Node7 -->
<g id="edge8" class="edge">
<title>Node8&#45;&gt;Node7</title>
<path fill="none" stroke="midnightblue" d="M139.56,-155.8C127.35,-157.45 115.2,-159.09 104.03,-160.6"/>
<polygon fill="midnightblue" stroke="midnightblue" points="140.36,-159.22 149.8,-154.41 139.42,-152.28 140.36,-159.22"/>
</g>
</g>
</svg>
