<?xml version="1.0" encoding="UTF-8" standalone="no"?>
<!DOCTYPE svg PUBLIC "-//W3C//DTD SVG 1.1//EN"
 "http://www.w3.org/Graphics/SVG/1.1/DTD/svg11.dtd">
<!-- Generated by graphviz version 2.43.0 (0)
 -->
<!-- Title: TUIO::TuioObject::isMoving Pages: 1 -->
<svg width="515pt" height="186pt"
 viewBox="0.00 0.00 515.00 186.00" xmlns="http://www.w3.org/2000/svg" xmlns:xlink="http://www.w3.org/1999/xlink">
<g id="graph0" class="graph" transform="scale(1 1) rotate(0) translate(4 182)">
<title>TUIO::TuioObject::isMoving</title>
<polygon fill="white" stroke="transparent" points="-4,4 -4,-182 511,-182 511,4 -4,4"/>
<!-- Node1 -->
<g id="node1" class="node">
<title>Node1</title>
<g id="a_node1"><a xlink:title=" ">
<polygon fill="#bfbfbf" stroke="black" points="359,-79 359,-98 507,-98 507,-79 359,-79"/>
<text text-anchor="middle" x="433" y="-86" font-family="Helvetica,sans-Serif" font-size="10.00">TUIO::TuioObject::isMoving</text>
</a>
</g>
</g>
<!-- Node2 -->
<g id="node2" class="node">
<title>Node2</title>
<g id="a_node2"><a xlink:href="../../d2/d82/classTUIO_1_1TuioManager.html#aaa73f7d5e6ab45270a1d901e92a198b2" target="_top" xlink:title=" ">
<polygon fill="white" stroke="black" points="140,-147.5 140,-177.5 323,-177.5 323,-147.5 140,-147.5"/>
<text text-anchor="start" x="148" y="-165.5" font-family="Helvetica,sans-Serif" font-size="10.00">TUIO::TuioManager::</text>
<text text-anchor="middle" x="231.5" y="-154.5" font-family="Helvetica,sans-Serif" font-size="10.00">removeUntouchedStoppedObjects</text>
</a>
</g>
</g>
<!-- Node1&#45;&gt;Node2 -->
<g id="edge1" class="edge">
<title>Node1&#45;&gt;Node2</title>
<path fill="none" stroke="midnightblue" d="M404.53,-102.69C382.81,-113.52 351.51,-128.27 323,-138.5 313.97,-141.74 304.3,-144.76 294.76,-147.49"/>
<polygon fill="midnightblue" stroke="midnightblue" points="406.15,-105.79 413.5,-98.17 403,-99.54 406.15,-105.79"/>
</g>
<!-- Node4 -->
<g id="node4" class="node">
<title>Node4</title>
<g id="a_node4"><a xlink:href="../../d2/d82/classTUIO_1_1TuioManager.html#abd2007ba7fce0494c2abfca7f737808f" target="_top" xlink:title=" ">
<polygon fill="white" stroke="black" points="150,-98.5 150,-128.5 313,-128.5 313,-98.5 150,-98.5"/>
<text text-anchor="start" x="158" y="-116.5" font-family="Helvetica,sans-Serif" font-size="10.00">TUIO::TuioManager::</text>
<text text-anchor="middle" x="231.5" y="-105.5" font-family="Helvetica,sans-Serif" font-size="10.00">stopUntouchedMovingObjects</text>
</a>
</g>
</g>
<!-- Node1&#45;&gt;Node4 -->
<g id="edge3" class="edge">
<title>Node1&#45;&gt;Node4</title>
<path fill="none" stroke="midnightblue" d="M348.6,-98.95C336.84,-100.43 324.76,-101.94 313.05,-103.41"/>
<polygon fill="midnightblue" stroke="midnightblue" points="349.36,-102.38 358.85,-97.67 348.49,-95.44 349.36,-102.38"/>
</g>
<!-- Node5 -->
<g id="node5" class="node">
<title>Node5</title>
<g id="a_node5"><a xlink:href="../../d2/d82/classTUIO_1_1TuioManager.html#a378d02744ada2cde0d0887612d5cb7c1" target="_top" xlink:title=" ">
<polygon fill="white" stroke="black" points="160.5,-49.5 160.5,-79.5 302.5,-79.5 302.5,-49.5 160.5,-49.5"/>
<text text-anchor="start" x="168.5" y="-67.5" font-family="Helvetica,sans-Serif" font-size="10.00">TUIO::TuioManager::</text>
<text text-anchor="middle" x="231.5" y="-56.5" font-family="Helvetica,sans-Serif" font-size="10.00">updateExternalTuioObject</text>
</a>
</g>
</g>
<!-- Node1&#45;&gt;Node5 -->
<g id="edge5" class="edge">
<title>Node1&#45;&gt;Node5</title>
<path fill="none" stroke="midnightblue" d="M348.85,-78.5C333.48,-76.65 317.58,-74.74 302.65,-72.94"/>
<polygon fill="midnightblue" stroke="midnightblue" points="348.5,-81.98 358.85,-79.7 349.34,-75.03 348.5,-81.98"/>
</g>
<!-- Node6 -->
<g id="node6" class="node">
<title>Node6</title>
<g id="a_node6"><a xlink:href="../../d2/d82/classTUIO_1_1TuioManager.html#ab1108e679103f0ba3c6b8fc80246b6c7" target="_top" xlink:title=" ">
<polygon fill="white" stroke="black" points="174,-0.5 174,-30.5 289,-30.5 289,-0.5 174,-0.5"/>
<text text-anchor="start" x="182" y="-18.5" font-family="Helvetica,sans-Serif" font-size="10.00">TUIO::TuioManager::</text>
<text text-anchor="middle" x="231.5" y="-7.5" font-family="Helvetica,sans-Serif" font-size="10.00">updateTuioObject</text>
</a>
</g>
</g>
<!-- Node1&#45;&gt;Node6 -->
<g id="edge6" class="edge">
<title>Node1&#45;&gt;Node6</title>
<path fill="none" stroke="midnightblue" d="M403.36,-74.52C381.64,-64.25 350.87,-50.43 323,-40.5 312.25,-36.67 300.61,-33.07 289.38,-29.85"/>
<polygon fill="midnightblue" stroke="midnightblue" points="402.12,-77.81 412.66,-78.96 405.14,-71.49 402.12,-77.81"/>
</g>
<!-- Node3 -->
<g id="node3" class="node">
<title>Node3</title>
<g id="a_node3"><a xlink:href="../../d8/dc8/classTUIO_1_1TuioServer.html#ab3b84d7f13f0cecc4709ae7ff0e89118" target="_top" xlink:title=" ">
<polygon fill="white" stroke="black" points="0,-122.5 0,-152.5 104,-152.5 104,-122.5 0,-122.5"/>
<text text-anchor="start" x="8" y="-140.5" font-family="Helvetica,sans-Serif" font-size="10.00">TUIO::TuioServer::</text>
<text text-anchor="middle" x="52" y="-129.5" font-family="Helvetica,sans-Serif" font-size="10.00">~TuioServer</text>
</a>
</g>
</g>
<!-- Node2&#45;&gt;Node3 -->
<g id="edge2" class="edge">
<title>Node2&#45;&gt;Node3</title>
<path fill="none" stroke="midnightblue" d="M129.86,-148.33C120.99,-147.08 112.28,-145.85 104.09,-144.7"/>
<polygon fill="midnightblue" stroke="midnightblue" points="129.54,-151.81 139.93,-149.74 130.52,-144.88 129.54,-151.81"/>
</g>
<!-- Node4&#45;&gt;Node3 -->
<g id="edge4" class="edge">
<title>Node4&#45;&gt;Node3</title>
<path fill="none" stroke="midnightblue" d="M139.56,-125.8C127.35,-127.45 115.2,-129.09 104.03,-130.6"/>
<polygon fill="midnightblue" stroke="midnightblue" points="140.36,-129.22 149.8,-124.41 139.42,-122.28 140.36,-129.22"/>
</g>
</g>
</svg>
