<?xml version="1.0" encoding="UTF-8" standalone="no"?>
<!DOCTYPE svg PUBLIC "-//W3C//DTD SVG 1.1//EN"
 "http://www.w3.org/Graphics/SVG/1.1/DTD/svg11.dtd">
<!-- Generated by graphviz version 2.43.0 (0)
 -->
<!-- Title: TUIO::TuioObject::getRotationAccel Pages: 1 -->
<svg width="508pt" height="176pt"
 viewBox="0.00 0.00 508.00 176.00" xmlns="http://www.w3.org/2000/svg" xmlns:xlink="http://www.w3.org/1999/xlink">
<g id="graph0" class="graph" transform="scale(1 1) rotate(0) translate(4 172)">
<title>TUIO::TuioObject::getRotationAccel</title>
<polygon fill="white" stroke="transparent" points="-4,4 -4,-172 504,-172 504,4 -4,4"/>
<!-- Node1 -->
<g id="node1" class="node">
<title>Node1</title>
<g id="a_node1"><a xlink:title=" ">
<polygon fill="#bfbfbf" stroke="black" points="339,-71.5 339,-101.5 500,-101.5 500,-71.5 339,-71.5"/>
<text text-anchor="start" x="347" y="-89.5" font-family="Helvetica,sans-Serif" font-size="10.00">TUIO::TuioObject::getRotation</text>
<text text-anchor="middle" x="419.5" y="-78.5" font-family="Helvetica,sans-Serif" font-size="10.00">Accel</text>
</a>
</g>
</g>
<!-- Node2 -->
<g id="node2" class="node">
<title>Node2</title>
<g id="a_node2"><a xlink:href="../../d2/d82/classTUIO_1_1TuioManager.html#abd2007ba7fce0494c2abfca7f737808f" target="_top" xlink:title=" ">
<polygon fill="white" stroke="black" points="140,-137.5 140,-167.5 303,-167.5 303,-137.5 140,-137.5"/>
<text text-anchor="start" x="148" y="-155.5" font-family="Helvetica,sans-Serif" font-size="10.00">TUIO::TuioManager::</text>
<text text-anchor="middle" x="221.5" y="-144.5" font-family="Helvetica,sans-Serif" font-size="10.00">stopUntouchedMovingObjects</text>
</a>
</g>
</g>
<!-- Node1&#45;&gt;Node2 -->
<g id="edge1" class="edge">
<title>Node1&#45;&gt;Node2</title>
<path fill="none" stroke="midnightblue" d="M367.88,-104.96C347.75,-112.17 324.34,-120.4 303,-127.5 293,-130.83 282.26,-134.26 271.98,-137.47"/>
<polygon fill="midnightblue" stroke="midnightblue" points="369.25,-108.19 377.48,-101.51 366.88,-101.6 369.25,-108.19"/>
</g>
<!-- Node4 -->
<g id="node4" class="node">
<title>Node4</title>
<g id="a_node4"><a xlink:href="../../d0/dd3/classTUIO_1_1TuioObject.html#adcddf5a07dfe0ac103a1cc2214f3990d" target="_top" xlink:title=" ">
<polygon fill="white" stroke="black" points="153,-99 153,-118 290,-118 290,-99 153,-99"/>
<text text-anchor="middle" x="221.5" y="-106" font-family="Helvetica,sans-Serif" font-size="10.00">TUIO::TuioObject::update</text>
</a>
</g>
</g>
<!-- Node1&#45;&gt;Node4 -->
<g id="edge3" class="edge">
<title>Node1&#45;&gt;Node4</title>
<path fill="none" stroke="midnightblue" d="M328.51,-96.6C315.64,-98.05 302.58,-99.51 290.23,-100.9"/>
<polygon fill="midnightblue" stroke="midnightblue" points="329.23,-100.04 338.78,-95.45 328.45,-93.09 329.23,-100.04"/>
</g>
<!-- Node5 -->
<g id="node5" class="node">
<title>Node5</title>
<g id="a_node5"><a xlink:href="../../d2/d82/classTUIO_1_1TuioManager.html#a378d02744ada2cde0d0887612d5cb7c1" target="_top" xlink:title=" ">
<polygon fill="white" stroke="black" points="150.5,-49.5 150.5,-79.5 292.5,-79.5 292.5,-49.5 150.5,-49.5"/>
<text text-anchor="start" x="158.5" y="-67.5" font-family="Helvetica,sans-Serif" font-size="10.00">TUIO::TuioManager::</text>
<text text-anchor="middle" x="221.5" y="-56.5" font-family="Helvetica,sans-Serif" font-size="10.00">updateExternalTuioObject</text>
</a>
</g>
</g>
<!-- Node1&#45;&gt;Node5 -->
<g id="edge4" class="edge">
<title>Node1&#45;&gt;Node5</title>
<path fill="none" stroke="midnightblue" d="M328.69,-76.42C316.62,-75.06 304.38,-73.69 292.71,-72.38"/>
<polygon fill="midnightblue" stroke="midnightblue" points="328.45,-79.91 338.78,-77.55 329.23,-72.96 328.45,-79.91"/>
</g>
<!-- Node6 -->
<g id="node6" class="node">
<title>Node6</title>
<g id="a_node6"><a xlink:href="../../d2/d82/classTUIO_1_1TuioManager.html#ab1108e679103f0ba3c6b8fc80246b6c7" target="_top" xlink:title=" ">
<polygon fill="white" stroke="black" points="164,-0.5 164,-30.5 279,-30.5 279,-0.5 164,-0.5"/>
<text text-anchor="start" x="172" y="-18.5" font-family="Helvetica,sans-Serif" font-size="10.00">TUIO::TuioManager::</text>
<text text-anchor="middle" x="221.5" y="-7.5" font-family="Helvetica,sans-Serif" font-size="10.00">updateTuioObject</text>
</a>
</g>
</g>
<!-- Node1&#45;&gt;Node6 -->
<g id="edge5" class="edge">
<title>Node1&#45;&gt;Node6</title>
<path fill="none" stroke="midnightblue" d="M373.46,-67.62C352.23,-58.96 326.47,-48.8 303,-40.5 293.34,-37.08 282.95,-33.67 272.94,-30.5"/>
<polygon fill="midnightblue" stroke="midnightblue" points="372.29,-70.92 382.87,-71.48 374.95,-64.45 372.29,-70.92"/>
</g>
<!-- Node3 -->
<g id="node3" class="node">
<title>Node3</title>
<g id="a_node3"><a xlink:href="../../d8/dc8/classTUIO_1_1TuioServer.html#ab3b84d7f13f0cecc4709ae7ff0e89118" target="_top" xlink:title=" ">
<polygon fill="white" stroke="black" points="0,-137.5 0,-167.5 104,-167.5 104,-137.5 0,-137.5"/>
<text text-anchor="start" x="8" y="-155.5" font-family="Helvetica,sans-Serif" font-size="10.00">TUIO::TuioServer::</text>
<text text-anchor="middle" x="52" y="-144.5" font-family="Helvetica,sans-Serif" font-size="10.00">~TuioServer</text>
</a>
</g>
</g>
<!-- Node2&#45;&gt;Node3 -->
<g id="edge2" class="edge">
<title>Node2&#45;&gt;Node3</title>
<path fill="none" stroke="midnightblue" d="M129.53,-152.5C120.9,-152.5 112.37,-152.5 104.31,-152.5"/>
<polygon fill="midnightblue" stroke="midnightblue" points="129.69,-156 139.69,-152.5 129.69,-149 129.69,-156"/>
</g>
</g>
</svg>
