<?xml version="1.0" encoding="UTF-8" standalone="no"?>
<!DOCTYPE svg PUBLIC "-//W3C//DTD SVG 1.1//EN"
 "http://www.w3.org/Graphics/SVG/1.1/DTD/svg11.dtd">
<!-- Generated by graphviz version 2.43.0 (0)
 -->
<!-- Title: TUIO::TuioServer Pages: 1 -->
<svg width="257pt" height="152pt"
 viewBox="0.00 0.00 256.50 152.00" xmlns="http://www.w3.org/2000/svg" xmlns:xlink="http://www.w3.org/1999/xlink">
<g id="graph0" class="graph" transform="scale(1 1) rotate(0) translate(4 148)">
<title>TUIO::TuioServer</title>
<polygon fill="white" stroke="transparent" points="-4,4 -4,-148 252.5,-148 252.5,4 -4,4"/>
<!-- Node1 -->
<g id="node1" class="node">
<title>Node1</title>
<g id="a_node1"><a xlink:title=" ">
<polygon fill="#bfbfbf" stroke="black" points="71.5,-0.5 71.5,-19.5 169.5,-19.5 169.5,-0.5 71.5,-0.5"/>
<text text-anchor="middle" x="120.5" y="-7.5" font-family="Helvetica,sans-Serif" font-size="10.00">TUIO::TuioServer</text>
</a>
</g>
</g>
<!-- Node2 -->
<g id="node2" class="node">
<title>Node2</title>
<g id="a_node2"><a xlink:href="../../d2/d82/classTUIO_1_1TuioManager.html" target="_top" xlink:title=" ">
<polygon fill="white" stroke="black" points="66,-57.5 66,-76.5 175,-76.5 175,-57.5 66,-57.5"/>
<text text-anchor="middle" x="120.5" y="-64.5" font-family="Helvetica,sans-Serif" font-size="10.00">TUIO::TuioManager</text>
</a>
</g>
</g>
<!-- Node2&#45;&gt;Node1 -->
<g id="edge1" class="edge">
<title>Node2&#45;&gt;Node1</title>
<path fill="none" stroke="midnightblue" d="M120.5,-47.12C120.5,-37.82 120.5,-27.06 120.5,-19.71"/>
<polygon fill="midnightblue" stroke="midnightblue" points="117,-47.41 120.5,-57.41 124,-47.41 117,-47.41"/>
</g>
<!-- Node3 -->
<g id="node3" class="node">
<title>Node3</title>
<g id="a_node3"><a xlink:href="../../d4/dc1/classTUIO_1_1TuioDispatcher.html" target="_top" xlink:title=" ">
<polygon fill="white" stroke="black" points="0,-124.5 0,-143.5 119,-143.5 119,-124.5 0,-124.5"/>
<text text-anchor="middle" x="59.5" y="-131.5" font-family="Helvetica,sans-Serif" font-size="10.00">TUIO::TuioDispatcher</text>
</a>
</g>
</g>
<!-- Node3&#45;&gt;Node2 -->
<g id="edge2" class="edge">
<title>Node3&#45;&gt;Node2</title>
<path fill="none" stroke="midnightblue" d="M74.86,-116.63C86.79,-103.92 102.86,-86.8 112.4,-76.63"/>
<polygon fill="midnightblue" stroke="midnightblue" points="72.02,-114.55 67.73,-124.23 77.12,-119.34 72.02,-114.55"/>
</g>
<!-- Node4 -->
<g id="node4" class="node">
<title>Node4</title>
<g id="a_node4"><a xlink:href="../../d0/db2/classTUIO_1_1TuioTime.html" target="_top" xlink:title=" ">
<polygon fill="white" stroke="black" points="137,-124.5 137,-143.5 228,-143.5 228,-124.5 137,-124.5"/>
<text text-anchor="middle" x="182.5" y="-131.5" font-family="Helvetica,sans-Serif" font-size="10.00">TUIO::TuioTime</text>
</a>
</g>
</g>
<!-- Node4&#45;&gt;Node2 -->
<g id="edge3" class="edge">
<title>Node4&#45;&gt;Node2</title>
<path fill="none" stroke="#9a32cd" stroke-dasharray="5,2" d="M167.24,-117C155.08,-104.25 138.52,-86.89 128.73,-76.63"/>
<polygon fill="#9a32cd" stroke="#9a32cd" points="164.7,-119.41 174.14,-124.23 169.77,-114.58 164.7,-119.41"/>
<text text-anchor="middle" x="201.5" y="-98" font-family="Helvetica,sans-Serif" font-size="10.00"> currentFrameTime</text>
</g>
</g>
</svg>
